<svg width="27" height="27" viewBox="0 0 27 27" fill="none" xmlns="http://www.w3.org/2000/svg">
<path d="M12.2445 2.4583C12.4377 2.4583 12.5945 2.31107 12.5945 2.1296V1.02109C12.5945 0.839615 12.4377 0.692383 12.2445 0.692383C12.0513 0.692383 11.8945 0.839615 11.8945 1.02109V2.1296C11.8945 2.31107 12.0513 2.4583 12.2445 2.4583Z" fill="#DE1D71"/>
<path d="M12.2445 25.0035C12.0513 25.0035 11.8945 25.1508 11.8945 25.3322V26.4408C11.8945 26.6222 12.0513 26.7695 12.2445 26.7695C12.4377 26.7695 12.5945 26.6222 12.5945 26.4408V25.3322C12.5945 25.1508 12.4377 25.0035 12.2445 25.0035Z" fill="#DE1D71"/>
<path d="M21.2263 21.7019C21.0896 21.5735 20.8681 21.5735 20.7314 21.7019C20.5947 21.8303 20.5947 22.0383 20.7314 22.1667L21.5658 22.9504C21.6342 23.0146 21.7235 23.0467 21.8133 23.0467C21.903 23.0467 21.9924 23.0146 22.0607 22.9504C22.1974 22.822 22.1974 22.614 22.0607 22.4856L21.2263 21.7019Z" fill="#DE1D71"/>
<path d="M25.7763 13.4022H24.5961C24.4029 13.4022 24.2461 13.5495 24.2461 13.7309C24.2461 13.9124 24.4029 14.0596 24.5961 14.0596H25.7763C25.9696 14.0596 26.1263 13.9124 26.1263 13.7309C26.1263 13.5495 25.9696 13.4022 25.7763 13.4022Z" fill="#DE1D71"/>
<path d="M20.9789 5.85611C21.0687 5.85611 21.158 5.82401 21.2263 5.75981L22.0607 4.97615C22.1974 4.84775 22.1974 4.63974 22.0607 4.51134C21.924 4.38294 21.7025 4.38294 21.5658 4.51134L20.7314 5.29501C20.5947 5.42341 20.5947 5.63141 20.7314 5.75981C20.7998 5.82401 20.8891 5.85611 20.9789 5.85611Z" fill="#DE1D71"/>
<path d="M23.2852 9.41021L22.5745 9.58142C21.9037 9.74303 21.2411 9.35528 21.1311 8.67406C20.9898 7.79623 20.8436 6.88888 20.1864 6.2717C19.5293 5.65453 18.5628 5.51714 17.6281 5.38403C17.0451 5.30104 16.7786 4.66599 17.0924 4.16774L17.4012 3.67761C17.4996 3.52139 17.4445 3.3198 17.2781 3.22736C17.1114 3.13448 16.8967 3.18712 16.7987 3.34291L16.4447 3.90498C16.0801 4.48379 15.3432 4.67224 14.7832 4.27937C14.0139 3.73967 13.2183 3.18156 12.244 3.18156C11.2697 3.18156 10.474 3.73967 9.70459 4.2798C9.24425 4.6029 8.63893 4.35831 8.49071 3.81578L8.32176 3.1974C8.27369 3.02149 8.0832 2.91578 7.89568 2.96072C7.70861 3.00609 7.5956 3.18499 7.64368 3.3609L7.78962 3.89505C7.97886 4.58772 7.57053 5.28288 6.85964 5.38404C5.92522 5.51672 4.95914 5.65411 4.30178 6.27128C3.64443 6.88845 3.49838 7.79624 3.35688 8.67364C3.26546 9.2422 2.65546 9.50699 2.1521 9.22725L1.54022 8.88721C1.37481 8.79476 1.15948 8.84698 1.06083 9.00277C0.962394 9.15899 1.01754 9.36057 1.18387 9.45302L1.83881 9.817C2.40565 10.132 2.58458 10.8385 2.18094 11.3461C1.6063 12.0685 1.01207 12.8154 1.01207 13.7309C1.01207 14.6464 1.6063 15.3932 2.18094 16.1157C2.51177 16.5317 2.28731 17.1115 1.77057 17.236L1.0287 17.4146C0.841632 17.4596 0.728617 17.6389 0.776695 17.8148C0.81725 17.9633 0.959431 18.0618 1.11551 18.0618C1.14422 18.0618 1.17361 18.0584 1.20277 18.0515L1.91386 17.8802C2.5845 17.7187 3.24704 18.1062 3.35665 18.7872C3.49815 19.6651 3.64443 20.5728 4.30178 21.19C4.95913 21.8072 5.92544 21.9446 6.85986 22.0777C7.4429 22.1606 7.70962 22.7958 7.39573 23.2941L7.08703 23.7841C6.9886 23.9403 7.04374 24.1419 7.21007 24.2344C7.26589 24.2656 7.32741 24.2802 7.38802 24.2802C7.50765 24.2802 7.62408 24.2224 7.68947 24.1188L8.04395 23.5561C8.40833 22.9776 9.14503 22.7892 9.70459 23.1819C10.474 23.722 11.2697 24.2802 12.244 24.2802C13.2183 24.2802 14.0139 23.722 14.7832 23.1823C15.2438 22.8592 15.8493 23.1037 15.9975 23.6465L16.1662 24.2643C16.2068 24.4128 16.349 24.5113 16.5048 24.5113C16.534 24.5113 16.5631 24.5079 16.5923 24.501C16.7796 24.4561 16.8922 24.2767 16.8443 24.1008L16.6983 23.5663C16.5092 22.8738 16.9174 22.1789 17.6281 22.0777C18.5628 21.945 19.5289 21.8076 20.186 21.1904C20.8431 20.5733 20.9894 19.6655 21.1311 18.7877C21.2228 18.2193 21.8324 17.9546 22.3356 18.2343L22.948 18.5745C23.004 18.6058 23.0651 18.6203 23.1257 18.6203C23.2456 18.6203 23.3622 18.5625 23.4274 18.459C23.5258 18.3027 23.4707 18.1012 23.3043 18.0087L22.6494 17.6448C22.0824 17.3297 21.9035 16.6233 22.3073 16.1157C22.8819 15.3932 23.4761 14.6459 23.4761 13.7309C23.4761 12.8158 22.8819 12.0685 22.3073 11.3461C21.9764 10.9301 22.2007 10.3503 22.7174 10.2258L23.4593 10.0471C23.6466 10.0021 23.7591 9.82281 23.7113 9.64691C23.663 9.47057 23.4702 9.36699 23.2852 9.41021ZM18.0054 13.911L16.4679 14.9609C16.1576 15.1728 16.0291 15.5447 16.1471 15.8871L16.7345 17.5854C16.9505 18.209 16.7254 18.8608 16.1603 19.2465C15.8778 19.4391 15.5542 19.5354 15.2307 19.5354C14.9067 19.5354 14.5831 19.4391 14.3001 19.246L12.7626 18.1966C12.4522 17.9852 12.0357 17.9852 11.7254 18.1966L10.1874 19.246C9.62279 19.6321 8.89344 19.6321 8.32791 19.2465C7.76307 18.8613 7.53727 18.209 7.75305 17.5854L8.34068 15.8871C8.45916 15.5447 8.33042 15.1723 8.02054 14.9609L6.48209 13.911C5.91724 13.5258 5.69167 12.874 5.90745 12.2504C6.12322 11.6268 6.71381 11.2236 7.41195 11.2236H9.31314C9.69661 11.2236 10.0336 10.9938 10.1519 10.6514L10.7395 8.95312C10.9553 8.32909 11.5456 7.92635 12.244 7.92635C12.9421 7.92635 13.5327 8.3291 13.7483 8.95312L14.3357 10.6514C14.4541 10.9938 14.7914 11.2236 15.1746 11.2236H17.0758C17.7739 11.2236 18.3645 11.6268 18.5805 12.2504C18.7961 12.874 18.5705 13.5258 18.0054 13.911Z" fill="#DE1D71"/>
</svg>
