<svg width="29" height="25" viewBox="0 0 29 25" fill="none" xmlns="http://www.w3.org/2000/svg">
<path d="M26.8011 6.48975H2.01085C1.61636 6.48975 1.23804 6.63693 0.959091 6.89891C0.680147 7.1609 0.523438 7.51623 0.523438 7.88673C0.523438 8.25724 0.680147 8.61257 0.959091 8.87455C1.23804 9.13654 1.61636 9.28372 2.01085 9.28372H26.8011C27.1956 9.28372 27.5739 9.13654 27.8528 8.87455C28.1318 8.61257 28.2885 8.25724 28.2885 7.88673C28.2885 7.51623 28.1318 7.1609 27.8528 6.89891C27.5739 6.63693 27.1956 6.48975 26.8011 6.48975Z" fill="#DE1D71"/>
<path d="M3.00391 23.2536C3.00391 23.6241 3.16062 23.9794 3.43956 24.2414C3.7185 24.5034 4.09683 24.6506 4.49132 24.6506H24.3235C24.718 24.6506 25.0963 24.5034 25.3753 24.2414C25.6542 23.9794 25.8109 23.6241 25.8109 23.2536V20.215C25.8109 14.6922 21.3338 10.215 15.8109 10.215H13.0039C7.48106 10.215 3.00391 14.6922 3.00391 20.215V23.2536ZM8.80482 13.6977C9.13903 13.3363 9.55178 13.0462 10.0153 12.8471C10.4788 12.648 10.9824 12.5444 11.4921 12.5433C11.9619 12.5407 12.4274 12.6269 12.861 12.7966C13.2946 12.9664 13.6875 13.2163 14.0162 13.5315L14.127 13.636C14.2742 13.7748 14.504 13.7749 14.6514 13.6362C15.2907 13.0081 16.1601 12.6313 17.0838 12.5821C18.0076 12.5328 18.9168 12.8147 19.6277 13.3708C20.0121 13.6866 20.3202 14.0758 20.5315 14.5124C20.7428 14.9491 20.8523 15.423 20.8529 15.9026C20.8557 16.3441 20.7644 16.7817 20.5844 17.1896C20.4044 17.5974 20.1393 17.9673 19.8047 18.2775L15.464 22.3688C15.3234 22.502 15.156 22.6077 14.9716 22.6796C14.7871 22.7516 14.5893 22.7884 14.3896 22.7879C14.1898 22.7884 13.9919 22.7516 13.8073 22.6797C13.6228 22.6077 13.4553 22.5021 13.3147 22.3688L9.08495 18.3827C8.41863 17.7785 8.01964 16.9603 7.9677 16.0918C7.91577 15.2232 8.21472 14.3682 8.80482 13.6977Z" fill="#DE1D71"/>
<path d="M16.389 4.62713C16.2576 4.62713 16.1314 4.57807 16.0385 4.49074C15.9455 4.40341 15.8932 4.28497 15.8932 4.16147C15.892 3.87357 15.796 3.59307 15.6185 3.35834C15.3537 3.00809 14.9016 3.30318 14.9016 3.7423V4.42325C14.9016 5.05021 15.4099 5.55845 16.0368 5.55845H17.4978C19.0206 5.55845 20.2393 4.17618 19.3619 2.93157C19.0995 2.55938 18.7886 2.21534 18.4337 1.90821C17.336 0.958228 15.898 0.430847 14.4053 0.430847C12.9127 0.430847 11.4747 0.958228 10.377 1.90821C9.63318 2.55193 9.08253 3.35777 8.76689 4.24517C8.52405 4.92789 9.10361 5.55845 9.82824 5.55845H10.9188C11.5248 5.55845 11.9287 4.7675 11.9268 4.16147C11.9275 3.62493 12.1252 3.10503 12.4864 2.68939C12.8378 2.28509 13.3232 2.00349 13.8644 1.88896C13.8908 1.88336 13.91 1.86019 13.91 1.83316C13.91 1.70965 13.9623 1.59121 14.0552 1.50388C14.1482 1.41655 14.2743 1.36749 14.4058 1.36749C14.5373 1.36749 14.6634 1.41655 14.7564 1.50388C14.8494 1.59121 14.9016 1.70965 14.9016 1.83316C14.9016 1.86019 14.9208 1.88336 14.9473 1.88896C15.4885 2.00349 15.9738 2.28509 16.3252 2.68939C16.6865 3.10503 16.8841 3.62493 16.8849 4.16147C16.8849 4.28497 16.8326 4.40341 16.7396 4.49074C16.6467 4.57807 16.5205 4.62713 16.389 4.62713Z" fill="#DE1D71"/>
<path d="M14.0168 21.7113C14.0657 21.7574 14.1238 21.794 14.1878 21.8189C14.2518 21.8439 14.3204 21.8567 14.3897 21.8566C14.4589 21.8567 14.5274 21.8439 14.5913 21.8189C14.6552 21.794 14.7133 21.7574 14.762 21.7113L19.1058 17.6181C19.3475 17.3942 19.5389 17.1269 19.6688 16.8323C19.7987 16.5376 19.8643 16.2215 19.8619 15.9026C19.8613 15.5556 19.7819 15.2128 19.6289 14.8969C19.476 14.5811 19.253 14.2996 18.9749 14.0712C18.4537 13.671 17.7902 13.4714 17.1185 13.5127C16.4467 13.554 15.8167 13.8332 15.3555 14.2938L14.7407 14.8716C14.6946 14.915 14.6399 14.9494 14.5797 14.9729C14.5195 14.9964 14.4549 15.0085 14.3897 15.0085C14.3244 15.0085 14.2599 14.9964 14.1996 14.9729C14.1394 14.9494 14.0847 14.915 14.0386 14.8716L13.3118 14.1867C13.075 13.9594 12.7918 13.7792 12.4793 13.6569C12.1668 13.5346 11.8312 13.4726 11.4927 13.4747C11.1239 13.4751 10.7596 13.5499 10.4242 13.694C10.0889 13.8381 9.79049 14.0482 9.54912 14.3101C9.1234 14.8026 8.91117 15.4279 8.95483 16.061C8.99849 16.694 9.29481 17.2884 9.78463 17.7252L14.0168 21.7113ZM10.2983 14.9219C10.3847 14.8288 10.507 14.7718 10.6383 14.7633C10.7695 14.7549 10.899 14.7958 10.9981 14.877C11.0973 14.9582 11.158 15.0731 11.167 15.1963C11.1848 15.4413 10.9448 15.6384 10.9428 15.884C10.9425 15.9215 10.9455 15.9592 10.9517 15.9967C10.9782 16.1564 11.0628 16.3025 11.1912 16.4102L12.2795 17.4347C12.3268 17.4777 12.3645 17.5291 12.3904 17.5859C12.4163 17.6428 12.4299 17.7039 12.4303 17.7657C12.4308 17.8276 12.4182 17.8889 12.3932 17.9461C12.3682 18.0033 12.3313 18.0552 12.2846 18.0989C12.238 18.1425 12.1826 18.177 12.1217 18.2004C12.0607 18.2237 11.9954 18.2354 11.9296 18.2348C11.8637 18.2341 11.7987 18.2212 11.7382 18.1967C11.6778 18.1722 11.6231 18.1367 11.5775 18.0922L10.4867 17.0677C10.1784 16.7952 9.98861 16.425 9.95391 16.0287C9.9192 15.6324 10.0416 15.2381 10.2983 14.9219Z" fill="#DE1D71"/>
</svg>
