<svg width="132" height="105" viewBox="0 0 132 105" fill="none" xmlns="http://www.w3.org/2000/svg">
<g clip-path="url(#clip0_1040_4827)">
<path d="M131.914 50.4776C132.477 58.8714 130.22 65.8997 125.434 69.8814C120.729 73.8861 113.307 75.0107 105.005 73.4329C96.6926 71.9354 90.1664 68.2348 87.2078 62.813C84.163 57.3854 84.5767 50.0071 88.1155 42.3764C91.798 34.7629 96.4283 28.2796 101.001 23.9766C105.632 19.6793 110.21 17.4532 115.22 18.3883C120.235 19.3063 123.705 23.0184 126.491 28.687C129.214 34.3326 131.219 42.0436 131.926 50.4718L131.914 50.4776Z" fill="#FFA4AC"/>
<path d="M104.597 6.17915C104.011 5.18085 105.229 4.72759 105.815 4.73333C107.084 4.75054 108.653 5.62836 109.698 6.2939C110.583 6.85616 111.634 7.2291 112.697 7.02255C114.26 6.7242 115.432 5.69721 117.069 6.0644C118.706 6.4316 119.424 8.20445 121.01 8.49706C122.406 8.75524 123.589 7.66514 124.957 7.72251C126.514 7.81431 128.076 8.56017 128.432 10.2011C128.432 10.2011 121.613 16.2081 119.62 21.6644L107.894 19.4956C107.894 19.4956 108.182 12.2837 104.591 6.18489L104.597 6.17915Z" fill="#FFA4AC"/>
<path d="M121.833 20.7407C119.748 19.4498 117.508 18.3884 115.129 17.7859C112.665 17.1663 110.114 17.1261 107.621 17.5736C106.385 17.7974 106.874 19.6735 108.097 19.4555C111.096 18.9162 113.997 19.3293 116.738 20.362C116.14 21.6357 115.64 22.9553 114.957 24.1831C114.348 25.2732 116.002 26.2887 116.617 25.1929C116.996 24.5102 117.318 23.7987 117.634 23.0873C117.904 24.011 118.185 24.929 118.593 25.8011C118.817 26.283 119.472 26.4207 119.915 26.1797C120.403 25.9101 120.518 25.3421 120.294 24.8601C119.783 23.77 119.513 22.5939 119.162 21.4464C119.725 21.739 120.282 22.0545 120.828 22.3931C121.897 23.0529 122.902 21.3947 121.839 20.7349L121.833 20.7407Z" fill="#074785"/>
<path d="M119.546 40.4429C119.477 40.8502 119.31 41.1772 119.052 41.4182C118.782 41.6592 118.472 41.8428 118.104 41.9805C117.736 42.1124 117.357 42.1928 116.961 42.2157C116.57 42.2387 116.208 42.2272 115.886 42.1756C115.392 42.0952 114.921 41.9346 114.485 41.6936C114.042 41.4584 113.6 41.2117 113.146 40.9535C112.692 40.701 112.204 40.4429 111.675 40.1962C111.147 39.9437 110.549 39.7601 109.877 39.6511C109.613 39.6052 109.297 39.5823 108.924 39.5823C108.55 39.5823 108.188 39.6224 107.844 39.7142C107.499 39.806 107.194 39.9494 106.936 40.1503C106.677 40.3511 106.522 40.6207 106.465 40.9707C106.379 41.4928 106.603 42.0206 107.148 42.5427C107.689 43.0649 108.389 43.6329 109.251 44.241C110.113 44.8492 111.026 45.509 112.003 46.2262C112.974 46.9433 113.876 47.7293 114.692 48.5785C115.507 49.4334 116.145 50.3685 116.61 51.3898C117.07 52.4111 117.196 53.5471 116.989 54.7978C116.806 55.8764 116.478 56.7026 115.99 57.2821C115.507 57.8616 114.921 58.2919 114.243 58.5902C113.566 58.8828 112.813 59.0722 111.991 59.1582C111.164 59.2443 110.343 59.3246 109.521 59.3992C109.372 59.4049 109.263 59.5598 109.194 59.8639C109.125 60.168 109.062 60.5295 108.993 60.954C108.924 61.3729 108.837 61.8261 108.746 62.3023C108.648 62.7785 108.499 63.2146 108.28 63.599C108.068 63.9834 107.775 64.2875 107.413 64.5112C107.045 64.735 106.557 64.7981 105.942 64.6948C105.391 64.603 104.902 64.3334 104.477 63.8916C104.058 63.4441 103.891 62.9334 103.989 62.3482C104.029 62.113 104.069 61.8892 104.121 61.6769C104.173 61.4589 104.219 61.2352 104.259 60.9999C104.27 60.9139 104.299 60.7532 104.339 60.518C104.379 60.2828 104.402 60.0361 104.42 59.7664C104.431 59.5025 104.431 59.2558 104.402 59.0435C104.379 58.8312 104.328 58.6992 104.242 58.6591C103.713 58.4238 103.052 58.1484 102.265 57.8386C101.478 57.5288 100.737 57.1559 100.042 56.7256C99.3469 56.2953 98.7782 55.8076 98.3301 55.2511C97.882 54.7003 97.7154 54.0577 97.8418 53.329C97.9509 52.6578 98.3014 52.1471 98.8816 51.7914C99.4618 51.4357 100.077 51.3152 100.72 51.4242C101.277 51.516 101.806 51.6939 102.317 51.9578C102.828 52.2217 103.351 52.5029 103.885 52.8012C104.42 53.0995 104.971 53.3864 105.54 53.6618C106.109 53.9372 106.712 54.1265 107.355 54.2355C107.591 54.2757 107.884 54.2987 108.24 54.3159C108.596 54.3273 108.947 54.2987 109.291 54.2183C109.636 54.1438 109.935 54.0118 110.211 53.8339C110.481 53.6561 110.647 53.3864 110.705 53.0364C110.756 52.7151 110.659 52.3996 110.412 52.0898C110.165 51.7799 109.86 51.4873 109.498 51.2177C109.136 50.948 108.769 50.7013 108.384 50.4718C107.999 50.2423 107.7 50.0702 107.482 49.9382C106.614 49.4047 105.707 48.7965 104.77 48.1195C103.834 47.4367 102.989 46.6851 102.242 45.859C101.496 45.0328 100.91 44.1148 100.496 43.1222C100.077 42.1239 99.9674 41.0281 100.163 39.8347C100.335 38.7848 100.708 37.8668 101.271 37.075C101.834 36.289 102.53 35.6464 103.345 35.153C104.161 34.6596 105.063 34.3096 106.04 34.0973C107.022 33.885 108.027 33.8334 109.056 33.9481C109.286 33.2941 109.498 32.6343 109.699 31.963C109.9 31.2917 110.147 30.6377 110.435 29.9951C110.848 29.1345 111.566 28.7902 112.583 28.9623C112.991 29.0312 113.364 29.2033 113.709 29.4844C114.048 29.7656 114.186 30.127 114.111 30.5631C114.014 31.1483 113.864 31.7679 113.669 32.422C113.468 33.0761 113.29 33.69 113.135 34.2694C113.721 34.5161 114.335 34.803 114.967 35.1358C115.599 35.4685 116.208 35.8357 116.783 36.2431C117.357 36.6562 117.88 37.1209 118.345 37.6488C118.816 38.1766 119.161 38.7561 119.385 39.3929C119.443 39.5823 119.488 39.7658 119.517 39.9322C119.546 40.1044 119.552 40.2765 119.517 40.4486L119.546 40.4429Z" fill="#FD6085"/>
<path d="M98.7879 68.0799C99.5118 68.3036 100.236 68.5102 100.965 68.7282C101.861 68.9921 102.528 69.2101 103.229 69.4913C103.981 69.7953 104.711 70.1625 105.389 70.6101C105.067 70.4035 105.613 70.7994 105.619 70.8051C105.779 70.9371 105.923 71.0805 106.072 71.2297C106.187 71.3387 106.365 71.5797 106.584 71.9641C106.521 71.7977 106.532 71.8321 106.618 72.0559C106.704 72.2682 106.756 72.4977 106.819 72.7214C106.917 73.0829 106.865 73.387 106.825 73.6222C106.75 74.0754 106.716 74.0812 106.44 74.5516C106.331 74.741 106.067 75.0279 105.751 75.3434C104.671 76.4278 102.873 77.2654 101.373 77.9826C100.373 78.4588 100.201 79.9218 100.735 80.771C101.373 81.7865 102.534 81.884 103.527 81.4078C105.527 80.4554 107.509 79.4055 109.037 77.7703C110.841 75.8426 111.386 73.1058 110.404 70.6502C108.692 66.3472 103.568 65.3603 99.6382 64.1268C98.5811 63.794 97.4494 64.6776 97.231 65.6816C96.984 66.8349 97.7309 67.7586 98.7879 68.0856V68.0799Z" fill="#074785"/>
<path fill-rule="evenodd" clip-rule="evenodd" d="M103.687 78.3039C106.129 80.1284 105.405 85.6076 103.314 87.5354C102.073 88.6943 99.6546 88.6943 99.218 87.0878C98.5688 85.0625 98.8101 82.0562 99.4133 80.1743" fill="#074785"/>
<path d="M35.2562 69.5314C34.5496 69.8068 33.8545 70.1052 33.1536 70.392C32.2861 70.7478 31.637 70.9945 30.9074 71.2182C30.1318 71.4535 29.3333 71.6198 28.5232 71.7002C28.9024 71.66 28.2303 71.6944 28.2188 71.6944C28.0119 71.6944 27.8051 71.6715 27.5983 71.6485C27.4375 71.6313 27.1502 71.5625 26.7423 71.3961C26.8974 71.4821 26.8687 71.4649 26.6562 71.3444C26.4551 71.2297 26.2713 71.0863 26.0817 70.9486C25.7829 70.7248 25.6278 70.4551 25.5072 70.2543C25.2831 69.8527 25.3061 69.8298 25.2199 69.2847C25.1855 69.0667 25.2142 68.6823 25.2602 68.2405C25.421 66.7201 26.2942 64.9415 27.0181 63.4441C27.4949 62.4458 26.7136 61.2007 25.76 60.8737C24.6225 60.4836 23.6573 61.1376 23.1863 62.1302C22.2269 64.1268 21.3421 66.1808 21.1755 68.4184C20.9802 71.0518 22.2786 73.5247 24.5823 74.8213C28.6209 77.0991 33.2283 74.6607 37.0659 73.1575C38.0942 72.7558 38.4274 71.3559 37.9678 70.4379C37.4393 69.388 36.2731 69.1355 35.2447 69.5372L35.2562 69.5314Z" fill="#074785"/>
<path fill-rule="evenodd" clip-rule="evenodd" d="M26.5658 64.494C23.5153 64.6087 20.6371 59.8811 21.0565 57.0698C21.292 55.3888 23.1821 53.8741 24.5321 54.8552C26.3073 56.0256 28.0078 58.5156 28.7201 60.3631" fill="#074785"/>
<path d="M115.654 89.8992C115.275 89.532 114.522 84.4257 113.833 84.4659C113.143 84.506 112.546 89.5779 112.224 89.9107C111.581 90.5819 106.858 91.0524 106.899 91.7007C106.939 92.349 111.569 92.6531 112.224 93.29C112.592 93.6457 113.356 98.7692 114.045 98.729C114.735 98.6889 115.321 93.6342 115.654 93.29C116.274 92.6417 121.031 92.1425 120.991 91.4942C120.951 90.8401 116.28 90.5188 115.648 89.9049L115.654 89.8992Z" fill="#FD6085"/>
<path d="M86.8726 19.0424C86.4935 18.681 85.7409 13.569 85.0515 13.6091C84.3621 13.6493 83.7647 18.7211 83.4429 19.0539C82.7995 19.7252 78.0772 20.1956 78.1174 20.8497C78.1577 21.498 82.788 21.8021 83.4429 22.439C83.8106 22.7947 84.5747 27.9182 85.2641 27.878C85.9535 27.8379 86.5394 22.7832 86.8726 22.439C87.4931 21.7906 92.2498 21.2915 92.2096 20.6432C92.1694 19.9891 87.4988 19.6678 86.8669 19.0539L86.8726 19.0424Z" fill="#FD6085"/>
<path d="M98.0757 59.8238C102.43 71.8608 102.08 83.0946 96.7486 90.9262C91.5495 98.7577 81.1628 103.508 68.3632 104.684C55.5808 105.981 44.4703 103.307 37.8636 96.6119C31.1307 89.9451 28.6316 78.9867 30.5964 66.3415C32.7794 53.6618 36.8296 42.2329 41.707 34.0342C46.6763 25.8068 52.4327 20.6317 60.1538 19.903C67.8691 19.1399 74.516 23.1217 80.9674 30.2475C87.327 37.3676 93.497 47.8039 98.0699 59.8353L98.0757 59.8238Z" fill="#A089E4"/>
<path d="M39.4998 6.48327C38.2187 5.26694 39.8101 4.09651 40.6775 3.86128C42.5446 3.35639 45.1987 3.98177 47.0141 4.51534C48.548 4.96286 50.237 5.07187 51.7077 4.32601C53.8678 3.23017 55.1546 1.23929 57.6996 1.09012C60.2503 0.940948 62.0485 3.23017 64.4843 2.99493C66.6329 2.78839 67.9082 0.69424 69.9304 0.206562C72.2456 -0.309803 74.8481 0.126238 76.0545 2.36956C76.0545 2.36956 68.6091 14.0107 67.9829 22.8348L49.921 24.579C49.921 24.579 47.3129 13.9075 39.4941 6.48901L39.4998 6.48327Z" fill="#A089E4"/>
<path d="M73.4036 74.5804C73.4553 74.9361 73.4036 75.2516 73.2542 75.5213C73.0991 75.791 72.8865 76.0319 72.6165 76.2385C72.3465 76.445 72.0535 76.6171 71.7318 76.7376C71.4101 76.8638 71.1114 76.9499 70.8299 76.9901C70.3933 77.0532 69.9624 77.0474 69.5373 76.9671C69.1064 76.8868 68.6698 76.8007 68.2275 76.7147C67.7851 76.6229 67.3083 76.5426 66.8027 76.4794C66.2972 76.4106 65.7514 76.4221 65.1654 76.5081C64.9356 76.5426 64.6656 76.6057 64.3554 76.7089C64.0452 76.8065 63.7579 76.9384 63.4937 77.1106C63.2294 77.2827 63.0226 77.4835 62.8617 77.713C62.7009 77.9482 62.6434 78.2179 62.6894 78.522C62.7583 78.9809 63.0858 79.3539 63.6775 79.6465C64.2692 79.9391 64.9988 80.2202 65.8778 80.4956C66.751 80.771 67.6932 81.0751 68.6928 81.4079C69.6924 81.7406 70.646 82.1537 71.5537 82.6471C72.4614 83.1348 73.2427 83.7487 73.8976 84.4659C74.5526 85.1888 74.9604 86.101 75.1213 87.1969C75.2592 88.1436 75.2075 88.9181 74.9604 89.5263C74.7134 90.1344 74.3457 90.6508 73.8574 91.0754C73.3749 91.4999 72.8004 91.8557 72.1397 92.1483C71.4791 92.4409 70.8126 92.7277 70.152 93.0089C70.0256 93.0548 69.9796 93.2097 70.0084 93.4793C70.0313 93.749 70.0773 94.0703 70.129 94.4375C70.1807 94.8047 70.2382 95.2006 70.2841 95.6251C70.3301 96.0497 70.3186 96.4456 70.2439 96.8242C70.1692 97.1972 70.0084 97.5299 69.7671 97.8111C69.5258 98.0922 69.1351 98.2758 68.5951 98.3561C68.1126 98.425 67.6357 98.3332 67.1647 98.0807C66.6936 97.8225 66.4236 97.4381 66.3489 96.9332C66.3202 96.7267 66.2972 96.5316 66.2799 96.3366C66.2627 96.1415 66.2397 95.9464 66.211 95.7399C66.1995 95.6653 66.1765 95.5218 66.1478 95.321C66.1191 95.1202 66.0731 94.9022 66.0157 94.6785C65.9525 94.4547 65.8893 94.2539 65.8089 94.0818C65.7342 93.9096 65.6538 93.8178 65.5733 93.8064C65.0678 93.749 64.4473 93.6974 63.712 93.6515C62.9709 93.6056 62.2585 93.4965 61.5691 93.3244C60.8798 93.1523 60.2765 92.8999 59.7538 92.5614C59.231 92.2228 58.9265 91.7352 58.8346 91.0983C58.7484 90.5131 58.8978 89.9967 59.2884 89.5435C59.6791 89.096 60.1559 88.8263 60.7132 88.746C61.2015 88.6771 61.6898 88.6771 62.1838 88.7632C62.6779 88.8435 63.1892 88.9411 63.712 89.0443C64.2348 89.1476 64.7748 89.2394 65.3148 89.314C65.8606 89.3886 66.4121 89.3886 66.9751 89.3025C67.1819 89.2738 67.4347 89.2165 67.7334 89.1304C68.0321 89.0443 68.3136 88.9296 68.5779 88.7689C68.8422 88.614 69.0605 88.4247 69.2386 88.2009C69.4166 87.9772 69.4798 87.7133 69.4339 87.4092C69.3879 87.128 69.2271 86.8928 68.9341 86.7035C68.6468 86.5141 68.3136 86.3535 67.946 86.2273C67.5725 86.101 67.1991 85.992 66.82 85.906C66.4408 85.8199 66.1478 85.7511 65.9295 85.7052C65.0678 85.4986 64.1543 85.2347 63.1949 84.9191C62.2355 84.6036 61.3336 84.202 60.4949 83.7143C59.6561 83.2266 58.9265 82.6242 58.3118 81.907C57.6971 81.1898 57.3122 80.312 57.1571 79.2678C57.0192 78.3498 57.0824 77.4892 57.3409 76.6802C57.5994 75.877 58.0016 75.1541 58.5473 74.5287C59.0931 73.9034 59.7423 73.3698 60.5006 72.9337C61.2589 72.4977 62.0804 72.1879 62.9651 72.0043C62.9824 71.4019 62.9824 70.7937 62.9651 70.1855C62.9537 69.5774 62.9824 68.9635 63.0456 68.3553C63.1605 67.5349 63.6603 67.0529 64.5565 66.9209C64.9127 66.8693 65.2746 66.9095 65.6308 67.0529C65.987 67.1963 66.1995 67.4545 66.257 67.8389C66.3316 68.3496 66.3776 68.9061 66.3891 69.5028C66.4006 70.0995 66.4178 70.656 66.4408 71.1781C66.9981 71.224 67.5783 71.3043 68.1987 71.4076C68.8134 71.5109 69.4166 71.6543 70.0026 71.8436C70.5886 72.033 71.1516 72.2797 71.6801 72.5895C72.2087 72.905 72.651 73.2952 73.0072 73.7599C73.1049 73.9034 73.191 74.0411 73.2657 74.173C73.3346 74.305 73.3864 74.4484 73.4093 74.6033L73.4036 74.5804Z" fill="#F9D555"/>
<path d="M15.1395 33.5695C17.0065 37.5971 18.6898 41.4526 20.2466 45.5893C22.1137 50.5292 23.8085 55.5322 25.5779 60.5008C25.8479 61.2581 26.5775 61.7573 27.3933 61.5335C28.1286 61.3327 28.6974 60.4778 28.4274 59.7205C26.6579 54.7462 24.9574 49.7489 23.0961 44.809C21.4703 40.4945 19.6262 36.266 17.6902 32.0835C17.3512 31.3548 16.3114 31.177 15.668 31.5556C14.9269 31.9917 14.8005 32.8466 15.1395 33.5752V33.5695Z" fill="#074785"/>
<path d="M61.3217 45.2336C61.3907 50.3055 57.329 54.4765 52.2506 54.5454C47.1721 54.6142 42.9956 50.5579 42.9266 45.486C42.8577 40.4142 46.9193 36.2431 51.9978 36.1743C57.0763 36.1054 61.2528 40.1617 61.3217 45.2336Z" fill="white"/>
<path d="M59.6553 45.2566C59.707 49.0088 56.7024 52.0898 52.9453 52.1414C49.1881 52.1931 46.1031 49.1924 46.0514 45.4402C45.9997 41.6879 49.0043 38.6069 52.7557 38.5553C56.5129 38.5036 59.5979 41.5043 59.6496 45.2566H59.6553Z" fill="#074785"/>
<path d="M51.0144 56.8231C51.0489 57.9648 49.762 58.9287 48.142 58.9804C46.5162 59.032 45.1719 58.1484 45.1374 57.0124C45.1029 55.8707 46.3898 54.9068 48.0156 54.8552C49.6414 54.8035 50.9857 55.6871 51.0201 56.8231H51.0144Z" fill="#FFA4AC"/>
<path d="M80.9064 54.3102C80.9409 55.4118 79.6885 56.3469 78.1144 56.3928C76.5346 56.4445 75.2305 55.5896 75.196 54.488C75.1615 53.3865 76.4139 52.4513 77.988 52.4054C79.5679 52.3537 80.8719 53.2086 80.9064 54.3102Z" fill="#FFA4AC"/>
<path d="M58.2588 42.3821C57.4488 41.3321 56.4837 40.483 55.2083 40.0642C54.6338 39.8749 54.404 40.7814 54.9728 40.965C55.9954 41.3035 56.8111 42.0206 57.4603 42.864C57.8222 43.3345 58.6265 42.864 58.2588 42.3821Z" fill="white"/>
<path d="M53.7073 39.5249C53.558 39.4962 53.4144 39.4675 53.2707 39.4388C53.018 39.3929 52.7709 39.5134 52.702 39.7716C52.6388 40.0068 52.7882 40.2937 53.0352 40.3396C53.1788 40.3683 53.3282 40.397 53.4718 40.4257C53.7246 40.4716 53.9774 40.3511 54.0405 40.0929C54.098 39.8577 53.9544 39.5708 53.7073 39.5249Z" fill="white"/>
<path d="M58.9717 43.9885C58.8625 43.7591 58.535 43.7074 58.3282 43.8279C58.0984 43.9656 58.0582 44.241 58.1674 44.4648C58.1674 44.4648 58.1674 44.4533 58.1674 44.4475C58.1846 44.7 58.3742 44.9123 58.6384 44.9065C58.8797 44.9065 59.1153 44.6885 59.098 44.4361C59.0866 44.2697 59.0406 44.1377 58.9659 43.9828L58.9717 43.9885Z" fill="white"/>
<path d="M58.165 44.4648C58.165 44.4648 58.165 44.4763 58.165 44.4878C58.165 44.4878 58.165 44.4763 58.165 44.4706C58.1076 44.3501 58.1535 44.4361 58.165 44.4706V44.4648Z" fill="white"/>
<path d="M58.1719 44.4877C58.1719 44.5579 58.1777 44.5228 58.1719 44.4877V44.4877Z" fill="white"/>
<path d="M81.2163 43.0935C81.2852 48.1654 77.2236 52.3365 72.1451 52.4053C67.0666 52.4742 62.8901 48.4178 62.8212 43.346C62.7522 38.2741 66.8139 34.103 71.8923 34.0342C76.9708 33.9653 81.1473 38.0217 81.2163 43.0935Z" fill="white"/>
<path d="M78.2355 43.3058C78.2872 47.0581 75.2826 50.139 71.5312 50.1907C67.7741 50.2423 64.6891 47.2417 64.6374 43.4894C64.5857 39.7372 67.5902 36.6562 71.3474 36.6045C75.1045 36.5529 78.1895 39.5536 78.2412 43.3058H78.2355Z" fill="#074785"/>
<path d="M76.837 40.4314C76.0269 39.3815 75.0618 38.5323 73.7864 38.1135C73.212 37.9242 72.9822 38.8307 73.5509 39.0143C74.5735 39.3528 75.3893 40.0699 76.0384 40.9133C76.4004 41.3838 77.2046 40.9133 76.837 40.4314Z" fill="white"/>
<path d="M72.2894 37.5742C72.1458 37.5455 71.9964 37.5168 71.8528 37.4881C71.6057 37.4422 71.3472 37.5627 71.284 37.8209C71.2208 38.0561 71.3702 38.343 71.6172 38.3889C71.7608 38.4176 71.9102 38.4462 72.0538 38.4749C72.3009 38.5208 72.5594 38.4003 72.6226 38.1422C72.68 37.9069 72.5364 37.62 72.2894 37.5742Z" fill="white"/>
<path d="M77.5459 42.0379C77.4367 41.8084 77.1093 41.7567 76.9024 41.8772C76.6726 42.0149 76.6324 42.2903 76.7416 42.5141C76.7416 42.5141 76.7416 42.5026 76.7416 42.4969C76.7588 42.7493 76.9484 42.9616 77.2127 42.9559C77.4539 42.9559 77.6895 42.7378 77.6723 42.4854C77.6608 42.319 77.6148 42.187 77.5401 42.0321L77.5459 42.0379Z" fill="white"/>
<path d="M76.7407 42.5198C76.7407 42.5198 76.7407 42.5313 76.7407 42.5428C76.7407 42.537 76.7407 42.5313 76.7407 42.5198C76.7235 42.4854 76.6833 42.3993 76.7407 42.5198Z" fill="white"/>
<path d="M76.7461 42.5427C76.752 42.5778 76.752 42.6129 76.7461 42.5427V42.5427Z" fill="white"/>
<path fill-rule="evenodd" clip-rule="evenodd" d="M59.263 61.3729C58.1198 60.6787 57.2695 59.4279 57.0168 58.137C56.7985 57.0297 56.5916 55.6757 57.1604 54.6429C57.7349 53.6045 58.7977 52.9217 59.9926 52.9848C60.6877 53.0193 61.3599 53.1742 61.9574 53.5299C62.7789 54.0118 63.1868 53.5241 63.744 52.9275C64.2725 52.3652 64.8011 51.8087 65.5766 51.6193C66.9497 51.2866 68.518 52.239 69.2246 53.3405C70.0059 54.5626 70.0174 56.0027 69.8049 57.3969C69.69 58.1657 69.2304 58.8771 68.9316 59.6173C65.456 58.8198 62.2159 59.3132 59.263 61.3786V61.3729Z" fill="#074785"/>
<path fill-rule="evenodd" clip-rule="evenodd" d="M59.2656 61.3729C62.1955 58.005 64.8899 57.5116 68.9342 59.6115C66.5157 63.2203 62.8964 63.8801 59.2656 61.3729Z" fill="#FFA4AC"/>
<path d="M39.4954 90.5016C36.6 85.1142 34.2274 79.4342 35.3936 73.2034C35.6521 71.8092 33.5208 71.2125 33.2565 72.6182C32.6303 75.9573 32.7797 79.3022 33.6701 82.584C34.5261 85.7568 36.0313 88.7402 37.5824 91.6261C38.2603 92.8826 40.1733 91.7638 39.4954 90.5073V90.5016Z" fill="white"/>
<path d="M41.1979 93.9383C39.7674 93.9383 39.7674 96.1529 41.1979 96.1529C42.6283 96.1529 42.6283 93.9383 41.1979 93.9383Z" fill="white"/>
<path d="M49.94 91.0639C48.5096 91.0639 48.5096 93.2785 49.94 93.2785C51.3705 93.2785 51.3705 91.0639 49.94 91.0639Z" fill="white"/>
<path d="M83.0533 63.2605C81.6229 63.2605 81.6229 65.4751 83.0533 65.4751C84.4838 65.4751 84.4838 63.2605 83.0533 63.2605Z" fill="white"/>
<path d="M84.1275 91.4999C82.6971 91.4999 82.6971 93.7146 84.1275 93.7146C85.558 93.7146 85.558 91.4999 84.1275 91.4999Z" fill="white"/>
<path d="M54.6471 30.3163C53.2166 30.3163 53.2166 32.531 54.6471 32.531C56.0775 32.531 56.0775 30.3163 54.6471 30.3163Z" fill="white"/>
<path d="M34.3268 66.4849C32.8963 66.4849 32.8963 68.6996 34.3268 68.6996C35.7572 68.6996 35.7572 66.4849 34.3268 66.4849Z" fill="white"/>
<path d="M128.277 48.8539C128.426 53.9372 128.07 59.0435 124.887 63.2433C124.175 64.1842 125.542 65.4177 126.26 64.4768C127.972 62.222 129.098 59.6804 129.661 56.9149C130.207 54.2356 130.196 51.4587 130.115 48.7391C130.081 47.5515 128.242 47.672 128.277 48.8596V48.8539Z" fill="white"/>
<path d="M128.288 45.6639C129.351 46.1974 130.179 44.5451 129.116 44.0172C128.053 43.4837 127.231 45.1303 128.288 45.6639Z" fill="white"/>
<path d="M123.187 68.6307C124.25 69.1585 125.077 67.5176 124.009 66.984C122.946 66.4562 122.124 68.1028 123.187 68.6307Z" fill="white"/>
<path d="M93.8303 61.6139C95.9674 67.3283 97.5415 73.2608 95.5538 79.2621C95.1057 80.6046 97.1393 81.4824 97.5874 80.1284C98.656 76.9097 98.9547 73.5878 98.5239 70.2257C98.1045 66.9726 97.0187 63.8228 95.8755 60.7647C95.3757 59.4279 93.3362 60.277 93.836 61.6139H93.8303Z" fill="white"/>
<path d="M92.6137 57.9936C94.027 58.1829 94.3257 55.997 92.9125 55.8076C91.4992 55.6126 91.2005 57.8042 92.6137 57.9936Z" fill="white"/>
<path d="M95.7114 86.0437C97.1246 86.2388 97.4233 84.0471 96.0101 83.8577C94.5969 83.6684 94.2981 85.8544 95.7114 86.0437Z" fill="white"/>
<path fill-rule="evenodd" clip-rule="evenodd" d="M35.568 34.103C35.9012 35.3194 34.9475 36.8111 33.4711 37.3906C25.5834 40.4773 17.6037 43.2886 9.52644 45.8303C8.00979 46.3065 6.32654 45.7442 5.82674 44.5852C3.54028 39.2896 1.62149 33.8621 0.0703747 28.3025C-0.262828 27.0862 0.690821 25.5945 2.16725 25.015C10.055 21.9283 18.0346 19.117 26.1119 16.5753C27.6285 16.0991 29.3118 16.6614 29.8116 17.8203C32.0981 23.1217 34.0168 28.5492 35.568 34.103Z" fill="#29AEFD"/>
<path fill-rule="evenodd" clip-rule="evenodd" d="M9.83542 40.7469C8.94497 39.9552 8.12345 39.2265 7.26172 38.452C7.41683 38.2512 7.52598 38.0848 7.65811 37.9356C9.9733 35.3423 12.2942 32.7547 14.5922 30.1442C14.9311 29.7598 15.2011 29.6795 15.6607 29.9377C16.3042 30.2991 17.0797 30.7639 17.7461 31.0794C18.0966 31.2458 18.2689 30.936 18.3895 30.7983C19.7741 29.1459 21.1241 27.4591 22.5431 25.7092C21.6756 25.015 20.8426 24.3552 19.9004 23.6036C22.6465 22.9438 25.2604 22.3127 27.995 21.6586C27.9835 24.4126 27.972 27.0862 27.9605 29.909C27.0298 29.2033 26.1911 28.5607 25.3006 27.8837C24.2551 29.1689 23.2497 30.4139 22.2386 31.6532C21.3424 32.7605 20.429 33.8506 19.5615 34.9809C19.234 35.4054 18.9583 35.4456 18.5102 35.2046C17.8897 34.8661 17.2118 34.6137 16.5971 34.2637C16.1031 33.9825 15.8043 34.0284 15.408 34.4874C13.5983 36.5701 11.7427 38.6184 9.83542 40.7469Z" fill="#F9D555"/>
<path d="M68.4907 6.17917C66.9625 9.13966 65.555 12.1977 64.9288 15.4967C64.6646 16.8909 66.8017 17.4876 67.0659 16.0819C67.6576 12.9608 68.956 10.0978 70.4037 7.29222C71.0586 6.02426 69.1456 4.90547 68.4907 6.17343V6.17917Z" fill="#7BEFE5"/>
<path d="M111.621 13.2821C110.961 11.8822 110.616 10.3617 110.076 8.91592C109.863 8.34792 109.071 8.18728 108.582 8.43972C107.996 8.7438 107.893 9.36344 108.106 9.93144C108.646 11.383 108.99 12.8919 109.651 14.2976C110.26 15.5885 112.23 14.573 111.621 13.2821Z" fill="#FD6085"/>
<path d="M83.9977 79.1473C83.7909 78.9465 83.3715 76.1295 82.9924 76.1524C82.6132 76.1754 82.28 78.9695 82.1077 79.1531C81.7515 79.5203 79.149 79.7842 79.172 80.1399C79.195 80.4956 81.7457 80.6678 82.1077 81.012C82.3087 81.2071 82.7338 84.0299 83.113 84.0069C83.4922 83.984 83.8139 81.2013 83.9977 81.0063C84.3424 80.6505 86.9621 80.3751 86.9391 80.0137C86.9161 79.6522 84.3424 79.4744 83.992 79.1359L83.9977 79.1473Z" fill="white"/>
<path d="M47.7516 75.2172C47.5448 75.0164 47.1254 72.1994 46.7463 72.2223C46.3671 72.2453 46.0339 75.0394 45.8616 75.223C45.5054 75.5902 42.903 75.8541 42.9259 76.2098C42.9489 76.5655 45.4996 76.7376 45.8616 77.0876C46.0626 77.2827 46.4878 80.1055 46.8669 80.0825C47.2461 80.0596 47.5678 77.277 47.7516 77.0819C48.0963 76.7262 50.716 76.4508 50.693 76.0893C50.67 75.7279 48.0963 75.55 47.7459 75.2115L47.7516 75.2172Z" fill="white"/>
<path d="M16.4352 21.257C14.1258 21.9341 11.8508 22.7316 9.56435 23.4717C8.6624 23.7643 9.04731 25.1872 9.955 24.8945C12.2472 24.1544 14.5164 23.3569 16.8259 22.6799C17.7393 22.416 17.3487 20.9874 16.4352 21.257Z" fill="white"/>
<path d="M18.9965 20.4194C18.0428 20.4194 18.0428 21.8939 18.9965 21.8939C19.9501 21.8939 19.9501 20.4194 18.9965 20.4194Z" fill="white"/>
<path d="M7.10586 24.4069C6.15221 24.4069 6.15221 25.8814 7.10586 25.8814C8.05951 25.8814 8.05951 24.4069 7.10586 24.4069Z" fill="white"/>
<path d="M30.8138 34.7628C29.4638 35.3423 28.0276 35.6579 26.6775 36.2373C25.8043 36.6103 26.5569 37.884 27.4244 37.511C28.7744 36.9316 30.2106 36.616 31.5607 36.0365C32.4339 35.6636 31.6813 34.3899 30.8138 34.7628Z" fill="white"/>
<path d="M24.6176 37.1725C23.6639 37.1725 23.6639 38.6471 24.6176 38.6471C25.5712 38.6471 25.5712 37.1725 24.6176 37.1725Z" fill="white"/>
<path d="M67.9116 20.144C64.9415 19.5129 61.8795 19.203 58.852 19.5014C55.7153 19.8055 52.7279 20.8267 50.0049 22.393C48.6606 23.1676 50.0106 25.1584 51.3549 24.3839C54.6237 22.4963 58.1913 21.7676 61.8106 21.8308C61.644 23.5635 61.621 25.3134 61.3338 27.0346C61.081 28.5607 63.4364 29.0484 63.6891 27.5223C63.8443 26.5641 63.9247 25.606 63.9936 24.6363C64.6945 25.5945 65.4069 26.5526 66.2514 27.4018C66.7167 27.8665 67.5382 27.7575 67.9518 27.2928C68.4057 26.7764 68.3023 26.0592 67.8427 25.5945C66.7914 24.5388 65.9871 23.2766 65.0909 22.0832C65.8722 22.1922 66.6535 22.3299 67.4291 22.4906C68.9515 22.8176 69.434 20.4595 67.9174 20.1382L67.9116 20.144Z" fill="#074785"/>
</g>
<defs>
<clipPath id="clip0_1040_4827">
<rect width="132" height="105" fill="white"/>
</clipPath>
</defs>
</svg>
