<svg width="29" height="27" viewBox="0 0 29 27" fill="none" xmlns="http://www.w3.org/2000/svg">
<path d="M9.20944 18.8924C9.1232 18.8466 9.09249 18.7894 9.01007 18.737C8.36094 18.3248 7.93304 17.6276 7.93304 16.8377C7.93304 13.3272 10.9739 10.4712 14.7116 10.4712H16.55C17.0871 10.4712 17.532 10.0542 17.5666 9.51823C17.6045 8.93105 17.1384 8.43396 16.55 8.43396H9.72244C5.43671 8.43396 2.04224 12.0545 2.31823 16.3314L2.94549 26.0516C2.97154 26.4549 3.32721 26.7694 3.75744 26.7694H6.26862C7.26757 26.7694 7.93304 25.4764 7.93304 24.4775C7.93304 24.0978 8.03186 23.7394 8.20661 23.4238C8.63686 22.6468 9.01761 21.5458 9.01761 20.6576C9.01761 20.1358 9.15814 19.6444 9.40491 19.2142C9.46712 19.1058 9.31987 18.951 9.20944 18.8924Z" fill="#DE1D71"/>
<path d="M9.72032 6.90626C9.72095 6.90626 9.72159 6.90606 9.72222 6.90606H17.8555C18.3048 6.90606 18.6689 6.56406 18.6689 6.14209C18.6689 5.72011 18.3048 5.37811 17.8555 5.37811H14.2414C12.9667 5.37811 12.2175 3.94568 12.9445 2.8987C13.2395 2.47377 13.724 2.22034 14.2414 2.22034H16.2286C16.6779 2.22034 17.042 1.87834 17.042 1.45636C17.042 1.03438 16.6779 0.692383 16.2286 0.692383H12.9749C12.6999 0.692383 12.4436 0.822697 12.2936 1.03896C10.4248 3.73022 7.32647 5.37811 4.05 5.37811H1.58687C1.13757 5.37811 0.773438 5.72011 0.773438 6.14209C0.773438 6.56406 1.13757 6.90606 1.58687 6.90606H9.71735C9.71841 6.90606 9.71947 6.90626 9.72032 6.90626Z" fill="#DE1D71"/>
<path d="M9.55859 16.8378C9.55859 17.2597 9.92273 17.6017 10.372 17.6017H27.7252C28.1745 17.6017 28.5386 17.2597 28.5386 16.8378C28.5386 14.1698 26.2275 11.9992 23.3869 11.9992H14.7103C11.8697 11.9992 9.55859 14.1698 9.55859 16.8378Z" fill="#DE1D71"/>
<path d="M12.2714 19.1296C11.3728 19.1296 10.6445 19.8136 10.6445 20.6576C10.6445 21.5015 11.3728 22.1855 12.2714 22.1855H25.8286C26.7271 22.1855 27.4554 21.5015 27.4554 20.6576C27.4554 19.8136 26.7271 19.1296 25.8286 19.1296H12.2714Z" fill="#DE1D71"/>
<path d="M27.7252 23.7135H10.372C9.92273 23.7135 9.55859 24.0555 9.55859 24.4775C9.55859 25.7412 10.6533 26.7694 11.9989 26.7694H26.0983C27.4439 26.7694 28.5386 25.7412 28.5386 24.4775C28.5386 24.0555 28.1745 23.7135 27.7252 23.7135Z" fill="#DE1D71"/>
</svg>
