<svg width="27" height="18" viewBox="0 0 27 18" fill="none" xmlns="http://www.w3.org/2000/svg">
<path d="M25.6777 5.49674C25.6665 5.45415 25.6577 5.41632 25.6477 5.37344C24.7935 1.70302 19.9732 -0.131519 16.4582 1.51665C15.2348 2.16546 13.7597 2.47378 12.4414 1.86113C11.6241 1.3951 10.7125 1.10799 9.78069 0.991805C6.09513 0.532249 1.34309 9.9603 0.340699 13.5366C0.20209 14.0311 0.190621 14.0133 0.187561 14.5269C0.173237 16.9311 2.68333 17.9596 5.19129 17.3615C7.42288 16.9703 9.46601 15.8526 10.9438 14.2224C11.648 13.4492 12.7093 12.9928 13.8697 12.9835C15.1534 12.9018 16.3404 13.3412 17.2914 14.3528C18.7494 15.9085 20.7528 16.9703 22.9249 17.3616C23.5722 17.4596 24.1996 17.5153 24.8192 17.5106C26.7478 17.5364 26.9223 10.2418 26.433 8.37622C26.0645 6.97139 25.7495 5.77052 25.6777 5.49674ZM17.0633 7.56207C17.0811 6.34524 19.0152 6.35347 19.037 7.56211C19.012 8.78205 17.0839 8.78999 17.0633 7.56207ZM20.0983 4.70231C21.4012 4.7258 21.401 6.54202 20.0982 6.56534C18.8072 6.54476 18.8074 4.72273 20.0983 4.70231ZM21.0901 9.49031C21.065 10.7103 19.1369 10.7182 19.1163 9.49027C19.1341 8.27351 21.0683 8.28169 21.0901 9.49031ZM22.1612 8.49359C20.8662 8.48937 20.8581 6.63983 22.1613 6.63988C23.4568 6.65657 23.448 8.47309 22.1612 8.49359ZM8.5337 9.49031C8.53567 10.0995 7.54014 10.1015 7.54189 9.49028C7.54189 8.68259 6.88713 8.02782 6.07943 8.02782H5.98473C5.70706 8.02782 5.48883 7.82291 5.48883 7.56207C5.48883 7.31054 5.70706 7.09631 5.98473 7.09631H6.0794C6.88711 7.09631 7.54189 6.44154 7.54189 5.63383C7.54189 5.37303 7.76011 5.16807 8.03779 5.16807C8.31553 5.16807 8.53369 5.37303 8.53369 5.63383C8.53369 6.44154 9.18847 7.09631 9.99618 7.09631H10.0908C10.3686 7.09631 10.5867 7.31054 10.5867 7.56207C10.5867 7.82292 10.3686 8.02782 10.0908 8.02782H9.99619C9.18848 8.02782 8.5337 8.6826 8.5337 9.49031Z" fill="#DE1D71"/>
</svg>
