<svg width="212" height="224" viewBox="0 0 212 224" fill="none" xmlns="http://www.w3.org/2000/svg">
<path d="M84.2013 192.495C81.2554 192.495 78.4994 193.301 76.1383 194.701C75.5748 186.511 68.7383 180.041 60.3818 180.041C58.3448 180.041 56.3998 180.43 54.612 181.13C52.3357 173.536 45.2802 168 36.9242 168C26.7277 168 18.4621 176.242 18.4621 186.408C18.4621 186.668 18.4708 186.926 18.4818 187.184C18.4752 187.184 18.4686 187.183 18.4621 187.183C8.26566 187.183 0 195.425 0 205.592C0 215.758 8.26566 224 18.4621 224C19.0984 224 19.7275 223.968 20.3474 223.905H82.4792C83.0449 223.966 83.6193 224 84.2013 224C92.927 224 100 216.947 100 208.247C100 199.548 92.927 192.495 84.2013 192.495Z" fill="#C2E8FC"/>
<path d="M126.201 164.495C123.255 164.495 120.499 165.301 118.138 166.701C117.575 158.511 110.738 152.041 102.382 152.041C100.345 152.041 98.3998 152.43 96.612 153.13C94.3357 145.536 87.2802 140 78.9242 140C68.7277 140 60.4621 148.242 60.4621 158.408C60.4621 158.668 60.4708 158.926 60.4818 159.184C60.4752 159.184 60.4686 159.183 60.4621 159.183C50.2657 159.183 42 167.425 42 177.592C42 187.758 50.2657 196 60.4621 196C61.0984 196 61.7275 195.968 62.3474 195.905H124.479C125.045 195.966 125.619 196 126.201 196C134.927 196 142 188.947 142 180.247C142 171.548 134.927 164.495 126.201 164.495Z" fill="#C2E8FC"/>
<path d="M51.372 197.499C51.107 196.67 50.961 195.789 50.961 194.873C50.961 190.115 54.818 186.258 59.576 186.258C61.56 186.258 63.382 186.935 64.838 188.062C65.195 180.236 71.651 174 79.565 174C87.708 174 94.31 180.602 94.31 188.744C94.31 189.165 94.288 189.579 94.254 189.991C94.273 189.991 94.291 189.988 94.31 189.988C98.538 189.988 102.047 193.034 102.779 197.051H104.46C111.458 197.051 117.131 202.724 117.131 209.721C117.131 216.72 111.458 222.392 104.46 222.392H54.671C47.673 222.392 42 216.72 42 209.721C42.001 203.866 45.977 198.953 51.372 197.499Z" fill="white"/>
<path d="M91.8988 141.578C91.8988 141.578 78.6956 146.501 77.129 159.481C75.5624 172.461 79.1429 177.607 79.1429 177.607C79.1429 177.607 82.276 169.103 83.8426 168.879C83.8426 168.879 81.6047 178.055 91.8988 189.468C102.193 200.88 103.759 205.804 103.759 205.804V141.578H91.8988Z" fill="#FFE000"/>
<path d="M115.62 141.578C115.62 141.578 128.824 146.501 130.39 159.481C131.957 172.461 128.376 177.607 128.376 177.607C128.376 177.607 125.243 169.103 123.677 168.879C123.677 168.879 125.915 178.055 115.62 189.468C105.326 200.88 103.76 205.804 103.76 205.804V141.578H115.62Z" fill="#FFCA00"/>
<path d="M91.8981 141.578C91.8981 141.578 82.3382 149.634 84.2745 155.452C84.2745 155.452 88.4106 151.128 89.213 151.499C89.213 151.499 84.8683 166.417 92.9245 172.683C100.981 178.95 103.759 181.411 103.759 181.411V141.577H91.8981V141.578Z" fill="#FFFF86"/>
<path d="M115.863 141.578C115.863 141.578 125.423 149.634 123.486 155.452C123.486 155.452 119.35 151.128 118.548 151.499C118.548 151.499 122.892 166.417 114.836 172.683C106.78 178.95 104.002 181.411 104.002 181.411V141.577H115.863V141.578Z" fill="#FFF26D"/>
<path d="M89.8145 137.624V140.865C89.8145 141.68 90.4744 142.339 91.2888 142.339H116.234C117.047 142.339 117.707 141.68 117.707 140.865V137.624H89.8145Z" fill="#A3A3A3"/>
<path d="M88.0977 134.641V137.978C88.0977 138.815 88.7763 139.494 89.6141 139.494H117.904C118.742 139.494 119.421 138.815 119.421 137.978V134.641H88.0977Z" fill="#6D6A6D"/>
<path d="M85.0336 106.444C85.0336 106.444 79.1477 108.532 68.6163 100.476C58.0848 92.4194 49.4115 117.782 50.0313 135.386C50.6511 152.99 67.9978 164.926 67.9978 164.926C67.9978 164.926 65.2096 138.669 76.9807 133.298C88.7518 127.927 90.6099 127.927 90.6099 127.927L85.0336 106.444Z" fill="#C20009"/>
<path d="M122.486 106.444C122.486 106.444 128.372 108.532 138.903 100.476C149.436 92.4194 158.109 117.782 157.489 135.386C156.869 152.99 139.522 164.926 139.522 164.926C139.522 164.926 142.31 138.669 130.539 133.298C118.769 127.927 116.91 127.927 116.91 127.927L122.486 106.444Z" fill="#A60008"/>
<path d="M131.833 34.8324C124.98 15.1677 106.198 0 103.761 0C101.324 0 82.5429 15.1677 75.6889 34.8324C68.2017 56.3159 66.9534 82.7224 77.3531 105.101C87.7528 127.479 87.7207 134.641 87.7207 134.641H119.801C119.801 134.641 119.77 127.48 130.169 105.101C140.568 82.7224 139.321 56.3159 131.833 34.8324Z" fill="#E1FFFD"/>
<path d="M131.832 34.8324C124.979 15.1677 106.198 0 103.76 0H103.76V134.64H119.8C119.8 134.64 119.769 127.479 130.168 105.1C140.568 82.7224 139.32 56.3159 131.832 34.8324Z" fill="#D2F1EF"/>
<path d="M124.571 57.1372C124.571 68.6314 115.253 77.9493 103.759 77.9493C92.2652 77.9493 82.9473 68.6314 82.9473 57.1372C82.9473 45.6429 92.2652 36.3257 103.759 36.3257C115.253 36.325 124.571 45.6429 124.571 57.1372Z" fill="#D1D1D1"/>
<path d="M124.571 55.6447C124.571 67.1389 115.253 76.4568 103.759 76.4568C92.2652 76.4568 82.9473 67.1389 82.9473 55.6447C82.9473 44.1504 92.2652 34.8325 103.759 34.8325C115.253 34.8325 124.571 44.1504 124.571 55.6447Z" fill="#494F58"/>
<path d="M93.7721 71.9843C93.4852 71.9843 93.1957 71.9027 92.939 71.7322C90.8729 70.3589 89.1105 68.6285 87.701 66.5886C87.2276 65.9046 87.3995 64.9651 88.0841 64.4924C88.7688 64.0204 89.7075 64.1909 90.1803 64.8755C91.3717 66.5999 92.8614 68.0622 94.6072 69.2229C95.3005 69.6836 95.4884 70.619 95.0277 71.3117C94.7382 71.7476 94.2602 71.9843 93.7721 71.9843Z" fill="#606874"/>
<path d="M86.6637 62.6537C86.0299 62.6537 85.4395 62.2505 85.2322 61.6153C84.597 59.6743 84.2754 57.6457 84.2754 55.5857C84.2754 44.9031 92.9661 36.2124 103.649 36.2124C108.613 36.2124 113.335 38.0886 116.944 41.4945C117.549 42.0655 117.577 43.0196 117.006 43.6247C116.434 44.2298 115.481 44.2572 114.875 43.6862C111.829 40.8105 107.841 39.2259 103.649 39.2259C94.6276 39.2259 87.2889 46.5653 87.2889 55.5857C87.2889 57.3274 87.5603 59.0404 88.0966 60.6779C88.3553 61.4695 87.9241 62.32 87.1331 62.5788C86.9773 62.6296 86.8195 62.6537 86.6637 62.6537Z" fill="#606874"/>
<path d="M118.307 55.6445C118.307 63.6779 111.794 70.1903 103.761 70.1903C95.7272 70.1903 89.2148 63.6779 89.2148 55.6445C89.2148 47.611 95.7272 41.0986 103.761 41.0986C111.794 41.0986 118.307 47.611 118.307 55.6445Z" fill="#21C8AD"/>
<path d="M103.76 41.0986V70.191C111.793 70.191 118.306 63.6786 118.306 55.6451C118.306 47.611 111.794 41.0986 103.76 41.0986Z" fill="#1DB39A"/>
<path d="M89.2148 55.6446C89.2148 55.9709 89.2289 56.2939 89.2503 56.6141C89.7497 49.034 96.0535 43.0378 103.761 43.0378V41.0981C95.7272 41.0988 89.2148 47.6112 89.2148 55.6446Z" fill="#1DAE97"/>
<path d="M103.76 41.0986V43.0383C111.467 43.0383 117.771 49.0338 118.27 56.6146C118.292 56.2937 118.306 55.9714 118.306 55.6451C118.306 47.611 111.794 41.0986 103.76 41.0986Z" fill="#1BA28C"/>
<path d="M129.354 28.9023C121.27 12.2015 105.946 0.000488281 103.76 0.000488281C101.575 0.000488281 86.2503 12.2021 78.166 28.9023C85.932 26.3187 94.6061 24.8712 103.76 24.8712C112.914 24.8705 121.588 26.3181 129.354 28.9023Z" fill="#E30009"/>
<path d="M80.7474 31.9928C80.7474 32.6494 80.2152 33.181 79.5592 33.181C78.9033 33.181 78.3711 32.6494 78.3711 31.9928C78.3711 31.3369 78.9033 30.8047 79.5592 30.8047C80.2152 30.8047 80.7474 31.3369 80.7474 31.9928Z" fill="#ADADAD"/>
<path d="M86.8476 30.0163C86.8476 30.6728 86.3154 31.2044 85.6588 31.2044C85.0029 31.2044 84.4707 30.6728 84.4707 30.0163C84.4707 29.3597 85.0029 28.8281 85.6588 28.8281C86.3154 28.8281 86.8476 29.3597 86.8476 30.0163Z" fill="#ADADAD"/>
<path d="M92.9505 28.9022C92.9505 29.5588 92.4183 30.0903 91.7624 30.0903C91.1058 30.0903 90.5742 29.5581 90.5742 28.9022C90.5742 28.2456 91.1058 27.7134 91.7624 27.7134C92.4183 27.7134 92.9505 28.2456 92.9505 28.9022Z" fill="#ADADAD"/>
<path d="M99.0521 28.1615C99.0521 28.8174 98.5198 29.3496 97.8639 29.3496C97.208 29.3496 96.6758 28.8174 96.6758 28.1615C96.6758 27.5049 97.208 26.9727 97.8639 26.9727C98.5198 26.9727 99.0521 27.5049 99.0521 28.1615Z" fill="#ADADAD"/>
<path d="M126.773 31.9928C126.773 32.6494 127.306 33.181 127.962 33.181C128.618 33.181 129.15 32.6494 129.15 31.9928C129.15 31.3369 128.618 30.8047 127.962 30.8047C127.306 30.8047 126.773 31.3369 126.773 31.9928Z" fill="#969696"/>
<path d="M120.672 30.0163C120.672 30.6728 121.204 31.2044 121.86 31.2044C122.517 31.2044 123.049 30.6728 123.049 30.0163C123.049 29.3597 122.517 28.8281 121.86 28.8281C121.204 28.8281 120.672 29.3597 120.672 30.0163Z" fill="#969696"/>
<path d="M114.57 28.9022C114.57 29.5588 115.103 30.0903 115.759 30.0903C116.416 30.0903 116.947 29.5581 116.947 28.9022C116.947 28.2456 116.416 27.7134 115.759 27.7134C115.103 27.7134 114.57 28.2456 114.57 28.9022Z" fill="#969696"/>
<path d="M108.469 28.1615C108.469 28.8174 109.001 29.3496 109.657 29.3496C110.313 29.3496 110.845 28.8174 110.845 28.1615C110.845 27.5049 110.313 26.9727 109.657 26.9727C109 26.9727 108.469 27.5049 108.469 28.1615Z" fill="#969696"/>
<path d="M103.76 26.5254V28.9023C104.416 28.9023 104.949 28.3708 104.949 27.7135C104.949 27.0569 104.416 26.5254 103.76 26.5254Z" fill="#969696"/>
<path d="M102.572 27.7135C102.572 28.3701 103.104 28.9023 103.76 28.9023V26.5254C103.104 26.5254 102.572 27.0569 102.572 27.7135Z" fill="#ADADAD"/>
<path d="M115.975 58.7777C115.975 60.5081 114.573 61.9108 112.842 61.9108C111.112 61.9108 109.709 60.5081 109.709 58.7777C109.709 57.0473 111.112 55.6445 112.842 55.6445C114.573 55.6445 115.975 57.0473 115.975 58.7777Z" fill="white"/>
<path d="M110.828 63.4214C110.828 64.0699 110.302 64.5961 109.653 64.5961C109.005 64.5961 108.479 64.0699 108.479 63.4214C108.479 62.7721 109.005 62.2466 109.653 62.2466C110.302 62.2466 110.828 62.7721 110.828 63.4214Z" fill="white"/>
<path d="M68.7489 101.745C68.7489 101.745 65.5035 98.3875 61.14 100.961C56.7766 103.535 50.6227 119.311 51.6289 131.62C51.6289 131.62 57.8952 105.996 64.0492 104.766C70.2039 103.535 69.8682 102.975 68.7489 101.745Z" fill="#E30009"/>
<path d="M138.772 101.745C138.772 101.745 142.017 98.3875 146.38 100.961C150.744 103.535 156.898 119.311 155.891 131.62C155.891 131.62 149.626 105.996 143.471 104.766C137.318 103.535 137.653 102.975 138.772 101.745Z" fill="#C70008"/>
<path d="M103.76 137.624V142.339H116.233C117.047 142.339 117.707 141.68 117.707 140.865V137.624H103.76Z" fill="#878787"/>
<path d="M103.76 134.641V139.495H117.905C118.743 139.495 119.422 138.815 119.422 137.978V134.641H103.76V134.641Z" fill="#514F51"/>
<path d="M103.76 0.000488281L103.76 24.8712C112.914 24.8712 121.589 26.3187 129.355 28.9029C121.27 12.2015 105.946 0.000488281 103.76 0.000488281Z" fill="#C20009"/>
<path d="M108.814 126.808C108.814 144.173 106.66 165.522 104.003 165.522C101.346 165.522 99.1914 144.172 99.1914 126.808C99.1914 109.444 101.346 102.639 104.003 102.639C106.66 102.639 108.814 109.444 108.814 126.808Z" fill="#C20009"/>
<path d="M106.053 128.376C106.053 141.147 104.85 151.5 103.367 151.5C101.884 151.5 100.682 141.147 100.682 128.376C100.682 115.604 101.884 105.251 103.367 105.251C104.85 105.251 106.053 115.604 106.053 128.376Z" fill="#E30009"/>
<path d="M194.977 190.794C191.889 190.794 189 191.642 186.525 193.114C185.934 184.504 178.768 177.702 170.008 177.702C168.115 177.702 166.304 178.039 164.61 178.625C162.168 170.733 154.814 165 146.12 165C145.467 165 144.824 165.042 144.188 165.106C136.067 165.618 129.302 171.116 126.954 178.591C125.252 178 123.433 177.659 121.53 177.659C112.77 177.659 105.604 184.461 105.013 193.071C102.538 191.599 99.649 190.751 96.561 190.751C87.414 190.751 80 198.166 80 207.312C80 216.458 87.415 223.873 96.561 223.873C97.171 223.873 97.773 223.838 98.366 223.773H123.802C124.545 223.86 125.298 223.916 126.064 223.916C126.731 223.916 127.391 223.882 128.04 223.816H164.358C164.729 223.837 165.096 223.872 165.472 223.872C165.848 223.872 166.215 223.837 166.585 223.816H193.171C193.764 223.88 194.366 223.916 194.976 223.916C204.123 223.916 211.537 216.501 211.537 207.355C211.538 198.209 204.123 190.794 194.977 190.794Z" fill="#C2E8FC"/>
<path d="M115.855 192.765C115.576 191.892 115.422 190.963 115.422 189.998C115.422 184.984 119.478 180.919 124.481 180.919C126.567 180.919 128.483 181.632 130.014 182.82C130.389 174.572 137.178 168 145.499 168C154.062 168 161.004 174.958 161.004 183.539C161.004 183.982 160.981 184.419 160.945 184.853C160.965 184.853 160.984 184.85 161.004 184.85C165.45 184.85 169.139 188.06 169.909 192.293H171.676C179.035 192.293 185 198.272 185 205.646C185 213.022 179.035 219 171.676 219H119.324C111.965 219 106 213.022 106 205.646C106.001 199.476 110.182 194.298 115.855 192.765Z" fill="white"/>
</svg>
