<svg width="180" height="249" viewBox="0 0 180 249" fill="none" xmlns="http://www.w3.org/2000/svg">
<path d="M117.764 193.763H59.1523V249H117.764V193.763Z" fill="#FFA23B"/>
<path d="M111.034 193.763H59.1523V249H111.034V193.763Z" fill="#FFC627"/>
<path d="M116.926 193.766H59.3152C58.3494 193.766 57.5664 193.14 57.5664 192.368C57.5664 191.595 58.3494 190.969 59.3152 190.969H116.926C117.892 190.969 118.675 191.595 118.675 192.368C118.675 193.14 117.892 193.766 116.926 193.766Z" fill="#FFA23B"/>
<path d="M111.167 192.261H59.2852V195.342H111.167V192.261Z" fill="#FFA23B"/>
<path d="M110.556 194.129H59.3258C58.3541 194.129 57.5664 193.499 57.5664 192.722V192.376C57.5664 191.599 58.3541 190.969 59.3258 190.969H110.556C111.528 190.969 112.316 191.599 112.316 192.376V192.722C112.316 193.499 111.528 194.129 110.556 194.129Z" fill="#FFC627"/>
<path d="M70.4836 196.042C69.291 196.042 68.3242 196.815 68.3242 197.768V241.704C68.3242 242.658 69.291 243.431 70.4836 243.431C71.6762 243.431 72.643 242.658 72.643 241.704V197.768C72.643 196.815 71.6762 196.042 70.4836 196.042Z" fill="#FFF7E6"/>
<path d="M59.1523 229.158C75.8277 235.753 93.623 237.857 111.034 235.452V211.762C93.5522 214.796 59.1523 229.158 59.1523 229.158Z" fill="#FFA23B"/>
<path d="M176.149 205.456C170.295 206.692 164.59 207.354 159.086 207.507C158.594 207.52 158.295 207.117 158.41 206.613C159.661 201.134 160.511 195.675 160.976 190.3C161.009 189.912 160.58 189.772 160.301 190.075C150.127 201.124 138.428 209.338 125.99 214.724C128.786 219.862 131.702 224.936 134.735 229.944C133.42 230.906 132.747 232.437 133.228 233.713C133.794 235.221 135.834 235.77 137.762 234.858C141.836 232.933 145.839 230.756 149.751 228.326C159.231 222.438 168.181 215.067 176.33 206.209C176.667 205.842 176.552 205.37 176.149 205.456Z" fill="#F42A2A"/>
<path d="M41.2675 228.947C44.407 224.005 47.43 218.993 50.335 213.917C38.0147 208.266 26.494 199.805 16.5586 188.541C16.2867 188.232 15.8535 188.363 15.8782 188.752C16.2286 194.136 16.9625 199.61 18.0955 205.115C18.2001 205.622 17.8923 206.019 17.4011 205.995C11.9012 205.724 6.21159 204.941 0.385959 203.58C-0.0149692 203.486 -0.1412 203.955 0.188337 204.329C8.1471 213.359 16.9372 220.919 26.2892 227.008C30.1487 229.521 34.1039 231.783 38.1358 233.795C40.0448 234.748 42.0957 234.243 42.6933 232.747C43.2018 231.481 42.5611 229.936 41.2675 228.947Z" fill="#F42A2A"/>
<path d="M34.8636 218.78C34.8632 218.779 34.8628 218.779 34.8623 218.779C33.1964 217.766 31.209 218.004 30.3966 219.384C29.5851 220.762 30.3367 222.812 32.1035 223.887C32.1035 223.887 32.1039 223.888 32.1039 223.888C34.8564 225.543 37.6544 227.068 40.4908 228.463C42.2957 229.364 43.2918 231.248 42.6938 232.747C43.7909 230.044 44.8879 227.34 45.985 224.637C42.2059 222.922 38.4928 220.97 34.8636 218.78Z" fill="#D80E0E"/>
<path d="M141.356 219.915C141.356 219.915 141.355 219.916 141.354 219.916C137.687 222.043 133.939 223.932 130.129 225.582C130.822 227.4 131.515 229.218 132.208 231.036C132.548 231.928 132.888 232.82 133.228 233.712C132.662 232.202 133.699 230.339 135.522 229.477C138.388 228.142 141.218 226.678 144.005 225.081C144.005 225.081 144.005 225.081 144.005 225.081C145.795 224.044 146.59 222.01 145.808 220.615C145.025 219.219 143.044 218.937 141.356 219.915Z" fill="#D80E0E"/>
<path d="M52.5259 207.264C48.2517 206.223 44.2936 203.82 40.9384 200.744C38.8422 198.825 36.8495 196.755 35.0146 194.51C35.5673 192.21 37.1464 189.844 38.9341 188.668C41.0294 187.285 43.8423 186.332 43.779 183.464C43.7308 180.692 41.6009 180.02 39.2455 180.726C36.8958 181.434 35.2162 183.628 34.6436 186.389C34.171 188.644 34.2338 191.601 34.6131 194.02C32.8355 191.868 31.1844 189.51 29.6776 187.075C28.6558 185.423 27.7356 183.689 26.8456 181.953C26.2745 177.508 30.1112 173.99 32.1514 170.612C32.9876 169.21 34.6281 166.904 33.6867 165.04C33.0508 163.778 31.822 163.459 30.6126 164.033C29.4044 164.608 28.6335 165.687 27.9717 166.924C25.7344 171.09 25.1999 176.311 26.4239 181.071C24.4199 176.889 22.7142 172.532 21.0858 168.081C20.7082 167.051 20.2829 165.748 19.9634 164.658C21.0002 162.456 23.078 161.258 24.9958 160.341C27.288 159.239 29.9408 157.56 30.2697 154.682C30.5893 151.902 28.379 149.494 25.8305 149.845C23.2842 150.205 21.4429 152.445 20.4243 155.338C19.657 157.496 19.6761 160.919 19.6119 163.404C18.3788 158.79 18.8248 152.155 19.4156 147.342C19.4631 147.375 19.5071 147.422 19.5532 147.461C19.5047 147.413 19.462 147.36 19.4203 147.305C19.4449 147.124 19.4608 146.948 19.4796 146.762C22.9056 143.725 27.6239 143.114 31.004 140.176C31.9782 139.335 32.7311 138.654 33.3164 137.626C33.9015 136.598 34.3093 135.308 33.6993 134.269C32.6396 132.456 30.5556 133.016 28.8963 134.08C24.8829 136.628 20.9224 140.998 19.5066 146.251C19.6008 144.189 19.6599 141.985 19.8392 139.941C20.0654 137.373 20.7216 135.302 21.6515 132.923C22.5192 130.71 23.39 128.503 24.2415 126.133C25.3338 123.048 27.5385 118.574 26.7117 115.25C26.2736 113.507 25.0783 112.17 23.3642 112.475C20.776 112.934 19.5794 116.44 19.1066 119.192C18.5793 122.193 18.5034 125.563 18.6447 128.631C18.7154 130.201 18.8791 131.88 19.0619 133.37C19.2936 135.257 19.3244 136.902 19.0295 138.768C18.6906 140.906 18.6171 143.436 18.4313 145.383C16.8691 142.206 14.7791 135.906 13.9749 132.984C12.9349 129.299 12.8433 128.623 11.3343 126.67C9.83965 124.707 7.73343 124.967 6.25559 126.665C5.22614 127.846 5.08525 129.956 5.42981 131.518C5.77233 133.082 6.58112 134.392 7.43001 135.595C10.5332 139.984 14.589 143.223 18.4435 146.5C18.4393 146.558 18.4418 146.647 18.4348 146.71C17.804 152.121 17.4351 159.346 18.8541 164.545C16.0358 161.356 11.3528 156.463 7.98691 154.404C6.30364 153.391 5.28236 153.108 3.95568 154.181C2.41578 155.423 2.61245 158.262 3.66531 159.88C4.71451 161.5 6.19068 162.09 7.88803 162.681C11.5435 163.952 15.4741 165.002 19.2436 165.901C19.3215 166.121 19.3789 166.349 19.4422 166.568C21.403 173.348 24.2285 179.735 27.6354 185.62C27.8334 185.962 28.1075 186.351 28.1407 186.553C25.3436 185.331 20.2591 181.962 18.2756 180.13C15.9352 177.996 15.5902 177.685 13.5651 177.321C11.5432 176.945 10.1563 178.701 9.92578 180.784C9.74974 182.358 10.7341 183.945 11.8725 184.709C13.0107 185.476 14.2943 185.645 15.553 185.788C19.8664 186.275 24.1804 186.691 28.4921 187.056C31.477 191.963 34.913 196.495 38.8735 200.344C34.5435 197.727 29.2894 196.84 24.5984 198.33C23.3537 198.728 22.2108 199.269 21.431 200.448C20.6509 201.626 20.6722 203.102 21.7245 204.148C23.2853 205.693 25.6918 204.427 27.1416 203.807C30.9234 202.137 34.8376 198.436 39.0631 200.521C42.5547 203.876 46.5311 206.703 51.0174 208.057C51.5018 208.203 51.9733 208.347 52.4584 208.404C53.1237 208.48 53.1882 207.426 52.5259 207.264Z" fill="#EEFBFF"/>
<path d="M131.838 205.907C136.079 204.739 139.963 202.218 143.225 199.043C145.263 197.062 147.193 194.934 148.96 192.635C148.338 190.352 146.689 188.035 144.867 186.912C142.731 185.592 139.891 184.724 139.869 181.856C139.834 179.083 141.943 178.348 144.318 178.984C146.688 179.621 148.433 181.764 149.088 184.506C149.627 186.746 149.653 189.704 149.346 192.133C151.059 189.928 152.639 187.523 154.072 185.043C155.044 183.362 155.912 181.601 156.749 179.839C157.187 175.379 153.247 171.978 151.107 168.662C150.229 167.285 148.52 165.029 149.405 163.138C150.003 161.857 151.222 161.502 152.448 162.04C153.673 162.578 154.476 163.634 155.174 164.851C157.535 168.948 158.226 174.15 157.144 178.945C159.023 174.705 160.597 170.299 162.092 165.801C162.438 164.76 162.824 163.445 163.111 162.346C162.009 160.175 159.896 159.04 157.952 158.181C155.628 157.148 152.926 155.55 152.511 152.683C152.109 149.913 154.246 147.44 156.804 147.715C159.36 147.999 161.267 150.183 162.372 153.044C163.203 155.178 163.287 158.6 163.425 161.082C164.52 156.433 163.875 149.814 163.141 145.021C163.095 145.056 163.052 145.104 163.007 145.144C163.054 145.095 163.095 145.041 163.135 144.985C163.105 144.804 163.084 144.629 163.06 144.443C159.544 141.51 154.81 141.04 151.343 138.205C150.345 137.394 149.572 136.735 148.956 135.726C148.34 134.715 147.894 133.438 148.473 132.382C149.478 130.537 151.578 131.035 153.268 132.048C157.356 134.475 161.445 138.726 163.018 143.934C162.862 141.875 162.737 139.674 162.496 137.636C162.193 135.076 161.476 133.026 160.475 130.676C159.541 128.489 158.605 126.31 157.683 123.966C156.499 120.915 154.161 116.509 154.888 113.162C155.274 111.406 156.429 110.034 158.151 110.288C160.752 110.669 162.053 114.138 162.608 116.875C163.225 119.858 163.402 123.225 163.352 126.295C163.328 127.867 163.215 129.55 163.077 131.045C162.902 132.937 162.92 134.583 163.271 136.44C163.673 138.567 163.823 141.093 164.066 143.034C165.533 139.812 167.434 133.451 168.15 130.507C169.079 126.792 169.151 126.114 170.6 124.117C172.036 122.11 174.149 122.307 175.677 123.96C176.741 125.109 176.945 127.215 176.647 128.786C176.352 130.359 175.582 131.693 174.77 132.921C171.799 137.401 167.842 140.759 164.088 144.15C164.093 144.209 164.094 144.298 164.103 144.36C164.895 149.75 165.48 156.961 164.217 162.2C166.938 158.927 171.473 153.897 174.776 151.738C176.428 150.676 177.44 150.362 178.799 151.394C180.375 152.59 180.263 155.434 179.259 157.083C178.259 158.733 176.801 159.367 175.122 160.009C171.506 161.388 167.609 162.555 163.868 163.567C163.797 163.789 163.746 164.019 163.689 164.239C161.932 171.075 159.299 177.543 156.07 183.528C155.882 183.876 155.62 184.273 155.593 184.475C158.352 183.171 163.333 179.651 165.261 177.76C167.537 175.557 167.872 175.236 169.886 174.812C171.895 174.376 173.334 176.089 173.627 178.164C173.85 179.733 172.913 181.348 171.798 182.146C170.684 182.946 169.406 183.154 168.152 183.334C163.855 183.95 159.555 184.495 155.256 184.989C152.42 189.983 149.121 194.616 145.277 198.581C149.527 195.837 154.752 194.792 159.486 196.141C160.742 196.502 161.9 197.009 162.715 198.164C163.53 199.318 163.553 200.794 162.532 201.871C161.018 203.462 158.575 202.269 157.107 201.692C153.277 200.136 149.254 196.554 145.093 198.764C141.703 202.222 137.813 205.166 133.369 206.654C132.889 206.815 132.422 206.972 131.939 207.044C131.276 207.14 131.18 206.088 131.838 205.907Z" fill="#EEFBFF"/>
<path d="M129.514 200.026C103.38 214.741 72.2904 214.409 46.4769 199.14C44.6199 198.043 42.2257 198.622 41.0885 200.544C37.901 206.031 34.7137 211.518 31.5261 217.005C31.0408 217.84 30.5556 218.675 30.0703 219.511C30.8825 218.131 32.8701 217.892 34.5361 218.905L34.5364 218.905C67.523 238.993 107.622 239.421 141.03 220.042L141.03 220.042C142.718 219.065 144.699 219.346 145.482 220.743C145.015 219.897 144.547 219.051 144.08 218.206C141.01 212.652 137.941 207.099 134.871 201.545C133.775 199.599 131.394 198.97 129.514 200.026Z" fill="#FF3E3E"/>
<path d="M66.6203 17.4288C66.6645 17.3248 66.6423 16.9763 66.7863 16.8075C66.9146 16.6572 67.0315 16.5266 67.2144 16.4428C67.4861 16.3183 67.7544 16.4731 67.9219 16.6903C67.8965 16.6519 67.8347 16.537 67.8265 16.5031C67.7587 16.2244 67.8271 15.9534 68 15.7425C68.1354 15.5773 68.2911 15.4732 68.4896 15.3995C68.7724 15.2945 69.0364 15.4737 69.1936 15.7028C69.2248 15.5138 69.2978 15.3406 69.4357 15.2058C69.5737 15.071 69.7322 14.9779 69.9124 14.9211C70.1475 14.847 70.3505 14.9626 70.4897 15.1475C70.4982 15.1579 70.4766 15.1292 70.504 15.1621C71.2208 15.9796 71.7996 17.1785 72.3618 17.8854C72.6042 18.1901 72.5705 18.0031 72.5967 17.9288C72.6838 17.6818 72.1254 16.9123 72.083 16.5105C72.0514 16.2099 71.9871 15.7 72.0541 15.3727C72.0704 15.2926 72.338 14.948 72.4495 15.012C72.72 15.1674 73.0404 15.7921 73.2452 16.1308C73.45 16.4696 73.7835 17.2662 73.9981 17.7652C74.1127 18.0316 74.2329 18.3281 74.2849 18.6898C74.4235 19.6526 73.2958 20.6054 73.1361 21.5467C72.9505 22.6404 80.8531 38.0697 84.1506 43.2957C84.1506 43.2957 77.5601 46.8501 77.5562 46.8522C77.5516 46.8548 70.59 28.1813 69.1701 24.3724C69.0095 23.9415 68.8324 23.518 68.6383 23.1011C67.8629 21.4351 65.8021 16.8955 66.6203 17.4288Z" fill="#FFCACA"/>
<path d="M66.6546 17.4601C66.5782 17.0839 66.7576 16.7148 67.0667 16.4988C67.1592 16.4341 67.2551 16.3883 67.3702 16.381C67.5824 16.3676 67.755 16.4924 67.8905 16.6432C67.7729 16.4848 67.7659 16.2359 67.8176 16.0574C67.9357 15.6486 68.3511 15.2729 68.789 15.3733C68.9613 15.4128 69.0473 15.5352 69.1653 15.6484C69.2599 15.5565 69.2849 15.3947 69.3562 15.2911C69.4427 15.1654 69.5449 15.073 69.6722 15C69.8181 14.9165 69.974 14.8527 70.1426 14.8926C70.4168 14.9576 70.5923 15.2382 70.7612 15.4339C70.9216 15.6199 71.097 15.809 71.2371 15.99C71.5995 16.4584 72.0351 17.1755 72.2766 17.7038C72.3165 17.7907 72.3784 17.9079 72.4276 17.9458C72.4768 17.9835 72.5419 18.0074 72.5632 17.9983C72.6999 17.9393 72.2586 17.1097 72.1805 16.9353C72.1149 16.789 72.0109 16.1476 72.0237 15.7739C72.8174 17.6075 73.9682 20.0891 70.7502 20.5314C67.0966 21.0337 68.4626 22.798 70.218 22.9353C70.2421 22.9372 70.3717 22.9842 70.3449 22.991C70.3106 22.9998 70.2778 23.0088 70.2459 23.0178C69.6775 22.9835 68.8398 23.0535 69.5035 25.2708C69.4951 25.2578 68.4029 22.6342 67.6105 21.7861C67.0357 21.1709 66.7297 20.348 66.3503 19.5958C66.1223 19.0992 65.8743 18.5294 65.9096 17.9692C65.961 17.5759 66.2524 17.297 66.6546 17.4601Z" fill="#FFAEAE"/>
<path d="M70.8979 15.7015C71.1836 16.3771 71.5399 17.569 71.8083 18.1302C72.0767 18.6914 71.9417 18.894 71.5722 19.0564C71.2161 19.2129 70.8801 19.1169 70.5903 18.6327C70.1874 17.9599 69.5561 16.8867 69.1211 16.1168C69.5649 15.7687 70.044 15.4883 70.4976 15.1587C70.6363 15.3537 70.7398 15.4724 70.8979 15.7015Z" fill="#FFAEAE"/>
<path d="M67.2166 24.2141C67.2166 24.2141 66.9333 22.7131 66.978 22.2106C67.0267 21.6618 67.6199 20.1024 67.6199 20.1024C67.6199 20.1024 65.951 19.6382 65.4542 19.3528C65.0168 19.1015 63.9237 18.0381 63.9237 18.0381L62.5078 22.6883L67.2166 24.2141Z" fill="#FFBC01"/>
<path d="M69.515 16.7646L71.3902 20.2817C70.4684 19.956 69.4461 19.994 68.5482 20.4726C67.8177 20.8621 67.2835 21.4827 66.9789 22.2105L65.4551 19.3527C66.2291 19.5053 67.0422 19.4076 67.7726 19.018C68.6705 18.5393 69.2718 17.7115 69.515 16.7646Z" fill="#FFBC01"/>
<path d="M68.5471 20.473C68.3379 20.5846 68.1448 20.715 67.9687 20.8616C67.4327 20.4706 66.9601 19.9786 66.582 19.395C66.9341 19.3516 67.2822 19.2532 67.6154 19.0967C68.0811 19.5624 68.6202 19.9351 69.2035 20.2061C68.9796 20.2708 68.7599 20.3596 68.5471 20.473Z" fill="#FEC901"/>
<path d="M80.7755 18.8691L80.8222 18.8948L81.0182 19.0019C81.1498 19.0724 81.2813 19.1436 81.4135 19.2133C81.5457 19.2833 81.678 19.3529 81.811 19.4211C81.9437 19.49 82.0767 19.558 82.2102 19.6248C82.7434 19.8934 83.2809 20.1489 83.822 20.3848C84.0926 20.5025 84.3636 20.6161 84.636 20.7214C84.9075 20.8284 85.1805 20.9272 85.4531 21.0175C85.7253 21.1086 85.9981 21.1894 86.2688 21.2577C86.5392 21.3269 86.8082 21.3826 87.0706 21.4188C87.3324 21.4565 87.5885 21.475 87.8252 21.4658C87.9434 21.461 88.0567 21.4512 88.1622 21.4333C88.2679 21.416 88.3652 21.3908 88.453 21.36C88.4966 21.3443 88.5379 21.3271 88.5769 21.3085L88.6056 21.2943L88.6332 21.2794C88.6505 21.2701 88.6653 21.2615 88.6805 21.2521C88.7401 21.2145 88.7898 21.1728 88.8349 21.1224C88.8804 21.0724 88.9232 21.0134 88.9615 20.9405C88.9991 20.8676 89.0351 20.7827 89.0638 20.686C89.0783 20.6379 89.0912 20.587 89.1023 20.5339C89.114 20.4809 89.1244 20.4258 89.133 20.3689C89.1498 20.2548 89.1602 20.1341 89.1665 20.0091C89.1721 19.884 89.1718 19.7549 89.1683 19.623C89.1664 19.5571 89.1631 19.4906 89.1586 19.4236C89.1547 19.3566 89.1498 19.2889 89.1437 19.221C89.1402 19.1825 89.1359 19.1436 89.1319 19.1048C88.4004 19.2465 87.6824 18.7847 87.5132 18.0529C87.3402 17.3046 87.8066 16.5576 88.555 16.3847C89.1561 16.2457 89.7559 16.5195 90.0585 17.0203C90.062 17.0257 90.0654 17.0313 90.0688 17.037C90.0689 17.0373 90.0692 17.0375 90.0693 17.0378C90.0783 17.0526 90.0868 17.0678 90.0947 17.0836L90.0961 17.0863C90.1024 17.0981 90.1084 17.1101 90.1143 17.1221L90.1271 17.1469C90.137 17.1662 90.1465 17.1852 90.1559 17.2042C90.1745 17.2422 90.1928 17.2797 90.2103 17.3174C90.2456 17.3927 90.2791 17.4681 90.3113 17.5439C90.3758 17.6955 90.4354 17.8489 90.4902 18.0046C90.5997 18.316 90.6926 18.6359 90.7624 18.9681C90.7798 19.0512 90.7964 19.1348 90.8111 19.2194C90.8253 19.3041 90.8382 19.3894 90.8496 19.4758C90.873 19.6483 90.8876 19.8247 90.8941 20.0052C90.9013 20.1858 90.8973 20.3708 90.8813 20.5605C90.8731 20.6555 90.8619 20.7517 90.8465 20.8491C90.8306 20.9463 90.8107 21.0448 90.7858 21.1443C90.7361 21.3429 90.6673 21.5467 90.5679 21.747C90.4692 21.9471 90.342 22.1453 90.1841 22.3235C90.0263 22.5015 89.8398 22.6583 89.6405 22.7831C89.5909 22.8141 89.5397 22.8441 89.4896 22.8708L89.4157 22.9089L89.3412 22.9444C89.2416 22.9903 89.1409 23.0302 89.0402 23.0646C88.8389 23.1325 88.6379 23.179 88.4417 23.2088C88.2454 23.2387 88.0534 23.2532 87.8661 23.2555C87.4914 23.2604 87.1364 23.2233 86.7947 23.1663C86.4534 23.1071 86.1256 23.0267 85.8068 22.9336C85.4883 22.8396 85.1794 22.7313 84.8767 22.6153C84.5744 22.4982 84.2792 22.3712 83.9887 22.2384C83.6989 22.1038 83.4137 21.9636 83.1336 21.8165C82.5731 21.5224 82.0302 21.2049 81.5013 20.8686C81.3693 20.7841 81.2381 20.6987 81.1076 20.6122C81.0866 20.5981 81.0656 20.5838 81.0445 20.5696C80.8797 20.792 80.6382 20.9595 80.3474 21.0267C79.6983 21.1768 79.0505 20.7722 78.9004 20.1231C78.7503 19.474 79.1549 18.8262 79.804 18.6761C80.1542 18.595 80.504 18.6757 80.7755 18.8691Z" fill="#FF9F00"/>
<path d="M80.7755 18.8691L80.8222 18.8948L81.0182 19.0019C81.1498 19.0724 81.2813 19.1436 81.4135 19.2133C81.5457 19.2833 81.678 19.3529 81.811 19.4211C81.9437 19.49 82.0767 19.558 82.2102 19.6248C82.7434 19.8934 83.2809 20.1489 83.822 20.3848C84.0926 20.5025 84.3636 20.6161 84.636 20.7214C84.9075 20.8284 85.1805 20.9272 85.4531 21.0175C85.7253 21.1086 85.9981 21.1894 86.2688 21.2577C86.5392 21.3269 86.8082 21.3826 87.0706 21.4188C87.3324 21.4565 87.5885 21.475 87.8252 21.4658C87.9434 21.461 88.0567 21.4512 88.1622 21.4333C88.2679 21.416 88.3652 21.3908 88.453 21.36C88.4966 21.3443 88.5379 21.3271 88.5769 21.3085L88.6056 21.2943L88.6332 21.2794C88.6505 21.2701 88.6653 21.2615 88.6805 21.2521C88.7401 21.2145 88.7898 21.1728 88.8349 21.1224C88.8804 21.0724 88.9232 21.0134 88.9615 20.9405C88.9991 20.8676 89.0351 20.7827 89.0638 20.686C89.0783 20.6379 89.0912 20.587 89.1023 20.5339C89.114 20.4809 89.1244 20.4258 89.133 20.3689C89.1498 20.2548 89.1602 20.1341 89.1665 20.0091C89.1721 19.884 89.1718 19.7549 89.1683 19.623C89.1664 19.5571 89.1631 19.4906 89.1586 19.4236C89.1547 19.3566 89.1498 19.2889 89.1437 19.221C89.1402 19.1825 89.1359 19.1436 89.1319 19.1048C88.4004 19.2465 87.6824 18.7847 87.5132 18.0529C87.3402 17.3046 87.8066 16.5576 88.555 16.3847C89.1561 16.2457 89.7559 16.5195 90.0585 17.0203C90.062 17.0257 90.0654 17.0313 90.0688 17.037C90.0689 17.0373 90.0692 17.0375 90.0693 17.0378C90.0783 17.0526 90.0868 17.0678 90.0947 17.0836L90.0961 17.0863C90.1024 17.0981 90.1084 17.1101 90.1143 17.1221L90.1271 17.1469C90.137 17.1662 90.1465 17.1852 90.1559 17.2042C90.1745 17.2422 90.1928 17.2797 90.2103 17.3174C90.2456 17.3927 90.2791 17.4681 90.3113 17.5439C90.3758 17.6955 90.4354 17.8489 90.4902 18.0046C90.5997 18.316 90.6926 18.6359 90.7624 18.9681C90.7798 19.0512 90.7964 19.1348 90.8111 19.2194C90.8253 19.3041 90.8382 19.3894 90.8496 19.4758C90.873 19.6483 90.8876 19.8247 90.8941 20.0052C90.9013 20.1858 90.8973 20.3708 90.8813 20.5605C90.8731 20.6555 90.8619 20.7517 90.8465 20.8491C90.8306 20.9463 90.8107 21.0448 90.7858 21.1443C90.7361 21.3429 90.6673 21.5467 90.5679 21.747C90.4692 21.9471 90.342 22.1453 90.1841 22.3235C90.0263 22.5015 89.8398 22.6583 89.6405 22.7831C89.5909 22.8141 89.5397 22.8441 89.4896 22.8708L89.4157 22.9089L89.3412 22.9444C89.2416 22.9903 89.1409 23.0302 89.0402 23.0646C88.8389 23.1325 88.6379 23.179 88.4417 23.2088C88.2454 23.2387 88.0534 23.2532 87.8661 23.2555C87.4914 23.2604 87.1364 23.2233 86.7947 23.1663C86.4534 23.1071 86.1256 23.0267 85.8068 22.9336C85.4883 22.8396 85.1794 22.7313 84.8767 22.6153C84.5744 22.4982 84.2792 22.3712 83.9887 22.2384C83.6989 22.1038 83.4137 21.9636 83.1336 21.8165C82.5731 21.5224 82.0302 21.2049 81.5013 20.8686C81.3693 20.7841 81.2381 20.6987 81.1076 20.6122C81.0866 20.5981 81.0656 20.5838 81.0445 20.5696C80.8797 20.792 80.6382 20.9595 80.3474 21.0267C79.6983 21.1768 79.0505 20.7722 78.9004 20.1231C78.7503 19.474 79.1549 18.8262 79.804 18.6761C80.1542 18.595 80.504 18.6757 80.7755 18.8691Z" fill="#FFB001"/>
<path d="M77.6082 0.216981C77.823 0.121088 78.0571 0.0535618 78.2928 0.0217676C78.5288 -0.00995371 78.7642 -0.00521296 78.9854 0.0243936C79.2071 0.0535626 79.4147 0.10993 79.6073 0.179425C79.7037 0.214136 79.7967 0.252495 79.8863 0.293478C79.9757 0.334971 80.0619 0.379307 80.1452 0.425394C80.3117 0.51786 80.4675 0.61769 80.6135 0.72423C80.7597 0.830259 80.898 0.940738 81.0282 1.05625C81.0935 1.11378 81.1572 1.17212 81.2196 1.23111C81.2816 1.29047 81.3419 1.35085 81.4011 1.4116C81.6379 1.65465 81.852 1.9101 82.0494 2.17451C82.1482 2.3068 82.2423 2.4417 82.3323 2.57974C82.3773 2.6488 82.4213 2.71859 82.464 2.78991C82.4856 2.82542 82.5065 2.86159 82.5277 2.8982C82.5383 2.9165 82.5487 2.93502 82.5592 2.95406L82.5727 2.97848C82.5793 2.99008 82.5859 3.00175 82.5922 3.01349L82.5937 3.01611C82.6024 3.03143 82.6102 3.04703 82.6176 3.06278C82.6177 3.06307 82.6179 3.06337 82.618 3.06366C82.6208 3.06956 82.6236 3.07554 82.6261 3.08152C82.8733 3.61189 82.7663 4.26251 82.316 4.68414C81.7553 5.20911 80.8752 5.18016 80.3502 4.61946C79.8368 4.07116 79.8535 3.21767 80.3788 2.68927C80.3488 2.66433 80.3189 2.6391 80.289 2.61475C80.2359 2.5718 80.1825 2.53008 80.129 2.48947C80.0759 2.44841 80.0225 2.40867 79.9688 2.37024C79.8613 2.29389 79.7542 2.22162 79.6472 2.15665C79.5399 2.09218 79.4339 2.03355 79.3298 1.98404C79.2777 1.95939 79.2262 1.93737 79.1756 1.91754C79.1253 1.89712 79.0759 1.87947 79.0279 1.86467C78.9316 1.83462 78.8411 1.81719 78.7595 1.80786C78.6777 1.79896 78.6049 1.80173 78.538 1.81158C78.4709 1.82099 78.4086 1.83892 78.3442 1.86751C78.3279 1.87488 78.3125 1.88239 78.2951 1.8915L78.2673 1.90616L78.2395 1.92213C78.2025 1.94415 78.1652 1.9688 78.1277 1.99622C78.0532 2.052 77.9781 2.11873 77.9048 2.1969C77.8312 2.27449 77.76 2.36316 77.6901 2.45862C77.5506 2.64997 77.4232 2.87297 77.3086 3.11135C77.1924 3.34944 77.0888 3.6038 76.9955 3.86683C76.9014 4.12971 76.8165 4.4012 76.7404 4.67802C76.6635 4.95468 76.5935 5.23631 76.531 5.52151C76.4666 5.80635 76.4098 6.09468 76.3569 6.38491C76.2512 6.96552 76.1638 7.55437 76.0897 8.14672C76.0707 8.29476 76.053 8.44315 76.0364 8.59162C76.0189 8.74009 76.003 8.88878 75.9875 9.03755C75.9716 9.18623 75.9574 9.33507 75.9427 9.48361L75.9223 9.70603L75.9177 9.75919C75.9269 10.0924 75.799 10.4277 75.5366 10.6735C75.0503 11.1288 74.2869 11.1037 73.8316 10.6173C73.3763 10.131 73.4013 9.36767 73.8877 8.91234C74.1056 8.7083 74.3792 8.60103 74.6557 8.58827C74.6557 8.56289 74.6555 8.53744 74.6555 8.51206C74.6564 8.3555 74.6586 8.19894 74.662 8.04222C74.6774 7.41567 74.7163 6.78796 74.7845 6.15871C74.8184 5.84405 74.861 5.52917 74.9107 5.21356C74.9623 4.89831 75.0214 4.58234 75.0926 4.26608C75.1649 3.9501 75.2472 3.63326 75.3467 3.31641C75.447 2.99985 75.5629 2.68286 75.7039 2.36644C75.847 2.05098 76.0141 1.73552 76.2269 1.4272C76.3331 1.27297 76.4522 1.12166 76.5865 0.975302C76.7205 0.828946 76.8711 0.688061 77.0397 0.558697C77.1245 0.494306 77.2137 0.432979 77.3073 0.375807L77.3783 0.333729L77.4512 0.293623C77.5015 0.266714 77.5549 0.2409 77.6082 0.216981Z" fill="#FF9F00"/>
<path d="M69.5156 16.7647L71.3909 20.2818C71.6341 19.3349 72.2354 18.5071 73.1332 18.0284C73.8638 17.6389 74.6768 17.5412 75.4508 17.6938L73.927 14.8359C73.6223 15.5636 73.0882 16.1843 72.3576 16.5738C71.4598 17.0525 70.4374 17.0905 69.5156 16.7647Z" fill="#FFB001"/>
<path d="M71.6133 16.8648C71.8673 16.7986 72.1167 16.7022 72.3571 16.574C72.5132 16.4908 72.6602 16.3971 72.7978 16.2939C72.7338 16.9104 72.7476 17.5406 72.8948 18.1604C72.5963 18.3488 72.3595 18.5791 72.1386 18.8397C71.8358 18.202 71.664 17.533 71.6133 16.8648Z" fill="#FEC901"/>
<path d="M61.3968 16.1917L56.9707 18.5518L62.9144 29.6989L67.3405 27.3389L61.3968 16.1917Z" fill="#29293D"/>
<path d="M58.9794 20.1834L62.6797 27.123L65.3299 25.71L61.6296 18.7703L58.9794 20.1834Z" fill="#FEC901"/>
<path d="M63.3222 18.3587L66.6152 24.5347L67.2163 24.2142L63.9232 18.0382L63.3222 18.3587Z" fill="#FFB001"/>
<path d="M62.204 17.7109L66.5293 25.8228L67.1304 25.5023L62.8051 17.3904L62.204 17.7109Z" fill="#FEC901"/>
<path d="M61.7925 19.0742L62.3459 20.1121C61.639 21.9168 61.8764 24.4743 63.1499 26.8731L62.8975 27.0076C62.7368 26.7582 62.584 26.4982 62.4402 26.2285C61.067 23.653 60.8888 20.892 61.7925 19.0742Z" fill="#FED801"/>
<path d="M60.6685 19.2837L59.7825 19.7561C59.7392 20.4821 59.8042 21.2613 59.981 22.0598L61.2342 24.4103C60.4848 22.5955 60.3091 20.7592 60.6685 19.2837Z" fill="#FED801"/>
<path d="M77.3528 17.3978C78.6799 16.6902 79.2804 15.225 78.6939 14.1251C78.1075 13.0253 76.5563 12.7074 75.2291 13.415C73.902 14.1226 73.3016 15.5879 73.888 16.6877C74.4744 17.7875 76.0257 18.1055 77.3528 17.3978Z" fill="#FEC901"/>
<path d="M78.6948 14.1285C78.7386 14.2106 78.7755 14.2946 78.8062 14.3802C78.1365 13.4716 76.7166 13.2481 75.4884 13.9029C74.2603 14.5577 73.6546 15.8613 74.0358 16.9238C73.9818 16.8506 73.9326 16.773 73.8889 16.6909C73.3024 15.5911 73.9029 14.1259 75.2301 13.4183C76.5572 12.7108 78.1085 13.0287 78.6948 14.1285Z" fill="#FFBC01"/>
<path d="M91.2074 16.5358C84.2353 20.1968 76.9481 20.0393 74.8809 16.1623C72.8137 12.2853 76.7439 6.14682 83.6692 2.39795L91.2074 16.5358Z" fill="#FFBC01"/>
<path d="M84.2634 3.51237C77.7952 6.91603 73.8223 12.2208 74.8123 16.0278C72.9041 12.1446 76.8229 6.10346 83.6689 2.39746L84.2634 3.51237Z" fill="#FFB001"/>
<path d="M86.4325 7.45117L90.9031 15.8357C84.5966 18.5678 79.2388 19.253 78.1668 17.2424C77.0947 15.2319 80.6494 11.165 86.4325 7.45117Z" fill="#FEC901"/>
<path d="M87.4505 9.36035L90.4594 15.0035C85.4705 17.012 81.6446 17.6742 80.9827 16.4327C80.3208 15.1912 83.0026 12.3834 87.4505 9.36035Z" fill="#FED801"/>
<path d="M83.4228 2.36511L91.0978 16.7594C91.199 16.9492 91.4348 17.021 91.6246 16.9199C91.8143 16.8186 91.8862 16.5828 91.785 16.3931L84.11 1.99875C84.0088 1.809 83.7729 1.73718 83.5832 1.83832C83.3935 1.93954 83.3216 2.17537 83.4228 2.36511Z" fill="#FFBC01"/>
<path d="M83.5832 1.83837C83.773 1.73715 84.0089 1.80898 84.11 1.99879L91.0056 14.9314C91.1068 15.1211 91.035 15.357 90.8451 15.4582C90.6554 15.5594 90.4195 15.4876 90.3183 15.2978L83.4228 2.36516C83.3216 2.17541 83.3935 1.93958 83.5832 1.83837Z" fill="#FEC901"/>
<path d="M83.6594 1.98046C83.8491 1.87924 84.085 1.95107 84.1862 2.14088L88.1699 9.61224C88.271 9.80198 88.1993 10.0379 88.0094 10.139C87.8197 10.2402 87.5838 10.1684 87.4827 9.9786L83.499 2.50725C83.3978 2.3175 83.4696 2.0816 83.6594 1.98046Z" fill="#FED801"/>
<path d="M83.5832 1.83837C83.773 1.73715 84.0089 1.80898 84.11 1.99879L87.0157 7.4483C87.1169 7.63804 87.0451 7.87395 86.8553 7.97509C86.6655 8.07631 86.4296 8.00448 86.3285 7.81466L83.4228 2.36516C83.3216 2.17541 83.3935 1.93958 83.5832 1.83837Z" fill="#FEC901"/>
<path d="M83.5832 1.83837C83.7729 1.73715 84.0088 1.80898 84.11 1.99879L84.8887 3.45936C84.99 3.64911 84.9181 3.88501 84.7284 3.98615C84.5386 4.08737 84.3027 4.01554 84.2016 3.82572L83.4228 2.36516C83.3216 2.17541 83.3935 1.93958 83.5832 1.83837Z" fill="#FFBC01"/>
<path d="M91.3041 16.3198C91.4939 16.2185 91.5657 15.9827 91.4646 15.793L91.7843 16.3927C91.8855 16.5824 91.8137 16.8183 91.6239 16.9195C91.4342 17.0207 91.1983 16.9489 91.0971 16.759L90.7773 16.1593C90.8785 16.3491 91.1144 16.421 91.3041 16.3198Z" fill="#FFB001"/>
<path d="M86.7988 9.57285C86.9779 9.72147 87.1134 9.92026 87.1842 10.1466C87.2735 9.92682 87.4247 9.73984 87.6154 9.60647C87.4363 9.45778 87.3009 9.25899 87.2299 9.03271C87.1408 9.25243 86.9895 9.43933 86.7988 9.57285Z" fill="white"/>
<path d="M70.5479 15.2641C70.889 16.0548 71.355 17.515 71.6687 18.1274C71.9822 18.7397 71.7651 18.7046 71.4976 18.8982C71.2398 19.0846 70.9073 18.8456 70.7299 18.5721C70.3606 18.0028 69.32 16.437 69.212 15.9205C69.0959 15.3644 69.2835 15.4782 69.4272 15.1973C69.5398 14.9773 69.73 14.9819 69.9039 14.9117C70.1707 14.8039 70.424 14.977 70.5479 15.2641Z" fill="#FFC7C7"/>
<path d="M70.5482 15.2643C70.8894 16.055 71.3553 17.5152 71.669 18.1276C71.9825 18.7399 71.7655 18.7048 71.4979 18.8984C71.2401 19.0848 70.9076 18.8458 70.7302 18.5723C70.361 18.003 69.3203 16.4372 69.2124 15.9207C69.0962 15.3646 69.2031 15.4089 69.3892 15.154C69.551 14.9325 69.6984 14.9328 69.8722 14.8626C70.1391 14.7549 70.4243 14.9772 70.5482 15.2643Z" fill="#FFC7C7"/>
<path d="M68.4466 15.3125C68.7294 15.2076 68.9933 15.3863 69.1507 15.6161C69.1601 15.5499 69.1719 15.4759 69.1998 15.418C69.19 15.3924 69.2322 15.479 69.2418 15.497C69.7327 16.4163 70.5963 18.0238 70.9704 18.7874C71.3445 19.5509 71.119 19.6157 70.7684 19.8794C70.4307 20.1336 70.0801 20.0564 69.7724 19.6156C69.1577 18.735 68.0993 17.4145 67.6289 16.3889C67.7149 16.4157 67.8125 16.5206 67.8787 16.6027C67.8537 16.5654 67.7917 16.4499 67.7835 16.4161C67.7157 16.1375 67.7842 15.8664 67.957 15.6555C68.0925 15.4903 68.2482 15.3861 68.4466 15.3125Z" fill="#FFAEAE"/>
<path d="M65.9828 18.3373C66.291 18.7442 66.6855 19.2827 67.0053 19.6588C67.3554 20.0705 67.7712 20.3359 68.2 20.0055C68.4736 19.7947 68.3174 19.7127 68.2395 19.4652C67.8488 18.954 67.2014 18.1002 66.8473 17.69C66.1211 16.8488 65.6237 17.8632 65.9828 18.3373Z" fill="#FFC7C7"/>
<path d="M69.2445 15.7604C69.7074 16.6217 70.4871 18.1303 70.8673 18.8306C71.2474 19.5309 71.0246 19.5625 70.733 19.8363C70.4521 20.1 70.0805 19.8754 69.8483 19.5633C69.3646 18.9135 68.0373 17.1756 67.8516 16.5806C67.6516 15.9399 67.7568 16.0428 67.888 15.7163C67.9906 15.4605 68.2506 15.3838 68.4435 15.2965C68.7396 15.1628 69.0763 15.4477 69.2445 15.7604Z" fill="#FFC7C7"/>
<path d="M67.7096 19.4717C67.6493 19.5045 67.5973 19.5408 67.5428 19.583C67.5093 19.6089 67.4766 19.6366 67.473 19.6851C67.4692 19.7382 67.4969 19.7905 67.5275 19.8366C67.5882 19.9278 67.6437 20.0244 67.7137 20.1113C67.7729 20.1847 67.8537 20.2189 67.9498 20.1855C68.0459 20.1522 68.1323 20.107 68.2245 20.045C68.3045 19.9913 68.3264 19.8753 68.2636 19.7937C68.2007 19.7122 68.1314 19.636 68.0628 19.565C68.0005 19.5005 67.9334 19.4403 67.8473 19.4294C67.7915 19.4224 67.7534 19.4479 67.7096 19.4717Z" fill="#FFE6E6"/>
<path d="M70.0358 18.7741C69.9375 18.8594 69.8619 18.9623 69.8613 19.1002C69.8609 19.2062 69.9188 19.302 69.9749 19.3941C70.0861 19.5765 70.2151 19.7525 70.3468 19.9227C70.4917 19.9385 70.6151 19.9398 70.7478 19.8652C70.9388 19.7578 71.0678 19.6232 71.0352 19.3896C71.0352 19.3893 71.0351 19.3889 71.0351 19.3889C70.9598 19.262 70.9005 19.1033 70.8279 18.9796C70.7236 18.8018 70.5756 18.6269 70.3644 18.6189C70.224 18.6136 70.1342 18.6888 70.0358 18.7741Z" fill="#FFE6E6"/>
<path d="M67.9115 16.672C67.8777 16.613 67.8355 16.5441 67.8147 16.4808C67.8092 16.4642 67.811 16.466 67.8074 16.4531C67.8066 16.4503 67.8067 16.4495 67.8062 16.4475C67.8044 16.4401 67.8031 16.4338 67.8016 16.4267C67.8013 16.4249 67.801 16.4232 67.8007 16.4215C67.7993 16.4143 67.798 16.4072 67.7968 16.4C67.7966 16.3988 67.7965 16.3976 67.7962 16.3963C67.7951 16.3887 67.7939 16.381 67.793 16.3733C67.7929 16.3726 67.7928 16.3719 67.7927 16.3712C67.7917 16.363 67.7908 16.3547 67.7901 16.3466C67.7901 16.3463 67.79 16.346 67.79 16.3457C67.7879 16.3193 67.7585 16.2341 67.7585 16.2075C68.5536 17.4288 69.3777 18.7066 70.1706 19.9303C70.1489 19.8967 70.0678 19.7865 70.0619 19.8554C70.0432 20.0739 70.0406 20.3835 69.7805 20.4873C69.4009 20.6389 69.1648 20.7416 68.7668 20.2616C68.0923 19.4478 67.0928 18.2869 66.4043 17.378C66.4555 17.3469 66.5251 17.3835 66.5805 17.4234C66.5769 17.4048 66.6425 17.428 66.6398 17.4083C66.6446 17.4129 66.6501 17.4182 66.6543 17.4225C66.6425 17.3525 66.6287 17.2708 66.638 17.2012C66.6573 17.0568 66.6962 16.9055 66.7781 16.7906C66.8948 16.627 67.025 16.5112 67.2051 16.4247C67.4725 16.2961 67.7456 16.4548 67.9115 16.672Z" fill="#FFAEAE"/>
<path d="M70.1793 19.9441C70.1767 19.9403 70.1727 19.9339 70.1699 19.9297C70.1854 19.9513 70.2142 19.9955 70.1793 19.9441Z" fill="#FFAEAE"/>
<path d="M72.5944 17.8908C72.5907 17.8768 72.5868 17.8629 72.5827 17.8492C72.6445 17.5878 72.1064 16.8398 72.0649 16.4457C72.0332 16.1451 71.9785 15.6404 72.0454 15.3131C72.0617 15.233 72.3199 14.8832 72.4314 14.9473C72.7019 15.1026 73.0223 15.7274 73.2271 16.0661C73.4318 16.4048 73.7654 17.2014 73.98 17.7004C74.084 17.9423 74.1926 18.209 74.2507 18.5267C74.2332 18.5282 74.2157 18.5299 74.198 18.5323C74.0778 18.5215 73.9585 18.5019 73.8406 18.476C73.6438 18.4148 73.4506 18.3426 73.2584 18.2684C73.0509 18.1884 72.8441 18.1061 72.6339 18.0332C72.6238 17.9856 72.6106 17.9381 72.5944 17.8908Z" fill="#FFCACA"/>
<path d="M67.9443 16.724C68.454 17.4838 69.3294 18.7986 69.7373 19.4221C70.1451 20.0455 69.9184 20.0777 69.686 20.3664C69.462 20.6445 69.1023 20.4819 68.8574 20.2095C68.3475 19.6421 66.9553 18.149 66.7257 17.6023C66.4786 17.0138 66.6955 17.1318 66.7849 16.8043C66.8549 16.5477 67.0378 16.5361 67.2098 16.4351C67.4738 16.2802 67.7591 16.4481 67.9443 16.724Z" fill="#FFC7C7"/>
<path d="M67.9439 16.7242C68.4536 17.484 69.3291 18.7988 69.7369 19.4223C70.1448 20.0457 69.9181 20.0779 69.6856 20.3666C69.4616 20.6448 69.1019 20.4821 68.857 20.2097C68.3472 19.6424 66.9549 18.1493 66.7254 17.6026C66.4782 17.014 66.5158 17.1477 66.6052 16.8201C66.6752 16.5634 67.0606 16.3992 67.2327 16.2982C67.4967 16.1433 67.7587 16.4484 67.9439 16.7242Z" fill="#FFC7C7"/>
<path d="M72.5469 15.04C72.5763 15.34 72.8158 15.9489 73.1637 16.0575C73.191 16.0661 73.1966 16.0417 73.2259 16.0521C73.2033 15.9832 72.7242 15.1367 72.5469 15.04Z" fill="#FFE6E6"/>
<path d="M70.9729 17.9163C70.8794 17.9752 70.7984 18.0632 70.7848 18.1796C70.7743 18.2692 70.8171 18.3446 70.8601 18.4273C70.9452 18.591 71.0512 18.7602 71.1493 18.9206C71.271 18.9539 71.387 18.9699 71.5078 18.9242C71.6818 18.8585 71.8068 18.778 71.7911 18.5763C71.7909 18.576 71.7911 18.576 71.7911 18.576C71.7286 18.4668 71.6861 18.3433 71.6274 18.2328C71.5428 18.0738 71.4403 17.9082 71.2662 17.8568C71.1504 17.8225 71.0664 17.8574 70.9729 17.9163Z" fill="#FFE6E6"/>
<path d="M68.9612 19.4525C68.8774 19.5412 68.8158 19.6457 68.8276 19.7745C68.8368 19.8735 68.8998 19.9592 68.9597 20.0393C69.0784 20.1979 69.2122 20.3476 69.3477 20.4935C69.4798 20.4913 69.5948 20.4737 69.7037 20.3911C69.8605 20.2722 69.9716 20.1183 69.9309 19.9146C69.9306 19.9143 69.9308 19.9141 69.9308 19.9141C69.8463 19.8086 69.7912 19.6741 69.713 19.5663C69.6005 19.4114 69.451 19.268 69.2541 19.2773C69.1231 19.2833 69.0449 19.3638 68.9612 19.4525Z" fill="#FFE6E6"/>
<path d="M72.6577 18.6585C72.6678 18.5671 72.3996 18.6733 72.3842 18.5784C72.6332 18.3359 72.6229 18.0238 72.5686 17.8352C72.4456 17.408 72.2179 16.983 72.1637 16.8621C72.0982 16.7158 71.9942 16.0744 72.0069 15.7007C72.6419 17.1677 73.2027 17.731 72.8173 19.0575C72.7709 18.9241 72.7178 18.793 72.6602 18.6641C72.6594 18.6621 72.6585 18.6603 72.6577 18.6585Z" fill="#FFAEAE"/>
<path d="M64.2402 79.5584C64.2402 79.5584 70.5361 80.482 72.7461 83.7543C75.4207 87.7143 74.6976 91.3755 76.88 95.1774C79.6283 99.9651 86.418 101.604 88.9699 104.507C98.7949 115.683 112.984 111.213 112.984 111.213L108.961 100.571L105.169 75.898L104.805 67.7549L96.639 62.0703C96.639 62.0703 80.8806 61.1139 76.2487 63.6565C72.9902 65.4452 64.2402 79.5584 64.2402 79.5584Z" fill="#245AD9"/>
<path d="M77.2711 47.2392C84.0931 61.0018 87.1488 63.1768 90.8722 68.2879C92.8146 68.4725 96.5078 61.925 96.5078 61.925L85.0324 43.4712C85.0324 43.4712 76.2043 45.0871 77.2711 47.2392Z" fill="#245AD9"/>
<path d="M83.6936 38.8133C80.7816 39.5428 77.8921 41.1609 74.3003 42.947C72.9666 43.6102 75.8902 48.1828 76.7523 48.3769C79.3272 48.0587 86.2074 43.7314 86.2074 43.7314C86.2074 43.7314 85.0574 38.4717 83.6936 38.8133Z" fill="#3871E2"/>
<path d="M120.331 66.0663L119.505 70.8226C119.505 70.8226 118.987 72.3619 118.934 73.7504C118.893 74.8064 119.797 75.9663 120.328 76.5538C120.468 76.7087 120.358 76.9735 120.157 76.9644C119.432 76.932 118.16 76.6439 117.446 75.1318C116.423 76.8875 117.342 78.3378 117.983 79.0487C118.135 79.2167 118.002 79.5009 117.786 79.4699C116.396 79.2712 113.301 78.3216 112.019 73.8411C111.425 71.7653 105.69 72.9122 104.45 69.663C103.07 66.0467 100.91 66.3198 99.9982 65.5236C99.1306 64.7661 97.9491 64.99 97.3482 63.9733C96.9173 63.2443 96.6053 61.9373 95.3583 61.9991C92.8952 62.121 93.5987 59.8216 92.2166 60.1131C90.0516 60.5697 89.5365 63.3034 89.4239 62.7724C88.2415 57.1979 90.2312 55.3473 91.911 53.8986C94.5736 51.6022 102.731 44.9507 102.731 44.9507L107.247 46.8569L114.25 49.3572L116.431 57.6624L120.331 66.0663Z" fill="#29293D"/>
<path d="M109.094 57.2695C108.331 58.4854 108.532 59.9856 109.543 60.6203C110.554 61.2549 111.992 60.7836 112.756 59.5677C113.519 58.3517 113.318 56.8516 112.307 56.2169C111.295 55.5823 109.857 56.0536 109.094 57.2695Z" fill="#FFA6A6"/>
<path d="M106.604 60.4404L104.399 71.271L94.5742 68.4066L102.777 56.2993L106.604 60.4404Z" fill="#FFC7C7"/>
<path d="M96.9037 99.2648C96.9037 99.2648 106.622 80.4811 112.254 73.2933C111.854 71.0786 105.126 67.7941 105.126 67.7941C105.126 67.7941 101.857 69.1385 100.068 68.1947C97.2404 66.7028 97.1512 64.6039 97.1512 64.6039C97.1512 64.6039 95.4169 63.8905 94.6033 64.0986C90.9324 65.0372 85.7612 68.2445 83.5138 76.5023C81.0097 85.7035 82.4054 98.6205 82.4054 98.6205L88.3529 109.036L96.9037 99.2648Z" fill="white"/>
<path d="M64.2402 79.5587C64.2402 79.5587 72.4052 68.5919 77.515 66.6853C86.1823 63.4513 87.7405 70.3976 97.151 64.6035C98.0064 63.3411 98.325 62.8708 98.325 62.8708C98.325 62.8708 92.0685 57.8197 87.9202 58.0076C85.164 58.1323 79.5089 60.2912 77.3162 61.9659C73.3384 65.0038 64.2402 79.5587 64.2402 79.5587Z" fill="#3871E2"/>
<path d="M135.804 115.456C136.559 116.478 129.722 117.284 127.451 116.455C124.952 115.544 125.866 114.267 123.106 114.747C121.528 115.021 124.855 112.041 125.799 113.096C129.083 116.763 134.697 113.958 135.804 115.456Z" fill="#FFA6A6"/>
<path d="M115.556 98.873C116.499 98.3069 117.442 97.7408 118.386 97.1748C120.715 103.02 124.31 111.653 127.105 114.519C128.632 116.084 134.547 118.106 134.547 118.106C135.086 118.379 134.898 119.191 134.294 119.2C133.735 119.209 133.205 119.206 132.886 119.177C130.282 118.939 125.199 117.355 123.094 115.607C119.415 112.551 115.119 105.242 112.336 100.023C113.421 99.7152 114.494 99.3324 115.556 98.873Z" fill="#FFC7C7"/>
<path d="M99.3008 61.4302L102.777 56.2993L106.604 60.4404L105.756 64.6069C105.576 64.6519 105.394 64.6921 105.211 64.7259C102.081 65.3031 100.117 63.7411 99.3008 61.4302Z" fill="#FFA6A6"/>
<path d="M98.0351 52.0922C97.445 53.4009 97.8489 54.8596 98.9372 55.3503C100.025 55.841 101.386 55.1779 101.976 53.8692C102.566 52.5605 102.162 51.1018 101.074 50.611C99.9858 50.1203 98.6252 50.7834 98.0351 52.0922Z" fill="#FFA6A6"/>
<path d="M113.625 54.5152C115.502 50.2341 110.369 44.9754 106.017 45.9785C102.114 46.8783 99.1413 53.2 98.5734 56.8047C97.9536 60.7382 99.9466 64.743 104.42 63.7301C108.68 62.7657 111.958 58.3186 113.625 54.5152Z" fill="#FFC7C7"/>
<path d="M106.017 45.9789C106.664 45.83 107.327 45.82 107.982 45.9236C108.083 45.9973 108.182 46.0734 108.275 46.1537C108.355 46.1122 108.438 46.0727 108.522 46.0344C112.063 46.9342 115.146 51.0458 113.625 54.5157C113.418 54.9877 113.186 55.4697 112.931 55.9537C112.961 55.7153 112.977 55.4724 112.969 55.223C112.781 49.4038 106.419 48.2775 104.853 48.5345C103.461 48.763 102.188 49.4574 101.205 50.3568C101.095 50.4578 100.985 50.5604 100.875 50.6633C102.196 48.3963 103.979 46.4486 106.017 45.9789Z" fill="#FFA6A6"/>
<path d="M119.47 70.82C119.47 70.82 121.677 68.8039 121.343 64.9135C121.179 63.0044 118.608 59.8088 118.05 57.9623C117.412 55.8527 119.608 52.1661 116.732 47.9222C115.606 46.2595 112.01 44.9749 110.103 45.2068C108.534 45.3977 107.213 46.8543 107.213 46.8543C107.213 46.8543 109.829 48.7376 109.831 48.739C111.713 50.0943 113.246 52.175 112.671 54.6892C112.257 56.5025 111.459 58.0645 112.51 59.8317C114.055 62.4307 117.35 63.1648 118.96 65.294C120.162 66.8825 119.47 70.82 119.47 70.82Z" fill="#5B5B86"/>
<path d="M102.039 83.8244C102.476 81.8936 104.497 78.8442 105.095 76.8769C105.995 73.9159 106.023 71.0326 105.253 67.8574C106.18 68.3222 111.886 71.259 112.253 73.2934C109.253 77.1225 105.093 84.2425 101.861 90.0604C101.573 87.7745 101.692 85.3571 102.039 83.8244Z" fill="#D9EFFF"/>
<path d="M110.209 49.0222C110.899 47.5559 110.306 45.6239 109.187 44.8491C107.952 43.9939 106.384 43.7005 104.914 43.5873C100.511 43.2482 99.1294 46.9366 97.0811 48.7406C95.9256 49.7582 94.9916 49.3968 93.6944 50.5435C92.9314 51.2181 91.0156 54.7181 91.0156 54.7181C91.0156 54.7181 93.017 52.9837 94.5807 52.8628C96.6673 52.7014 97.0512 53.2975 98.5702 52.7288C100.003 52.1923 101.019 51.0056 102.08 49.961C103.001 49.0544 103.939 48.2327 105.235 47.9929C106.716 47.719 108.456 47.7643 110.209 49.0222Z" fill="#464666"/>
<path d="M105.127 67.7939C110.007 69.189 113.953 73.142 114.893 77.1356C115.614 80.1953 116.027 85.3738 117.127 90.5895C118.593 94.8096 123.543 105.877 123.543 105.877C123.543 105.877 117.955 109.531 116.263 108.908C112.336 100.022 110.127 97.2907 108.086 88.4249C107.252 95.2853 112.985 111.214 112.985 111.214C112.985 111.214 110.748 105.803 109.739 104.067C108.362 101.697 105.015 97.9952 103.842 95.4163C102.696 92.8953 101.972 87.4212 102.5 84.7064C102.879 82.7633 104.958 79.6676 105.496 77.6831C106.381 74.4238 106.23 71.2887 105.127 67.7939Z" fill="#3871E2"/>
<path d="M117.461 111.576C120.051 111.5 122.176 110.02 125.211 108.464C126.306 107.903 123.94 103.752 123.135 103.508C120.628 104.141 116.693 105.462 115.04 107.182C114.492 107.752 116.679 111.599 117.461 111.576Z" fill="#3883E2"/>
<path d="M105.496 77.6831C106.383 74.4154 106.23 71.2725 105.118 67.7668C105.118 67.7607 105.117 67.7548 105.117 67.7486L105.362 66.5469C105.764 66.6743 107.155 67.7197 107.638 68.6644C108.422 70.4089 108.738 72.6631 109.329 75.4731C109.385 75.7369 109.163 75.9752 108.895 75.9404C107.754 75.7916 106.528 75.7825 106.528 75.7825L108.672 78.4021C108.783 78.5372 108.771 78.7336 108.646 78.8553C107.614 79.8586 103.455 84.6277 104.086 95.8252C104.087 95.8577 104.088 95.8873 104.088 95.9151C103.999 95.7448 103.916 95.5782 103.842 95.4161C102.696 92.8952 101.972 87.421 102.5 84.7063C102.879 82.7633 104.958 79.6676 105.496 77.6831Z" fill="#0053D8"/>
<path d="M89.5487 63.6568C89.7963 62.8395 91.2772 64.2746 92.9262 64.1684C92.8615 63.6248 92.2837 63.261 91.8434 63.0599C91.695 62.9922 91.7161 62.7754 91.8744 62.7359L96.4877 61.5853C98.0928 61.076 98.7724 61.7078 98.7398 62.258L97.1527 64.6006C97.1514 64.6018 97.1494 64.6038 97.1481 64.6051C89.9131 69.0584 87.3197 65.9807 82.5664 65.7917C82.5628 65.7548 88.8256 66.0438 89.5487 63.6568Z" fill="#0053D8"/>
<path d="M97.672 149.314C97.3439 147.1 97.0605 144.876 96.9004 142.646C108.28 144.12 120.381 145.254 123.383 143.561L126.031 143.06C126.031 143.06 131.836 148.557 131.973 148.723C132.11 148.889 131.458 152.696 131.458 152.696L130.314 152.022L130.096 151.826L129.921 151.547C129.02 150.111 127.337 149.152 125.651 149.335C122.807 149.643 110.175 151.33 98.1361 152.141C97.9829 151.198 97.8273 150.256 97.672 149.314Z" fill="#FFC7C7"/>
<path d="M132.997 148.459C133.315 148.785 133.668 149.223 133.689 149.694L133.878 154.078C133.904 154.683 133.71 155.272 133.326 155.714C133.232 155.821 133.071 155.948 132.903 156.067C132.578 156.297 131.77 156.182 131.599 155.805C131.048 154.589 129.969 152.133 130.096 151.826L130.096 151.825C130.804 150.713 130.634 149.205 129.698 148.297L128.19 146.832C127.394 146.059 126.513 145.391 125.568 144.844L123.389 143.541L123.86 142.732C124.658 141.364 126.279 140.848 127.652 141.525L128.527 141.956L129.583 142.417L133.547 142.921L133.576 143.595L129.296 143.779C129.175 143.785 129.081 143.894 129.087 144.025L129.096 144.229C129.109 144.53 129.228 144.771 129.431 144.98L132.997 148.459Z" fill="#30304A"/>
<path d="M97.672 149.314C97.3439 147.1 97.0605 144.876 96.9004 142.646C101.514 143.243 106.247 143.785 110.444 144.105C111.518 146.151 112.188 148.316 111.031 151.014C106.988 151.434 102.523 151.845 98.136 152.141C97.9829 151.198 97.8273 150.256 97.672 149.314Z" fill="#FFA6A6"/>
<path d="M70.3722 155.593C72.2643 154.397 76.0671 156.456 78.0417 155.407C81.2986 166.41 83.2751 174.715 86.0379 176.776L87.5679 178.995C87.5679 178.995 84.8897 186.528 84.7935 186.721C84.6972 186.913 80.9518 187.857 80.9518 187.857L81.1057 186.538L81.1968 186.259L81.3805 185.987C82.3295 184.582 82.525 182.655 81.676 181.187C80.2434 178.71 74.4455 169.346 68.832 158.665C69.6321 158.143 69.5737 156.116 70.3722 155.593Z" fill="#FFC7C7"/>
<path d="M85.4507 187.549C85.281 187.972 85.023 188.472 84.6005 188.681L80.6685 190.628C80.1258 190.897 79.5089 190.958 78.9494 190.785C78.8129 190.743 78.6314 190.647 78.4548 190.542C78.1135 190.338 77.8914 189.552 78.1673 189.243C79.0564 188.247 80.865 186.267 81.1975 186.259L81.1982 186.259C82.5014 186.456 83.8116 185.69 84.2639 184.467L84.9928 182.495C85.3779 181.453 85.632 180.378 85.7494 179.293L86.0594 176.772L86.9896 176.876C88.5638 177.052 89.6918 178.326 89.6283 179.855L89.5878 180.83L89.5939 181.982L90.737 185.811L90.1326 186.11L88.232 182.271C88.1782 182.162 88.0399 182.121 87.9231 182.179L87.7399 182.269C87.4696 182.403 87.2975 182.61 87.189 182.88L85.4507 187.549Z" fill="#30304A"/>
<path d="M70.3709 155.593C72.263 154.397 76.0659 156.456 78.0405 155.407C79.6567 160.867 80.9577 165.663 82.1959 169.361C80.6986 171.299 78.3013 172.209 76.3417 172.164C73.8072 167.818 71.2766 163.154 68.4883 157.848C69.2882 157.327 69.5724 156.116 70.3709 155.593Z" fill="#FFA6A6"/>
<path d="M82.2341 98.2212C84.4258 100.467 92.8039 101.313 97.0258 99.3693C99.9384 103.507 102.454 106.168 102.809 114.975C103.247 125.812 92.5596 141.96 92.5596 141.96C92.5596 141.96 100.432 141.769 108.541 143.381C110.1 146.042 111.061 148.252 108.92 151.997C93.1037 153.174 85.7691 154.585 81.9583 148.609C79.7168 145.094 83.9826 133.502 86.0454 126.045C86.1456 125.683 85.6361 125.487 85.4671 125.823L74.5661 141.565C74.5661 141.565 81.1214 152.411 82.3995 166.265C80.9951 169.991 76.6748 171.43 74.2576 170.579C68.604 159.077 62.6884 146.001 63.777 138.665C65.1574 129.364 81.3571 101.519 82.2341 98.2212Z" fill="#464666"/>
</svg>
