<svg width="211" height="126" viewBox="0 0 211 126" fill="none" xmlns="http://www.w3.org/2000/svg">
<mask id="mask0_1145_1596" style="mask-type:alpha" maskUnits="userSpaceOnUse" x="0" y="0" width="211" height="126">
<rect width="211" height="126" rx="28" fill="#5D5E9E"/>
</mask>
<g mask="url(#mask0_1145_1596)">
<path opacity="0.5" d="M150.529 120.215C118.978 115.062 113.344 119.373 112.696 122.257C121.017 129.521 134.743 134.036 149.119 136.316C161.943 138.348 173.841 139.783 183.982 134.884C184.289 131.229 179.81 125.002 150.533 120.221L150.529 120.215Z" fill="#0BA09C"/>
<path opacity="0.5" d="M215.511 79.7106C216.985 68.0155 211.851 57.4467 209.415 53.2295C206.975 49.0115 204.773 40.8521 207.355 27.0131L203.182 26.2849C202.919 27.7727 202.65 29.1612 202.397 30.2979C201.155 35.8398 200.606 46.0617 202.585 51.4239C204.264 55.9795 209.199 65.7061 209.695 71.6928C210.197 77.6803 207.285 110.381 195.243 125.613C191.804 129.96 188.029 132.93 183.978 134.884C183.825 136.743 182.431 137.937 182.431 137.937C182.431 137.937 183.82 136.742 183.978 134.884C173.837 139.782 161.939 138.347 149.115 136.315C134.739 134.035 121.013 129.52 112.692 122.256C110.626 120.45 108.888 118.479 107.563 116.327C100.906 105.515 106.594 74.9126 108.856 63.7302C111.118 52.5478 116.187 48.0771 118.858 46.0846C121.53 44.0871 128.798 38.4136 130.263 33.702C131.117 30.9459 132.938 21.5752 134.298 14.2673L129.403 13.416C129.403 13.416 126.768 30.0903 125.238 32.5337C123.708 34.9772 112.815 42.3162 109.111 48.3124C106.486 52.5647 97.1819 75.633 99.2051 104.713C100.997 130.414 118.222 137.524 149.071 142.561C179.919 147.599 188.283 141.062 199.453 130.12C210.623 119.178 214.026 91.4092 215.5 79.7141L215.511 79.7106Z" fill="#49E2E2"/>
<path opacity="0.3" d="M118.862 46.0852C116.19 48.0828 111.116 52.5527 108.86 63.7308C106.604 74.909 100.906 105.51 107.567 116.328C108.892 118.48 110.63 120.45 112.696 122.257C113.344 119.373 118.983 115.063 150.529 120.215C179.806 124.996 184.285 131.223 183.978 134.878C188.034 132.92 191.804 129.955 195.243 125.607C207.285 110.376 210.191 77.6742 209.695 71.6875C209.194 65.7 204.264 55.9742 202.585 51.4186C200.606 46.0565 201.15 35.8337 202.397 30.2926C202.65 29.1559 202.918 27.7674 203.182 26.2796L134.302 14.2679C132.937 21.575 131.122 30.9465 130.267 33.7026C128.802 38.4142 121.534 44.0877 118.862 46.0852Z" fill="#49E2E2"/>
<path d="M167.976 22.2165C166.252 21.935 164.603 21.6448 163.016 21.3545L161.346 31.5801C163.052 31.9055 164.837 32.2229 166.702 32.5276C168.193 32.7711 169.636 32.9912 171.036 33.1887L172.711 22.9378C171.184 22.7196 169.614 22.4839 167.981 22.2173L167.976 22.2165Z" fill="#FF485E"/>
<path d="M153.143 19.2749L151.49 29.3944C153.93 30.0213 156.586 30.6315 159.48 31.2182L161.147 21.0077C158.255 20.4471 155.588 19.8715 153.142 19.28L153.143 19.2749Z" fill="#FF485E"/>
<path d="M143.552 16.5983L141.93 26.5308C144.197 27.3266 146.755 28.1232 149.643 28.9061L151.29 18.817C148.405 18.0863 145.839 17.3402 143.553 16.5933L143.552 16.5983Z" fill="#FF485E"/>
<path d="M127.447 8.37939L125.876 18.0035C125.876 18.0035 127.207 19.5442 131.053 21.7343L132.637 12.0344C130.209 10.6934 128.56 9.44341 127.447 8.37939Z" fill="#FF485E"/>
<path d="M134.41 12.9624L132.821 22.6927C134.746 23.6816 137.148 24.7642 140.111 25.876L141.727 15.984C138.806 14.9621 136.393 13.9453 134.41 12.9624Z" fill="#FF485E"/>
<path d="M202.846 33.6715C207.456 32.7741 209.227 31.6206 209.227 31.6206L210.842 21.7337C209.28 22.4023 207.216 23.0565 204.497 23.5622L202.846 33.6715Z" fill="#FF485E"/>
<path d="M194.61 24.4902L192.948 34.6652C196.108 34.5741 198.722 34.3264 200.866 34.007L202.519 23.8825C200.277 24.2014 197.662 24.4229 194.61 24.4902Z" fill="#FF485E"/>
<path d="M174.583 23.1915L172.909 33.4424C175.836 33.8269 178.545 34.1086 181.056 34.3058L182.727 24.0751C180.208 23.8661 177.5 23.5744 174.583 23.1915Z" fill="#FF485E"/>
<path d="M128.17 3.95654L127.448 8.37939C128.561 9.44341 130.209 10.6934 132.637 12.0344L131.053 21.7343C131.594 22.0407 132.181 22.3596 132.822 22.6926L134.411 12.9624C136.394 13.9452 138.807 14.9621 141.727 15.984L140.112 25.876C140.694 26.0955 141.302 26.3142 141.93 26.531L143.552 16.5986C145.838 17.3455 148.405 18.0916 151.29 18.8223L149.642 28.9114C150.244 29.072 150.861 29.235 151.489 29.3946L153.141 19.2751C155.589 19.8616 158.254 20.4422 161.147 21.0028L159.479 31.2133C160.087 31.3385 160.711 31.456 161.345 31.5802L163.015 21.3546C164.601 21.65 166.252 21.9351 167.975 22.2166C169.608 22.4832 171.178 22.7189 172.705 22.937L171.031 33.1879C171.67 33.2768 172.294 33.3631 172.914 33.4436L174.588 23.1927C177.504 23.5756 180.212 23.8673 182.731 24.0763L181.061 34.307C181.706 34.3605 182.342 34.4072 182.963 34.4465L184.633 24.2208C187.583 24.4276 190.262 24.5174 192.686 24.5136L191.023 34.6988C191.688 34.6933 192.333 34.6844 192.953 34.6664L194.615 24.4913C197.667 24.4241 200.282 24.2025 202.525 23.8837L200.871 34.0082C201.584 33.9015 202.241 33.7857 202.852 33.6675L204.503 23.5581C207.222 23.0524 209.285 22.3982 210.847 21.7296L211.527 17.5696L128.17 3.95654Z" fill="#DD2846"/>
<path d="M184.628 24.2199L182.958 34.4455C185.941 34.6421 188.618 34.7158 191.018 34.6979L192.681 24.5127C190.257 24.5164 187.579 24.4266 184.628 24.2199Z" fill="#FF485E"/>
<path d="M168.43 19.4367C191.444 23.1951 210.735 22.3585 211.517 17.5681C212.299 12.7777 194.277 5.84743 171.263 2.08898C148.248 -1.66948 128.958 -0.832898 128.175 3.95753C127.393 8.74796 145.415 15.6782 168.43 19.4367Z" fill="#FF8095"/>
<path d="M136.63 5.37942C140.009 8.17308 153.367 12.0203 169.612 14.6734C185.858 17.3265 199.75 17.9295 203.837 16.355C200.459 13.5614 187.101 9.71416 170.856 7.06106C154.61 4.40795 140.717 3.805 136.63 5.37942Z" fill="#FF485E"/>
<path d="M205.055 15.3141C205.508 12.5441 190.371 7.76809 171.25 4.64528C152.128 1.52248 136.258 1.235 135.806 4.00497C135.738 4.41946 136.031 4.88244 136.625 5.37896C140.717 3.80537 154.604 4.4075 170.85 7.0606C187.096 9.7137 200.458 13.5618 203.832 16.3546C204.558 16.0735 204.978 15.7269 205.045 15.3124L205.055 15.3141Z" fill="#DD2846"/>
<path d="M162.038 10.0383C159.91 9.69077 158.783 9.85443 158.259 10.0128C158.554 10.336 159.081 10.6037 159.713 10.7069L180.256 14.0616C180.862 14.1607 181.42 14.0806 181.804 13.889C181.166 13.4785 180.189 13.0077 179.431 12.8838L162.038 10.0434L162.038 10.0383Z" fill="#282627"/>
<path d="M180.6 11.9537L160.058 8.59891C159.027 8.43051 158.105 8.76779 158.011 9.34403C157.974 9.57149 158.072 9.80019 158.266 10.0084C158.789 9.8551 159.912 9.68556 162.045 10.0339L179.438 12.8744C180.196 12.9982 181.173 13.4691 181.811 13.8796C182.083 13.7423 182.27 13.5497 182.31 13.3071C182.405 12.7258 181.637 12.1178 180.606 11.9494L180.6 11.9537Z" fill="#DD2846"/>
<path d="M149.812 69.226L144.673 71.2669C144.673 71.2669 139.968 76.3107 144.986 88.926C149.999 101.54 156.698 102.053 156.698 102.053L162.026 99.9342L149.818 69.2218L149.812 69.226Z" fill="#FFB450"/>
<path d="M162.029 99.9344C166.381 98.2036 167.176 89.9246 163.803 81.4426C160.43 72.9607 154.167 67.4878 149.815 69.2186C145.462 70.9494 144.668 79.2285 148.041 87.7104C151.413 96.1924 157.676 101.665 162.029 99.9344Z" fill="#FFDC78"/>
<path d="M161.039 80.7741C160.663 79.9603 160.258 79.1988 159.824 78.4845C159.092 77.2803 158.297 76.2371 157.48 75.3978C156.968 74.8732 156.445 74.4245 155.927 74.07C154.633 73.1893 153.362 72.8676 152.292 73.2896C150.111 74.1581 149.435 77.8465 150.379 82.2353C150.637 83.4242 151.001 84.6565 151.498 85.9053C151.645 86.2719 151.799 86.6343 151.955 86.9816C152.825 88.8985 153.885 90.5453 155.003 91.8333C156.043 93.0306 157.131 93.8985 158.173 94.3489C159.084 94.7467 159.962 94.8331 160.733 94.5283C163.502 93.4289 163.859 87.7788 161.527 81.9126C161.374 81.5191 161.207 81.139 161.035 80.7632L161.039 80.7741Z" fill="#E89838"/>
<path d="M154.984 74.4453L149.868 82.4424C150.132 83.6221 150.507 84.856 151.004 86.1048C151.151 86.4714 151.305 86.8338 151.46 87.1861L156.481 75.7951C155.981 75.2621 155.479 74.8116 154.978 74.4495L154.984 74.4453Z" fill="#FFD066"/>
<path d="M156.481 75.7893L151.46 87.1803C152.325 89.0964 153.362 90.7551 154.452 92.0541L158.775 78.8989C158.06 77.6871 157.281 76.6414 156.486 75.7902L156.481 75.7893Z" fill="#FFB450"/>
<path d="M151.509 73.6028C149.45 74.4187 148.88 78.0672 149.868 82.4424L154.983 74.4452C153.734 73.5459 152.519 73.2021 151.514 73.6036L151.509 73.6028Z" fill="#FFB450"/>
<path d="M157.517 94.6149C158.394 95.028 159.228 95.1331 159.955 94.8419C162.569 93.8053 162.793 88.2061 160.461 82.3399C160.307 81.9464 160.141 81.5663 159.969 81.1905L157.512 94.6141L157.517 94.6149Z" fill="#FFB450"/>
<path d="M158.776 78.8991L154.453 92.0543C155.465 93.2626 156.52 94.1458 157.517 94.6149L159.974 81.1913C159.604 80.3783 159.199 79.6117 158.776 78.8991Z" fill="#FFD066"/>
<path d="M120.91 111.237L118.216 116.07C118.216 116.07 117.756 122.954 129.614 129.561C141.472 136.173 146.986 132.341 146.986 132.341L149.776 127.332L120.91 111.237Z" fill="#FFB450"/>
<path d="M149.778 127.343C152.059 123.252 147.446 116.332 139.474 111.886C131.501 107.441 123.189 107.154 120.908 111.245C118.627 115.336 123.24 122.256 131.212 126.702C139.185 131.147 147.497 131.434 149.778 127.343Z" fill="#FFDC78"/>
<path d="M136.906 113.097C136.104 112.701 135.302 112.368 134.523 112.09C133.193 111.618 131.92 111.312 130.753 111.178C130.025 111.096 129.338 111.077 128.711 111.13C127.148 111.264 125.963 111.818 125.405 112.822C124.26 114.872 126.069 118.156 129.575 120.965C130.521 121.722 131.586 122.446 132.76 123.105C133.108 123.296 133.452 123.477 133.797 123.653C135.678 124.588 137.545 125.199 139.221 125.488C140.78 125.758 142.174 125.742 143.272 125.439C144.229 125.17 144.967 124.688 145.371 123.96C146.823 121.359 143.528 116.752 138.015 113.682C137.643 113.476 137.275 113.286 136.911 113.102L136.906 113.097Z" fill="#E89838"/>
<path d="M128.213 112.019L129.299 121.45C130.251 122.197 131.322 122.917 132.492 123.569C132.839 123.761 133.183 123.947 133.528 124.118L130.226 112.115C129.505 112.018 128.826 111.985 128.213 112.019Z" fill="#FFD066"/>
<path d="M130.228 112.115L133.53 124.118C135.41 125.058 137.264 125.687 138.93 126.006L133.968 113.078C132.646 112.593 131.38 112.272 130.228 112.115Z" fill="#FFB450"/>
<path d="M124.989 113.558C123.911 115.489 125.772 118.678 129.3 121.45L128.214 112.019C126.679 112.111 125.517 112.612 124.989 113.558Z" fill="#FFB450"/>
<path d="M142.923 126.051C143.865 125.816 144.576 125.371 144.957 124.686C146.329 122.233 142.966 117.75 137.454 114.675C137.083 114.469 136.714 114.279 136.35 114.095L142.923 126.051Z" fill="#FFB450"/>
<path d="M133.969 113.073L138.931 126.001C140.476 126.295 141.853 126.317 142.924 126.051L136.35 114.095C135.548 113.7 134.752 113.362 133.974 113.074L133.969 113.073Z" fill="#FFD066"/>
<path d="M150.182 127.58L150.424 133.183C150.424 133.183 153.548 137.092 167.112 136.5C180.674 135.912 183.455 131.914 183.455 131.914L183.203 126.149L150.181 127.585L150.182 127.58Z" fill="#FFB450"/>
<path d="M166.909 131.974C176.028 131.578 183.322 128.969 183.199 126.146C183.076 123.323 175.584 121.355 166.465 121.751C157.346 122.146 150.052 124.756 150.175 127.579C150.297 130.402 157.789 132.37 166.909 131.974Z" fill="#FFDC78"/>
<path d="M164.881 123.213C163.988 123.28 163.132 123.374 162.318 123.495C160.936 123.695 159.683 123.963 158.613 124.286C157.942 124.488 157.346 124.707 156.835 124.94C155.562 125.526 154.824 126.2 154.85 126.894C154.91 128.31 158.141 129.372 162.583 129.626C163.786 129.698 165.071 129.71 166.409 129.649C166.806 129.63 167.194 129.611 167.578 129.58C169.673 129.429 171.587 129.119 173.179 128.709C174.658 128.328 175.85 127.859 176.635 127.343C177.322 126.89 177.707 126.403 177.686 125.901C177.606 124.103 172.431 122.868 166.122 123.146C165.698 123.165 165.284 123.191 164.874 123.222L164.881 123.213Z" fill="#E89838"/>
<path d="M156.861 125.551L162.602 129.956C163.801 130.016 165.086 130.029 166.43 129.968C166.827 129.95 167.215 129.93 167.598 129.9L158.644 124.929C157.974 125.121 157.374 125.329 156.861 125.546L156.861 125.551Z" fill="#FFD066"/>
<path d="M158.638 124.934L167.593 129.904C169.689 129.753 171.605 129.459 173.194 129.07L162.342 124.179C160.961 124.374 159.705 124.63 158.633 124.933L158.638 124.934Z" fill="#FFB450"/>
<path d="M154.875 127.396C154.932 128.729 158.158 129.723 162.599 129.955L156.857 125.551C155.584 126.106 154.841 126.742 154.87 127.395L154.875 127.396Z" fill="#FFB450"/>
<path d="M176.656 127.768C177.343 127.34 177.731 126.874 177.709 126.403C177.633 124.71 172.46 123.559 166.157 123.832C165.733 123.851 165.319 123.877 164.91 123.903L176.656 127.768Z" fill="#FFB450"/>
<path d="M162.347 124.18L173.199 129.071C174.68 128.705 175.869 128.261 176.659 127.773L164.914 123.909C164.02 123.975 163.164 124.069 162.347 124.18Z" fill="#FFD066"/>
<path d="M202.177 68.0211L206.4 71.5908C206.4 71.5908 209.256 77.8695 200.485 88.2329C191.719 98.597 185.205 96.952 185.205 96.952L180.828 93.248L202.173 68.0152L202.177 68.0211Z" fill="#FFB450"/>
<path d="M197.982 86.1253C203.878 79.157 205.759 71.0554 202.183 68.0298C198.607 65.0041 190.929 68.2002 185.033 75.1685C179.137 82.1368 177.256 90.2384 180.832 93.264C184.408 96.2897 192.087 93.0935 197.982 86.1253Z" fill="#FFDC78"/>
<path d="M187.864 75.3934C188.479 74.7414 189.106 74.1482 189.744 73.6089C190.821 72.7003 191.906 71.9642 192.949 71.4286C193.6 71.0939 194.239 70.835 194.843 70.6638C196.35 70.2404 197.657 70.3397 198.538 71.0803C200.329 72.5976 199.796 76.3092 197.505 80.1697C196.883 81.215 196.145 82.2673 195.277 83.2932C195.02 83.5938 194.759 83.8885 194.501 84.1681C193.066 85.7086 191.538 86.9328 190.068 87.7981C188.701 88.6024 187.394 89.0791 186.262 89.1745C185.272 89.262 184.412 89.0644 183.778 88.5301C181.503 86.6069 182.962 81.1367 187.039 76.3172C187.31 75.993 187.588 75.6856 187.871 75.3841L187.864 75.3934Z" fill="#E89838"/>
<path d="M195.618 71.325L197.924 80.534C197.298 81.5683 196.55 82.619 195.682 83.6449C195.426 83.9455 195.165 84.2402 194.905 84.5248L193.769 72.1284C194.412 71.7819 195.032 71.5147 195.623 71.3309L195.618 71.325Z" fill="#FFD066"/>
<path d="M193.767 72.1225L194.903 84.5189C193.473 86.0602 191.962 87.3029 190.515 88.1875L190.602 74.3406C191.666 73.4193 192.737 72.6757 193.762 72.1217L193.767 72.1225Z" fill="#FFB450"/>
<path d="M199.177 71.6258C200.87 73.0542 200.249 76.6945 197.921 80.5282L195.616 71.3192C197.086 70.8639 198.348 70.9246 199.172 71.625L199.177 71.6258Z" fill="#FFB450"/>
<path d="M186.795 89.64C185.832 89.7526 185.008 89.5869 184.411 89.0794C182.263 87.2652 183.832 81.8856 187.909 77.0662C188.18 76.742 188.459 76.4346 188.741 76.133L186.8 89.6408L186.795 89.64Z" fill="#FFB450"/>
<path d="M190.606 74.3409L190.519 88.1879C189.175 89.0115 187.894 89.5133 186.799 89.6407L188.741 76.1329C189.351 75.4801 189.978 74.8819 190.606 74.3409Z" fill="#FFD066"/>
<path d="M192.284 103.017L195.481 107.53C195.481 107.53 196.676 114.321 185.592 122.168C174.508 130.011 168.614 126.791 168.614 126.791L165.304 122.114L192.284 103.022L192.284 103.017Z" fill="#FFB450"/>
<path d="M183.69 119.498C191.141 114.225 194.988 106.851 192.282 103.028C189.576 99.2039 181.343 100.379 173.892 105.651C166.441 110.924 162.594 118.298 165.3 122.122C168.005 125.945 176.239 124.771 183.69 119.498Z" fill="#FFDC78"/>
<path d="M176.581 106.576C177.339 106.098 178.097 105.682 178.846 105.322C180.114 104.709 181.354 104.268 182.496 104.013C183.212 103.85 183.892 103.759 184.521 103.748C186.089 103.713 187.327 104.138 187.994 105.077C189.352 106.991 187.905 110.455 184.72 113.619C183.859 114.475 182.877 115.311 181.785 116.088C181.462 116.315 181.136 116.532 180.811 116.743C179.038 117.876 177.251 118.679 175.613 119.148C174.089 119.584 172.702 119.716 171.58 119.533C170.599 119.373 169.815 118.964 169.334 118.289C167.614 115.854 170.391 110.926 175.548 107.28C175.894 107.035 176.238 106.806 176.585 106.587L176.581 106.576Z" fill="#E89838"/>
<path d="M185.106 104.575L185.035 114.07C184.165 114.914 183.184 115.745 182.086 116.521C181.764 116.748 181.437 116.97 181.113 117.176L183.109 104.887C183.818 104.712 184.489 104.609 185.101 104.574L185.106 104.575Z" fill="#FFD066"/>
<path d="M183.111 104.882L181.114 117.171C179.345 118.309 177.571 119.13 175.95 119.623L179.495 106.237C180.755 105.613 181.981 105.159 183.111 104.882Z" fill="#FFB450"/>
<path d="M188.473 105.758C189.751 107.565 188.245 110.936 185.03 114.064L185.102 104.569C186.64 104.493 187.846 104.866 188.474 105.753L188.473 105.758Z" fill="#FFB450"/>
<path d="M171.984 120.102C171.025 119.971 170.265 119.603 169.814 118.964C168.191 116.67 171.048 111.853 176.205 108.207C176.551 107.962 176.895 107.733 177.243 107.51L171.984 120.102Z" fill="#FFB450"/>
<path d="M179.494 106.243L175.949 119.629C174.441 120.088 173.08 120.255 171.984 120.102L177.243 107.51C177.996 107.026 178.754 106.61 179.5 106.239L179.494 106.243Z" fill="#FFD066"/>
<path d="M189.11 49.4005L191.347 54.5453C191.347 54.5453 190.255 59.4266 177.803 64.8401C165.352 70.2535 161.1 67.8778 161.1 67.8778L158.799 62.5825L189.109 49.4055L189.11 49.4005Z" fill="#FFB450"/>
<path d="M175.995 60.6858C184.366 57.0468 190.239 51.996 189.112 49.4045C187.986 46.813 180.286 47.6621 171.915 51.3011C163.544 54.9401 157.671 59.991 158.798 62.5825C159.924 65.174 167.624 64.3248 175.995 60.6858Z" fill="#FFDC78"/>
<path d="M173.988 51.9174C174.82 51.5863 175.63 51.2982 176.418 51.048C177.749 50.6219 178.992 50.3164 180.097 50.1334C180.785 50.0175 181.418 49.9548 181.981 49.9378C183.382 49.9071 184.343 50.1886 184.618 50.8251C185.185 52.1216 182.747 54.4947 178.863 56.668C177.813 57.2541 176.665 57.8295 175.436 58.3657C175.073 58.5243 174.711 58.6729 174.356 58.8172C172.406 59.599 170.551 60.1574 168.94 60.486C167.442 60.7915 166.165 60.8891 165.236 60.7684C164.418 60.6608 163.859 60.3932 163.659 59.9349C162.942 58.287 167.054 54.9106 172.842 52.3892C173.228 52.2187 173.611 52.0634 173.995 51.9081L173.988 51.9174Z" fill="#E89838"/>
<path d="M182.221 50.5009L178.994 56.9746C177.944 57.5557 176.792 58.1303 175.563 58.6614C175.2 58.8201 174.839 58.9686 174.483 59.1129L180.353 50.72C181.037 50.5982 181.667 50.5196 182.226 50.4967L182.221 50.5009Z" fill="#FFD066"/>
<path d="M180.348 50.7248L174.478 59.1176C172.528 59.9045 170.681 60.4747 169.078 60.8201L176.69 51.6739C178.016 51.2418 179.257 50.9254 180.353 50.7256L180.348 50.7248Z" fill="#FFB450"/>
<path d="M184.817 51.2936C185.349 52.5169 182.886 54.8236 178.994 56.9801L182.221 50.5064C183.611 50.4479 184.556 50.6958 184.817 51.2936Z" fill="#FFB450"/>
<path d="M165.398 61.1686C164.591 61.0837 164.04 60.838 163.851 60.4075C163.176 58.8495 167.322 55.5513 173.109 53.035C173.495 52.8645 173.878 52.7092 174.262 52.5538L165.398 61.1686Z" fill="#FFB450"/>
<path d="M176.689 51.6735L169.077 60.8197C167.587 61.142 166.321 61.2623 165.397 61.1685L174.262 52.5537C175.094 52.2226 175.905 51.9295 176.689 51.6735Z" fill="#FFD066"/>
<path d="M127.928 54.982C123.494 51.9434 121.806 57.9625 121.806 57.9625C121.806 57.9625 117.623 53.3199 115 58.0083C112.016 63.3487 121.111 68.7626 124.32 68.6847C127.229 67.3331 132.974 58.4371 127.928 54.982Z" fill="#FF485E"/>
<path d="M117.481 60.1104C117.745 59.1572 118.272 58.3766 117.712 58.1191C117.152 57.8616 116.432 58.7144 116.42 59.9943C116.408 61.2741 116.875 62.3259 117.234 62.2549C117.593 62.1838 117.305 60.7407 117.481 60.1053L117.481 60.1104Z" fill="#FF8095"/>
<path d="M126.892 59.5872C126.8 57.7663 125.63 56.5113 125.889 55.9724C126.148 55.4335 127.224 55.7753 127.645 56.8508C128.066 57.9263 128.23 60.0342 127.869 61.2933C127.508 62.5524 126.685 64.0008 126.198 63.802C125.712 63.6032 126.983 61.4755 126.887 59.5864L126.892 59.5872Z" fill="#FF8095"/>
<path d="M156.627 42.2275C151.49 36.2821 146.867 44.1623 146.867 44.1623C146.867 44.1623 142.681 36.0422 137.228 41.6956C131.024 48.1293 141.862 59.1729 146.429 60.2509C151.048 59.4225 162.472 48.989 156.628 42.2224L156.627 42.2275Z" fill="#FF485E"/>
<path d="M139.954 45.5868C140.683 44.3357 141.723 43.4314 141.022 42.8603C140.322 42.2892 138.99 43.229 138.498 45.0325C138.007 46.8359 138.275 48.4989 138.809 48.5342C139.343 48.5695 139.47 46.4211 139.954 45.5868Z" fill="#FF8095"/>
<path d="M153.444 48.345C153.994 45.7363 152.803 43.5283 153.374 42.8638C153.944 42.1993 155.335 43.0856 155.529 44.7622C155.722 46.4388 155.174 49.4785 154.194 51.1245C153.214 52.7704 151.514 54.5063 150.899 54.0477C150.283 53.5892 152.873 51.0488 153.444 48.345Z" fill="#FF8095"/>
<path d="M184.553 103.141C185.082 95.2973 176.249 97.6484 176.249 97.6484C176.249 97.6484 178.987 88.9256 171.125 89.1105C162.181 89.3207 162.122 104.807 164.611 108.789C168.479 111.45 183.952 112.067 184.553 103.141Z" fill="#FF485E"/>
<path d="M170.322 93.8007C171.722 93.4273 173.099 93.5121 173.003 92.6089C172.906 91.7058 171.3 91.4382 169.677 92.3824C168.055 93.3214 167.078 94.6929 167.433 95.0934C167.788 95.4938 169.388 94.053 170.321 93.8058L170.322 93.8007Z" fill="#FF8095"/>
<path d="M177.985 105.259C180.212 103.791 180.916 101.384 181.79 101.309C182.664 101.234 183.029 102.845 181.986 104.174C180.944 105.504 178.417 107.281 176.559 107.761C174.7 108.242 172.271 108.281 172.155 107.525C172.04 106.769 175.671 106.781 177.98 105.259L177.985 105.259Z" fill="#FF8095"/>
<path d="M111.502 102.056L110.291 107.531C110.291 107.531 112.299 112.109 125.557 115.042C138.814 117.975 142.531 114.825 142.531 114.825L143.778 109.19L111.507 102.057L111.502 102.056Z" fill="#FFB450"/>
<path d="M143.773 109.193C144.383 106.434 137.652 102.6 128.739 100.63C119.827 98.6595 112.107 99.2991 111.497 102.058C110.887 104.817 117.618 108.651 126.531 110.622C135.443 112.592 143.163 111.952 143.773 109.193Z" fill="#FFDC78"/>
<path d="M126.827 101.632C125.946 101.467 125.095 101.339 124.276 101.241C122.891 101.077 121.609 101.013 120.493 101.049C119.794 101.07 119.157 101.127 118.607 101.219C117.225 101.455 116.34 101.917 116.188 102.593C115.884 103.976 118.725 105.836 122.956 107.227C124.098 107.606 125.334 107.948 126.646 108.24C127.032 108.324 127.414 108.402 127.796 108.474C129.859 108.868 131.789 109.064 133.432 109.078C134.96 109.094 136.23 108.944 137.124 108.649C137.904 108.387 138.405 108.017 138.512 107.526C138.902 105.768 134.219 103.244 128.053 101.879C127.643 101.786 127.236 101.704 126.828 101.627L126.827 101.632Z" fill="#E89838"/>
<path d="M118.473 101.82L122.881 107.558C124.025 107.926 125.261 108.268 126.573 108.56C126.959 108.644 127.341 108.722 127.722 108.8L120.353 101.686C119.655 101.696 119.025 101.744 118.472 101.825L118.473 101.82Z" fill="#FFD066"/>
<path d="M120.358 101.681L127.728 108.796C129.79 109.195 131.718 109.401 133.358 109.435L124.135 101.909C122.751 101.74 121.472 101.661 120.358 101.681Z" fill="#FFB450"/>
<path d="M116.08 103.095C115.79 104.397 118.652 106.193 122.886 107.559L118.478 101.821C117.101 102.026 116.221 102.454 116.081 103.09L116.08 103.095Z" fill="#FFB450"/>
<path d="M137.029 109.069C137.804 108.832 138.297 108.487 138.398 108.026C138.762 106.368 134.065 103.925 127.9 102.56C127.489 102.467 127.082 102.385 126.68 102.309L137.029 109.069Z" fill="#FFB450"/>
<path d="M124.13 101.913L133.353 109.439C134.878 109.47 136.144 109.345 137.029 109.074L126.68 102.314C125.8 102.144 124.949 102.016 124.13 101.913Z" fill="#FFD066"/>
<path d="M117.629 73.2125L113.505 77.0124C113.505 77.0124 112.533 81.9186 121.727 91.9049C130.922 101.891 135.77 101.438 135.77 101.438L140.015 97.5278L117.629 73.2125Z" fill="#FFB450"/>
<path d="M140.02 97.5259C142.099 95.612 138.773 88.6166 132.59 81.9013C126.407 75.186 119.71 71.2938 117.631 73.2078C115.552 75.1218 118.879 82.1171 125.062 88.8324C131.244 95.5477 137.941 99.4399 140.02 97.5259Z" fill="#FFDC78"/>
<path d="M130.442 81.6363C129.815 80.9942 129.19 80.4044 128.574 79.8574C127.532 78.9295 126.518 78.1464 125.58 77.5315C124.994 77.1503 124.444 76.8321 123.933 76.593C122.665 75.9968 121.675 75.8661 121.162 76.3376C120.117 77.2984 121.388 80.4484 124.06 84.0139C124.779 84.9773 125.599 85.9674 126.506 86.9563C126.775 87.2493 127.045 87.5321 127.311 87.8091C128.778 89.3149 130.248 90.5773 131.587 91.5277C132.834 92.4111 133.959 93.0204 134.86 93.2869C135.652 93.5201 136.273 93.5021 136.64 93.1624C137.964 91.9464 135.57 87.1911 131.294 82.5488C131.008 82.2373 130.72 81.936 130.435 81.6456L130.442 81.6363Z" fill="#E89838"/>
<path d="M123.484 77.0132L123.814 84.239C124.54 85.1982 125.36 86.1832 126.273 87.1729C126.541 87.4659 126.812 87.7487 127.078 88.0257L125.108 77.9737C124.528 77.5832 123.984 77.2608 123.484 77.0132Z" fill="#FFD066"/>
<path d="M125.104 77.9731L127.074 88.0252C128.54 89.531 129.999 90.8018 131.325 91.7709L128.067 80.3253C127.03 79.3932 126.023 78.6008 125.103 77.9782L125.104 77.9731Z" fill="#FFB450"/>
<path d="M120.788 76.6815C119.805 77.5848 121.124 80.6909 123.814 84.2387L123.484 77.0129C122.236 76.3939 121.275 76.2421 120.793 76.6823L120.788 76.6815Z" fill="#FFB450"/>
<path d="M134.554 93.5741C135.328 93.825 135.931 93.8197 136.278 93.5028C137.525 92.3519 135.074 87.6599 130.799 83.0126C130.512 82.7011 130.224 82.3998 129.939 82.1094L134.559 93.5749L134.554 93.5741Z" fill="#FFB450"/>
<path d="M128.072 80.3203L131.33 91.7659C132.564 92.6628 133.672 93.2848 134.553 93.5741L129.934 82.1085C129.307 81.4664 128.688 80.8723 128.071 80.3254L128.072 80.3203Z" fill="#FFD066"/>
<g opacity="0.5">
<path d="M130.335 73.6677C132.549 64.9373 135.543 56.9311 134.191 55.361C132.838 53.7959 129.766 56.9424 128.053 62.0909C126.34 67.2394 124.57 82.3683 124.295 85.0998C124.02 87.8364 124.621 91.8423 125.751 92.1098C126.88 92.3772 128.085 82.5168 130.33 73.6618L130.335 73.6677Z" fill="white"/>
<path d="M119.133 77.9154C122.366 63.7466 125.542 53.0353 125.753 51.2016C125.965 49.3678 123.571 49.1534 121.245 51.1607C118.919 53.1681 116.261 59.8799 113.506 70.9039C110.751 81.9279 110.214 101.166 110.813 105.478C111.411 109.789 114.015 115.165 115.397 114.649C116.779 114.132 115.687 93.0455 119.134 77.9103L119.133 77.9154Z" fill="white"/>
<path d="M181.636 95.6788C183.354 81.3769 184.037 71.924 184.612 70.0201C185.188 68.1161 187.22 64.4106 190.913 66.0101C194.601 67.6088 196.306 73.6631 193.689 88.3527C191.073 103.037 188.882 111.149 185.546 115.337C182.21 119.525 176.858 125.989 175.02 123.955C173.184 121.917 179.88 110.312 181.636 95.6788Z" fill="white"/>
<path d="M199.001 89.3088C197.328 89.2848 199.503 81.1811 199.383 76.8645C199.262 72.548 197.789 65.6181 200.445 65.0504C203.101 64.4876 203.361 71.1259 202.883 77.2598C202.401 83.3928 201.346 89.3441 199.006 89.3046L199.001 89.3088Z" fill="white"/>
<path d="M164.97 55.1775C150.63 52.8356 128.566 41.417 127.937 42.0926C127.307 42.7683 141.384 56.7954 164.1 60.5051C186.816 64.2149 198.583 55.716 198.493 54.1342C198.404 52.5524 180.959 57.7835 164.971 55.1725L164.97 55.1775Z" fill="white"/>
</g>
<path fill-rule="evenodd" clip-rule="evenodd" d="M13.0324 56.09L12.9726 56.1324L12.9127 56.1753C12.6333 56.375 12.3546 56.5765 12.0759 56.7794L12.0164 56.823L11.9566 56.8666L11.8971 56.9101C11.6386 57.0989 11.3808 57.289 11.1229 57.4799L11.0635 57.5238L10.8889 57.6534C10.6502 57.8312 10.4126 58.0097 10.1753 58.1885L10.1162 58.2331L9.99824 58.3224L9.93945 58.367C13.4425 34.1571 30.5167 13.4863 54.9441 7.27954C74.0648 2.42127 93.4557 7.503 107.998 19.3411C128.585 29.5598 143.222 50.6173 145.053 75.3963L145.052 75.3959C144.807 75.2489 144.558 75.1059 144.305 74.9653L144.186 74.8994C143.126 74.3165 142.001 73.7885 140.821 73.3115L140.765 73.2892C127.421 67.9199 107.231 69.0018 97.814 69.9027L97.7949 69.9045C97.5983 69.9232 97.4071 69.942 97.2198 69.9608L97.1029 69.9725C96.5544 70.0273 96.0494 70.0808 95.5918 70.1314L95.4824 70.1435L95.0996 70.1867L94.9413 70.2048L94.6063 70.2437L94.4682 70.26C94.2756 70.283 94.0957 70.305 93.931 70.3255L93.8155 70.3397L93.5832 70.3691L93.4434 70.3868L93.2861 70.4073L93.2581 70.4109L93.0361 70.4402L92.9157 70.4565L92.8612 70.464L92.8116 70.4707L92.7347 70.4813L92.6774 70.4895L92.6579 70.4923L92.632 70.4959C92.632 70.4959 101.997 58.8472 84.4096 55.8782C66.8226 52.9088 39.4142 64.5575 39.4142 64.5575C43.754 55.8782 31.6485 59.9896 31.6485 59.9896C31.7898 59.4945 31.9176 59.0179 32.0324 58.5589L32.037 58.5402C32.1485 58.0925 32.2477 57.6623 32.3352 57.248L32.3472 57.1916C32.4308 56.7911 32.503 56.4062 32.5646 56.0365L32.5792 55.9479C32.5972 55.8371 32.6139 55.728 32.6302 55.6197L32.6245 55.6214C34.4373 43.3825 23.6183 48.5304 13.0324 56.09Z" fill="#F9D8AE"/>
<path fill-rule="evenodd" clip-rule="evenodd" d="M21.9512 29.3514C29.9251 18.7449 41.284 10.7498 54.9438 7.27896C58.9869 6.25164 63.0416 5.67052 67.0603 5.50195C68.8157 8.22873 69.5586 11.9669 67.9672 17.0727C64.1203 29.4155 39.0275 25.7927 21.9512 29.3514Z" fill="#F4C589"/>
<path fill-rule="evenodd" clip-rule="evenodd" d="M70.134 55.9589C54.9504 57.9551 39.4145 64.5568 39.4145 64.5568C43.7543 55.8775 31.6488 59.9889 31.6488 59.9889C31.7901 59.4942 31.918 59.0171 32.0327 58.5582L32.0373 58.5394C32.1489 58.0922 32.248 57.6612 32.3355 57.2472L32.3475 57.1909C32.4311 56.7904 32.5033 56.4055 32.565 56.0358L32.5795 55.9472C32.5975 55.8364 32.6142 55.727 32.6305 55.6189L32.6248 55.6207C33.8065 47.6383 29.6147 47.053 23.6197 49.7082C25.6188 45.4849 32.6829 39.3326 37.8411 37.8598C54.6958 33.0483 64.1574 41.8937 70.134 55.9589ZM21.1915 44.7359C21.6391 44.7359 22.0021 45.0989 22.0021 45.5469C22.0021 45.9945 21.6391 46.3575 21.1915 46.3575C20.7435 46.3575 20.3809 45.9945 20.3809 45.5469C20.3805 45.0989 20.7435 44.7359 21.1915 44.7359ZM26.6046 40.1333C25.7958 40.1333 25.1403 40.7888 25.1403 41.5976C25.1403 42.4065 25.7958 43.0619 26.6046 43.0619C27.4135 43.0619 28.069 42.4065 28.069 41.5976C28.069 40.7892 27.4135 40.1333 26.6046 40.1333Z" fill="#F4C589"/>
<path fill-rule="evenodd" clip-rule="evenodd" d="M138.312 50.2006C142.03 57.8802 144.387 66.392 145.053 75.396L145.052 75.3957C144.807 75.2487 144.558 75.1057 144.305 74.9651L144.186 74.8996C143.126 74.3167 142.001 73.7887 140.821 73.3116L140.766 73.2893C127.422 67.9204 107.232 69.0019 97.8147 69.9028L97.7956 69.9046C97.5991 69.9234 97.4078 69.9418 97.2205 69.9605L97.1036 69.9722C96.5551 70.0271 96.0505 70.0806 95.5926 70.1312L95.4831 70.1433L95.1003 70.1865L94.9424 70.2045L94.607 70.2435L94.4689 70.2601C94.2763 70.2831 94.0964 70.3051 93.9317 70.3253L93.8163 70.3395L93.584 70.3688L93.4441 70.3869L93.2869 70.4074L93.2589 70.411L93.0368 70.4404L92.9164 70.4567L92.8619 70.4641L92.8123 70.4708L92.7355 70.4815L92.6781 70.4896L92.6586 70.4924L92.6328 70.496C92.6328 70.496 100.515 60.6884 88.2246 56.7782C90.4036 51.8204 94.7466 47.3339 103.324 47.1994C116.754 46.9887 130.466 53.2018 138.312 50.2006ZM100.208 45.155C100.605 45.155 100.927 45.4769 100.927 45.8742C100.927 46.2716 100.605 46.5935 100.208 46.5935C99.8106 46.5935 99.4883 46.2716 99.4883 45.8742C99.4887 45.4769 99.8106 45.155 100.208 45.155ZM94.5982 42.8535C93.4427 42.8535 92.506 43.7902 92.506 44.9457C92.506 46.1012 93.4427 47.0379 94.5982 47.0379C95.7537 47.0379 96.6904 46.1012 96.6904 44.9457C96.6904 43.7902 95.7537 42.8535 94.5982 42.8535Z" fill="#F4C589"/>
<path fill-rule="evenodd" clip-rule="evenodd" d="M108.69 2.8457C110.192 2.8457 111.409 4.06319 111.409 5.5654C111.409 7.06761 110.192 8.2851 108.69 8.2851C107.188 8.2851 105.97 7.06761 105.97 5.5654C105.97 4.06355 107.188 2.8457 108.69 2.8457ZM147.916 55.5664C149.13 55.5664 150.113 56.5498 150.113 57.763C150.113 58.9763 149.13 59.9597 147.916 59.9597C146.703 59.9597 145.72 58.9763 145.72 57.763C145.72 56.5498 146.703 55.5664 147.916 55.5664ZM4.39922 41.3404C5.26576 41.3404 5.96835 42.043 5.96835 42.9095C5.96835 43.7761 5.26576 44.4787 4.39922 44.4787C3.53267 44.4787 2.83008 43.7764 2.83008 42.9095C2.83008 42.0426 3.53267 41.3404 4.39922 41.3404ZM8.89699 26.4865C10.3988 26.4865 11.6167 27.704 11.6167 29.2062C11.6167 30.7081 10.3992 31.9259 8.89699 31.9259C7.39478 31.9259 6.17729 30.7084 6.17729 29.2062C6.17764 27.704 7.39513 26.4865 8.89699 26.4865Z" fill="#F9D8AE"/>
<path fill-rule="evenodd" clip-rule="evenodd" d="M104.562 16.7353C107.485 14.8881 110.323 13.8672 112.906 13.8672C113.971 13.8672 114.953 14.0404 115.85 14.3725C118.064 15.1934 119.749 16.9803 120.878 19.5329C121.997 22.0613 122.569 25.3437 122.569 29.1821L122.569 29.2452C122.437 29.1269 122.305 29.009 122.173 28.8921C122.145 25.2329 121.585 22.1056 120.517 19.6919C119.432 17.2385 117.822 15.5245 115.714 14.7433C114.861 14.4271 113.924 14.2624 112.906 14.2624C110.434 14.2624 107.715 15.2285 104.907 16.9803C104.792 16.8982 104.678 16.8164 104.562 16.7353Z" fill="#F9D8AE"/>
<path fill-rule="evenodd" clip-rule="evenodd" d="M84.3574 7.34004C86.1854 6.49155 88.0421 6.04004 89.8914 6.04004C92.2952 6.04004 94.5 6.80106 96.4604 8.20446C98.4818 9.65178 100.243 11.7829 101.692 14.4672L101.387 14.6312L101.304 14.5802C99.8916 11.9841 98.1847 9.92446 96.2306 8.5253C94.3374 7.17006 92.2098 6.43524 89.8917 6.43524C88.2489 6.43524 86.5983 6.80389 84.9658 7.50011C84.7633 7.44557 84.5603 7.3921 84.3574 7.34004Z" fill="#F9D8AE"/>
<path fill-rule="evenodd" clip-rule="evenodd" d="M85.5322 88.1133C84.467 88.1133 83.485 87.9401 82.5883 87.6079C80.374 86.7871 78.6891 85.0001 77.5601 82.448C76.4418 79.9198 75.8691 76.6371 75.8691 72.7987C75.8691 66.6659 77.3303 59.1025 80.3623 50.9225C82.5122 45.1222 85.222 39.6329 88.2374 34.7452C87.8245 34.4258 87.5585 33.9258 87.5585 33.3634C87.5585 32.3995 88.3401 31.6179 89.304 31.6179C89.6008 31.6179 89.8802 31.692 90.1249 31.8226C91.8683 29.2432 93.6902 26.8691 95.5469 24.7507C101.44 18.0265 107.692 13.8677 112.907 13.8677C113.973 13.8677 114.955 14.0408 115.851 14.373C118.066 15.1939 119.75 16.9808 120.879 19.5334C121.998 22.0618 122.57 25.3442 122.57 29.1826C122.57 35.3154 121.109 42.8788 118.077 51.0588L117.706 50.9228C120.721 42.7878 122.175 35.2718 122.175 29.1826C122.175 25.3984 121.614 22.1698 120.518 19.6924C119.433 17.239 117.823 15.525 115.715 14.7438C114.862 14.4276 113.925 14.2629 112.907 14.2629C107.81 14.2629 101.662 18.3701 95.8433 25.0103C93.9962 27.1177 92.1838 29.4797 90.4493 32.0461C90.8172 32.3662 91.0495 32.8379 91.0495 33.3634C91.0495 34.3274 90.268 35.1089 89.304 35.1089C89.0437 35.1089 88.7966 35.0519 88.5745 34.9496C85.5729 39.8153 82.8748 45.2812 80.7331 51.0585C77.7177 59.1935 76.2644 66.7098 76.2644 72.7987C76.2644 76.5829 76.8256 79.8115 77.9213 82.2889C79.0064 84.7423 80.6162 86.4563 82.724 87.2375C83.5771 87.5538 84.5137 87.7184 85.5322 87.7184V88.1133Z" fill="white"/>
<path fill-rule="evenodd" clip-rule="evenodd" d="M65.5247 76.9136C63.9202 73.105 62.8401 68.4631 62.3865 63.2588C61.9502 58.2547 62.0929 52.7257 62.9049 46.9134C64.4794 35.6451 68.2749 25.4405 73.1385 18.0513C74.3553 16.2031 75.6393 14.5302 76.9726 13.0603C76.753 12.7971 76.6206 12.4582 76.6206 12.0889C76.6206 11.2514 77.2995 10.5722 78.1373 10.5722C78.5056 10.5722 78.8435 10.7035 79.1062 10.9217C82.5448 7.80784 86.232 6.04004 89.8915 6.04004C92.2953 6.04004 94.5001 6.80106 96.4606 8.20446C98.4819 9.65178 100.243 11.7829 101.692 14.4672L101.344 14.6542C99.9239 12.0234 98.2032 9.93792 96.2308 8.52566C94.3376 7.17041 92.21 6.4356 89.8919 6.4356C86.3333 6.4356 82.7374 8.16374 79.3736 11.2092C79.5507 11.4575 79.6544 11.761 79.6544 12.0889C79.6544 12.9268 78.9752 13.6056 78.1377 13.6056C77.8112 13.6056 77.5091 13.5026 77.2616 13.3269C75.9435 14.7806 74.6729 16.4365 73.4678 18.2673C68.635 25.6098 64.8625 35.7566 63.2962 46.9672C62.4885 52.748 62.3468 58.2469 62.7806 63.2249C63.2307 68.3909 64.3005 72.992 65.8881 76.761L65.5247 76.9136Z" fill="white"/>
<path fill-rule="evenodd" clip-rule="evenodd" d="M80.5973 2.0252C81.9642 3.39213 81.9642 5.62844 80.5973 6.99537L78.4332 9.15944C78.2565 9.33615 77.9675 9.33615 77.7908 9.15944L75.6268 6.99537C74.2598 5.6288 74.2598 3.39213 75.6268 2.0252C76.9937 0.658267 79.2304 0.658267 80.5973 2.0252Z" fill="#F63C4E"/>
<path fill-rule="evenodd" clip-rule="evenodd" d="M78.1128 5.76425C78.973 5.76425 79.6749 5.06272 79.6749 4.20219C79.6749 3.34166 78.9734 2.64014 78.1128 2.64014C77.2523 2.64014 76.5508 3.34166 76.5508 4.20219C76.5511 5.06272 77.2527 5.76425 78.1128 5.76425Z" fill="#BC2F43"/>
<path fill-rule="evenodd" clip-rule="evenodd" d="M92.222 20.7499C93.8839 22.4118 93.8839 25.1315 92.222 26.7934L89.5905 29.4246C89.3759 29.6395 89.0242 29.6395 88.8096 29.4246L86.1781 26.7934C84.5162 25.1315 84.5162 22.4118 86.1781 20.7499C87.8404 19.0879 90.5601 19.0879 92.222 20.7499Z" fill="#F63C4E"/>
<path fill-rule="evenodd" clip-rule="evenodd" d="M89.2 25.2968C90.246 25.2968 91.0995 24.4437 91.0995 23.3976C91.0995 22.3515 90.246 21.498 89.2 21.498C88.1539 21.498 87.3008 22.3515 87.3008 23.3976C87.3008 24.4433 88.1539 25.2968 89.2 25.2968Z" fill="#BC2F43"/>
<path fill-rule="evenodd" clip-rule="evenodd" d="M3.97852 123.436H7.61186V124.083H3.97852V123.436ZM9.59356 123.437L68.3528 122.499L67.9084 123.038C67.8914 123.058 61.7112 130.26 81.8231 130.26H150.751V130.262C152.972 130.247 154.706 130.826 155.733 131.648C156.216 132.034 156.549 132.476 156.713 132.942C156.884 133.428 156.873 133.936 156.657 134.427C156.368 135.086 155.709 135.707 154.627 136.195L154.361 135.606C155.287 135.188 155.838 134.685 156.065 134.169C156.212 133.834 156.22 133.488 156.103 133.156C155.979 132.802 155.716 132.459 155.331 132.151C154.407 131.412 152.818 130.893 150.751 130.907L150.75 130.908H81.8231C63.6362 130.908 65.8909 125.001 67.0294 123.165L9.60418 124.083L9.59356 123.437Z" fill="#4C1B16"/>
<path d="M36.835 83.3162C44.3329 82.9694 50.2509 79.223 50.0532 74.9482C49.8554 70.6734 43.6169 67.4892 36.1191 67.836C28.6212 68.1827 22.7032 71.9292 22.901 76.204C23.0987 80.4788 29.3372 83.663 36.835 83.3162Z" fill="#5AA8AC"/>
<path fill-rule="evenodd" clip-rule="evenodd" d="M45.2035 71.3613L62.9396 79.1826L67.51 121.838L12.9082 121.633L17.0642 80.8427L32.228 71.3613H45.2035Z" fill="white"/>
<path fill-rule="evenodd" clip-rule="evenodd" d="M45.2031 71.3613L62.9392 79.1826L67.5096 121.838L46.1062 121.757L45.2031 71.3613Z" fill="#F9D8AE"/>
<path fill-rule="evenodd" clip-rule="evenodd" d="M30.8633 55.3696H43.8389L45.204 71.3613C45.204 71.3613 48.5668 74.4249 45.0549 76.3676C41.5427 78.3103 34.7583 75.8077 32.2284 71.3613L30.8633 55.3696Z" fill="#FF9B87"/>
<path fill-rule="evenodd" clip-rule="evenodd" d="M35.1631 56.5273H43.9373L45.1375 70.5862C35.2148 70.1191 32.2734 62.0245 32.2734 62.0245L35.2871 57.4991C35.2311 57.1609 35.1929 56.8397 35.1631 56.5273Z" fill="#F5726F"/>
<path fill-rule="evenodd" clip-rule="evenodd" d="M27.7069 48.7304C27.7069 48.7304 26.1041 40.8614 24.6345 37.1561C25.671 36.8261 25.7953 36.1759 25.7953 36.1759C24.768 36.7737 23.8398 36.0789 23.8398 36.0789C27.3319 34.3433 29.071 26.3074 32.1158 30.4451C32.1158 30.4451 39.7752 24.023 46.0897 27.509C52.4041 30.9954 56.9996 31.0701 56.9996 31.0701C59.7685 27.123 63.4943 34.3582 61.2215 40.0284C63.0269 37.0265 62.3997 33.3733 62.3997 33.3733C64.533 39.8974 61.627 42.0728 59.4325 42.7988C58.2596 44.0071 56.6168 44.9682 54.3847 45.4671C43.5077 47.9 27.7069 48.7304 27.7069 48.7304Z" fill="#4C1B16"/>
<path fill-rule="evenodd" clip-rule="evenodd" d="M42.0215 27.1016C43.7482 27.1016 45.1477 27.83 45.1477 28.7288C45.1477 29.6276 43.7482 30.356 42.0215 30.356C40.2948 30.356 38.8953 29.6276 38.8953 28.7288C38.8953 27.83 40.2951 27.1016 42.0215 27.1016ZM37.3679 29.8712C38.0694 29.8712 38.6385 30.2352 38.6385 30.685C38.6385 31.1344 38.0698 31.4984 37.3679 31.4984C36.6664 31.4984 36.0977 31.134 36.0977 30.685C36.0973 30.2352 36.666 29.8712 37.3679 29.8712Z" fill="#75382A"/>
<path fill-rule="evenodd" clip-rule="evenodd" d="M28.9004 40.4937H56.1009V54.0939C56.1009 61.5741 49.9809 67.6942 42.5006 67.6942C35.0204 67.6942 28.9004 61.5741 28.9004 54.0939V40.4937Z" fill="#FF9B87"/>
<path d="M33.3435 50.9646C34.35 48.5107 33.1767 45.7055 30.7228 44.699C28.269 43.6924 25.4638 44.8657 24.4572 47.3196C23.4507 49.7735 24.624 52.5786 27.0779 53.5852C29.5317 54.5917 32.3369 53.4184 33.3435 50.9646Z" fill="#FF9B87"/>
<path fill-rule="evenodd" clip-rule="evenodd" d="M45.2855 40.4937H56.1005V40.6881V54.0935C56.1005 59.9827 52.3068 65.0276 47.043 66.908L47.3773 54.2051C47.3773 54.2051 50.5907 52.9348 49.8059 51.0856C49.0095 49.208 46.4807 50.6932 46.4807 50.6932C45.6488 48.3641 45.1906 45.926 45.0713 43.8982C38.9119 43.4967 32.6226 41.5936 32.6226 41.5936C31.5765 43.9099 28.9004 44.343 28.9004 44.343V40.4937H45.2855ZM47.3316 53.1994C47.3671 52.6561 45.6407 52.6611 45.6407 53.4515C45.6407 54.2423 47.2962 53.7426 47.3316 53.1994Z" fill="#F5726F"/>
<path fill-rule="evenodd" clip-rule="evenodd" d="M28.9313 47.1417C30.2384 47.0514 31.4109 47.7891 31.9368 48.9074C31.7778 48.8915 31.6152 48.8886 31.4506 48.9C29.8669 49.0094 28.6721 50.3816 28.7815 51.9653C28.8155 52.4586 28.9724 52.914 29.2196 53.3039C27.5782 53.3453 26.1805 52.0864 26.0661 50.4323C25.9485 48.7325 27.2311 47.2593 28.9313 47.1417Z" fill="#F5726F"/>
<path fill-rule="evenodd" clip-rule="evenodd" d="M40.8321 57.2662C41.8775 57.8059 45.6458 59.4009 51.1188 57.7436C51.1188 57.7436 46.1865 62.6369 40.7949 57.3614C40.6862 57.6851 40.728 58.0442 40.728 58.0442C40.728 58.0442 40.0275 57.241 40.3732 56.9234C40.7188 56.6057 41.1671 56.9142 41.1671 56.9142C41.0035 56.9861 40.8987 57.1178 40.8321 57.2662Z" fill="#F5726F"/>
<path fill-rule="evenodd" clip-rule="evenodd" d="M27.8027 42.3781L28.9005 44.3427C28.9005 44.3427 31.9503 43.4241 31.9875 39.4636H28.8488C28.8488 39.4636 27.9894 38.6041 27.8027 42.3781ZM33.6685 39.277C33.6685 39.277 57.8802 34.3826 56.1007 40.4937C54.3212 46.6049 31.9032 40.4937 31.9032 40.4937L33.6685 39.277Z" fill="#4C1B16"/>
<path fill-rule="evenodd" clip-rule="evenodd" d="M38.4375 40.0078C38.4375 40.0078 53.9939 47.6428 55.7497 40.7164C55.7497 40.7164 55.6003 50.9989 38.4375 40.0078Z" fill="#4C1B16"/>
<path fill-rule="evenodd" clip-rule="evenodd" d="M37.043 49.3288L37.2204 49.5717L41.9097 49.4874C41.9097 49.4874 42.0772 49.1513 41.6293 49.1885C41.6293 49.1885 41.125 46.8063 39.7333 46.9841C38.3412 47.1615 37.043 49.3288 37.043 49.3288Z" fill="white"/>
<path fill-rule="evenodd" clip-rule="evenodd" d="M41.6288 49.1891C41.6288 49.1891 41.3579 46.6111 39.6485 46.5364C37.9392 46.4616 36.921 48.8902 36.921 48.8902L36.1738 49.1332L37.2199 49.5723C37.2199 49.5723 38.3691 47.2276 39.6298 47.3307C40.8908 47.433 41.6288 49.1891 41.6288 49.1891Z" fill="#330B0B"/>
<path fill-rule="evenodd" clip-rule="evenodd" d="M39.7699 47.1338C40.3939 47.1338 40.8996 47.7779 40.8996 48.5723C40.8996 48.931 40.7965 49.2589 40.6262 49.5107L38.9353 49.5411C38.7522 49.2855 38.6406 48.9455 38.6406 48.5723C38.6403 47.7779 39.1463 47.1338 39.7699 47.1338Z" fill="#330B0B"/>
<path fill-rule="evenodd" clip-rule="evenodd" d="M38.7861 48.6847C39.0251 48.6847 39.2202 48.5693 39.2202 48.428C39.2202 48.2863 39.0251 48.1709 38.7861 48.1709C38.547 48.1709 38.3516 48.2863 38.3516 48.428C38.3516 48.5693 38.547 48.6847 38.7861 48.6847Z" fill="white"/>
<path fill-rule="evenodd" clip-rule="evenodd" d="M36.0469 45.4023H41.7267H41.8942H42.1375C42.1375 45.4023 42.3057 44.7483 42.044 44.2436L41.8886 44.8102L41.8822 44.0984C41.8822 44.0984 37.4202 43.7585 36.0469 45.4023Z" fill="#330B0B"/>
<path fill-rule="evenodd" clip-rule="evenodd" d="M54.0846 49.3288L53.9075 49.5717L49.2182 49.4874C49.2182 49.4874 49.0507 49.1513 49.4986 49.1885C49.4986 49.1885 50.0029 46.8063 51.3946 46.9841C52.7863 47.1615 54.0846 49.3288 54.0846 49.3288Z" fill="white"/>
<path fill-rule="evenodd" clip-rule="evenodd" d="M49.498 49.1891C49.498 49.1891 49.769 46.6111 51.4783 46.5364C53.1877 46.4616 54.2058 48.8902 54.2058 48.8902L54.953 49.1332L53.9069 49.5723C53.9069 49.5723 52.7578 47.2276 51.4971 47.3307C50.236 47.433 49.498 49.1891 49.498 49.1891Z" fill="#330B0B"/>
<path fill-rule="evenodd" clip-rule="evenodd" d="M52.0203 47.1338C51.3967 47.1338 50.8906 47.7779 50.8906 48.5723C50.8906 48.931 50.9937 49.2589 51.164 49.5107L52.855 49.5411C53.0381 49.2855 53.1496 48.9455 53.1496 48.5723C53.1496 47.7779 52.6439 47.1338 52.0203 47.1338Z" fill="#330B0B"/>
<path fill-rule="evenodd" clip-rule="evenodd" d="M51.0279 48.6847C51.2673 48.6847 51.4624 48.5693 51.4624 48.428C51.4624 48.2863 51.2673 48.1709 51.0279 48.1709C50.7885 48.1709 50.5938 48.2863 50.5938 48.428C50.5934 48.5693 50.7885 48.6847 51.0279 48.6847Z" fill="white"/>
<path fill-rule="evenodd" clip-rule="evenodd" d="M55.0813 45.4023H49.4015H49.234H48.9907C48.9907 45.4023 48.8225 44.7483 49.0842 44.2436L49.2397 44.8102L49.246 44.0984C49.2453 44.0984 53.7077 43.7585 55.0813 45.4023Z" fill="#330B0B"/>
<path fill-rule="evenodd" clip-rule="evenodd" d="M62.9406 79.1826L57.0918 81.0538L65.5229 109.334L60.6008 107.113L63.0213 121.032H69.0107C69.8166 121.118 70.5362 121.126 71.1769 121.068V110.645C68.8219 99.8852 62.9406 79.1826 62.9406 79.1826Z" fill="#368D93"/>
<path fill-rule="evenodd" clip-rule="evenodd" d="M45.1875 71.1675L51.0345 121.775L67.5103 121.837L62.9399 79.1828L45.1875 71.1675Z" fill="#5AA8AC"/>
<path fill-rule="evenodd" clip-rule="evenodd" d="M32.9245 77.591L35.1931 122.833H12.9082L16.9346 82.1518C17.0193 81.2984 17.4527 80.5997 18.1797 80.145L32.228 71.3608C32.228 71.3608 34.3513 74.8996 38.0364 74.7484L37.9567 79.1311C37.9567 79.1311 35.3096 79.4002 32.9245 77.591Z" fill="#5AA8AC"/>
<path fill-rule="evenodd" clip-rule="evenodd" d="M34.5571 110.15L35.1927 122.833H12.9082L15.039 101.304C15.7788 102.222 24.4811 112.692 34.5571 110.15Z" fill="#368D93"/>
<path fill-rule="evenodd" clip-rule="evenodd" d="M23.9825 85.2541L19.1122 80.6887C18.8285 80.4227 18.4223 80.4238 18.0466 80.524C17.6709 80.6246 17.389 80.8555 17.2052 81.1979L5.98644 102.102C-5.16856 107.224 2.02022 120.176 14.6902 117.737L14.9313 116.629C15.9318 116.236 16.8599 115.48 17.2958 114.072C17.9184 112.061 17.3614 110.026 16.6903 108.543L23.1467 87.9214L23.9825 85.2541Z" fill="#5AA8AC"/>
<path fill-rule="evenodd" clip-rule="evenodd" d="M14.635 117.738L14.6995 116.629C15.6372 116.236 16.86 115.547 16.656 114.073C15.549 106.064 7.42996 104.462 3.53456 105.319C-4.21905 107.025 1.36235 120.374 14.635 117.738Z" fill="#368D93"/>
<path fill-rule="evenodd" clip-rule="evenodd" d="M21.3238 81.2569C22.8791 81.1312 23.5838 82.2166 23.729 84.012C24.1313 88.9879 20.1909 99.5218 18.3339 104.486C17.9001 105.645 17.5803 106.5 17.4567 106.908L16.9414 108.413C17.1635 108.643 18.285 109.946 17.2138 111.821L17.0767 111.742C18.1961 109.783 16.8008 108.495 16.797 108.491L16.7598 108.456L17.3058 106.862C17.4287 106.456 17.7503 105.596 18.1865 104.43C20.0393 99.4768 23.9716 88.9656 23.5718 84.0237C23.4344 82.325 22.7792 81.2969 21.3365 81.4138L21.3238 81.2569Z" fill="#4C1B16"/>
<path fill-rule="evenodd" clip-rule="evenodd" d="M33.5792 79.5659L57.424 79.1775C57.4208 79.118 57.4191 79.0581 57.4187 78.9979C57.4092 76.9844 59.0442 75.2474 61.0528 75.1376L65.6072 74.8883C67.6158 74.7785 69.2671 76.3359 69.2767 78.3492C69.2799 79.0139 69.1039 79.6485 68.7943 80.2041C69.3921 80.8443 69.765 81.6981 69.7802 82.6376C69.8132 84.6512 68.192 86.3252 66.1781 86.3581L33.6986 86.8875C31.6847 86.9205 30.01 85.3 29.9771 83.2864C29.9441 81.2728 31.5653 79.5989 33.5792 79.5659Z" fill="#BC2F43"/>
<path fill-rule="evenodd" clip-rule="evenodd" d="M67.1621 88.3673C68.499 88.3149 69.6357 89.3652 69.6881 90.7017C69.7405 92.0382 68.6898 93.1746 67.353 93.227L45.8515 94.0709L38.5596 94.357C35.886 94.4618 33.6125 92.3608 33.5077 89.6878C33.4028 87.0149 35.5042 84.7421 38.1779 84.6373L45.4697 84.3511L66.9713 83.5073C68.3081 83.4548 69.4449 84.5052 69.4973 85.8417C69.55 87.1785 68.4993 88.3145 67.1621 88.3673Z" fill="#4C1B16"/>
<path fill-rule="evenodd" clip-rule="evenodd" d="M34.4966 79.9146C33.1598 79.967 32.023 78.9166 31.9706 77.5798C31.938 76.7448 32.3357 75.9877 32.9654 75.5245C32.9569 75.4763 32.959 75.4246 32.9756 75.3704C33.0932 74.9844 33.368 75.0892 33.368 75.0892C33.368 75.0892 33.3354 74.7556 33.623 74.7167C33.7979 74.693 34.0214 74.8987 34.1694 75.0637C34.2147 75.0595 34.26 75.0563 34.3057 75.0545L55.8076 74.2106L56.7634 74.1731C56.7393 73.9475 56.7716 73.6954 57.1136 73.7432C57.5223 73.8002 57.5928 74.023 57.6006 74.1402L57.5917 74.1405C57.5917 74.001 57.653 73.7131 58.1601 73.7432C58.5209 73.7644 58.5946 73.9426 58.5865 74.1016L63.0995 73.9245C65.7731 73.8197 68.0466 75.9204 68.1514 78.5937C68.2566 81.2666 66.1549 83.5391 63.4812 83.6442L56.1894 83.9304L34.6875 84.7743C33.3506 84.8267 32.2139 83.7763 32.1615 82.4399C32.1091 81.1034 33.1598 79.967 34.4966 79.9146Z" fill="#FFBA55"/>
<path fill-rule="evenodd" clip-rule="evenodd" d="M68.1456 78.4707C68.1484 78.5114 68.1505 78.5522 68.152 78.5936C68.2571 81.2665 66.1554 83.539 63.4817 83.6442L56.1899 83.9303L34.688 84.7742C33.3512 84.8266 32.2144 83.7762 32.162 82.4398C32.1454 82.0134 32.241 81.6072 32.4223 81.2502L65.1943 79.6857C65.4762 79.7732 65.8346 79.8097 66.2893 79.7509C67.3467 79.6138 67.8825 78.9771 68.1456 78.4707Z" fill="#E59026"/>
<path d="M65.4936 78.4535L33.5801 79.7183L33.5957 80.1121L65.5092 78.8473L65.4936 78.4535Z" fill="#4C1B16"/>
<path fill-rule="evenodd" clip-rule="evenodd" d="M37.4906 85.6162H75.7792C76.4737 85.6162 77.0413 86.1842 77.0413 86.8783V121.57C77.0413 122.264 76.4733 122.832 75.7792 122.832H37.4906C36.7962 122.832 36.2285 122.264 36.2285 121.57V86.8783C36.2285 86.1842 36.7965 85.6162 37.4906 85.6162Z" fill="#C46A2A"/>
<path fill-rule="evenodd" clip-rule="evenodd" d="M35.7448 86.6981L33.1381 92.532C32.8771 93.1159 32.9263 93.7399 33.2762 94.2757C33.6257 94.8115 34.1771 95.1079 34.817 95.1043L77.9093 94.8667C78.5269 94.8632 79.0567 94.5827 79.4058 94.0738C79.7554 93.5649 79.8269 92.9697 79.6084 92.3924L77.4886 86.7962C77.2141 86.072 76.5541 85.6162 75.7796 85.6162H37.4138C36.6761 85.6162 36.0458 86.0252 35.7448 86.6981Z" fill="#E59026"/>
<path fill-rule="evenodd" clip-rule="evenodd" d="M30.5766 85.6162H68.8651C69.5592 85.6162 70.1276 86.1842 70.1276 86.8783V121.57C70.1276 122.264 69.5596 122.832 68.8651 122.832H30.5766C29.8825 122.832 29.3145 122.264 29.3145 121.57V86.8783C29.3145 86.1842 29.8825 85.6162 30.5766 85.6162Z" fill="#E59026"/>
<path fill-rule="evenodd" clip-rule="evenodd" d="M46.4919 99.4487H48.8553C48.8553 100.504 49.7116 101.36 50.7676 101.36C51.8236 101.36 52.6799 100.504 52.6799 99.4487H55.0363L57.6954 102.107C57.9684 102.38 57.9812 102.818 57.7241 103.106L56.4276 104.559C56.2895 104.714 56.1128 104.796 55.9053 104.802C55.6978 104.808 55.5168 104.736 55.3698 104.589L55.0366 104.256V108.271C55.0366 108.672 54.7098 108.999 54.3089 108.999H47.2203C46.8194 108.999 46.4926 108.672 46.4926 108.271V104.256L46.1661 104.582C46.0191 104.729 45.8385 104.801 45.6306 104.795C45.4231 104.789 45.2464 104.707 45.1083 104.552L43.8118 103.099C43.5547 102.81 43.5671 102.373 43.8405 102.1L46.4919 99.4487Z" fill="#FFBA55"/>
<path fill-rule="evenodd" clip-rule="evenodd" d="M28.8306 86.6981L26.2239 92.532C25.9629 93.1159 26.0125 93.7399 26.362 94.2757C26.7115 94.8115 27.2629 95.1079 27.9028 95.1043L70.9951 94.8667C71.6127 94.8632 72.1421 94.5827 72.492 94.0738C72.8415 93.5649 72.9131 92.9697 72.6946 92.3924L70.5748 86.7962C70.3003 86.072 69.6402 85.6162 68.8654 85.6162H30.4993C29.762 85.6162 29.1313 86.0252 28.8306 86.6981Z" fill="#FFBA55"/>
<path fill-rule="evenodd" clip-rule="evenodd" d="M77.7472 98.2651L76.4716 96.2448L70.7659 95.1807C69.6334 95.8613 69.3593 97.3841 70.7365 97.905L71.251 102.795C71.2695 102.971 71.3431 103.105 71.4688 103.189L74.8809 105.466L77.7472 98.2651Z" fill="#F5726F"/>
<path fill-rule="evenodd" clip-rule="evenodd" d="M80.6281 99.3204L76.4724 96.2451C74.3774 98.0204 74.3271 103.43 74.8817 105.466L79.2594 104.94C79.6351 104.895 79.9886 104.787 80.3027 104.468C80.6171 104.149 80.8077 103.758 80.8696 103.305L81.2146 100.784C81.3034 100.139 81.0552 99.6362 80.6281 99.3204Z" fill="#FF9B87"/>
<path fill-rule="evenodd" clip-rule="evenodd" d="M24.2451 113.43C32.4849 118.097 37.2614 119.895 37.2614 119.895L35.3045 124.751C35.3045 124.751 11.0804 121.39 4.66646 115.56C-1.20851 110.218 4.61547 107.273 7.80155 107.483C13.565 107.864 16.0053 108.763 24.2451 113.43Z" fill="#FF9B87"/>
<path fill-rule="evenodd" clip-rule="evenodd" d="M10.0977 107.688C6.39779 108.545 0.913068 113.035 10.0577 118.648C7.80049 117.715 5.90201 116.684 4.66646 115.56C-1.20851 110.219 4.61547 107.273 7.80155 107.484C8.62596 107.538 9.38237 107.603 10.0977 107.688Z" fill="#F5726F"/>
<path fill-rule="evenodd" clip-rule="evenodd" d="M41.5826 119.916L43.8044 118.697L50.2215 119.812C51.1011 120.767 50.7148 122.117 49.049 122.066L46.3537 125.913C46.2563 126.052 46.1211 126.136 45.9528 126.161L41.3906 126.846L41.5826 119.916Z" fill="#F5726F"/>
<path fill-rule="evenodd" clip-rule="evenodd" d="M36.2579 119.486L43.804 118.697C45.2038 120.89 42.8673 125.363 41.3902 126.846L34.4922 124.631L36.2579 119.486Z" fill="#FF9B87"/>
<path fill-rule="evenodd" clip-rule="evenodd" d="M81.4506 107.336C81.4506 107.336 80.4222 115.703 93.5217 113.64C92.3393 107.595 87.0242 105.188 81.4506 107.336Z" fill="#4C1B16"/>
<path fill-rule="evenodd" clip-rule="evenodd" d="M87.4738 101.449L79.082 114.037L86.7942 118.464L92.4365 109.899L87.4738 101.449Z" fill="#F5726F"/>
<path fill-rule="evenodd" clip-rule="evenodd" d="M86.2496 120.952C86.2496 120.952 86.6742 113.567 81.4547 113.193C76.2353 112.82 75.1598 124.657 81.4105 128.515C87.6608 132.372 88.7345 121.256 86.2496 120.952Z" fill="#FF9B87"/>
<path fill-rule="evenodd" clip-rule="evenodd" d="M98.2166 89.631L96.2123 87.1309L81.4512 107.335C82.606 106.953 90.0352 107.704 93.5223 113.639L98.2166 89.631Z" fill="#BC2F43"/>
<path fill-rule="evenodd" clip-rule="evenodd" d="M133.62 42.3725C133.62 42.3725 127.406 33.6542 112.028 34.7272C96.6504 35.8002 99.4165 51.56 99.4165 51.56C99.4165 51.56 100.657 52.4651 101.432 52.4988C101.432 52.4988 93.7331 78.9545 100.055 91.6964C106.377 104.438 133.819 103.231 137.47 91.5622C137.727 90.7392 144.15 37.4909 133.62 42.3725Z" fill="#4C1B16"/>
<path fill-rule="evenodd" clip-rule="evenodd" d="M101.095 53.7319C99.681 59.0885 94.5472 80.5953 100.055 91.6961C103.207 98.0492 111.609 100.934 119.696 100.784V57.1631L101.095 53.7319Z" fill="#330B0B"/>
<path fill-rule="evenodd" clip-rule="evenodd" d="M108.796 35.9948C111.199 35.436 113.419 35.6928 113.756 36.5682C114.092 37.4436 112.417 38.6062 110.014 39.165C107.611 39.7238 105.391 39.4671 105.055 38.5917C104.719 37.7166 106.394 36.5537 108.796 35.9948Z" fill="#75382A"/>
<path fill-rule="evenodd" clip-rule="evenodd" d="M115.53 36.9642C116.171 36.6511 116.982 36.6235 117.341 36.9019C117.701 37.1802 117.473 37.6597 116.832 37.9724C116.191 38.2854 115.379 38.313 115.02 38.0347C114.66 37.7567 114.889 37.2772 115.53 36.9642Z" fill="#75382A"/>
<path fill-rule="evenodd" clip-rule="evenodd" d="M111.728 79.3957L96.2127 87.1309L88.6191 130.27L140.913 131.128L138.297 88.3395L125.762 79.3652L111.728 79.3957Z" fill="#F63C4E"/>
<path fill-rule="evenodd" clip-rule="evenodd" d="M94.0033 99.6826L92.9097 105.895H139.371L138.991 99.6826H94.0033ZM92.2504 109.641L88.6191 130.27L140.913 131.128L139.6 109.641H92.2504Z" fill="#BC2F43"/>
<path fill-rule="evenodd" clip-rule="evenodd" d="M111.728 65.8955H125.528V79.3959C123.717 91.8541 102.798 93.5631 111.728 79.3959V65.8955Z" fill="#FF9B87"/>
<path fill-rule="evenodd" clip-rule="evenodd" d="M111.727 65.8955H125.527V75.6064C123.069 77.275 119.931 78.0091 116.524 77.4539L115.768 77.3306C114.366 77.1022 113.009 76.6695 111.727 76.0682V65.8955H111.727Z" fill="#F5726F"/>
<path fill-rule="evenodd" clip-rule="evenodd" d="M100.654 47.3867H129.894V50.3164C132.856 50.3164 135.259 52.7185 135.259 55.6814C135.259 58.6444 132.856 61.0465 129.894 61.0465V62.0065C129.894 70.0473 123.315 76.6259 115.274 76.6259C107.233 76.6259 100.654 70.0473 100.654 62.0065V47.3867Z" fill="#FF9B87"/>
<path fill-rule="evenodd" clip-rule="evenodd" d="M100.655 47.3867H106.842H110.681H128.519C128.67 48.1201 128.72 48.7069 128.72 48.7069L129.894 52.7673C129.894 52.7673 119.469 50.7399 110.945 52.5722C110.926 54.9572 110.672 57.4808 109.834 58.9837C105.382 56.8069 104.018 61.828 109.587 63.7435L109.36 75.3684C104.244 73.0864 100.654 67.9456 100.654 62.0069V47.3867H100.655Z" fill="#F5726F"/>
<path fill-rule="evenodd" clip-rule="evenodd" d="M130.663 53.7573C132.439 53.7573 133.678 55.1976 133.43 56.9739C133.182 58.7505 131.54 60.1904 129.764 60.1904C129.615 60.1904 129.471 60.1801 129.33 60.1607C129.875 59.6022 130.257 58.8833 130.366 58.0982C130.594 56.4707 129.572 55.1253 128.033 54.9114C128.722 54.206 129.671 53.7573 130.663 53.7573Z" fill="#F5726F"/>
<path fill-rule="evenodd" clip-rule="evenodd" d="M99.416 51.5602C99.416 51.5602 102.908 50.7878 108.235 50.4886C108.521 48.4109 110.01 47.3868 110.01 47.3868C109.772 48.3575 109.721 49.4985 109.811 50.4171C115.402 50.2223 122.628 50.6055 129.894 52.7671L130.332 45.7256H100.02L99.416 51.5602Z" fill="#4C1B16"/>
<path fill-rule="evenodd" clip-rule="evenodd" d="M111.495 62.7083C111.495 63.6106 109.588 62.9441 109.588 62.3485C109.588 61.7532 111.495 61.806 111.495 62.7083Z" fill="#F5726F"/>
<path fill-rule="evenodd" clip-rule="evenodd" d="M116.299 67.1553C116.249 69.3537 114.427 71.096 112.228 71.0464C110.03 70.9968 108.287 69.1745 108.337 66.9761L116.299 67.1553Z" fill="#D4555B"/>
<path fill-rule="evenodd" clip-rule="evenodd" d="M115.567 67.1385C115.143 67.9463 113.694 68.5415 111.971 68.5415C110.194 68.5415 108.708 67.9087 108.338 67.062C108.338 67.0333 108.338 67.0046 108.339 66.9756L115.567 67.1385Z" fill="white"/>
<path fill-rule="evenodd" clip-rule="evenodd" d="M114.372 57.5137C114.372 57.5137 113.956 53.1073 116.728 53.2163C119.501 53.3258 119.122 57.167 119.122 57.167L120.266 57.1603L118.344 57.8466C118.344 57.8466 118.519 53.8053 116.471 53.8803C114.424 53.9551 114.372 57.5137 114.372 57.5137Z" fill="#330B0B"/>
<path fill-rule="evenodd" clip-rule="evenodd" d="M114.372 57.5143C114.372 57.5143 114.103 57.4257 114.096 57.6201C114.089 57.8146 118.344 57.8471 118.344 57.8471C118.344 57.8471 118.519 53.8058 116.471 53.8809C114.424 53.9556 114.372 57.5143 114.372 57.5143Z" fill="white"/>
<path fill-rule="evenodd" clip-rule="evenodd" d="M115.847 54.0434C116.651 53.9676 117.34 54.7134 117.387 55.7088C117.434 56.7047 116.821 57.573 116.019 57.6484C115.215 57.7242 114.526 56.9784 114.479 55.9829C114.432 54.9875 115.044 54.1192 115.847 54.0434Z" fill="#4C1B16"/>
<path fill-rule="evenodd" clip-rule="evenodd" d="M117.388 55.8867C117.36 56.806 116.773 57.578 116.018 57.6492C115.215 57.725 114.526 56.9792 114.479 55.9837C114.475 55.8984 114.476 55.8138 114.481 55.7305C114.54 55.9204 114.705 56.0811 114.871 55.8761C115.149 55.5145 116.25 55.8577 116.818 55.869C116.831 56.0192 117.31 56.2022 117.388 55.8867Z" fill="#4C1B16"/>
<path fill-rule="evenodd" clip-rule="evenodd" d="M115.752 54.613C116.306 54.5606 116.782 55.0755 116.815 55.7633C116.847 56.4506 116.424 57.0505 115.87 57.1026C115.315 57.155 114.839 56.6401 114.806 55.9524C114.774 55.2646 115.197 54.6651 115.752 54.613Z" fill="#330B0B"/>
<path fill-rule="evenodd" clip-rule="evenodd" d="M114.973 55.2724C115.244 55.2572 115.48 55.424 115.501 55.6453C115.522 55.8667 115.319 56.0583 115.049 56.0738C114.778 56.0891 114.542 55.9223 114.521 55.7009C114.5 55.4796 114.703 55.288 114.973 55.2724ZM115.836 56.1174C115.938 56.1117 116.027 56.1818 116.036 56.2739C116.045 56.366 115.969 56.4453 115.867 56.4513C115.766 56.457 115.676 56.3869 115.667 56.2948C115.659 56.2024 115.734 56.1231 115.836 56.1174Z" fill="white"/>
<path fill-rule="evenodd" clip-rule="evenodd" d="M116.989 49.4037C118.298 49.5411 119.332 50.1998 119.298 50.8748C119.264 51.5497 118.174 51.9857 116.865 51.8483C115.555 51.7109 114.521 51.0522 114.556 50.3772C114.59 49.7023 115.679 49.2663 116.989 49.4037Z" fill="#330B0B"/>
<path fill-rule="evenodd" clip-rule="evenodd" d="M107.044 57.3583C107.044 57.3583 107.942 53.0241 105.175 52.8276C102.408 52.6307 102.361 56.4907 102.361 56.4907L101.225 56.3575L103.06 57.2514C103.06 57.2514 103.331 53.2154 105.358 53.5157C107.384 53.816 107.044 57.3583 107.044 57.3583Z" fill="#330B0B"/>
<path fill-rule="evenodd" clip-rule="evenodd" d="M107.043 57.3586C107.043 57.3586 107.321 57.3002 107.306 57.4942C107.291 57.6883 103.059 57.2517 103.059 57.2517C103.059 57.2517 103.33 53.2157 105.357 53.516C107.383 53.8163 107.043 57.3586 107.043 57.3586Z" fill="white"/>
<path fill-rule="evenodd" clip-rule="evenodd" d="M104.393 53.7474C105.183 53.5838 105.95 54.2488 106.107 55.2333C106.263 56.2178 105.75 57.1481 104.961 57.312C104.171 57.4757 103.404 56.8106 103.247 55.8261C103.09 54.8417 103.604 53.911 104.393 53.7474Z" fill="#4C1B16"/>
<path fill-rule="evenodd" clip-rule="evenodd" d="M106.128 55.4092C106.201 56.3264 105.703 57.1582 104.96 57.3119C104.17 57.4755 103.403 56.8105 103.247 55.826C103.233 55.7414 103.225 55.6574 103.221 55.5738C103.299 55.7562 103.481 55.8975 103.624 55.6758C103.86 55.2859 104.993 55.5055 105.558 55.4545C105.589 55.6025 106.085 55.7318 106.128 55.4092Z" fill="#4C1B16"/>
<path fill-rule="evenodd" clip-rule="evenodd" d="M104.362 54.3237C104.907 54.2108 105.437 54.6701 105.545 55.3496C105.653 56.0296 105.299 56.6719 104.753 56.7849C104.208 56.8979 103.678 56.4386 103.57 55.759C103.462 55.0794 103.816 54.4367 104.362 54.3237Z" fill="#330B0B"/>
<path fill-rule="evenodd" clip-rule="evenodd" d="M103.661 55.0651C103.929 55.0201 104.181 55.16 104.227 55.3774C104.272 55.5948 104.092 55.808 103.824 55.853C103.557 55.898 103.304 55.7581 103.259 55.5406C103.214 55.3229 103.394 55.11 103.661 55.0651ZM104.611 55.8094C104.712 55.7924 104.809 55.8523 104.827 55.9429C104.846 56.0336 104.78 56.1207 104.679 56.1377C104.579 56.1547 104.482 56.0949 104.463 56.0042C104.445 55.9135 104.511 55.8264 104.611 55.8094Z" fill="white"/>
<path fill-rule="evenodd" clip-rule="evenodd" d="M104.561 49.4126C103.267 49.6523 102.287 50.3903 102.375 51.0607C102.462 51.7311 103.582 52.0799 104.876 51.8401C106.171 51.6004 107.15 50.8624 107.063 50.192C106.976 49.5217 105.856 49.1728 104.561 49.4126Z" fill="#330B0B"/>
<path fill-rule="evenodd" clip-rule="evenodd" d="M97.6668 90.7067L100.617 104.41C100.941 105.915 98.6229 107.691 95.4386 108.376C92.2543 109.062 89.4103 108.397 89.0863 106.893L86.1357 93.1895C85.8117 91.6845 88.1301 89.9089 91.3144 89.2233C94.4988 88.5377 97.3428 89.202 97.6668 90.7067Z" fill="#E59026"/>
<path fill-rule="evenodd" clip-rule="evenodd" d="M91.4199 89.7165C94.6042 89.0309 97.4482 89.6949 97.7722 91.1999C98.0963 92.705 95.7778 94.4806 92.5935 95.1662C89.4092 95.8518 86.5652 95.1874 86.2412 93.6827C85.9171 92.1777 88.2356 90.4021 91.4199 89.7165Z" fill="#4C1B16"/>
<path fill-rule="evenodd" clip-rule="evenodd" d="M88.3077 92.4445C89.01 92.2933 89.658 92.5348 89.7547 92.9845C89.8514 93.4339 89.3606 93.9208 88.6583 94.0721C87.9557 94.2233 87.308 93.9818 87.2114 93.532C87.1147 93.0826 87.6055 92.5957 88.3077 92.4445Z" fill="#E59026"/>
<path fill-rule="evenodd" clip-rule="evenodd" d="M116.32 87.2339C119.314 88.501 121.274 91.6283 120.91 95.0169L119.318 109.835C119.267 110.309 118.839 110.654 118.366 110.603L105.034 109.171C104.561 109.12 104.216 108.692 104.267 108.218L105.859 93.4C106.223 90.0114 108.803 87.3717 111.997 86.7697L112.296 83.9873L116.619 84.4516L116.32 87.2339Z" fill="#5AA8AC"/>
<path fill-rule="evenodd" clip-rule="evenodd" d="M112.041 86.3642L112.296 83.9873L116.619 84.4516L116.339 87.0586C113.767 85.7328 112.041 86.3642 112.041 86.3642Z" fill="#368D93"/>
<path d="M105.82 93.73L104.906 102.241L119.958 103.858L120.872 95.3468L105.82 93.73Z" fill="#4C1B16"/>
<path fill-rule="evenodd" clip-rule="evenodd" d="M112.74 80.7272L116.879 81.1716C117.12 81.1975 117.297 81.4163 117.271 81.6578L116.814 85.9088C116.788 86.1503 116.569 86.3266 116.328 86.3004L112.189 85.856C111.948 85.8302 111.772 85.6113 111.797 85.3698L112.254 81.1189C112.28 80.8773 112.499 80.701 112.74 80.7272Z" fill="#FFEFDB"/>
<path fill-rule="evenodd" clip-rule="evenodd" d="M112.741 80.7272L114.552 80.922C114.792 80.9496 114.966 81.1674 114.94 81.4078L114.484 85.6588C114.457 85.9003 114.239 86.0766 113.997 86.0504L112.185 85.8557C111.946 85.8277 111.772 85.6103 111.797 85.3698L112.254 81.1189C112.28 80.8773 112.499 80.701 112.741 80.7272Z" fill="white"/>
<path fill-rule="evenodd" clip-rule="evenodd" d="M109.658 88.4045C110.57 88.0592 111.375 88.2437 111.455 88.8163C111.536 89.3893 110.862 90.1337 109.95 90.479C109.038 90.8242 108.234 90.6397 108.153 90.0671C108.072 89.4945 108.747 88.7498 109.658 88.4045ZM112.267 88.7257C112.653 88.5794 112.994 88.6577 113.028 88.9003C113.062 89.1432 112.776 89.4584 112.39 89.6046C112.004 89.7509 111.663 89.673 111.629 89.43C111.595 89.1871 111.881 88.8719 112.267 88.7257Z" fill="#78C8CC"/>
<path fill-rule="evenodd" clip-rule="evenodd" d="M106.746 88.0476L108.014 102.64C108.153 104.243 105.517 105.78 102.126 106.075C98.7356 106.37 95.8739 105.31 95.7347 103.707L94.4662 89.1153C94.327 87.5128 96.9628 85.9749 100.354 85.6802C103.745 85.3849 106.606 86.4448 106.746 88.0476Z" fill="#FFBA55"/>
<path fill-rule="evenodd" clip-rule="evenodd" d="M107.147 92.668L108.013 102.639C108.152 104.242 105.517 105.78 102.126 106.075C98.735 106.37 95.8733 105.309 95.7338 103.707L94.9355 94.5222C97.333 98.1438 105.9 96.5917 107.147 92.668Z" fill="#E59026"/>
<path fill-rule="evenodd" clip-rule="evenodd" d="M100.4 86.2044C103.791 85.9098 106.653 86.9701 106.792 88.5725C106.931 90.1749 104.295 91.7129 100.905 92.0079C97.514 92.3025 94.6523 91.2422 94.5131 89.6398C94.3739 88.037 97.0097 86.4991 100.4 86.2044Z" fill="#4C1B16"/>
<path fill-rule="evenodd" clip-rule="evenodd" d="M103.433 87.9915C104.181 87.9263 104.821 88.2617 104.863 88.7405C104.904 89.2193 104.332 89.6598 103.584 89.725C102.836 89.7901 102.196 89.4547 102.154 88.976C102.113 88.4972 102.685 88.0563 103.433 87.9915Z" fill="#FFBA55"/>
<path fill-rule="evenodd" clip-rule="evenodd" d="M93.3082 97.1855H127.401C128.095 97.1855 128.685 97.7532 128.713 98.4473L129.942 129.323C129.97 130.017 129.425 130.584 128.731 130.584H94.6383C93.9442 130.584 93.3539 130.017 93.3262 129.323L92.0967 98.4473C92.0691 97.7532 92.6141 97.1855 93.3082 97.1855Z" fill="#32787D"/>
<path fill-rule="evenodd" clip-rule="evenodd" d="M91.6059 98.2674L89.6288 103.127C89.3912 103.711 89.4655 104.335 89.8363 104.87C90.2071 105.406 90.7701 105.703 91.4097 105.699L129.502 105.489C130.119 105.486 130.637 105.205 130.966 104.696C131.296 104.187 131.344 103.592 131.102 103.014L129.156 98.3659C128.853 97.6417 128.175 97.1855 127.4 97.1855H93.2313C92.4937 97.1852 91.8796 97.5942 91.6059 98.2674Z" fill="#32787D"/>
<path fill-rule="evenodd" clip-rule="evenodd" d="M86.6016 97.1855H120.694C121.388 97.1855 121.956 97.7532 121.956 98.4473V129.323C121.956 130.017 121.388 130.584 120.694 130.584H86.6016C85.9075 130.584 85.3398 130.017 85.3398 129.323V98.4473C85.3398 97.7532 85.9079 97.1855 86.6016 97.1855Z" fill="#368D93"/>
<path fill-rule="evenodd" clip-rule="evenodd" d="M84.8576 98.2674L82.6868 103.127C82.4258 103.711 82.4754 104.335 82.8249 104.87C83.1744 105.406 83.7258 105.703 84.3653 105.699L122.466 105.489C123.083 105.486 123.613 105.205 123.962 104.696C124.312 104.187 124.383 103.592 124.165 103.014L122.404 98.3659C122.13 97.6417 121.47 97.1855 120.696 97.1855H86.5262C85.7889 97.1852 85.1582 97.5942 84.8576 98.2674Z" fill="#5AA8AC"/>
<path fill-rule="evenodd" clip-rule="evenodd" d="M107.254 119.137C107.254 120.101 105.64 120.883 103.65 120.883C101.659 120.883 100.045 120.101 100.045 119.137V112.399C100.045 113.364 101.659 114.145 103.65 114.145C105.64 114.145 107.254 113.364 107.254 112.399V119.137Z" fill="#5AA8AC"/>
<path fill-rule="evenodd" clip-rule="evenodd" d="M103.65 110.652C105.64 110.652 107.254 111.434 107.254 112.399C107.254 113.364 105.64 114.145 103.65 114.145C101.659 114.145 100.045 113.364 100.045 112.399C100.045 111.434 101.659 110.652 103.65 110.652ZM105.361 111.979C104.825 111.979 104.39 112.189 104.39 112.449C104.39 112.708 104.825 112.919 105.361 112.919C105.897 112.919 106.331 112.708 106.331 112.449C106.331 112.189 105.897 111.979 105.361 111.979Z" fill="#5AA8AC"/>
<path fill-rule="evenodd" clip-rule="evenodd" d="M147.877 109.046L150.489 110.908C152.646 113.819 141.571 121.32 134.43 117.631L134.766 112.467L144.736 108.77L147.877 109.046Z" fill="#4C1B16"/>
<path fill-rule="evenodd" clip-rule="evenodd" d="M147.417 107.375L154.518 123.757L142.024 125.74L136.375 113.143L147.417 107.375Z" fill="#F5726F"/>
<path fill-rule="evenodd" clip-rule="evenodd" d="M129.266 91.4767L138.298 88.3398L150.488 110.908C144.577 106.934 135.765 113.688 134.429 117.631L129.266 91.4767Z" fill="#F63C4E"/>
<path fill-rule="evenodd" clip-rule="evenodd" d="M88.2773 121.858L89.2834 121.417L95.0823 122.355C95.0823 122.355 95.4346 123.914 94.5684 124.452L93.0294 124.941L91.4177 128.687L88.8241 129.874L88.2773 121.858Z" fill="#F5726F"/>
<path fill-rule="evenodd" clip-rule="evenodd" d="M82.0703 122.304L89.2842 121.417L88.8249 129.875C88.8249 129.875 84.5425 130.043 83.2875 129.11L82.0703 122.304Z" fill="#FF9B87"/>
<path fill-rule="evenodd" clip-rule="evenodd" d="M118.064 129.41C126.238 126.731 138.193 120.046 148.025 120.571C157.857 121.096 155.706 128.617 148.657 130.54C141.608 132.463 118.67 133.388 118.67 133.388L118.064 129.41Z" fill="#FF9B87"/>
<path fill-rule="evenodd" clip-rule="evenodd" d="M129.894 61.0464C119.382 70.3277 113.21 87.9972 123.548 90.0363C116.933 86.1721 122.679 75.5366 125.213 70.7137C122.167 78.2917 119.74 88.1856 125.602 92.0931C135.661 98.7992 138.297 88.3397 138.297 88.3397C135.422 75.6396 137.681 68.2688 129.894 61.0464Z" fill="#4C1B16"/>
<path fill-rule="evenodd" clip-rule="evenodd" d="M127.838 73.6455C125.738 93.3938 140.712 93.0598 142.227 83.01C137.203 91.0324 128.63 85.7464 127.838 73.6455Z" fill="#330B0B"/>
<path fill-rule="evenodd" clip-rule="evenodd" d="M127.95 74.8921C126.66 87.0213 135.857 86.8163 136.788 80.6435C133.702 85.5712 128.436 82.3245 127.95 74.8921Z" fill="#330B0B"/>
</g>
</svg>
