<svg width="125" height="107" viewBox="0 0 125 107" fill="none" xmlns="http://www.w3.org/2000/svg">
<path d="M52.5033 2.96704C70.3118 2.68071 86.1258 11.7315 95.3027 25.58L97.8369 24.0468C88.1307 9.3297 71.3523 -0.295262 52.4573 0.00691575C23.0638 0.476029 -0.462218 24.7718 0.00689553 54.1653C0.478397 83.5549 24.7705 107.085 54.1625 106.616C83.5534 106.144 107.085 81.848 106.614 52.4586C106.473 43.6536 104.181 35.3832 100.271 28.1194L97.7329 29.6527C101.382 36.4805 103.521 44.2449 103.653 52.5059C104.097 80.265 81.8727 103.212 54.1136 103.653C26.3597 104.1 3.41182 81.8756 2.96637 54.1193C2.52417 26.3578 24.7468 3.41119 52.5033 2.96704Z" fill="#616E7D"/>
<path d="M52.7375 17.6474C65.162 17.4476 76.1951 23.6343 82.7339 33.1685L92.9276 27.0123C84.2565 13.9848 69.3582 5.491 52.5495 5.7591C26.2842 6.17958 5.33732 27.8098 5.7602 54.0724C6.18069 80.3338 27.8109 101.285 54.0711 100.863C80.3323 100.443 101.281 78.811 100.862 52.5497C100.739 44.7932 98.7506 37.5056 95.353 31.0888L85.1265 37.265C87.4821 41.929 88.8838 47.1657 88.9732 52.7401C89.2886 72.4351 73.5798 88.6604 53.8807 88.9758C34.1855 89.291 17.9643 73.5782 17.645 53.8818C17.3348 34.1853 33.0437 17.9626 52.7375 17.6474Z" fill="#616E7D"/>
<path d="M52.9285 29.5347C60.9688 29.4059 68.1264 33.2947 72.5275 39.3329L82.7342 33.1684C76.1955 23.6342 65.1624 17.4476 52.7379 17.6473C33.0443 17.9627 17.3351 34.1854 17.6451 53.8817C17.9645 73.5781 34.1857 89.2909 53.8808 88.9757C73.5799 88.6603 89.2888 72.435 88.9734 52.74C88.8842 47.1656 87.4822 41.9289 85.1267 37.2649L74.9291 43.4253C76.2587 46.3248 77.0337 49.5357 77.0877 52.9304C77.2966 66.0604 66.823 76.8782 53.6892 77.087C40.5631 77.2987 29.744 66.8213 29.5351 53.6924C29.325 40.5587 39.8011 29.7448 52.9285 29.5347Z" fill="white"/>
<path d="M53.1192 41.4238C56.7729 41.3645 60.0628 42.9623 62.2831 45.5188L72.5267 39.3335C68.1256 33.2954 60.968 29.4066 52.9277 29.5353C39.8004 29.7455 29.324 40.5594 29.5344 53.6933C29.7432 66.8219 40.5623 77.2996 53.6884 77.0879C66.8225 76.8791 77.2958 66.0615 77.087 52.9313C77.0329 49.5366 76.2579 46.3255 74.9283 43.4262L64.6228 49.6508C64.9762 50.7466 65.1772 51.9106 65.1957 53.1219C65.302 59.6869 60.0667 65.0944 53.4978 65.201C46.9354 65.306 41.5277 60.0668 41.4213 53.5031C41.3189 46.9353 46.5531 41.5276 53.1192 41.4238Z" fill="#616E7D"/>
<path d="M54.885 49.9867L62.2832 45.5185C60.0628 42.9619 56.7732 41.3642 53.1193 41.4235C46.553 41.5272 41.3189 46.9347 41.4214 53.5025C41.5278 60.0662 46.9355 65.3055 53.4979 65.2004C60.0668 65.0941 65.3023 59.6866 65.1958 53.1214C65.1773 51.91 64.9763 50.746 64.6229 49.6502L57.045 54.2263C56.0859 54.8057 54.8364 54.5204 54.2164 53.5798L54.1033 53.4064C53.3533 52.253 53.7041 50.7026 54.885 49.9867Z" fill="white"/>
<path d="M121.566 23.2925C122.04 23.5422 122.611 23.5252 123.066 23.2493L124.632 22.3046C124.868 22.1615 125.01 21.9012 125 21.6256C124.997 21.3483 124.837 21.0974 124.592 20.9687L117.347 17.1493L118.161 16.6594C118.333 16.5541 118.462 16.3806 118.508 16.1811C118.557 15.984 118.521 15.7713 118.412 15.5978L117.393 13.9608C117.169 13.6048 116.702 13.4943 116.342 13.7099L115.502 14.217L115.326 6.10965C115.32 5.83895 115.17 5.588 114.931 5.45666C114.692 5.32533 114.399 5.32924 114.165 5.47121L112.608 6.41182C112.14 6.69295 111.86 7.20265 111.871 7.74796L112.059 16.2982L111.646 16.5517L111.465 8.44414C111.461 8.17084 111.308 7.92011 111.068 7.78725C110.832 7.65852 110.538 7.66264 110.3 7.8044L108.743 8.74393C108.274 9.02765 107.997 9.53606 108.006 10.0814L108.196 18.6329L107.779 18.8851L107.597 10.7776C107.595 10.5029 107.442 10.2546 107.202 10.122C106.967 9.99063 106.672 9.99324 106.435 10.1378L104.881 11.0771C104.413 11.3582 104.134 11.8695 104.145 12.4133L104.308 19.6957C104.31 19.9675 104.171 20.2213 103.942 20.3604L97.8372 24.0469L95.303 25.5801L92.9277 27.0122L82.734 33.1684L72.5272 39.3329L62.2836 45.5182L54.8854 49.9864C53.7043 50.7023 53.3537 52.2527 54.1037 53.4063L54.2168 53.5798C54.8368 54.5204 56.0863 54.8054 57.0454 54.2262L64.6233 49.6501L74.9288 43.4255L85.1264 37.2652L95.3529 31.089L97.7337 29.6532L100.272 28.12L106.372 24.4361C106.596 24.2983 106.88 24.2891 107.114 24.4138L113.842 27.9598C114.314 28.2094 114.884 28.1936 115.341 27.9151L116.907 26.9703C117.142 26.8286 117.283 26.5683 117.278 26.2924C117.269 26.0152 117.109 25.7642 116.869 25.6368L109.621 21.819L110.02 21.5787L117.706 25.6264C118.179 25.8773 118.747 25.8602 119.205 25.5832L120.77 24.6384C121.007 24.4925 121.148 24.2351 121.143 23.9566C121.135 23.682 120.978 23.431 120.733 23.3023L113.486 19.4856L113.882 19.244L121.566 23.2925Z" fill="#DE1D71"/>
</svg>
