<svg width="193" height="204" viewBox="0 0 193 204" fill="none" xmlns="http://www.w3.org/2000/svg">
<path d="M48.2901 149.877C43.6094 145.158 39.6216 139.752 36.5213 133.88C33.4196 128.011 31.1778 121.69 29.9227 115.177C28.6654 108.665 28.3825 101.976 29.0491 95.389C29.7142 88.8005 31.3678 82.3167 33.9336 76.2222C36.4907 70.1243 39.9512 64.4093 44.1728 59.3302C48.3926 54.2509 53.347 49.7858 58.846 46.143C64.344 42.4994 70.3805 39.6821 76.6905 37.7953C83.0013 35.9069 89.5899 34.9821 96.1669 35.0137C89.5898 35.0423 83.019 36.0271 76.7429 37.9679C70.4676 39.9071 64.4813 42.7693 59.0468 46.4429C53.6114 50.1154 48.7307 54.5973 44.5909 59.6741C40.4496 64.7507 37.0753 70.4426 34.6005 76.4987C32.1172 82.5514 30.544 88.9696 29.9474 95.4759C29.3489 101.982 29.6897 108.573 30.9851 114.967C32.278 121.361 34.539 127.552 37.6354 133.284C40.7302 139.018 44.6856 144.277 49.3111 148.856L48.2901 149.877Z" fill="url(#paint0_linear_1046_1053)"/>
<path d="M144.041 54.1232C148.722 58.8418 152.709 64.2476 155.81 70.1197C158.911 75.9892 161.153 82.3103 162.408 88.8228C163.666 95.3348 163.948 102.023 163.282 108.611C162.617 115.199 160.963 121.683 158.397 127.777C155.84 133.875 152.38 139.59 148.158 144.67C143.938 149.749 138.984 154.214 133.485 157.857C127.987 161.5 121.95 164.318 115.64 166.204C109.33 168.093 102.741 169.017 96.1641 168.986C102.741 168.957 109.312 167.972 115.588 166.032C121.864 164.092 127.85 161.23 133.284 157.557C138.72 153.884 143.6 149.402 147.74 144.325C151.882 139.249 155.256 133.557 157.731 127.501C160.214 121.448 161.787 115.03 162.384 108.524C162.982 102.018 162.641 95.4262 161.346 89.0327C160.053 82.6382 157.792 76.4475 154.696 70.7152C151.601 64.9813 147.645 59.7227 143.02 55.144L144.041 54.1232Z" fill="url(#paint1_linear_1046_1053)"/>
<path opacity="0.8" d="M168.43 93.0539C168.083 90.0846 167.543 87.1378 166.836 84.2314C165.406 78.422 163.252 72.7893 160.448 67.4964C159.046 64.8491 157.469 62.2955 155.757 59.8364C154.029 57.3878 152.159 55.0383 150.15 52.8121C148.133 50.5943 145.996 48.4817 143.728 46.5173C143.157 46.0312 142.592 45.5374 142.005 45.0701C141.713 44.8347 141.425 44.5941 141.129 44.3628L140.239 43.6739C139.945 43.4416 139.643 43.2185 139.34 42.9973L138.433 42.3301L137.511 41.6849L137.049 41.3623L136.581 41.0496C134.087 39.3792 131.495 37.8506 128.809 36.5043L127.801 36.0006L126.782 35.5195L126.273 35.2791L125.757 35.0509L124.727 34.5944L123.687 34.1614C123.339 34.0194 122.995 33.869 122.642 33.7381C121.941 33.4696 121.243 33.1904 120.532 32.9456C117.703 31.9304 114.812 31.0812 111.874 30.4317C108.938 29.778 105.963 29.2914 102.966 29.011C96.9747 28.4318 90.9119 28.5815 84.9483 29.4573C81.9683 29.9053 79.0126 30.5265 76.1069 31.3336C73.5917 32.0395 71.1132 32.8771 68.6834 33.8392C68.4491 33.6627 68.1586 33.557 67.8426 33.557C67.0686 33.557 66.4414 34.1844 66.4414 34.9581C66.4414 35.732 67.0688 36.3593 67.8426 36.3593C68.5464 36.3593 69.1273 35.8398 69.227 35.1637C71.5976 34.1977 74.0177 33.3525 76.4764 32.6357C79.3199 31.815 82.2158 31.1758 85.1394 30.706C90.9898 29.7862 96.9585 29.5777 102.867 30.0892C105.823 30.3356 108.76 30.7857 111.662 31.4012C114.566 32.0124 117.427 32.8217 120.231 33.7961C120.936 34.0307 121.628 34.2997 122.324 34.5579C122.673 34.6837 123.015 34.8289 123.36 34.9658L124.392 35.3833L125.415 35.8244L125.927 36.0448L126.433 36.2774L127.445 36.7428L128.446 37.2307C131.116 38.5353 133.695 40.0217 136.181 41.6507L136.648 41.9555L137.108 42.2704L138.028 42.9L138.933 43.5518C139.235 43.7678 139.536 43.9859 139.83 44.2131L140.719 44.8868C141.014 45.113 141.302 45.3485 141.593 45.579C142.18 46.0362 142.745 46.52 143.316 46.9961C145.584 48.9207 147.725 50.9954 149.75 53.1768C151.766 55.3665 153.647 57.681 155.388 60.0971C157.115 62.5234 158.708 65.0469 160.129 67.6667C162.972 72.905 165.176 78.4947 166.661 84.2749C167.395 87.1667 167.963 90.1025 168.34 93.0643C168.711 96.0268 168.906 99.012 168.927 101.999C168.936 99.0126 168.772 96.0238 168.43 93.0539Z" fill="url(#paint2_linear_1046_1053)"/>
<path d="M48.8035 150.722C49.5773 150.722 50.2046 150.094 50.2046 149.321C50.2046 148.547 49.5773 147.919 48.8035 147.919C48.0297 147.919 47.4023 148.547 47.4023 149.321C47.4023 150.094 48.0297 150.722 48.8035 150.722Z" fill="url(#paint3_linear_1046_1053)"/>
<path d="M143.534 56.0349C144.308 56.0349 144.935 55.4076 144.935 54.6338C144.935 53.8599 144.308 53.2326 143.534 53.2326C142.76 53.2326 142.133 53.8599 142.133 54.6338C142.133 55.4076 142.76 56.0349 143.534 56.0349Z" fill="url(#paint4_linear_1046_1053)"/>
<path opacity="0.8" d="M147.615 152.049C146.842 152.049 146.214 152.676 146.214 153.45C146.214 153.563 146.229 153.672 146.254 153.777C143.573 156.385 140.698 158.793 137.65 160.963C134.279 163.364 130.689 165.458 126.952 167.243C123.216 169.033 119.318 170.483 115.328 171.602C114.828 171.736 114.33 171.879 113.828 172.005L112.318 172.376L110.8 172.709C110.294 172.82 109.783 172.909 109.275 173.01C107.237 173.389 105.183 173.682 103.12 173.889C101.057 174.099 98.9832 174.204 96.909 174.233C94.8346 174.261 92.7589 174.205 90.6887 174.062C86.5498 173.76 82.4346 173.116 78.4047 172.115C74.3785 171.103 70.4332 169.757 66.635 168.071C62.8373 166.385 59.182 164.377 55.7239 162.069C52.2713 159.753 49.0193 157.137 46.0058 154.269C42.9915 151.401 40.2293 148.268 37.7447 144.929C35.257 141.591 33.0757 138.025 31.2066 134.304C30.2724 132.442 29.4163 130.542 28.6421 128.607C27.874 126.671 27.1868 124.702 26.5845 122.707C21.7592 106.746 22.6207 89.0896 29.1236 73.6768C22.5099 89.0422 21.5047 106.733 26.2385 122.81C26.8295 124.819 27.506 126.803 28.2643 128.756C29.0287 130.707 29.876 132.625 30.8025 134.505C32.6564 138.263 34.8267 141.869 37.3088 145.25C42.2602 152.021 48.3799 157.938 55.3202 162.668C58.7962 165.024 62.476 167.08 66.3035 168.813C70.1315 170.545 74.1139 171.936 78.1835 172.99C82.2569 174.034 86.4219 174.716 90.6149 175.052C92.7122 175.212 94.8159 175.284 96.9193 175.271C99.0226 175.257 101.127 175.165 103.222 174.967C105.318 174.772 107.406 174.49 109.478 174.119C109.995 174.021 110.515 173.934 111.03 173.825L112.575 173.498L114.111 173.132C114.623 173.008 115.13 172.866 115.64 172.733C119.703 171.625 123.677 170.179 127.491 168.386C131.306 166.597 134.977 164.491 138.43 162.069C141.553 159.88 144.503 157.444 147.257 154.803C147.371 154.834 147.491 154.851 147.615 154.851C148.389 154.851 149.016 154.224 149.016 153.45C149.017 152.676 148.389 152.049 147.615 152.049Z" fill="url(#paint5_linear_1046_1053)"/>
<path opacity="0.6" d="M174.918 93.8219C174.197 86.4389 172.413 79.1567 169.649 72.2643C169.824 72.0305 169.929 71.7411 169.929 71.4267C169.929 70.6527 169.301 70.0255 168.528 70.0255C167.754 70.0255 167.127 70.6529 167.127 71.4267C167.127 72.1308 167.646 72.7118 168.323 72.8112C171.087 79.5559 172.896 86.6936 173.661 93.9505C174.468 101.603 174.169 109.382 172.73 116.95C171.293 124.519 168.704 131.869 165.109 138.693C161.516 145.518 156.888 151.799 151.446 157.279C146.008 162.763 139.757 167.447 132.944 171.101C126.133 174.758 118.778 177.415 111.185 178.917C103.593 180.422 95.7739 180.785 88.0623 180.033C80.3497 179.28 72.7494 177.359 65.5938 174.361C72.7259 177.414 80.3195 179.398 88.0441 180.213C95.7671 181.026 103.615 180.724 111.254 179.272C118.894 177.821 126.313 175.208 133.199 171.579C140.088 167.953 146.427 163.281 151.956 157.789C157.49 152.303 162.217 145.993 165.905 139.117C169.595 132.243 172.277 124.821 173.793 117.156C175.311 109.492 175.677 101.604 174.918 93.8219Z" fill="url(#paint6_linear_1046_1053)"/>
<path opacity="0.3" d="M184.834 84.0343C183.843 78.5501 182.329 73.1507 180.331 67.9268C180.59 67.6725 180.752 67.3188 180.752 66.9272C180.752 66.1533 180.124 65.5261 179.35 65.5261C178.577 65.5261 177.949 66.1534 177.949 66.9272C177.949 67.5692 178.381 68.1089 178.97 68.2748C181.178 73.3894 182.912 78.7191 184.127 84.177C185.428 90.0148 186.135 95.996 186.255 102C186.376 95.9965 185.909 89.9677 184.834 84.0343Z" fill="url(#paint7_linear_1046_1053)"/>
<path opacity="0.1" d="M191.204 141.573C191.204 140.799 190.576 140.172 189.802 140.172C189.029 140.172 188.401 140.799 188.401 141.573C188.401 141.878 188.5 142.16 188.666 142.39C184.911 151.064 179.933 159.209 173.902 166.497C167.62 174.091 160.24 180.791 152.035 186.269C143.832 191.751 134.812 196.013 125.369 198.899C115.926 201.787 106.049 203.249 96.1647 203.278C86.2804 203.309 76.3861 201.907 66.908 199.071C57.4311 196.238 48.3609 192.021 40.0952 186.57C31.8272 181.121 24.3734 174.44 18.0109 166.843C11.6463 159.246 6.41462 150.698 2.52734 141.572C6.35912 150.722 11.5425 159.309 17.8721 166.958C24.1995 174.607 31.6311 181.352 39.8956 186.871C48.158 192.391 57.2411 196.683 66.7517 199.59C76.2634 202.499 86.212 203.971 96.1648 203.999C106.118 204.031 116.084 202.619 125.63 199.762C135.175 196.908 144.308 192.662 152.634 187.172C160.961 181.684 168.466 174.955 174.874 167.304C181.025 159.962 186.123 151.735 189.984 142.961C190.672 142.872 191.204 142.285 191.204 141.573Z" fill="url(#paint8_linear_1046_1053)"/>
<path opacity="0.3" d="M159.868 164.3C159.095 164.3 158.467 164.928 158.467 165.702C158.467 165.817 158.483 165.929 158.509 166.036C152.511 171.961 145.675 177.046 138.243 181.059C130.462 185.264 122.052 188.331 113.362 190.078C104.673 191.827 95.7156 192.27 86.8748 191.432C78.0325 190.594 69.312 188.414 61.0938 184.999C69.2649 188.525 77.9724 190.83 86.8381 191.791C95.7022 192.752 104.717 192.431 113.5 190.786C122.284 189.144 130.82 186.164 138.752 182.015C146.33 178.054 153.336 172.991 159.51 167.055C159.624 167.085 159.744 167.103 159.868 167.103C160.642 167.103 161.269 166.475 161.269 165.701C161.27 164.928 160.642 164.3 159.868 164.3Z" fill="url(#paint9_linear_1046_1053)"/>
<path opacity="0.2" d="M96.1656 196.462C95.6591 196.462 95.2168 196.732 94.9707 197.134C92.6509 197.108 90.3323 197.003 88.02 196.814C85.3113 196.592 82.6093 196.268 79.93 195.806C77.2501 195.349 74.5894 194.779 71.957 194.097C71.301 193.919 70.6405 193.757 69.9881 193.565L68.0306 192.992L66.0881 192.37C65.4407 192.162 64.8023 191.927 64.1589 191.707C59.0352 189.882 54.0506 187.647 49.3096 184.973C44.5667 182.305 40.0428 179.241 35.8244 175.797C31.6086 172.351 27.6762 168.554 24.0889 164.453C20.5106 160.344 17.279 155.934 14.4454 151.278C11.617 146.618 9.20133 141.709 7.19802 136.638C5.20036 131.563 3.65324 126.313 2.54575 120.971C1.46416 115.624 0.825608 110.185 0.659668 104.729C0.580804 102.001 0.61153 99.2691 0.753825 96.5429C0.797292 95.8619 0.827024 95.1797 0.881819 94.4995L1.05328 92.4591L1.27444 90.4235C1.308 90.0839 1.35557 89.7459 1.4013 89.4077L1.53793 88.3929C1.91767 85.6892 2.41096 83.0011 3.01724 80.3383C3.61841 77.6739 4.35948 75.0421 5.19499 72.4418C6.03389 69.8423 6.98224 67.2777 8.03437 64.7559C9.09585 62.2379 10.262 59.764 11.5307 57.3436C16.5902 47.6504 23.3741 38.8674 31.4093 31.442C35.4312 27.7339 39.7585 24.3516 44.3563 21.3803C48.9547 18.4108 53.8081 15.8363 58.8429 13.6816C53.7963 15.8086 48.9266 18.3574 44.3074 21.3044C39.689 24.2532 35.3369 27.6162 31.2871 31.3091C23.1964 38.7036 16.3436 47.4731 11.2113 57.1751C9.92442 59.5978 8.74004 62.0751 7.66016 64.5976C6.58962 67.1243 5.623 69.6949 4.76569 72.3021C3.91192 74.9101 3.15259 77.5512 2.53357 80.226C1.90946 82.8995 1.39847 85.5994 1.00174 88.3164L0.858741 89.3362C0.810884 89.6761 0.761186 90.0158 0.725506 90.3571L0.491888 92.4035L0.308107 94.4549C0.249349 95.139 0.215508 95.8249 0.168076 96.5099C0.00978146 99.2518 -0.036232 102 0.0280486 104.746C0.164963 110.239 0.777609 115.72 1.83795 121.114C2.92421 126.502 4.45477 131.804 6.4411 136.932C8.43308 142.058 10.8429 147.024 13.6725 151.744C16.5072 156.46 19.7466 160.933 23.3392 165.104C26.9408 169.267 30.893 173.125 35.1378 176.634C39.385 180.141 43.9458 183.267 48.7326 185.995C53.5178 188.728 58.5519 191.019 63.7335 192.897C64.384 193.123 65.0298 193.365 65.6847 193.579L67.6502 194.221L69.6311 194.813C70.2915 195.01 70.9601 195.179 71.6243 195.363C74.2893 196.069 76.9846 196.662 79.7005 197.14C84.7369 198.025 89.8448 198.484 94.9577 198.571C95.2011 198.985 95.6502 199.265 96.1656 199.265C96.9395 199.265 97.5667 198.637 97.5667 197.863C97.5667 197.089 96.9393 196.462 96.1656 196.462Z" fill="url(#paint10_linear_1046_1053)"/>
<path opacity="0.4" d="M63.3429 178.279C63.0373 178.279 62.7554 178.378 62.5252 178.544C55.4086 175.447 48.724 171.355 42.7358 166.406C36.44 161.204 30.8843 155.093 26.3391 148.298C21.7917 141.504 18.253 134.031 15.8569 126.206C13.4587 118.38 12.2435 110.194 12.2146 102C12.1833 93.8058 13.3384 85.6021 15.6842 77.7417C18.0279 69.8824 21.5214 62.3596 26.0385 55.5028C30.5537 48.6443 36.092 42.4594 42.3898 37.1779C48.6875 31.8947 55.7743 27.5495 63.3431 24.3199C55.7509 27.494 48.6242 31.7909 42.2744 37.0391C35.9248 42.2855 30.3229 48.4481 25.7377 55.3032C21.1507 62.1565 17.5826 69.6924 15.1659 77.5854C12.747 85.4793 11.5215 93.7375 11.4928 102C11.4614 110.262 12.6266 118.538 14.993 126.467C17.3572 134.394 20.8805 141.98 25.4369 148.897C29.9917 155.815 35.5766 162.051 41.9279 167.377C47.9713 172.447 54.7376 176.659 61.9546 179.861C62.0434 180.549 62.6302 181.081 63.3429 181.081C64.1168 181.081 64.744 180.454 64.744 179.68C64.744 178.906 64.1166 178.279 63.3429 178.279Z" fill="url(#paint11_linear_1046_1053)"/>
<path opacity="0.3" d="M13.3449 135.684C11.1458 130.582 9.41702 125.266 8.20589 119.823C6.90456 113.985 6.19733 108.004 6.07712 102C5.95663 108.004 6.42302 114.032 7.49824 119.966C8.49883 125.501 10.0307 130.95 12.0562 136.219C11.874 136.456 11.7644 136.751 11.7644 137.073C11.7644 137.847 12.3918 138.474 13.1655 138.474C13.9395 138.474 14.5667 137.847 14.5667 137.073C14.5667 136.36 14.0339 135.773 13.3449 135.684Z" fill="url(#paint12_linear_1046_1053)"/>
<path opacity="0.6" d="M104.289 23.7876C96.5656 22.9739 88.7177 23.2757 81.0782 24.7285C73.4382 26.1787 66.02 28.7927 59.1338 32.421C52.2449 36.0473 45.9056 40.7197 40.3763 46.2107C34.8428 51.6972 30.1152 58.0068 26.4272 64.8834C22.7374 71.7568 20.0559 79.1795 18.5398 86.8438C17.021 94.5078 16.6553 102.396 17.4145 110.178C18.1351 117.561 19.9198 124.843 22.6832 131.736C22.5082 131.969 22.4034 132.259 22.4034 132.573C22.4034 133.347 23.0308 133.974 23.8046 133.974C24.5785 133.974 25.2057 133.347 25.2057 132.573C25.2057 131.869 24.6858 131.288 24.0093 131.189C21.2452 124.444 19.4366 117.306 18.6712 110.049C17.8646 102.397 18.1636 94.6179 19.6027 87.0502C21.0389 79.4814 23.6287 72.1309 27.2237 65.3074C30.8167 58.4818 35.4449 52.2014 40.8868 46.7213C46.3243 41.2369 52.5748 36.5535 59.3881 32.899C66.199 29.2426 73.5539 26.5852 81.1469 25.0829C88.7391 23.578 96.5585 23.215 104.27 23.9671C111.983 24.7198 119.583 26.6415 126.739 29.6391C119.607 26.586 112.013 24.6018 104.289 23.7876Z" fill="url(#paint13_linear_1046_1053)"/>
<path opacity="0.1" d="M174.461 37.0421C168.133 29.3936 160.702 22.6478 152.438 17.1294C144.175 11.6085 135.092 7.31675 125.581 4.41025C116.07 1.5012 106.121 0.0289815 96.1681 0.000522525C86.2154 -0.031193 76.2489 1.38086 66.7027 4.23738C57.1577 7.09149 48.0247 11.3383 39.6991 16.8287C31.3715 22.3171 23.866 29.0451 17.4589 36.6959C11.3076 44.0385 6.2099 52.2656 2.34882 61.0396C1.66085 61.1286 1.12891 61.7155 1.12891 62.4277C1.12891 63.2016 1.75628 63.8288 2.53005 63.8288C3.30383 63.8288 3.9312 63.2015 3.9312 62.4277C3.9312 62.1224 3.83251 61.8408 3.66686 61.6107C7.42161 52.937 12.3998 44.7915 18.4301 37.5037C24.7126 29.9085 32.0932 23.2098 40.2978 17.7309C48.5004 12.2496 57.5206 7.98731 66.9632 5.10134C76.4069 2.21296 86.2835 0.750934 96.168 0.722475C106.052 0.690901 115.947 2.09261 125.425 4.9286C134.902 7.76219 143.972 11.9794 152.238 17.4303C160.506 22.8787 167.959 29.5609 174.322 37.1576C180.687 44.7545 185.918 53.3018 189.806 62.428C185.974 53.2785 180.791 44.6911 174.461 37.0421Z" fill="url(#paint14_linear_1046_1053)"/>
<path opacity="0.3" d="M105.494 12.2087C96.6302 11.2476 87.6155 11.5685 78.8323 13.2137C70.0484 14.856 61.5122 17.8361 53.5805 21.9852C46.0026 25.9457 38.9963 31.0089 32.8224 36.9453C32.7077 36.915 32.588 36.8971 32.4636 36.8971C31.6897 36.8971 31.0625 37.5245 31.0625 38.2983C31.0625 39.0722 31.6899 39.6994 32.4636 39.6994C33.2376 39.6994 33.8648 39.0721 33.8648 38.2983C33.8648 38.1826 33.8492 38.0709 33.8229 37.9634C39.8211 32.0389 46.6575 26.9542 54.0892 22.941C61.8704 18.7358 70.2803 15.6687 78.97 13.9222C87.6588 12.1726 96.6165 11.7297 105.457 12.5677C114.3 13.4059 123.02 15.5857 131.238 19.0004C123.067 15.475 114.36 13.1704 105.494 12.2087Z" fill="url(#paint15_linear_1046_1053)"/>
<path opacity="0.2" d="M192.109 95.2236C192.086 94.734 192.038 94.2461 191.999 93.7576L191.876 92.2925L191.718 90.8306C191.666 90.3431 191.615 89.8556 191.545 89.3704L191.35 87.9128C191.29 87.4261 191.201 86.9439 191.128 86.4591C191.048 85.9753 190.978 85.4898 190.891 85.0074L190.623 83.5611C187.691 68.1465 180.904 53.4663 171.018 41.2403C166.081 35.1256 160.4 29.6092 154.137 24.8483C153.751 24.5432 153.348 24.2622 152.953 23.9682C152.555 23.6795 152.164 23.3812 151.761 23.1003C150.951 22.5415 150.155 21.9639 149.328 21.4301L148.097 20.6166L146.848 19.832L146.223 19.4397L145.589 19.0615L144.321 18.3074C141.264 16.5367 138.108 14.9385 134.88 13.503C134.792 12.8136 134.204 12.2802 133.491 12.2802C132.717 12.2802 132.09 12.9076 132.09 13.6814C132.09 14.4553 132.717 15.0825 133.491 15.0825C133.796 15.0825 134.077 14.984 134.308 14.8184C137.498 16.2081 140.62 17.7588 143.646 19.4806L144.902 20.2146L145.529 20.5827L146.149 20.9649L147.387 21.729L148.607 22.5221C149.426 23.0422 150.216 23.606 151.019 24.151C151.419 24.425 151.807 24.7164 152.202 24.9983C152.593 25.2854 152.994 25.5595 153.377 25.8577C159.593 30.5076 165.25 35.9156 170.178 41.9237C180.044 53.9344 186.887 68.4243 189.915 83.6989C192.934 98.971 192.22 115.007 187.699 129.944C185.442 137.411 182.277 144.607 178.284 151.317C176.29 154.673 174.073 157.896 171.687 160.988C169.287 164.07 166.698 167.004 163.954 169.786C166.719 167.026 169.332 164.11 171.758 161.044C174.17 157.967 176.415 154.757 178.439 151.41C182.491 144.718 185.721 137.527 188.045 130.05C189.196 126.308 190.13 122.498 190.822 118.642C191.503 114.785 191.954 110.887 192.175 106.975C192.385 103.061 192.358 99.1358 192.109 95.2236Z" fill="url(#paint16_linear_1046_1053)"/>
<path opacity="0.4" d="M177.337 77.5331C174.972 69.6057 171.45 62.0198 166.893 55.1032C162.338 48.1849 156.753 41.9491 150.402 36.6227C144.359 31.5531 137.592 27.3414 130.375 24.1393C130.287 23.4509 129.7 22.9185 128.987 22.9185C128.213 22.9185 127.586 23.5459 127.586 24.3197C127.586 25.0936 128.213 25.7208 128.987 25.7208C129.293 25.7208 129.575 25.6218 129.805 25.4559C136.921 28.5523 143.606 32.645 149.594 37.594C155.89 42.7959 161.446 48.9068 165.991 55.7022C170.538 62.4958 174.077 69.9688 176.473 77.7936C178.871 85.6194 180.086 93.8054 180.115 102C180.147 110.194 178.992 118.397 176.646 126.258C174.302 134.117 170.809 141.64 166.292 148.497C161.777 155.355 156.238 161.54 149.94 166.822C143.643 172.105 136.556 176.45 128.987 179.68C136.579 176.506 143.706 172.209 150.056 166.96C156.405 161.714 162.007 155.551 166.592 148.696C171.179 141.843 174.747 134.307 177.164 126.414C179.583 118.52 180.809 110.262 180.837 102C180.869 93.7374 179.704 85.4615 177.337 77.5331Z" fill="url(#paint17_linear_1046_1053)"/>
<path opacity="0.05" d="M141.776 89.5078V66.7488C141.776 55.8781 137.543 45.6581 129.856 37.9713C122.17 30.2847 111.95 26.0514 101.079 26.0514C90.2081 26.0514 79.9882 30.2846 72.3015 37.9713C64.6148 45.6581 60.3815 55.878 60.3815 66.7488V89.5078C57.5087 89.613 54.9694 91.0203 53.3359 93.1586C53.1936 93.3448 53.0589 93.5369 52.9308 93.7337C52.8317 93.8859 52.7372 94.0412 52.6471 94.1994C51.8737 95.5556 51.4297 97.1239 51.4297 98.7967V158.804C51.4297 161.051 52.2265 163.111 53.5528 164.718C53.9521 165.202 54.4005 165.643 54.8884 166.038C55.0951 166.205 55.308 166.365 55.5289 166.514C55.7763 166.681 56.032 166.836 56.2955 166.98C57.6129 167.695 59.1227 168.102 60.7273 168.102H73.5187H141.43C146.565 168.102 150.728 163.939 150.728 158.804V98.7967C150.728 93.7779 146.751 89.6901 141.776 89.5078ZM73.5186 89.499C73.5187 89.499 73.5188 89.499 73.519 89.499H72.7179V66.7488C72.7179 51.1103 85.4406 38.3876 101.079 38.3876C116.717 38.3876 129.44 51.1103 129.44 66.7488V89.4991L73.5186 89.499Z" fill="black"/>
<path d="M136.856 96.3546H124.519V61.8254C124.519 46.1869 111.797 33.4642 96.1583 33.4642C80.5199 33.4642 67.7971 46.1869 67.7971 61.8254V96.3546H55.4609V61.8254C55.4609 50.9547 59.6941 40.7347 67.3809 33.0479C75.0676 25.3613 85.2875 21.128 96.1583 21.128C107.029 21.128 117.249 25.3612 124.936 33.0479C132.623 40.7347 136.856 50.9546 136.856 61.8254V96.3546Z" fill="#2E3190"/>
<path d="M136.508 163.178H55.8056C50.6705 163.178 46.5078 159.016 46.5078 153.881V93.8734C46.5078 88.7383 50.6706 84.5757 55.8056 84.5757H136.508C141.643 84.5757 145.806 88.7385 145.806 93.8734V153.881C145.806 159.016 141.643 163.178 136.508 163.178Z" fill="url(#paint18_linear_1046_1053)"/>
<path d="M56.7914 154.305V94.2977C56.7914 89.1628 60.9542 85 66.0891 85H53.2977C48.1628 85 44 89.1628 44 94.2977V154.305C44 159.44 48.1628 163.603 53.2977 163.603H66.0891C60.9542 163.603 56.7914 159.44 56.7914 154.305Z" fill="#166ACA"/>
<circle cx="100.5" cy="116.5" r="12.5" fill="white"/>
<path d="M85 138C89.8333 131.208 102.8 121.7 116 138H85Z" fill="white"/>
<path d="M71.5994 105.709C71.5994 102.517 71.5994 99.3241 71.5994 96.1316C71.5994 95.2386 71.7455 94.3936 72.3397 93.6905C73.0034 92.9052 73.9136 92.6024 74.8984 92.6024C76.5916 92.6024 78.2845 92.6024 79.9773 92.6024C81.5571 92.6024 83.1369 92.6024 84.7164 92.6024C85.0943 92.6024 85.0948 92 84.7164 92C81.4798 92 78.2428 92 75.0063 92C74.1743 92 73.3784 92.1259 72.6654 92.6068C71.6236 93.309 71.0342 94.4833 71.0121 95.7518C70.9849 97.3273 71.0121 98.9063 71.0121 100.482C71.0121 102.224 71.0121 103.966 71.0121 105.709C71.0125 106.097 71.5994 106.098 71.5994 105.709Z" fill="white"/>
<path d="M83.7089 152.358C80.5164 152.358 77.3238 152.358 74.1313 152.358C73.2383 152.358 72.3932 152.201 71.6906 151.565C70.9052 150.853 70.6024 149.878 70.6024 148.823C70.6024 147.009 70.6024 145.195 70.6024 143.382C70.6024 141.689 70.6024 139.997 70.6024 138.304C70.6024 137.899 70 137.898 70 138.304C70 141.772 70 145.24 70 148.708C70 149.599 70.1259 150.452 70.6068 151.216C71.309 152.332 72.4834 152.964 73.7519 152.987C75.3279 153.016 76.9065 152.987 78.4825 152.987C80.2245 152.987 81.9665 152.987 83.7089 152.987C84.0966 152.987 84.0975 152.358 83.7089 152.358Z" fill="white"/>
<path d="M130.358 138.291C130.358 141.483 130.358 144.676 130.358 147.869C130.358 148.762 130.201 149.607 129.565 150.309C128.853 151.095 127.878 151.398 126.823 151.398C125.009 151.398 123.195 151.398 121.382 151.398C119.689 151.398 117.996 151.398 116.304 151.398C115.899 151.398 115.898 152 116.304 152C119.772 152 123.24 152 126.708 152C127.599 152 128.452 151.874 129.216 151.393C130.332 150.691 130.963 149.517 130.987 148.248C131.016 146.672 130.987 145.093 130.987 143.517C130.987 141.775 130.987 140.033 130.987 138.291C130.987 137.904 130.358 137.903 130.358 138.291Z" fill="white"/>
<path d="M116.291 92.6422C119.483 92.6422 122.676 92.6422 125.868 92.6422C126.761 92.6422 127.606 92.7988 128.309 93.4353C129.095 94.1466 129.398 95.1217 129.398 96.1769C129.398 97.9906 129.398 99.8048 129.398 101.618C129.398 103.311 129.398 105.004 129.398 106.696C129.398 107.101 130 107.102 130 106.696C130 103.228 130 99.7602 130 96.2924C130 95.401 129.874 94.5483 129.393 93.7844C128.691 92.6682 127.517 92.0366 126.248 92.0129C124.672 91.9838 123.094 92.0129 121.518 92.0129C119.776 92.0129 118.033 92.0129 116.291 92.0129C115.903 92.0129 115.903 92.6422 116.291 92.6422Z" fill="white"/>
<circle cx="96" cy="115" r="1" fill="#E42841"/>
<circle cx="105" cy="115" r="1" fill="#E42841"/>
<path d="M105 120.039C105 120.315 102.985 123 100.5 123C98.0147 123 96 120.315 96 120.039C96 119.763 98.0147 122 100.5 122C102.985 122 105 119.763 105 120.039Z" fill="#E42841"/>
<path d="M104 112.5C104 112.5 104.5 112 105 112C105.5 112 106 112.5 106 112.5" stroke="black" stroke-width="0.25"/>
<path d="M95 112.5C95 112.5 95.5 112 96 112C96.5 112 97 112.5 97 112.5" stroke="black" stroke-width="0.25"/>
<defs>
<linearGradient id="paint0_linear_1046_1053" x1="62.433" y1="-2.67947" x2="62.433" y2="201.514" gradientUnits="userSpaceOnUse">
<stop stop-color="#00FFFF"/>
<stop offset="1" stop-color="#009EFF"/>
</linearGradient>
<linearGradient id="paint1_linear_1046_1053" x1="129.898" y1="-2.67942" x2="129.898" y2="201.514" gradientUnits="userSpaceOnUse">
<stop stop-color="#00FFFF"/>
<stop offset="1" stop-color="#009EFF"/>
</linearGradient>
<linearGradient id="paint2_linear_1046_1053" x1="117.685" y1="-919.598" x2="117.685" y2="4423.87" gradientUnits="userSpaceOnUse">
<stop stop-color="#00FFFF"/>
<stop offset="1" stop-color="#009EFF"/>
</linearGradient>
<linearGradient id="paint3_linear_1046_1053" x1="48.8035" y1="-2.68005" x2="48.8035" y2="201.514" gradientUnits="userSpaceOnUse">
<stop stop-color="#00FFFF"/>
<stop offset="1" stop-color="#009EFF"/>
</linearGradient>
<linearGradient id="paint4_linear_1046_1053" x1="143.534" y1="-2.67937" x2="143.534" y2="201.513" gradientUnits="userSpaceOnUse">
<stop stop-color="#00FFFF"/>
<stop offset="1" stop-color="#009EFF"/>
</linearGradient>
<linearGradient id="paint5_linear_1046_1053" x1="86.1586" y1="-5535.79" x2="86.1586" y2="1866.95" gradientUnits="userSpaceOnUse">
<stop stop-color="#00FFFF"/>
<stop offset="1" stop-color="#009EFF"/>
</linearGradient>
<linearGradient id="paint6_linear_1046_1053" x1="120.448" y1="-2800.18" x2="120.448" y2="5260.85" gradientUnits="userSpaceOnUse">
<stop stop-color="#00FFFF"/>
<stop offset="1" stop-color="#009EFF"/>
</linearGradient>
<linearGradient id="paint7_linear_1046_1053" x1="182.111" y1="-822.196" x2="182.111" y2="1835.45" gradientUnits="userSpaceOnUse">
<stop stop-color="#00FFFF"/>
<stop offset="1" stop-color="#009EFF"/>
</linearGradient>
<linearGradient id="paint8_linear_1046_1053" x1="96.8654" y1="-3113.49" x2="96.8654" y2="1537.33" gradientUnits="userSpaceOnUse">
<stop stop-color="#00FFFF"/>
<stop offset="1" stop-color="#009EFF"/>
</linearGradient>
<linearGradient id="paint9_linear_1046_1053" x1="111.182" y1="-1505.82" x2="111.182" y2="536.504" gradientUnits="userSpaceOnUse">
<stop stop-color="#00FFFF"/>
<stop offset="1" stop-color="#009EFF"/>
</linearGradient>
<linearGradient id="paint10_linear_1046_1053" x1="48.7831" y1="-13174.2" x2="48.7831" y2="348.213" gradientUnits="userSpaceOnUse">
<stop stop-color="#00FFFF"/>
<stop offset="1" stop-color="#009EFF"/>
</linearGradient>
<linearGradient id="paint11_linear_1046_1053" x1="38.1179" y1="-10098.3" x2="38.1179" y2="1324.04" gradientUnits="userSpaceOnUse">
<stop stop-color="#00FFFF"/>
<stop offset="1" stop-color="#009EFF"/>
</linearGradient>
<linearGradient id="paint12_linear_1046_1053" x1="10.3127" y1="-1698.7" x2="10.3127" y2="958.962" gradientUnits="userSpaceOnUse">
<stop stop-color="#00FFFF"/>
<stop offset="1" stop-color="#009EFF"/>
</linearGradient>
<linearGradient id="paint13_linear_1046_1053" x1="71.8851" y1="-5260.77" x2="71.8851" y2="2800.25" gradientUnits="userSpaceOnUse">
<stop stop-color="#00FFFF"/>
<stop offset="1" stop-color="#009EFF"/>
</linearGradient>
<linearGradient id="paint14_linear_1046_1053" x1="95.4674" y1="-1451.01" x2="95.4674" y2="3199.84" gradientUnits="userSpaceOnUse">
<stop stop-color="#00FFFF"/>
<stop offset="1" stop-color="#009EFF"/>
</linearGradient>
<linearGradient id="paint15_linear_1046_1053" x1="81.1505" y1="-384.172" x2="81.1505" y2="1658.15" gradientUnits="userSpaceOnUse">
<stop stop-color="#00FFFF"/>
<stop offset="1" stop-color="#009EFF"/>
</linearGradient>
<linearGradient id="paint16_linear_1046_1053" x1="162.203" y1="-828.516" x2="162.203" y2="10648" gradientUnits="userSpaceOnUse">
<stop stop-color="#00FFFF"/>
<stop offset="1" stop-color="#009EFF"/>
</linearGradient>
<linearGradient id="paint17_linear_1046_1053" x1="154.212" y1="-1409.01" x2="154.212" y2="10013.3" gradientUnits="userSpaceOnUse">
<stop stop-color="#00FFFF"/>
<stop offset="1" stop-color="#009EFF"/>
</linearGradient>
<linearGradient id="paint18_linear_1046_1053" x1="175.5" y1="195.5" x2="55.4893" y2="83.2094" gradientUnits="userSpaceOnUse">
<stop stop-color="#009EFF"/>
<stop offset="1" stop-color="#2E3190"/>
</linearGradient>
</defs>
</svg>
