<svg width="200" height="135" viewBox="0 0 200 135" fill="none" xmlns="http://www.w3.org/2000/svg">
<path d="M5.37178 90.6089C-1.79059 86.4737 -1.79059 79.7061 5.37178 75.5714L115.857 11.7822C123.019 7.64691 134.739 7.64691 141.901 11.7822L193.874 41.7887C201.036 45.9235 201.036 52.6906 193.874 56.8259L83.3886 120.619C76.2258 124.753 64.5053 124.753 57.3443 120.618L5.37178 90.6089Z" fill="white"/>
<path d="M199.245 49.3071C199.245 52.0329 197.455 54.7578 193.874 56.8259L83.3882 120.619C76.2254 124.753 64.5049 124.753 57.3439 120.618L5.3714 90.609C2.07684 88.7062 0.30104 86.2474 0.0381257 83.7434V93.717C-0.00750025 94.1524 -0.00750025 94.5879 0.0381257 95.0234V95.0247C0.301492 97.5279 2.07639 99.9867 5.3714 101.889L57.3439 131.898C64.5049 136.034 76.2254 136.034 83.3882 131.899L193.874 68.1059C197.455 66.0387 199.246 63.3133 199.246 60.5875V49.3071H199.245Z" fill="#1767C7"/>
<path d="M23.4141 69.4742L117.537 14.9227L185.537 55.0722L91.0038 109.558L23.4141 69.4742Z" fill="url(#paint0_linear_1040_4621)"/>
<path d="M35.7397 100.941C31.1076 98.2669 31.1076 93.8895 35.7397 91.2152C40.3724 88.5409 47.9535 88.5409 52.5866 91.2152C57.2197 93.8895 57.2197 98.2669 52.5866 100.941C47.9535 103.616 40.3724 103.616 35.7397 100.941Z" fill="#E6EDEC"/>
<path d="M37.2447 100.073C33.4393 97.8739 33.4393 94.2798 37.2447 92.0825C41.0511 89.8866 47.2779 89.8866 51.0834 92.0825C54.8884 94.2794 54.8884 97.8734 51.0834 100.073C47.2779 102.271 41.0507 102.271 37.2447 100.073Z" fill="white"/>
<path d="M26.1371 107.025C25.2074 106.488 24.4453 106.734 24.4453 107.571C24.4453 108.409 25.2074 109.535 26.1371 110.071L33.309 114.212C34.24 114.749 35.0007 114.504 35.0007 113.665C35.0007 112.828 34.2395 111.703 33.309 111.166L26.1371 107.025Z" fill="#4DCEB5"/>
<path d="M149.219 90.1035C158.605 84.6717 167.993 79.2395 177.379 73.8078C178.806 72.9824 177.544 70.7558 176.112 71.5843C166.725 77.016 157.338 82.4478 147.951 87.8791C146.524 88.7044 147.786 90.9315 149.219 90.1035Z" fill="#4DCEB5"/>
<path d="M121.519 106.496C130.906 101.064 128.722 101.9 138.109 96.4685C139.536 95.6432 138.274 93.4161 136.841 94.245C127.454 99.6763 129.638 98.8406 120.252 104.272C118.825 105.097 120.087 107.324 121.519 106.496Z" fill="#4DCEB5"/>
<path d="M148.864 21.7589C147.55 20.9837 145.394 20.9742 144.074 21.7372L143.525 22.0534C142.205 22.8164 142.199 24.0745 143.513 24.8492L156.515 32.5194C157.828 33.2946 159.984 33.3045 161.304 32.542L161.853 32.2253C163.174 31.4627 163.18 30.2046 161.866 29.4299L148.864 21.7589Z" fill="#E6EDEC"/>
<path d="M164.769 37.2776C163.572 36.5851 163.572 35.4539 164.769 34.7627C165.968 34.0711 167.928 34.0711 169.126 34.7627C170.323 35.4539 170.323 36.5851 169.126 37.2776C167.928 37.9692 165.968 37.9692 164.769 37.2776Z" fill="#E6EDEC"/>
<path opacity="0.2" d="M23.4141 69.4742L184.852 55.467L91.0038 109.558L23.4141 69.4742Z" fill="white"/>
<path d="M184.117 34.0526L126.228 0.632723C124.857 -0.159181 123.623 -0.179959 122.762 0.415437L122.757 0.409564L117.895 3.95529L121.533 8.05666V31.3449C121.533 34.3264 123.646 37.9855 126.228 39.4762L132.75 43.242V56.1876L144.075 49.7809L143.371 49.3744L173.748 66.9137L182.543 76.8263L187.342 73.2679L187.339 73.2643C188.243 72.7959 188.811 71.7307 188.811 70.1889V42.1844C188.811 39.2025 186.699 35.5438 184.117 34.0526Z" fill="#2E3190"/>
<path d="M179.149 37.6666L121.261 4.24665C118.679 2.7559 116.566 3.97561 116.566 6.95711V34.9584C116.566 37.9399 118.679 41.599 121.261 43.0897L127.783 46.8554V59.801L139.108 53.3944L138.404 52.9879L179.149 76.5128C181.731 78.0031 183.844 76.7838 183.844 73.8023V45.7979C183.844 42.8164 181.732 39.1578 179.149 37.6666Z" fill="#648FC2"/>
<path d="M129.594 17.0129C124.977 14.3463 121.199 16.5273 121.199 21.8583C121.199 27.1911 124.977 33.735 129.594 36.4003C134.211 39.0656 137.989 36.8846 137.989 31.554C137.989 26.2226 134.21 19.6791 129.594 17.0129Z" fill="#7AA9ED"/>
<path d="M130.832 28.0385C131.658 27.9044 132.212 27.1549 132.212 25.9434C132.212 24.0546 130.873 21.7367 129.238 20.7921C127.601 19.8476 126.264 20.62 126.264 22.5088C126.264 23.7221 126.819 25.1076 127.648 26.1972C126.254 26.1037 125.273 27.1491 125.273 29.0139L132.874 35.2145C133.084 34.7794 133.202 34.2351 133.202 33.5923C133.202 31.7297 132.223 29.5546 130.832 28.0385Z" fill="white"/>
<path d="M141.754 34.8562V32.4896L178.399 53.1161V55.4823L141.754 34.8562Z" fill="#7AA9ED"/>
<path d="M141.754 40.6114V38.2448L178.399 58.8709V61.2375L141.754 40.6114Z" fill="#7AA9ED"/>
<path d="M141.754 46.3666V43.9999L170.57 60.054V62.4211L141.754 46.3666Z" fill="#7AA9ED"/>
<path d="M141.754 26.1245V21.9509L158.054 31.1614V35.3351L141.754 26.1245Z" fill="#7AA9ED"/>
<path opacity="0.2" d="M121.261 43.0897L127.783 46.8555V59.801L139.108 53.3944L138.404 52.9879L179.149 76.5128C181.731 78.0031 183.844 76.7838 183.844 73.8023V45.7979C183.844 43.7439 182.841 41.3681 181.373 39.6014H117.957C118.807 41.0677 119.976 42.3475 121.261 43.0897Z" fill="white"/>
<path d="M104.936 21.5462L68.0181 1.44544C66.8878 0.792669 65.8701 0.775501 65.1604 1.26609L65.1563 1.26157L61.1484 4.18435L64.148 7.56474V26.7611C64.148 29.219 65.8895 32.2348 68.0176 33.4636L73.3934 36.568V47.239L82.7282 41.9581L82.1481 41.623L96.3893 48.6326L103.638 56.8042L107.595 53.871L107.592 53.8679C108.337 53.4821 108.805 52.6039 108.805 51.3327V28.2491C108.806 25.7912 107.064 22.7749 104.936 21.5462Z" fill="#73C94B"/>
<path d="M100.838 24.525L63.9204 4.42423C61.7922 3.19549 60.0508 4.20062 60.0508 6.65855V29.7399C60.0508 32.1973 61.7922 35.2136 63.9204 36.4424L69.2966 39.5463V50.2169L78.6314 44.9365L78.0514 44.6013L100.838 56.5449C102.967 57.7737 104.708 56.7685 104.708 54.311V31.2275C104.708 28.77 102.967 25.7542 100.838 24.525Z" fill="#8AD86A"/>
<path d="M72.545 17.5338C68.0597 15.6496 64.3906 17.1905 64.3906 20.9571C64.3906 23.7814 66.4533 27.0872 69.3756 29.3586C69.3756 29.3586 69.6914 29.7114 69.6914 30.8972C69.6914 32.0831 69.3756 33.043 69.3756 33.043C69.3756 33.043 72.2749 32.7453 73.4214 31.5577C77.497 32.8989 80.6981 31.3246 80.6981 27.8073C80.6985 24.0402 77.029 19.4176 72.545 17.5338Z" fill="white"/>
<path d="M84.543 32.7833V31.2993L100.943 40.7552V42.2392L84.543 32.7833Z" fill="#73C94B"/>
<path d="M84.543 36.3922V34.9083L100.943 44.3646V45.8481L84.543 36.3922Z" fill="#73C94B"/>
<path d="M84.543 40.0012V38.5173L96.0326 45.1064V46.5904L84.543 40.0012Z" fill="#73C94B"/>
<path d="M84.543 27.3077V24.6903L94.7636 30.4663V33.0837L84.543 27.3077Z" fill="#73C94B"/>
<path opacity="0.2" d="M78.6315 44.937L78.0515 44.6018L100.838 56.5454C102.967 57.7741 104.708 56.769 104.708 54.3115V31.2279C104.708 29.7991 104.117 28.1841 103.206 26.8388L60.9883 33.1844C61.6993 34.5505 62.7505 35.7675 63.9205 36.4433L69.2967 39.5472V50.2178L78.6315 44.937Z" fill="white"/>
<path d="M100.085 67.2218L77.512 53.1839C75.6436 52.1052 73.9582 52.0622 72.7715 52.8501L72.7669 52.8438L68.3945 55.9138L71.025 59.5088V69.9937C71.025 74.1132 73.9451 79.1691 77.5116 81.2281L81.8303 84.0574L84.7783 90.1559L87.9419 87.5864L94.699 91.8603L99.9194 98.9947L104.623 95.7353L104.621 95.7335C105.823 95.0659 106.572 93.6076 106.572 91.5229V78.458C106.573 74.3381 103.655 69.2813 100.085 67.2218Z" fill="#EA136A"/>
<path d="M95.5675 70.384L72.9944 56.3462C69.4279 54.2862 66.5078 55.9726 66.5078 60.092V73.1559C66.5078 77.2754 69.4279 82.3313 72.9944 84.3903L77.313 87.2196L80.2611 93.3181L83.4247 90.7486L95.5675 98.4291C99.1372 100.49 102.055 98.8041 102.055 94.6851V81.6202C102.055 77.5004 99.1372 72.4435 95.5675 70.384Z" fill="#F23B7D"/>
<path d="M84 78.093V76.609L100.4 86.0649V87.5489L84 78.093Z" fill="#EA136A"/>
<path d="M84 81.7019V80.218L100.4 89.6743V91.1578L84 81.7019Z" fill="#EA136A"/>
<path d="M84 85.3109V83.827L95.4896 90.4161V91.9001L84 85.3109Z" fill="#EA136A"/>
<path d="M84 72.6174V70L94.2207 75.776V78.3934L84 72.6174Z" fill="#EA136A"/>
<path opacity="0.2" d="M72.9961 84.3903L77.3148 87.2196L80.2628 93.3181L83.4264 90.7486L95.5692 98.4291C99.1389 100.489 102.057 98.804 102.057 94.6851V81.6202C102.057 79.1957 101.042 76.4514 99.4836 74.1796L67.1406 76.712C68.1841 79.8471 70.418 82.9023 72.9961 84.3903Z" fill="white"/>
<defs>
<linearGradient id="paint0_linear_1040_4621" x1="23.4142" y1="62.2403" x2="185.537" y2="62.2403" gradientUnits="userSpaceOnUse">
<stop stop-color="#D8E9D9"/>
<stop offset="1" stop-color="#8BEAD9"/>
</linearGradient>
</defs>
</svg>
