<svg width="240" height="189" viewBox="0 0 240 189" fill="none" xmlns="http://www.w3.org/2000/svg">
<path d="M35.4934 37.8714C42.6061 35.9592 50.1781 36.7664 56.7893 40.0162C68.2467 45.6483 93.3012 54.8886 95.6444 29.4282C98.4625 -1.19134 162.223 -10.1469 186.048 13.2379C215.031 41.6858 187.229 61.8648 210.776 74.3026C234.323 86.7404 253.454 119.752 225.707 134.01C207.739 143.243 192.041 141.312 190.739 150.637C188.283 168.232 188.787 178.861 172.647 183.75C142.126 192.996 134.154 175.834 115.14 172.842C96.1251 169.851 25.9672 195.821 2.54076 153.983C-11.5813 128.763 38.4197 105.273 24.2319 91.5305C9.13187 76.9047 10.4838 44.5951 35.4934 37.8714Z" fill="#ECEFF3"/>
<path d="M90.0018 174.969C100.481 171.121 110.639 163.339 112.445 152.581C112.973 149.438 112.689 146.027 110.839 143.437C108.989 140.848 105.299 139.391 102.314 140.703C99.7316 141.838 98.0295 144.746 95.2335 145.126C93.2799 145.392 91.3758 144.26 90.1811 142.749C88.9864 141.238 88.3521 139.384 87.6623 137.594C86.7655 135.267 85.7426 132.987 84.5994 130.767C83.2468 128.141 81.5498 125.44 78.7869 124.267C76.024 123.094 72.0226 124.332 71.4676 127.245C71.2053 128.623 71.7406 130.004 71.8385 131.396C71.9365 132.789 71.3042 134.487 69.8902 134.725C69.3365 134.818 68.7748 134.66 68.2571 134.457C64.2639 132.891 61.8793 128.811 58.0779 126.851C56.1998 125.883 54.0676 125.482 51.9572 125.185C42.4369 123.849 31.8221 124.723 24.4967 130.935C23.0641 132.15 21.7556 133.604 21.1876 135.366C20.1097 138.708 22.039 142.393 24.9247 144.415C27.8104 146.438 31.4492 147.131 34.9884 147.586C38.5276 148.04 42.1581 148.322 45.4315 149.684C43.466 151.692 40.9469 153.18 38.2204 153.943C36.8082 154.338 35.2271 154.608 34.273 155.705C32.7535 157.451 33.9128 160.354 35.9762 161.385C38.0397 162.417 40.5435 162.082 42.8129 161.529C48.8779 160.05 55.1261 157.169 61.0723 158.907C61.8707 159.14 62.7311 159.544 62.9771 160.321C63.146 160.855 62.9765 161.439 62.7378 161.952C61.5476 164.511 58.8371 166.01 56.799 168.002C56.3269 168.464 55.8761 168.975 55.6645 169.592C54.8277 172.03 57.9204 173.855 60.4511 174.497C69.9948 176.915 79.4253 178.015 90.0018 174.969Z" fill="#8DDAE2"/>
<path d="M102.943 165.382C95.8072 158.649 87.6366 153.042 78.8212 148.74C69.9957 144.433 60.5251 141.438 50.8186 139.936C45.281 139.079 39.6687 138.724 34.0675 138.874C33.644 138.885 33.6443 138.227 34.0675 138.216C44.0422 137.949 54.0392 139.308 63.6072 142.129C73.1104 144.931 82.1994 149.163 90.4557 154.64C95.0547 157.69 99.3944 161.13 103.409 164.917C103.717 165.208 103.251 165.673 102.943 165.382Z" fill="#2E3190"/>
<path d="M71.4635 183.375C72.7573 189.441 120.19 189.676 123.971 183.375C124.597 182.332 125.099 180.392 125.552 177.848C127.691 165.848 128.745 140.413 136.58 132.281C136.581 132.28 136.582 132.28 136.582 132.28C137.116 131.726 137.682 131.251 138.282 130.868C163.895 114.495 160.184 83.5 160.184 83.5L92.6764 96.2425C93.7255 108.622 70.1707 177.31 71.4635 183.375Z" fill="#FFCFBF"/>
<path d="M130.219 177.984C125.131 175.08 120.552 170.167 120.555 164.442C120.555 162.769 120.999 161.029 122.183 159.85C123.366 158.67 125.403 158.238 126.833 159.177C128.071 159.99 128.698 161.643 130.112 162.084C131.1 162.391 132.184 161.971 132.934 161.293C133.684 160.615 134.174 159.712 134.687 158.845C135.354 157.719 136.082 156.628 136.867 155.579C137.796 154.337 138.91 153.088 140.442 152.721C141.974 152.355 143.937 153.344 143.97 154.9C143.986 155.636 143.589 156.304 143.417 157.016C143.245 157.728 143.424 158.663 144.135 158.909C144.413 159.005 144.718 158.972 145.003 158.912C147.206 158.45 148.796 156.546 150.934 155.863C151.991 155.525 153.129 155.504 154.247 155.534C159.291 155.672 164.709 157.049 167.958 160.903C168.594 161.657 169.144 162.523 169.285 163.484C169.551 165.308 168.232 167.047 166.562 167.842C164.893 168.637 162.949 168.679 161.078 168.606C159.206 168.533 157.303 168.363 155.49 168.782C156.332 169.993 157.506 170.982 158.851 171.615C159.547 171.942 160.342 172.22 160.74 172.87C161.375 173.907 160.522 175.308 159.364 175.662C158.206 176.016 156.939 175.625 155.813 175.141C152.803 173.847 149.82 171.811 146.591 172.192C146.158 172.244 145.677 172.377 145.482 172.758C145.348 173.02 145.385 173.337 145.464 173.623C145.857 175.051 147.129 176.063 148.01 177.272C148.215 177.552 148.403 177.856 148.459 178.194C148.68 179.529 146.92 180.204 145.554 180.315C140.404 180.735 135.428 180.482 130.219 177.984Z" fill="#1CC1D2"/>
<path d="M162.282 164.224C152.094 162.236 141.345 163.574 131.879 167.801C129.263 168.969 126.751 170.358 124.37 171.948C124.129 172.109 123.904 171.721 124.143 171.561C132.814 165.772 143.258 162.705 153.683 162.874C156.61 162.921 159.528 163.23 162.401 163.791C162.684 163.846 162.564 164.279 162.282 164.224Z" fill="#2E3190"/>
<path d="M106.418 120.754L149.152 126.231C150.977 126.465 152.646 125.175 152.88 123.351L162.465 48.5748C162.699 46.7499 161.409 45.0809 159.584 44.847L116.85 39.3692C115.025 39.1353 113.356 40.425 113.122 42.2499L103.537 117.026C103.303 118.851 104.593 120.52 106.418 120.754Z" fill="#2E3190"/>
<path d="M107.434 114.856L149.658 120.268C150.424 120.366 151.124 119.825 151.223 119.059L160.288 48.3399C160.386 47.5739 159.844 46.8734 159.078 46.7752L116.854 41.3628C116.088 41.2646 115.387 41.8059 115.289 42.5719L106.224 113.291C106.126 114.057 106.668 114.757 107.434 114.856Z" fill="#F7F4F4"/>
<path d="M95.5144 106.131C100.408 114.001 108.847 91.7017 108.726 82.8004C108.644 76.7769 109.824 70.9695 110.702 67.2634C112.357 60.2786 112.668 53.745 107.661 51.7794C105.613 50.9752 104.676 51.3295 103.957 52.8761C103.357 54.1662 102.908 56.2855 102.093 59.2538C101.495 61.4272 100.701 64.0557 99.5072 67.1472C94.726 79.5241 88.0834 94.1809 95.5144 106.131Z" fill="#FFCFBF"/>
<path d="M165.016 66.9282C159.648 66.9477 154.24 67.5026 154.47 73.8661C154.699 80.1993 165.993 80.1471 167.846 75.3759C168.81 72.8953 169.332 66.9126 165.016 66.9282Z" fill="#FFCFBF"/>
<path d="M165.358 70.4876C165.358 70.4876 165.716 73.7388 164.808 74.6901C163.901 75.6413 160.926 76.5814 160.637 76.3084C160.349 76.0355 160.942 74.4741 160.822 72.5569C160.728 71.0582 159.671 69.5783 160.442 69.2112C161.212 68.844 165.171 69.351 165.358 70.4876Z" fill="#FDBAA0"/>
<path d="M166.523 77.6642C160.696 77.4061 154.799 77.7224 154.723 84.5829C154.648 91.4108 166.907 91.9417 169.163 86.9031C170.335 84.2835 171.208 77.8718 166.523 77.6642Z" fill="#FFCFBF"/>
<path d="M166.997 81.908C166.997 81.908 167.535 84.8956 166.502 85.8722C165.468 86.8487 161.59 87.8407 161.291 87.532C160.992 87.2232 161.716 85.5736 161.683 83.5039C161.658 81.8861 160.587 80.2385 161.442 79.8834C162.297 79.5284 166.853 80.6752 166.997 81.908Z" fill="#FDBAA0"/>
<path d="M161.334 88.0972C155.814 88.5415 150.294 89.5399 151.034 96.0678C151.77 102.565 163.384 101.618 164.913 96.5638C165.709 93.9358 165.773 87.74 161.334 88.0972Z" fill="#FFCFBF"/>
<path d="M162.055 92.1422C162.055 92.1422 162.874 95.2361 162.016 96.2864C161.157 97.3367 157.89 98.3508 157.572 98.0928C157.253 97.8349 157.74 96.1818 157.465 94.2189C157.25 92.6845 156.046 91.2457 156.809 90.8072C157.573 90.3687 161.773 90.9878 162.055 92.1422Z" fill="#FDBAA0"/>
<path d="M157.955 98.6416C153.677 99.078 149.407 99.9448 150.09 105.001C150.769 110.034 159.771 109.106 160.875 105.156C161.449 103.103 161.397 98.2906 157.955 98.6416Z" fill="#FFCFBF"/>
<path d="M158.639 101.666C158.639 101.666 159.094 103.876 158.445 104.706C157.796 105.536 155.45 106.66 155.199 106.465C154.947 106.27 155.297 104.979 155.051 103.459C154.859 102.271 153.9 101.174 154.486 100.821C155.072 100.468 158.401 100.775 158.639 101.666Z" fill="#FDBAA0"/>
<path d="M158.664 78.5452C158.674 78.5452 158.685 78.5435 158.695 78.5403C160.984 77.8199 165.755 77.7417 165.803 77.741C165.861 77.7401 165.907 77.6924 165.907 77.6344C165.906 77.5769 165.859 77.531 165.802 77.531C165.801 77.531 165.8 77.531 165.8 77.531C165.752 77.5317 160.95 77.6103 158.632 78.3399C158.577 78.3573 158.546 78.4163 158.563 78.4716C158.578 78.5166 158.619 78.5452 158.664 78.5452Z" fill="#FDBAA0"/>
<path d="M164.665 90.1082C164.722 90.1082 164.769 90.0633 164.77 90.0066C164.772 89.9486 164.727 89.9001 164.669 89.8983C164.606 89.8962 158.359 89.6831 156.919 88.6209C156.873 88.5867 156.807 88.5965 156.772 88.6432C156.738 88.6899 156.748 88.7556 156.795 88.7901C158.287 89.8907 164.402 90.0999 164.662 90.1083C164.663 90.1082 164.664 90.1082 164.665 90.1082Z" fill="#FDBAA0"/>
<path d="M157.385 100.41C159.082 100.41 160.644 100.254 160.771 100.241C160.828 100.235 160.87 100.184 160.865 100.126C160.859 100.069 160.808 100.026 160.749 100.032C160.688 100.039 154.6 100.644 153.324 99.4913C153.281 99.4523 153.214 99.4558 153.176 99.4988C153.137 99.5418 153.14 99.6082 153.183 99.647C153.855 100.254 155.688 100.41 157.385 100.41Z" fill="#FDBAA0"/>
<path d="M102.092 59.2537C102.227 59.4505 102.42 59.6071 102.682 59.7095C105.185 60.6924 105.996 56.9228 106.572 54.9849C107.149 53.047 103.956 52.876 103.956 52.876C103.355 54.166 102.906 56.2854 102.092 59.2537Z" fill="#FDBAA0"/>
<g opacity="0.6">
<path d="M125.553 177.848C127.692 165.848 128.745 140.413 136.58 132.281C136.37 132.334 122.943 135.731 122.318 144.328C121.688 152.99 123.911 160.709 121.068 166.695C118.467 172.166 121.008 177.768 125.553 177.848Z" fill="#FFE1DA"/>
</g>
<path d="M131.744 132.288C134.397 132.288 137.391 131.881 138.417 131.03L138.148 130.706C136.474 132.097 126.272 133.113 119.296 128.393L119.061 128.741C123.24 131.569 128.186 132.165 130.761 132.269C131.08 132.282 131.41 132.288 131.744 132.288Z" fill="#FDBAA0"/>
<path d="M99.3311 119.641C99.3956 119.641 99.4592 119.611 99.5003 119.556C99.5693 119.462 99.5494 119.331 99.456 119.262C93.1926 114.641 91.5685 106.775 91.5528 106.696C91.5302 106.582 91.4196 106.508 91.3059 106.531C91.1921 106.553 91.1182 106.664 91.1408 106.778C91.1568 106.858 92.8093 114.88 99.2066 119.6C99.2441 119.628 99.2878 119.641 99.3311 119.641Z" fill="#FDBAA0"/>
<path d="M133 185.233C133 185.233 131.489 172.253 133 161.122C134.51 149.99 129.408 153.351 115.892 155.871C102.375 158.391 84.733 136.968 78.4321 140.749C72.1313 144.529 76.9936 154.122 71.4119 163.923C65.8303 173.723 61.8398 182.124 66.2504 186.535C70.661 190.946 133.317 188.767 133 185.233Z" fill="#2E3190"/>
<path d="M84.1626 122.928C84.2768 122.928 84.3871 122.866 84.4429 122.757C87.2717 117.257 88.4025 107.69 88.4136 107.594C88.4336 107.421 88.3096 107.265 88.1368 107.245C87.9642 107.225 87.8076 107.349 87.7876 107.521C87.7767 107.616 86.6587 117.071 83.8826 122.469C83.803 122.624 83.8639 122.814 84.0187 122.893C84.0647 122.917 84.1141 122.928 84.1626 122.928Z" fill="#FFCFBF"/>
<path d="M149.123 109.95C149.123 109.95 150.908 116.566 147.442 117.197C143.977 117.827 136.771 116.23 137.223 115.086C137.676 113.941 144.565 114.46 145.071 112.041C146.18 106.737 147.862 107.64 149.123 109.95Z" fill="#8B7FF7"/>
<path d="M123.553 41.7176C120.357 43.5111 117.583 46.3863 116.768 49.9595C117.491 49.6073 118.215 49.2551 118.939 48.9029C118.914 49.9099 119.045 50.9206 119.328 51.8874C120.7 49.6299 122.629 47.713 124.895 46.3536C127.721 44.6579 130.997 43.8491 133.89 42.2703C134.522 41.9258 135.149 41.5315 135.578 40.9544C136.007 40.3773 136.203 39.5789 135.904 38.9249C135.605 38.2708 134.916 37.6757 134.307 38.0586L133.934 38.2117C130.368 39.0579 126.749 39.9241 123.553 41.7176Z" fill="#E03781"/>
<path d="M133.976 43.7949C130.743 43.7346 127.515 43.3813 124.345 42.741C122.854 42.4399 121.209 41.9538 120.472 40.6237C119.587 39.0274 120.799 36.7079 122.614 36.5223C123.289 36.4533 123.965 36.6331 124.644 36.6375C125.322 36.6419 126.084 36.4013 126.369 35.7855C126.495 35.5132 126.51 35.2029 126.497 34.9031C126.401 32.7366 124.978 30.4978 125.918 28.5435C126.003 28.3658 126.114 28.1894 126.286 28.0932C126.467 27.9923 126.686 27.9948 126.891 28.0236C128.388 28.2347 129.403 29.6096 130.242 30.8685C132.006 33.5175 133.77 36.1663 135.534 38.8153L133.976 43.7949Z" fill="#F762A3"/>
<path d="M155.524 26.254C158.127 23.6739 161.655 21.7967 165.314 21.9952C164.777 22.5943 164.239 23.1932 163.701 23.7923C164.677 24.0448 165.612 24.4493 166.464 24.9865C163.916 25.686 161.543 27.0133 159.613 28.8181C157.206 31.0695 155.528 33.9968 153.214 36.3447C152.71 36.8569 152.158 37.3515 151.485 37.6055C150.813 37.8594 149.991 37.8285 149.444 37.3614C148.898 36.8943 148.515 36.0677 149.05 35.5879L149.3 35.2715C151.094 32.0755 152.921 28.8342 155.524 26.254Z" fill="#E03781"/>
<path d="M136.6 37.0611C135.951 33.764 135.603 30.4076 135.563 27.0474C135.549 25.8915 135.808 24.4216 136.935 24.1635C137.515 24.0306 138.103 24.3006 138.637 24.5617C140.092 25.2725 141.568 25.9781 143.149 26.3231C144.731 26.6681 146.449 26.6251 147.889 25.8857C148.839 25.3979 149.617 24.6393 150.455 23.9784C151.294 23.3174 152.261 22.7292 153.328 22.6856C154.395 22.6421 155.552 23.3148 155.728 24.3682C155.818 24.9119 155.646 25.4621 155.459 25.9806C154.076 29.8101 151.748 33.2946 148.74 36.0385L136.6 37.0611Z" fill="#F762A3"/>
<path d="M152.569 53.4525L126.379 55.9118L122.914 50.7582L150.463 47.8632L152.569 53.4525Z" fill="#DBCCFF"/>
<path d="M172.181 34.8268L152.569 53.4524L150.463 47.8631L165.366 30.8576L172.181 34.8268Z" fill="#DBCCFF"/>
<path d="M165.366 30.8576L150.463 47.8631L122.914 50.7582L139.021 30.8576H165.366Z" fill="#2E3190"/>
<path d="M139.021 30.8576L143.471 34.8268L126.379 55.9118L122.914 50.7582L139.021 30.8576Z" fill="#8B7FF7"/>
<path d="M143.471 34.8268H172.181L168.014 30.8576H139.021L143.471 34.8268Z" fill="#8B7FF7"/>
<path d="M136.192 43.8054C136.192 43.8054 132.534 41.3901 131.857 39.7078L129.199 42.9914C129.199 42.9914 130.306 46.7584 132.696 48.1187L136.192 43.8054Z" fill="#DADADA"/>
<path d="M134.606 28.133C134.407 26.8476 134.56 25.4451 135.375 24.3859C136.089 23.457 137.258 22.9057 138.43 23.1008C138.625 23.1334 138.542 23.4306 138.348 23.3982C137.26 23.2171 136.157 23.7974 135.538 24.6812C134.857 25.6522 134.725 26.9045 134.903 28.051C134.933 28.2452 134.636 28.3288 134.606 28.133Z" fill="#DE1D71"/>
<path d="M159.09 22.2701C158.903 22.5989 158.42 22.7604 158.107 22.9346C157.773 23.1197 157.396 23.4135 156.996 23.266C156.54 23.0978 155.701 22.0646 156.396 21.7224C156.647 21.599 156.963 21.6443 157.183 21.8119C157.488 22.0447 157.48 22.4222 157.461 22.7717C157.411 23.6358 157.167 24.51 156.419 25.022C156.255 25.1345 156.1 24.8673 156.263 24.7557C156.717 24.4451 156.961 23.9506 157.072 23.424C157.156 23.0249 157.376 22.023 156.753 21.9646C156.333 21.9252 156.494 22.3644 156.642 22.5793C156.82 22.8402 157.09 23.0715 157.417 22.9537C157.668 22.8633 157.907 22.6929 158.14 22.5632C158.348 22.4476 158.702 22.3288 158.823 22.1146C158.922 21.9419 159.188 22.0972 159.09 22.2701Z" fill="#EE1D78"/>
<path d="M159.515 29.6755C159.808 29.0655 160.343 28.621 160.992 28.4345C161.183 28.3795 161.265 28.677 161.074 28.7319C160.496 28.8978 160.041 29.2906 159.781 29.8312C159.695 30.0099 159.429 29.8537 159.515 29.6755Z" fill="#EE1D78"/>
<path d="M133.919 35.3003C133.381 34.407 132.836 33.5174 132.285 32.6323C131.798 31.85 131.348 30.96 130.619 30.3722C130.465 30.2476 130.684 30.0306 130.837 30.1542C131.559 30.7358 132.008 31.6046 132.49 32.3784C133.062 33.2961 133.627 34.2184 134.185 35.1447C134.288 35.3151 134.021 35.4703 133.919 35.3003Z" fill="#DE1D71"/>
<path d="M129.942 29.1343C129.073 28.342 128.04 27.6403 126.813 27.7128C126.614 27.7245 126.615 27.416 126.813 27.4043C128.122 27.3271 129.233 28.071 130.16 28.9162C130.307 29.0502 130.088 29.2678 129.942 29.1343Z" fill="#DE1D71"/>
<path d="M122.868 36.2677C121.816 36.1123 120.752 36.6728 120.258 37.6065C120.165 37.7821 119.899 37.6264 119.992 37.4508C120.556 36.3845 121.763 35.7949 122.95 35.9703C123.145 35.9992 123.062 36.2964 122.868 36.2677Z" fill="#DE1D71"/>
<path d="M123.014 48.9203C122.567 49.4792 122.12 50.038 121.673 50.5968C121.548 50.7517 121.331 50.5323 121.454 50.3787C121.902 49.8199 122.349 49.261 122.796 48.7023C122.92 48.5473 123.137 48.7667 123.014 48.9203Z" fill="#EE1D78"/>
<path d="M148.032 26.2626C145.336 27.7612 142.258 28.5004 139.176 28.3848C138.997 28.3781 138.996 28.0986 139.176 28.1053C142.21 28.2191 145.236 27.4968 147.891 26.0212C148.048 25.9337 148.189 26.175 148.032 26.2626Z" fill="#E03781"/>
<path d="M128.976 36.9738C127.409 37.5814 125.652 37.575 124.09 36.9554C123.924 36.89 123.996 36.6195 124.164 36.6859C125.686 37.2897 127.374 37.2965 128.901 36.7043C129.069 36.6393 129.142 36.9094 128.976 36.9738Z" fill="#E03781"/>
<path d="M148.06 24.8361C146.257 26.2592 143.733 26.2496 141.941 24.8106C141.787 24.6863 142.006 24.4694 142.16 24.5926C143.808 25.9172 146.181 25.9289 147.842 24.6181C147.996 24.4964 148.216 24.7132 148.06 24.8361Z" fill="#DE1D71"/>
<path d="M143.538 35.0208C142.87 34.3296 142.147 33.6968 141.372 33.1277C141.263 33.0474 141.369 32.8622 141.48 32.9436C142.27 33.5234 143.008 34.1656 143.689 34.87C143.785 34.9687 143.634 35.1197 143.538 35.0208Z" fill="white"/>
<path d="M140.719 32.4372C140.619 32.3206 140.503 32.2275 140.368 32.1557C140.246 32.0915 140.354 31.9075 140.475 31.9716C140.625 32.0511 140.759 32.1575 140.87 32.2864C140.958 32.3901 140.808 32.5416 140.719 32.4372Z" fill="white"/>
<path d="M136.244 43.8513C135.601 43.3919 134.958 42.9325 134.314 42.4732C134.204 42.3942 134.31 42.2092 134.422 42.2892C135.065 42.7486 135.709 43.208 136.352 43.6673C136.463 43.7463 136.356 43.9313 136.244 43.8513Z" fill="white"/>
<path d="M172.142 34.8651C168.54 35.0045 164.935 35.0696 161.33 35.0605C161.192 35.0602 161.192 34.847 161.33 34.8473C164.935 34.8564 168.54 34.7913 172.142 34.6518C172.279 34.6467 172.279 34.8598 172.142 34.8651Z" fill="white"/>
<path d="M158.567 34.9653C157.004 34.8226 155.436 34.7851 153.868 34.8528C153.731 34.8587 153.732 34.6455 153.868 34.6396C155.436 34.5719 157.004 34.6094 158.567 34.7521C158.702 34.7646 158.704 34.9779 158.567 34.9653Z" fill="white"/>
<path d="M167.008 33.4983C166.649 33.4983 166.648 32.9393 167.008 32.9393C167.368 32.9393 167.369 33.4983 167.008 33.4983Z" fill="white"/>
<path d="M163.487 32.4363C163.127 32.4363 163.126 31.8774 163.487 31.8774C163.846 31.8774 163.847 32.4363 163.487 32.4363Z" fill="white"/>
<path d="M160.468 33.8337C160.45 33.8337 160.431 33.8337 160.412 33.8337C160.341 33.8337 160.265 33.8026 160.215 33.7519C160.166 33.7034 160.13 33.6239 160.133 33.5543C160.14 33.4028 160.256 33.2749 160.412 33.2749C160.431 33.2749 160.45 33.2749 160.468 33.2749C160.54 33.2749 160.615 33.3061 160.666 33.3567C160.714 33.4052 160.751 33.4848 160.748 33.5543C160.741 33.7057 160.625 33.8337 160.468 33.8337Z" fill="white"/>
<path d="M145.041 32.3246C144.682 32.3246 144.681 31.7657 145.041 31.7657C145.401 31.7657 145.402 32.3246 145.041 32.3246Z" fill="white"/>
<path d="M147.557 33.7779C147.197 33.7779 147.197 33.2189 147.557 33.2189C147.917 33.2189 147.917 33.7779 147.557 33.7779Z" fill="white"/>
<path d="M154.991 32.66C154.631 32.66 154.63 32.101 154.991 32.101C155.35 32.101 155.351 32.66 154.991 32.66Z" fill="white"/>
<path d="M151.973 33.6101C151.613 33.6101 151.613 33.0511 151.973 33.0511C152.333 33.0511 152.333 33.6101 151.973 33.6101Z" fill="white"/>
<path d="M138.19 35.1816C137.83 35.1816 137.83 34.6227 138.19 34.6227C138.55 34.6228 138.55 35.1816 138.19 35.1816Z" fill="white"/>
<path d="M136.514 39.2896C136.154 39.2896 136.154 38.7307 136.514 38.7307C136.874 38.7307 136.874 39.2896 136.514 39.2896Z" fill="white"/>
<path d="M128.465 47.0865C128.106 47.0865 128.105 46.5275 128.465 46.5275C128.825 46.5275 128.826 47.0865 128.465 47.0865Z" fill="white"/>
<path d="M126.704 51.6137C126.344 51.6137 126.343 51.0547 126.704 51.0547C127.063 51.0547 127.064 51.6137 126.704 51.6137Z" fill="white"/>
<path d="M122.859 60.7497L144.161 58.2101L175.345 69.9489L154.476 73.3875L122.859 60.7497Z" fill="#2E3190"/>
<path d="M140.429 53.2095C139.534 54.1569 138.446 54.9467 139.379 56.5087C139.754 57.1358 140.562 58.0156 141.015 58.6028C140.291 58.0074 139.551 57.5723 138.343 56.835C137.028 56.0321 136.155 56.091 134.186 57.8602C134.186 57.8602 135.136 56.1066 135.064 55.0029C135.003 54.0604 134.204 52.6429 133.469 51.9611C135.296 53.3397 137.545 54.7607 140.429 53.2095Z" fill="#FFE966"/>
<path d="M139.283 59.6483C143.389 67.5301 142.058 76.3119 140.484 84.5774C140.443 84.7901 140.071 84.7302 140.112 84.5175C141.677 76.3043 143.008 67.5954 138.928 59.7629C138.826 59.5666 139.182 59.4538 139.283 59.6483Z" fill="#FFE966"/>
<path d="M152.795 44.3575C151.685 45.3589 150.397 46.1428 151.125 48.153C151.418 48.9601 152.128 50.1345 152.51 50.9056C151.841 50.0844 151.129 49.4528 149.97 48.3894C148.708 47.2314 147.772 47.1719 145.383 48.9974C145.383 48.9974 146.686 47.0384 146.796 45.7056C146.89 44.5676 146.279 42.7503 145.614 41.8239C147.322 43.7478 149.471 45.7854 152.795 44.3575Z" fill="#FFE966"/>
<path d="M150.495 51.8995C153.529 61.9536 150.638 72.2747 147.575 81.9409C147.496 82.1896 147.111 82.0625 147.19 81.8136C150.234 72.2083 153.113 61.9748 150.098 51.9837C150.023 51.7336 150.42 51.6515 150.495 51.8995Z" fill="#FFE966"/>
<path d="M119.451 89.6307L122.552 91.2405L144.204 102.483C151.366 92.7623 154.477 73.3871 154.477 73.3871L129.741 63.5L122.86 60.7495L119.451 89.6307Z" fill="#F762A3"/>
<path d="M177.324 45.4522C177.519 46.9344 177.99 48.3666 176.131 49.4236C175.385 49.8479 174.083 50.2803 173.291 50.6188C174.333 50.4282 175.285 50.4101 176.857 50.3531C178.568 50.2911 179.319 50.8537 179.952 53.7928C179.952 53.7928 180.232 51.4565 181.013 50.3713C181.681 49.4448 183.324 48.4583 184.432 48.1855C181.884 48.5403 178.927 48.6959 177.324 45.4522Z" fill="#FFE966"/>
<path d="M174.18 52.6831C165.346 58.3632 160.847 68.0915 156.904 77.4333C156.802 77.6735 157.178 77.8266 157.279 77.5861C161.198 68.3034 165.649 58.6491 174.426 53.0046C174.646 52.8632 174.397 52.543 174.18 52.6831Z" fill="#FFE966"/>
<path d="M175.346 69.9489L154.477 73.3875L144.205 102.483L164.423 98.3638L175.346 69.9489Z" fill="#E03781"/>
<path d="M131.129 81.3714C132.207 76.1598 133.664 70.7433 136.31 66.126C137.773 66.6853 139.128 67.2524 140.657 67.8636C136.874 77.1383 134.482 86.958 133.504 96.9268L129.706 94.9552C129.363 91.714 130.218 85.7733 131.129 81.3714Z" fill="#DBCCFF"/>
<path d="M163.186 71.9524C163.145 71.9592 157.526 94.1213 152.762 100.739L157.974 99.6775C157.974 99.6775 163.657 87.4874 166.699 71.3737L163.186 71.9524Z" fill="#DBCCFF"/>
<path d="M150.241 85.7307C149.927 86.725 149.613 87.7194 149.299 88.7138C149.258 88.8441 149.052 88.7885 149.093 88.6571C149.407 87.6628 149.721 86.6684 150.035 85.674C150.076 85.5437 150.282 85.5994 150.241 85.7307Z" fill="white"/>
<path d="M154.575 73.5248C153.725 75.7551 152.945 78.0113 152.236 80.2904C152.196 80.4209 151.99 80.3652 152.031 80.2337C152.74 77.9547 153.519 75.6984 154.369 73.4681C154.418 73.3411 154.624 73.3963 154.575 73.5248Z" fill="white"/>
<path d="M134.836 67.8808C133.76 70.0272 132.87 72.2609 132.176 74.5593C132.119 74.7489 131.821 74.6681 131.878 74.4773C132.581 72.1537 133.482 69.8947 134.57 67.725C134.659 67.5476 134.925 67.7036 134.836 67.8808Z" fill="#DADADA"/>
<path d="M136.27 85.2836C135.919 86.4846 135.706 87.7162 135.635 88.9654C135.624 89.1626 135.315 89.1639 135.326 88.9654C135.399 87.6893 135.614 86.4286 135.972 85.2016C136.028 85.0115 136.326 85.0924 136.27 85.2836Z" fill="#DADADA"/>
<path d="M162.416 73.0852C162.365 73.3607 162.314 73.6363 162.263 73.9118C162.227 74.1067 161.93 74.0242 161.966 73.8298C162.017 73.5542 162.068 73.2787 162.119 73.0031C162.155 72.8083 162.452 72.8909 162.416 73.0852Z" fill="#8B7FF7"/>
<path d="M161.651 75.7095C160.787 78.4368 159.8 81.1233 158.691 83.7605C158.615 83.9407 158.316 83.8616 158.393 83.6785C159.502 81.0413 160.49 78.3548 161.354 75.6275C161.413 75.439 161.711 75.5195 161.651 75.7095Z" fill="#8B7FF7"/>
<path d="M162.098 92.0322C161.338 93.7199 160.59 95.4123 159.853 97.1095C159.774 97.2911 159.508 97.1342 159.587 96.9538C160.324 95.2566 161.072 93.5642 161.831 91.8766C161.913 91.6958 162.178 91.8525 162.098 92.0322Z" fill="#8B7FF7"/>
<path d="M146.966 76.8967C146.246 76.8967 146.245 75.7787 146.966 75.7787C147.685 75.7789 147.686 76.8967 146.966 76.8967Z" fill="white"/>
<path d="M126.493 88.8501C125.774 88.8501 125.773 87.7322 126.493 87.7322C127.212 87.7322 127.213 88.8501 126.493 88.8501Z" fill="white"/>
<path d="M125.358 73.0536C124.639 73.0536 124.638 71.9357 125.358 71.9357C126.078 71.9357 126.079 73.0536 125.358 73.0536Z" fill="white"/>
<path d="M128.149 78.6707C127.43 78.6707 127.429 77.5528 128.149 77.5528C128.869 77.5528 128.87 78.6707 128.149 78.6707Z" fill="white"/>
<path d="M139.739 87.1382C139.02 87.1382 139.019 86.0203 139.739 86.0203C140.459 86.0203 140.46 87.1382 139.739 87.1382Z" fill="white"/>
<path d="M137.643 95.6896C136.924 95.6896 136.923 94.5717 137.643 94.5717C138.363 94.5717 138.364 95.6896 137.643 95.6896Z" fill="white"/>
<path d="M143.091 92.5132C142.371 92.5132 142.37 91.3953 143.091 91.3953C143.81 91.3954 143.811 92.5132 143.091 92.5132Z" fill="white"/>
<path d="M129.63 67.772C128.91 67.772 128.909 66.6541 129.63 66.6541C130.349 66.6541 130.35 67.772 129.63 67.772Z" fill="white"/>
<path d="M140.593 79.5799C139.873 79.5799 139.872 78.462 140.593 78.462C141.312 78.462 141.313 79.5799 140.593 79.5799Z" fill="white"/>
<path d="M146.194 84.2784C145.475 84.2784 145.474 83.1605 146.194 83.1605C146.914 83.1606 146.915 84.2784 146.194 84.2784Z" fill="white"/>
<path d="M124.661 82.175C123.942 82.175 123.941 81.0571 124.661 81.0571C125.38 81.0572 125.381 82.175 124.661 82.175Z" fill="white"/>
<path d="M142.093 72.0987C141.373 72.0987 141.372 70.9808 142.093 70.9808C142.812 70.9809 142.813 72.0987 142.093 72.0987Z" fill="white"/>
<path d="M169.837 75.4849C169.118 75.4849 169.116 74.367 169.837 74.367C170.556 74.367 170.557 75.4849 169.837 75.4849Z" fill="white"/>
<path d="M156.759 80.3475C156.039 80.3475 156.038 79.2296 156.759 79.2296C157.478 79.2296 157.479 80.3475 156.759 80.3475Z" fill="white"/>
<path d="M167.405 83.8686C166.686 83.8686 166.685 82.7507 167.405 82.7507C168.125 82.7507 168.126 83.8686 167.405 83.8686Z" fill="white"/>
<path d="M153.825 89.318C153.106 89.318 153.105 88.2001 153.825 88.2001C154.544 88.2001 154.546 89.318 153.825 89.318Z" fill="white"/>
<path d="M157.513 86.2159C156.793 86.2159 156.792 85.098 157.513 85.098C158.232 85.0981 158.233 86.2159 157.513 86.2159Z" fill="white"/>
<path d="M149.884 97.6178C149.164 97.6178 149.163 96.4999 149.884 96.4999C150.603 96.5 150.604 97.6178 149.884 97.6178Z" fill="white"/>
<path d="M163.718 90.9109C162.998 90.9109 162.997 89.793 163.718 89.793C164.437 89.793 164.438 90.9109 163.718 90.9109Z" fill="white"/>
<path d="M144.486 59.7513C144.399 61.372 144.313 62.9927 144.227 64.6134C144.217 64.7923 143.938 64.7934 143.948 64.6134C144.034 62.9926 144.12 61.3719 144.206 59.7513C144.216 59.5724 144.495 59.5712 144.486 59.7513Z" fill="#2E3190"/>
<path d="M144.14 66.1187C144.108 66.529 144.075 66.9391 144.042 67.3494C144.027 67.5274 143.748 67.5289 143.762 67.3494C143.795 66.9391 143.828 66.5289 143.861 66.1187C143.875 65.9407 144.155 65.9392 144.14 66.1187Z" fill="#2E3190"/>
<path d="M141.678 68.3284C139.545 67.5329 137.42 66.7136 135.306 65.8705C135.18 65.8203 135.235 65.6141 135.362 65.6649C137.477 66.508 139.601 67.3274 141.734 68.1229C141.862 68.1704 141.807 68.3765 141.678 68.3284Z" fill="white"/>
<path d="M133.58 65.1283C132.086 64.522 130.592 63.9155 129.098 63.3091C128.973 63.2582 129.028 63.052 129.155 63.1036C130.649 63.71 132.143 64.3164 133.637 64.9228C133.762 64.9737 133.707 65.18 133.58 65.1283Z" fill="white"/>
<path d="M127.993 63.0544C127.197 62.7491 126.366 62.4826 125.611 62.0831C124.883 61.6982 124.209 61.1469 123.365 61.0515C123.231 61.0362 123.229 60.8229 123.365 60.8383C124.154 60.9275 124.794 61.3716 125.465 61.7581C126.275 62.2247 127.18 62.5151 128.049 62.8487C128.176 62.8975 128.121 63.1036 127.993 63.0544Z" fill="white"/>
<path d="M168.497 71.2266C166.028 71.6966 163.539 72.0549 161.038 72.301C160.901 72.3144 160.902 72.1011 161.038 72.0878C163.52 71.8436 165.99 71.4875 168.44 71.021C168.574 70.9956 168.631 71.2009 168.497 71.2266Z" fill="white"/>
<path d="M159.444 72.6866C158.886 72.7856 158.328 72.8847 157.77 72.9838C157.636 73.0075 157.579 72.8022 157.714 72.7782C158.272 72.6792 158.83 72.5801 159.387 72.481C159.522 72.4573 159.579 72.6626 159.444 72.6866Z" fill="white"/>
<path d="M151.145 72.2566C149.634 71.5657 148.075 70.9885 146.479 70.5264C146.348 70.4884 146.404 70.2826 146.536 70.3209C148.15 70.7881 149.725 71.3741 151.252 72.0726C151.377 72.1295 151.269 72.3134 151.145 72.2566Z" fill="white"/>
<path d="M159.837 43.3963C159.403 44.9418 158.592 46.3607 157.55 47.5768C156.885 48.3535 156.061 49.2191 155.101 49.6307C155.004 49.6719 154.921 49.5305 155.018 49.4889C155.945 49.0915 156.735 48.2661 157.383 47.5193C158.431 46.3122 159.245 44.895 159.679 43.3526C159.707 43.2509 159.866 43.2941 159.837 43.3963Z" fill="white"/>
<path d="M76.3252 63.1695L81.2168 62.5499C82.0415 62.4454 82.6297 63.3192 82.2121 64.0286L79.7352 68.2359C79.5694 68.5175 79.5546 68.8617 79.6959 69.1562L81.8047 73.5542C82.1603 74.2957 81.4996 75.1177 80.6867 74.945L75.8655 73.9212C75.5427 73.8526 75.2063 73.9452 74.9661 74.1687L71.3779 77.5064C70.773 78.0691 69.7765 77.7032 69.6917 76.8872L69.1889 72.0473C69.1553 71.7232 68.9621 71.4363 68.6724 71.2799L64.3459 68.9447C63.6165 68.551 63.6613 67.503 64.4218 67.1713L68.9324 65.2038C69.2344 65.0721 69.4513 64.8023 69.5125 64.4821L70.4268 59.7012C70.581 58.895 71.6051 58.6133 72.1599 59.2242L75.4504 62.8482C75.6705 63.0909 75.9977 63.211 76.3252 63.1695Z" fill="#E03781"/>
<path d="M71.6424 60.7911C72.4022 61.6174 73.2001 62.5066 73.3138 63.6656C73.3457 63.9914 73.8663 63.9947 73.834 63.6656C73.7057 62.3559 72.8753 61.3688 72.0103 60.4282C71.7849 60.1832 71.4178 60.547 71.6424 60.7911Z" fill="#FFC8B7"/>
<path d="M77.0515 64.7644C78.0836 64.2961 79.1669 63.8293 80.3275 64.0289C80.655 64.0853 80.7955 63.5907 80.4658 63.5341C79.1509 63.3079 77.9647 63.7878 76.7889 64.3213C76.4852 64.4591 76.7491 64.9016 77.0515 64.7644Z" fill="#FFC8B7"/>
<path d="M79.9852 72.3621C80.2474 72.7395 80.3859 73.1522 80.3913 73.6109C80.3951 73.9409 80.9154 73.9418 80.9115 73.6109C80.9053 73.0683 80.7459 72.5515 80.4345 72.1031C80.2463 71.8323 79.7952 72.0887 79.9852 72.3621Z" fill="#FFC8B7"/>
<path d="M178.712 120.38L180.801 123.06C181.153 123.512 180.842 124.168 180.275 124.17L176.911 124.183C176.686 124.184 176.476 124.296 176.352 124.484L174.488 127.281C174.174 127.753 173.455 127.651 173.271 127.108L172.181 123.892C172.108 123.676 171.934 123.509 171.717 123.446L168.477 122.495C167.931 122.334 167.797 121.615 168.25 121.278L170.941 119.276C171.121 119.142 171.223 118.927 171.214 118.7L171.074 115.315C171.051 114.744 171.687 114.402 172.152 114.736L174.905 116.716C175.089 116.848 175.325 116.882 175.537 116.805L178.691 115.664C179.223 115.472 179.75 115.979 179.583 116.523L178.595 119.748C178.528 119.964 178.572 120.2 178.712 120.38Z" fill="#F762A3"/>
<path d="M178.473 116.769C178.251 117.51 178.005 118.295 177.359 118.771C177.177 118.904 177.358 119.214 177.542 119.079C178.272 118.542 178.565 117.702 178.818 116.859C178.884 116.639 178.539 116.55 178.473 116.769Z" fill="#FFC8B7"/>
<path d="M178.023 121.371C178.664 121.818 179.322 122.295 179.612 123.053C179.694 123.267 180.036 123.176 179.954 122.961C179.625 122.102 178.923 121.569 178.193 121.06C178.005 120.928 177.835 121.24 178.023 121.371Z" fill="#FFC8B7"/>
<path d="M174.555 125.783C174.424 126.072 174.228 126.299 173.958 126.464C173.764 126.582 173.946 126.891 174.141 126.772C174.46 126.577 174.71 126.301 174.866 125.959C174.961 125.752 174.65 125.575 174.555 125.783Z" fill="#FFC8B7"/>
<path d="M194.605 102.369C199.722 102.369 203.871 98.2768 203.871 93.2285C203.871 88.1803 199.722 84.0879 194.605 84.0879C189.488 84.0879 185.34 88.1803 185.34 93.2285C185.34 98.2768 189.488 102.369 194.605 102.369Z" fill="#FFCB8A"/>
<path d="M197.96 92.1748C199.084 91.9896 200.178 92.5415 200.723 93.5186C200.893 93.8223 201.364 93.5509 201.194 93.2468C200.524 92.0449 199.178 91.4309 197.815 91.6555C197.469 91.7125 197.615 92.2316 197.96 92.1748Z" fill="#384955"/>
<path d="M190.858 88.8668C191.982 88.6815 193.076 89.2335 193.621 90.2106C193.791 90.5142 194.262 90.2428 194.093 89.9388C193.422 88.7369 192.076 88.1229 190.713 88.3475C190.367 88.4045 190.514 88.9235 190.858 88.8668Z" fill="#384955"/>
<path d="M198.436 95.1392C196.306 95.7706 193.094 94.4888 190.937 92.1247C190.937 92.1247 189.289 96.1169 193.094 97.7122C196.612 99.1871 198.436 95.1392 198.436 95.1392Z" fill="#DADADA"/>
<path d="M188.993 91.4832C189.306 91.5905 189.827 91.5058 189.849 91.0983C189.871 90.6801 189.372 90.5195 189.025 90.5908C188.671 90.6634 188.433 91.0667 188.694 91.3698C188.922 91.6348 189.484 91.7005 189.792 91.567C190.117 91.4256 190.293 91.0565 190.114 90.7343C189.941 90.4228 189.543 90.279 189.201 90.3709C188.857 90.4631 188.641 90.7829 188.642 91.1273C188.644 91.5083 188.916 91.7841 189.267 91.902C190.131 92.1922 190.684 91.2187 190.205 90.5359C189.758 89.8982 188.696 89.9984 188.392 90.721C188.257 91.0415 188.306 91.4363 188.598 91.6548C188.928 91.9011 189.501 91.936 189.86 91.7351C190.602 91.3208 190.236 90.2123 189.384 90.3423C188.97 90.4055 188.65 90.7555 188.655 91.1736C188.66 91.6236 189.058 91.8527 189.472 91.8679C189.893 91.8833 190.315 91.6838 190.405 91.2471C190.496 90.8056 190.213 90.4301 189.849 90.2106C189.622 90.0739 189.323 90.3518 189.475 90.579C189.581 90.7358 189.696 90.8802 189.829 91.0153C190.074 91.2648 190.46 90.8837 190.215 90.6345C190.114 90.532 190.027 90.4264 189.947 90.3073C189.822 90.43 189.698 90.5528 189.573 90.6757C189.831 90.8309 190.069 91.2718 189.602 91.3254C189.479 91.3395 189.254 91.3458 189.204 91.2054C189.15 91.0547 189.317 90.8993 189.453 90.8743C189.608 90.8456 189.787 90.9657 189.72 91.1349C189.653 91.3037 189.424 91.3286 189.267 91.3193C189.083 91.3084 188.847 91.2642 188.864 91.0393C188.875 90.8929 188.982 90.7727 189.108 90.7072C189.386 90.5632 189.73 90.6756 189.826 90.9806C189.868 91.1153 189.851 91.3132 189.711 91.3941C189.567 91.4777 189.28 91.3726 189.207 91.2257C189.024 90.8547 189.648 90.8142 189.641 91.0047C189.632 91.2216 189.215 90.9967 189.133 91.0283C189.06 91.0563 189.23 91.1778 189.291 91.1253C189.298 91.0803 189.305 91.0353 189.312 90.9903C189.251 91.0011 189.193 90.9924 189.138 90.9644C188.806 90.85 188.663 91.37 188.993 91.4832Z" fill="#F762A3"/>
<path d="M199.618 96.2853C199.931 96.3926 200.452 96.3079 200.474 95.9004C200.496 95.4822 199.997 95.3216 199.65 95.3928C199.296 95.4655 199.058 95.8688 199.319 96.1719C199.548 96.437 200.109 96.5026 200.417 96.369C200.742 96.2277 200.918 95.8586 200.739 95.5364C200.566 95.2249 200.168 95.0811 199.826 95.173C199.482 95.2652 199.266 95.585 199.267 95.9293C199.269 96.3103 199.541 96.5862 199.892 96.704C200.756 96.9942 201.309 96.0208 200.831 95.338C200.383 94.7002 199.321 94.8004 199.017 95.523C198.882 95.8435 198.931 96.2384 199.223 96.4569C199.553 96.7032 200.126 96.738 200.485 96.5372C201.227 96.1228 200.861 95.0144 200.009 95.1444C199.595 95.2076 199.275 95.5574 199.28 95.9757C199.285 96.4257 199.683 96.6548 200.097 96.67C200.518 96.6853 200.94 96.4859 201.03 96.0492C201.121 95.6076 200.838 95.2322 200.474 95.0127C200.247 94.8759 199.948 95.1538 200.1 95.3811C200.206 95.5379 200.321 95.6823 200.454 95.8174C200.699 96.0668 201.085 95.6858 200.84 95.4366C200.739 95.334 200.652 95.2285 200.572 95.1093C200.447 95.2321 200.323 95.3549 200.198 95.4778C200.456 95.633 200.694 96.0739 200.227 96.1275C200.104 96.1415 199.879 96.1479 199.829 96.0075C199.775 95.8567 199.942 95.7013 200.078 95.6763C200.233 95.6476 200.412 95.7677 200.345 95.937C200.278 96.1057 200.049 96.1307 199.892 96.1213C199.708 96.1105 199.472 96.0663 199.489 95.8414C199.5 95.6949 199.607 95.5747 199.733 95.5093C200.011 95.3653 200.355 95.4777 200.451 95.7827C200.493 95.9174 200.476 96.1153 200.337 96.1962C200.192 96.2798 199.905 96.1747 199.832 96.0278C199.649 95.6568 200.273 95.6164 200.266 95.8068C200.258 96.0237 199.84 95.7988 199.758 95.8304C199.685 95.8584 199.856 95.9798 199.916 95.9274C199.923 95.8823 199.93 95.8373 199.937 95.7923C199.876 95.8032 199.818 95.7945 199.763 95.7664C199.431 95.652 199.288 96.1721 199.618 96.2853Z" fill="#F762A3"/>
</svg>
