<svg width="188" height="177" viewBox="0 0 188 177" fill="none" xmlns="http://www.w3.org/2000/svg">
<path d="M69.2413 176.04C97.0578 176.04 119.608 173.352 119.608 170.036C119.608 166.72 97.0578 164.032 69.2413 164.032C41.4247 164.032 18.875 166.72 18.875 170.036C18.875 173.352 41.4247 176.04 69.2413 176.04Z" fill="#DBDBDB"/>
<path d="M72.1076 154.685L86.3919 146.91C118.475 129.448 138.482 95.588 138.482 58.754V21.5677C138.482 18.6728 136.213 16.27 133.35 16.1914C99.5939 15.2668 78.6528 5.41702 71.7598 1.60448C70.1933 0.737798 68.2892 0.737798 66.7223 1.60448C59.8293 5.41702 38.8882 15.2664 5.13201 16.1914C2.26939 16.27 0 18.6728 0 21.5677V58.754C0 95.588 20.0072 129.448 52.0903 146.91L66.3746 154.685C68.1639 155.659 70.3182 155.659 72.1076 154.685Z" fill="#DADADB"/>
<path d="M131.635 25.9455V57.5023C131.635 92.6304 112.647 124.782 82.0839 141.422L71.951 146.935C71.1084 147.392 70.1744 147.626 69.2405 147.626C68.3065 147.626 67.3725 147.392 66.53 146.935L56.397 141.422C25.8341 124.782 6.8457 92.6304 6.8457 57.5023V25.9455C6.8457 24.4529 8.02708 23.2303 9.51499 23.1249C38.2695 21.1698 58.0129 13.5505 68.0039 8.66981C68.4022 8.47298 68.8188 8.37689 69.2401 8.37689C69.6614 8.37689 70.078 8.47298 70.4763 8.66981C80.4672 13.5509 100.215 21.1698 128.965 23.1249C130.454 23.2303 131.635 24.4529 131.635 25.9455Z" fill="#2E3190"/>
<path d="M131.635 25.9455V57.5023C131.635 92.6304 112.647 124.782 82.0837 141.422L71.9507 146.935C71.1082 147.392 70.1742 147.626 69.2402 147.626V8.37689C69.6615 8.37689 70.0781 8.47298 70.4765 8.66981C80.4674 13.5509 100.215 21.1698 128.965 23.1249C130.454 23.2303 131.635 24.4529 131.635 25.9455Z" fill="#8B8FFF" fill-opacity="0.5"/>
<path d="M92.968 65.5151H45.5137C42.6884 65.5151 40.3945 67.809 40.3945 70.6343V108.473C40.3945 111.298 42.6884 113.592 45.5137 113.592H92.968C95.7932 113.592 98.0871 111.298 98.0871 108.473V70.6343C98.0867 67.809 95.7928 65.5151 92.968 65.5151ZM73.8197 91.9528V95.735C73.8197 98.2623 71.7685 100.314 69.2408 100.314C66.7131 100.314 64.662 98.2627 64.662 95.735V91.9528C62.7158 90.5427 61.4567 88.2484 61.4567 85.6616C61.4567 81.362 64.9413 77.8778 69.2404 77.8778C73.5396 77.8778 77.0242 81.362 77.0242 85.6616C77.0246 88.2488 75.7654 90.5427 73.8197 91.9528Z" fill="white"/>
<path d="M86.1818 51.3394V57.2735C86.1818 59.2967 84.5418 60.9367 82.5187 60.9367C80.4955 60.9367 78.8555 59.2967 78.8555 57.2735V51.5755C78.8555 46.3685 74.8138 41.9277 69.6107 41.7313C64.1406 41.5247 59.6248 45.9145 59.6248 51.3398V61.8528H52.2988V51.6156C52.2988 42.3828 59.5734 34.636 68.8031 34.4038C73.6558 34.2816 78.0553 36.1986 81.2183 39.3615C84.2863 42.4291 86.1818 46.6598 86.1818 51.3394Z" fill="white"/>
<g filter="url(#filter0_di_1040_4501)">
<rect x="92.2363" y="5.19476" width="91.7646" height="28.9348" rx="5" fill="#ECEFF3"/>
</g>
<circle cx="109.596" cy="19.2488" r="4.13354" fill="#DE1D71"/>
<circle cx="128.61" cy="19.2488" r="4.13354" fill="#DE1D71"/>
<circle cx="147.626" cy="19.2488" r="4.13354" fill="#DE1D71"/>
<circle cx="166.639" cy="19.2488" r="4.13354" fill="#DE1D71"/>
<g filter="url(#filter1_di_1040_4501)">
<circle cx="23.6014" cy="126.615" r="17.2225" fill="#61CFDB"/>
</g>
<path d="M15.3086 125.066L21.3394 132.356L31.8932 119.598" stroke="white" stroke-width="2" stroke-linecap="round"/>
<defs>
<filter id="filter0_di_1040_4501" x="88.2363" y="5.19476" width="99.7637" height="36.9348" filterUnits="userSpaceOnUse" color-interpolation-filters="sRGB">
<feFlood flood-opacity="0" result="BackgroundImageFix"/>
<feColorMatrix in="SourceAlpha" type="matrix" values="0 0 0 0 0 0 0 0 0 0 0 0 0 0 0 0 0 0 127 0" result="hardAlpha"/>
<feOffset dy="4"/>
<feGaussianBlur stdDeviation="2"/>
<feComposite in2="hardAlpha" operator="out"/>
<feColorMatrix type="matrix" values="0 0 0 0 0 0 0 0 0 0 0 0 0 0 0 0 0 0 0.25 0"/>
<feBlend mode="normal" in2="BackgroundImageFix" result="effect1_dropShadow_1040_4501"/>
<feBlend mode="normal" in="SourceGraphic" in2="effect1_dropShadow_1040_4501" result="shape"/>
<feColorMatrix in="SourceAlpha" type="matrix" values="0 0 0 0 0 0 0 0 0 0 0 0 0 0 0 0 0 0 127 0" result="hardAlpha"/>
<feOffset dx="-1" dy="1"/>
<feGaussianBlur stdDeviation="1"/>
<feComposite in2="hardAlpha" operator="arithmetic" k2="-1" k3="1"/>
<feColorMatrix type="matrix" values="0 0 0 0 0 0 0 0 0 0 0 0 0 0 0 0 0 0 0.2 0"/>
<feBlend mode="normal" in2="shape" result="effect2_innerShadow_1040_4501"/>
</filter>
<filter id="filter1_di_1040_4501" x="0.378906" y="107.392" width="42.4453" height="42.4449" filterUnits="userSpaceOnUse" color-interpolation-filters="sRGB">
<feFlood flood-opacity="0" result="BackgroundImageFix"/>
<feColorMatrix in="SourceAlpha" type="matrix" values="0 0 0 0 0 0 0 0 0 0 0 0 0 0 0 0 0 0 127 0" result="hardAlpha"/>
<feOffset dx="-2" dy="2"/>
<feGaussianBlur stdDeviation="2"/>
<feComposite in2="hardAlpha" operator="out"/>
<feColorMatrix type="matrix" values="0 0 0 0 0 0 0 0 0 0 0 0 0 0 0 0 0 0 0.25 0"/>
<feBlend mode="normal" in2="BackgroundImageFix" result="effect1_dropShadow_1040_4501"/>
<feBlend mode="normal" in="SourceGraphic" in2="effect1_dropShadow_1040_4501" result="shape"/>
<feColorMatrix in="SourceAlpha" type="matrix" values="0 0 0 0 0 0 0 0 0 0 0 0 0 0 0 0 0 0 127 0" result="hardAlpha"/>
<feOffset dx="-1" dy="1"/>
<feGaussianBlur stdDeviation="0.5"/>
<feComposite in2="hardAlpha" operator="arithmetic" k2="-1" k3="1"/>
<feColorMatrix type="matrix" values="0 0 0 0 0.180392 0 0 0 0 0.192157 0 0 0 0 0.564706 0 0 0 0.5 0"/>
<feBlend mode="normal" in2="shape" result="effect2_innerShadow_1040_4501"/>
</filter>
</defs>
</svg>
