<svg width="208" height="204" viewBox="0 0 208 204" fill="none" xmlns="http://www.w3.org/2000/svg">
<path d="M207.209 136.851H127.73V90.8483H207.209V136.851ZM128.215 136.366H206.724V91.3333H128.215V136.366Z" fill="#E0E0E0"/>
<path d="M190.816 115.376H138.367V116.915H190.816V115.376Z" fill="#F0F0F0"/>
<path d="M194.428 121.11H138.367V122.789H194.428V121.11Z" fill="#F0F0F0"/>
<path d="M194.428 126.911H138.367V128.59H194.428V126.911Z" fill="#F0F0F0"/>
<path d="M156.697 107.049H138.367V111.04H156.697V107.049Z" fill="#F0F0F0"/>
<path d="M206.966 91.0903H127.973V98.4138H206.966V91.0903Z" fill="#E0E0E0"/>
<path d="M200.888 97.3196C200.787 97.2231 201.805 95.9955 203.161 94.5777C204.517 93.1595 205.698 92.0885 205.799 92.1851C205.9 92.2816 204.882 93.5092 203.525 94.9269C202.17 96.3447 200.989 97.4161 200.888 97.3196Z" fill="white"/>
<path d="M205.8 97.3197C205.699 97.4162 204.518 96.3448 203.162 94.927C201.804 93.5088 200.787 92.2812 200.888 92.1851C200.989 92.0891 202.169 93.1596 203.526 94.5778C204.882 95.9955 205.901 97.2231 205.8 97.3197Z" fill="white"/>
<path d="M109.396 0H30.4023V45.5178H109.396V0Z" fill="#E6E6E6"/>
<path d="M93.2433 24.286H40.7949V25.8245H93.2433V24.286Z" fill="#F0F0F0"/>
<path d="M96.8558 30.02H40.7949V31.6982H96.8558V30.02Z" fill="#F0F0F0"/>
<path d="M96.8558 35.8205H40.7949V37.4987H96.8558V35.8205Z" fill="#F0F0F0"/>
<path d="M59.1252 15.9585H40.7949V19.9498H59.1252V15.9585Z" fill="#F0F0F0"/>
<path d="M109.396 0H30.4023V7.323H109.396V0Z" fill="#E0E0E0"/>
<path d="M103.048 6.1943C102.947 6.09777 103.965 4.87016 105.321 3.45241C106.677 2.03418 107.858 0.963233 107.959 1.05927C108.06 1.15579 107.042 2.38292 105.686 3.80115C104.33 5.2189 103.149 6.29033 103.048 6.1943Z" fill="white"/>
<path d="M107.96 6.19448C107.859 6.291 106.678 5.21956 105.322 3.80182C103.965 2.38359 102.947 1.15597 103.048 1.05994C103.149 0.963415 104.33 2.03485 105.686 3.45308C107.043 4.87034 108.061 6.09796 107.96 6.19448Z" fill="white"/>
<path d="M79.4787 84.5584H0V38.5556H79.4787V84.5584ZM0.485031 84.0734H78.9936V39.0406H0.485031V84.0734Z" fill="#E0E0E0"/>
<path d="M63.0836 63.0837H10.6348V64.6222H63.0836V63.0837Z" fill="#F0F0F0"/>
<path d="M66.6961 68.8182H10.6348V70.4964H66.6961V68.8182Z" fill="#F0F0F0"/>
<path d="M66.6961 74.6187H10.6348V76.2969H66.6961V74.6187Z" fill="#F0F0F0"/>
<path d="M28.9651 54.7562H10.6348V58.748H28.9651V54.7562Z" fill="#F0F0F0"/>
<path d="M79.2358 38.7982H0.242188V46.1216H79.2358V38.7982Z" fill="#E0E0E0"/>
<path d="M171.203 95.1001H77.9297V178.601H171.203V95.1001Z" fill="#E6E6E6"/>
<path d="M82.6188 68.7958H9.55469V144.708H82.6188V68.7958Z" fill="#F0F0F0"/>
<path d="M82.6188 68.7958H9.55469V77.0671H82.6188V68.7958Z" fill="#E0E0E0"/>
<path d="M15.5878 72.8469C15.5878 73.7325 14.901 74.4504 14.0537 74.4504C13.2063 74.4504 12.5195 73.7325 12.5195 72.8469C12.5195 71.9612 13.2063 71.2433 14.0537 71.2433C14.901 71.2433 15.5878 71.9612 15.5878 72.8469Z" fill="white"/>
<path d="M21.8105 72.8469C21.8105 73.7325 21.1237 74.4504 20.2763 74.4504C19.429 74.4504 18.7422 73.7325 18.7422 72.8469C18.7422 71.9612 19.429 71.2433 20.2763 71.2433C21.1237 71.2433 21.8105 71.9612 21.8105 72.8469Z" fill="white"/>
<path d="M28.0331 72.8469C28.0331 73.7325 27.3463 74.4504 26.499 74.4504C25.6516 74.4504 24.9648 73.7325 24.9648 72.8469C24.9648 71.9612 25.6516 71.2433 26.499 71.2433C27.3463 71.2433 28.0331 71.9612 28.0331 72.8469Z" fill="white"/>
<path d="M196.779 16.6031H103.506V109.565H196.779V16.6031Z" fill="#F0F0F0"/>
<path d="M196.779 16.6031H103.506V27.492H196.779V16.6031Z" fill="#E0E0E0"/>
<path d="M111.449 21.9355C111.449 23.1015 110.545 24.0468 109.429 24.0468C108.314 24.0468 107.41 23.1015 107.41 21.9355C107.41 20.7695 108.314 19.8246 109.429 19.8246C110.544 19.8246 111.449 20.77 111.449 21.9355Z" fill="white"/>
<path d="M119.05 20.5081C119.874 21.3326 119.903 22.6403 119.115 23.4285C118.326 24.2171 117.018 24.188 116.194 23.3639C115.37 22.5394 115.341 21.2318 116.129 20.4431C116.918 19.6544 118.225 19.6835 119.05 20.5081Z" fill="white"/>
<path d="M127.832 21.9355C127.832 23.1015 126.928 24.0468 125.812 24.0468C124.697 24.0468 123.793 23.1015 123.793 21.9355C123.793 20.7695 124.697 19.8246 125.812 19.8246C126.928 19.8246 127.832 20.77 127.832 21.9355Z" fill="white"/>
<path d="M176.629 203.265C176.629 203.335 142.949 203.392 101.412 203.392C59.8608 203.392 26.1875 203.335 26.1875 203.265C26.1875 203.196 59.8603 203.139 101.412 203.139C142.949 203.139 176.629 203.196 176.629 203.265Z" fill="#0C0E3A"/>
<path d="M160.962 12.4289L158.463 13.3228L157.394 10.0591C155.423 4.03885 149.132 0.817754 143.378 2.87623C137.621 4.93567 134.543 11.5083 136.514 17.5285L137.583 20.7923L135.075 21.6891C133.125 22.3866 132.07 24.6342 132.738 26.6748L139.691 47.9148C140.369 49.9863 142.522 51.0908 144.472 50.3933L170.36 41.1326C172.342 40.4239 173.398 38.171 172.719 36.0999L165.766 14.8599C165.097 12.8194 162.943 11.7198 160.962 12.4289ZM141.231 15.8406C140.15 12.5414 141.836 8.93863 144.993 7.80948C148.147 6.68129 151.592 8.44826 152.673 11.7474L153.741 15.0117L142.299 19.1044L141.231 15.8406ZM155.786 34.6855L157.562 40.1096C157.636 40.3391 157.505 40.5733 157.284 40.6529L154.799 41.5415C154.609 41.6094 154.366 41.509 154.291 41.2795L152.515 35.8554C150.591 35.774 148.805 34.4988 148.137 32.4583C147.278 29.8347 148.622 26.9663 151.139 26.0656C153.656 25.1653 156.398 26.5719 157.257 29.196C157.925 31.2365 157.261 33.3886 155.786 34.6855Z" fill="#F03A89"/>
<path d="M158.353 13.2642C158.377 13.3296 153.721 15.0728 147.955 17.1565C142.188 19.2412 137.495 20.8777 137.471 20.8122C137.447 20.7467 142.102 19.004 147.87 16.9194C153.635 14.8357 158.33 13.1987 158.353 13.2642Z" fill="#0C0E3A"/>
<path d="M163.85 14.1581C163.855 14.1566 163.874 14.1998 163.906 14.2851C163.943 14.3841 163.989 14.5092 164.047 14.6654C164.172 15.019 164.345 15.5108 164.565 16.1355C165.011 17.434 165.645 19.2814 166.426 21.5572C167.205 23.8548 168.13 26.5816 169.156 29.6087C169.662 31.1283 170.216 32.7071 170.747 34.3746C170.992 35.2128 171.196 36.1086 171.111 37.0365C171.068 37.4968 170.942 37.96 170.718 38.3791C170.49 38.7952 170.171 39.1614 169.802 39.4597C169.056 40.0558 168.183 40.4041 167.34 40.7164C166.494 41.0205 165.659 41.3203 164.84 41.6147C163.2 42.2011 161.619 42.7671 160.112 43.307C157.101 44.3789 154.388 45.3451 152.102 46.159C149.832 46.9573 147.99 47.6053 146.695 48.0608C146.069 48.2751 145.575 48.4444 145.221 48.5657C145.063 48.6171 144.936 48.6583 144.836 48.6908C144.748 48.718 144.703 48.7296 144.701 48.7253C144.7 48.7214 144.742 48.7015 144.827 48.6666C144.925 48.6278 145.049 48.5788 145.204 48.5177C145.555 48.3857 146.043 48.2014 146.662 47.9681C147.95 47.4943 149.784 46.8205 152.043 45.9906C154.322 45.1622 157.029 44.1791 160.034 43.0882C161.539 42.544 163.119 41.9736 164.756 41.3819C165.575 41.0865 166.408 40.7858 167.254 40.4807C168.09 40.1708 168.94 39.8269 169.643 39.2633C169.992 38.982 170.286 38.6424 170.497 38.2593C170.704 37.8732 170.82 37.4459 170.861 37.0127C170.943 36.1411 170.751 35.2705 170.51 34.445C169.988 32.7939 169.434 31.2011 168.935 29.6834C167.929 26.6505 167.022 23.9169 166.257 21.6144C165.509 19.328 164.9 17.4718 164.473 16.1675C164.271 15.5365 164.113 15.0394 164 14.6824C163.951 14.5228 163.913 14.3952 163.883 14.2939C163.857 14.2051 163.846 14.1595 163.85 14.1581Z" fill="#0C0E3A"/>
<path d="M150.196 7.46947C150.183 7.49081 149.938 7.339 149.462 7.14693C148.984 6.96456 148.261 6.75163 147.344 6.72252C146.434 6.68906 145.326 6.82972 144.22 7.31281C143.118 7.79008 142.033 8.63743 141.256 9.79035C140.463 10.9389 140.116 12.2679 140.116 13.4732C140.106 14.6838 140.363 15.762 140.61 16.6467C140.865 17.5324 141.127 18.2352 141.299 18.7232C141.473 19.2111 141.567 19.4822 141.55 19.489C141.535 19.4949 141.41 19.2363 141.207 18.7591C141.007 18.2808 140.719 17.5863 140.439 16.6982C140.167 15.811 139.886 14.7192 139.883 13.4717C139.87 12.231 140.225 10.837 141.046 9.64823C141.852 8.45311 142.982 7.58151 144.128 7.09891C145.278 6.61145 146.42 6.48631 147.353 6.54355C148.292 6.59642 149.026 6.84233 149.5 7.05623C149.735 7.17118 149.915 7.26527 150.028 7.34433C150.143 7.41951 150.201 7.46171 150.196 7.46947Z" fill="#0C0E3A"/>
<path d="M150.414 26.4487C150.411 26.4424 150.495 26.4007 150.66 26.3265C150.824 26.2504 151.074 26.1529 151.409 26.0573C151.741 25.953 152.167 25.8774 152.669 25.8478C153.17 25.8231 153.76 25.875 154.371 26.1015C155.61 26.537 156.752 27.8039 157.313 29.4826C157.583 30.3304 157.606 31.3151 157.335 32.2672C157.046 33.2154 156.515 34.1248 155.749 34.8893L155.781 34.7607C156.425 36.5287 157.127 38.4528 157.857 40.4545L157.901 40.5762L157.778 40.6175C157.427 40.7353 157.049 40.8619 156.67 40.989C155.852 41.2626 155.047 41.5322 154.256 41.7971L154.137 41.8368L154.098 41.717C153.433 39.7061 152.705 37.8101 152.176 35.998L152.281 36.0805C151.288 36.014 150.396 35.5974 149.685 35.0542C148.972 34.5056 148.425 33.8246 148.056 33.1082C147.694 32.3894 147.512 31.6265 147.542 30.9236C147.56 30.2213 147.722 29.5854 147.949 29.0495C148.402 27.9683 149.076 27.2883 149.576 26.9173C150.084 26.5453 150.414 26.4487 150.414 26.4487C150.426 26.4706 150.106 26.5923 149.621 26.976C149.145 27.3591 148.502 28.0401 148.079 29.1024C147.656 30.1389 147.473 31.6289 148.229 33.0195C148.591 33.7068 149.125 34.3601 149.815 34.8834C150.503 35.4015 151.36 35.7919 152.293 35.8491L152.375 35.854L152.398 35.9316C152.933 37.7311 153.665 39.6193 154.335 41.6385L154.176 41.5589C154.966 41.2941 155.772 41.0234 156.589 40.7494C156.969 40.6223 157.346 40.4957 157.698 40.3779L157.619 40.5404C156.894 38.5367 156.197 36.6106 155.557 34.8417L155.531 34.7704L155.589 34.7132C156.314 33.9958 156.843 33.1063 157.121 32.2041C157.386 31.2937 157.371 30.3581 157.119 29.5413C156.589 27.9121 155.499 26.6733 154.317 26.2382C153.734 26.0103 153.162 25.9482 152.672 25.9613C152.18 25.9788 151.759 26.0413 151.427 26.1325C150.762 26.3042 150.423 26.4701 150.414 26.4487Z" fill="#0C0E3A"/>
<path d="M135.426 166.494L86.981 166.27C81.1543 166.243 76.4519 161.499 76.4767 155.672L76.9903 34.2185C77.015 28.3884 81.762 23.6831 87.5916 23.7103L136.037 23.9339C141.864 23.961 146.566 28.7051 146.541 34.5313L146.027 155.985C146.003 161.815 141.256 166.521 135.426 166.494Z" fill="#0C0E3A"/>
<path d="M135.969 28.1255L126.576 28.0823C125.316 28.0765 124.291 29.1397 124.285 30.456L124.277 32.16C124.272 33.4768 123.246 34.5395 121.987 34.5337L103.678 34.4493C102.419 34.4435 101.402 33.3711 101.407 32.0542L101.415 30.3503C101.42 29.0335 100.403 27.961 99.1437 27.9552L95.8401 27.9397L87.6193 27.9019C83.5368 27.883 80.2119 31.1783 80.1945 35.2613L79.6934 153.809C79.676 157.89 82.9693 161.212 87.0499 161.231L135.399 161.454C139.481 161.473 142.806 158.178 142.824 154.095L143.325 35.5469C143.342 31.4669 140.049 28.1449 135.969 28.1255Z" fill="white"/>
<path d="M129.462 145.641L93.5097 145.475C93.1377 145.473 92.8374 145.068 92.8399 144.57L92.8796 135.164C92.8816 134.666 93.1852 134.264 93.5572 134.265L129.51 134.432C129.882 134.434 130.182 134.839 130.18 135.337L130.14 144.742C130.138 145.24 129.835 145.643 129.462 145.641Z" fill="#8B7FF7"/>
<path d="M103.441 139.284C103.42 139.104 103.335 138.964 103.183 138.864C103.032 138.764 102.847 138.713 102.627 138.712C102.466 138.711 102.325 138.737 102.204 138.788C102.084 138.84 101.99 138.911 101.922 139.002C101.856 139.093 101.822 139.196 101.821 139.312C101.821 139.409 101.844 139.493 101.89 139.563C101.937 139.631 101.997 139.689 102.07 139.736C102.143 139.781 102.22 139.819 102.3 139.849C102.381 139.877 102.455 139.901 102.522 139.919L102.891 140.02C102.986 140.045 103.091 140.08 103.207 140.124C103.324 140.169 103.435 140.229 103.541 140.305C103.649 140.38 103.737 140.477 103.806 140.594C103.876 140.712 103.91 140.856 103.909 141.026C103.909 141.223 103.856 141.4 103.753 141.558C103.65 141.716 103.501 141.842 103.304 141.934C103.108 142.027 102.87 142.072 102.591 142.071C102.331 142.07 102.105 142.027 101.915 141.942C101.726 141.857 101.577 141.739 101.469 141.588C101.362 141.438 101.302 141.263 101.289 141.064L101.743 141.066C101.754 141.203 101.8 141.317 101.88 141.407C101.961 141.497 102.064 141.563 102.188 141.608C102.314 141.651 102.448 141.673 102.593 141.673C102.761 141.674 102.912 141.648 103.046 141.594C103.18 141.539 103.286 141.462 103.365 141.365C103.443 141.265 103.483 141.15 103.483 141.017C103.484 140.896 103.451 140.798 103.383 140.722C103.316 140.646 103.228 140.584 103.118 140.536C103.008 140.488 102.889 140.446 102.761 140.41L102.315 140.28C102.031 140.197 101.806 140.08 101.641 139.927C101.476 139.775 101.394 139.576 101.395 139.331C101.396 139.128 101.452 138.95 101.563 138.799C101.674 138.647 101.824 138.53 102.012 138.446C102.2 138.362 102.41 138.32 102.642 138.321C102.877 138.322 103.085 138.365 103.267 138.45C103.449 138.534 103.593 138.648 103.699 138.793C103.806 138.938 103.862 139.102 103.867 139.286L103.441 139.284ZM105.085 138.382L105.07 142.019L104.629 142.017L104.645 138.38L105.085 138.382ZM108.449 139.534C108.41 139.414 108.359 139.307 108.296 139.212C108.233 139.116 108.158 139.034 108.071 138.966C107.985 138.898 107.887 138.846 107.777 138.81C107.667 138.774 107.546 138.756 107.415 138.755C107.2 138.754 107.004 138.809 106.827 138.919C106.65 139.03 106.509 139.193 106.404 139.409C106.299 139.626 106.246 139.891 106.244 140.206C106.243 140.521 106.294 140.787 106.399 141.004C106.503 141.221 106.645 141.386 106.825 141.498C107.004 141.61 107.206 141.666 107.431 141.667C107.64 141.668 107.823 141.625 107.982 141.537C108.142 141.447 108.267 141.321 108.357 141.158C108.447 140.994 108.493 140.801 108.494 140.578L108.629 140.607L107.535 140.602L107.537 140.212L108.922 140.218L108.92 140.609C108.919 140.908 108.854 141.168 108.725 141.389C108.597 141.61 108.422 141.781 108.197 141.902C107.974 142.021 107.718 142.081 107.43 142.079C107.108 142.078 106.825 142.001 106.582 141.848C106.34 141.695 106.151 141.479 106.016 141.199C105.883 140.919 105.816 140.587 105.818 140.204C105.819 139.916 105.859 139.658 105.937 139.429C106.016 139.198 106.127 139.002 106.269 138.841C106.412 138.679 106.581 138.556 106.775 138.47C106.97 138.385 107.184 138.342 107.417 138.343C107.609 138.344 107.787 138.374 107.953 138.433C108.119 138.49 108.268 138.572 108.397 138.678C108.528 138.783 108.637 138.908 108.724 139.054C108.811 139.199 108.871 139.36 108.903 139.536L108.449 139.534ZM112.567 138.417L112.552 142.053L112.126 142.051L110.156 139.187L110.121 139.187L110.109 142.042L109.668 142.04L109.684 138.403L110.11 138.405L112.086 141.277L112.122 141.277L112.134 138.415L112.567 138.417ZM117.241 138.438L117.681 138.44L117.671 140.848C117.67 141.097 117.61 141.318 117.492 141.513C117.376 141.707 117.211 141.859 116.999 141.971C116.786 142.081 116.537 142.135 116.252 142.134C115.967 142.133 115.719 142.076 115.507 141.964C115.296 141.85 115.132 141.696 115.015 141.502C114.9 141.306 114.843 141.084 114.844 140.835L114.854 138.427L115.295 138.429L115.285 140.801C115.284 140.979 115.322 141.137 115.4 141.276C115.478 141.414 115.588 141.523 115.732 141.603C115.878 141.681 116.052 141.721 116.254 141.722C116.456 141.723 116.63 141.685 116.776 141.607C116.922 141.529 117.034 141.421 117.112 141.284C117.19 141.146 117.23 140.988 117.231 140.81L117.241 138.438ZM118.545 142.081L118.56 138.444L119.789 138.45C120.074 138.451 120.307 138.504 120.488 138.608C120.67 138.71 120.804 138.849 120.891 139.023C120.978 139.198 121.021 139.392 121.02 139.606C121.019 139.82 120.975 140.015 120.886 140.19C120.799 140.365 120.665 140.504 120.483 140.607C120.302 140.709 120.069 140.76 119.786 140.758L118.906 140.754L118.907 140.364L119.774 140.368C119.969 140.368 120.126 140.335 120.245 140.268C120.364 140.202 120.45 140.111 120.503 139.996C120.558 139.88 120.586 139.75 120.587 139.604C120.587 139.459 120.561 139.328 120.507 139.213C120.454 139.098 120.368 139.008 120.249 138.942C120.129 138.875 119.971 138.841 119.773 138.841L118.999 138.837L118.985 142.083L118.545 142.081Z" fill="#E8E8E3"/>
<path d="M100.673 62.9639L88.1992 62.9066L88.1887 65.1954L100.662 65.2528L100.673 62.9639Z" fill="#8B7FF7"/>
<path opacity="0.1" d="M100.673 62.9639L88.1992 62.9066L88.1887 65.1954L100.662 65.2528L100.673 62.9639Z" fill="black"/>
<path d="M137.253 77.0094C137.251 76.9997 137.357 77.0152 137.537 76.9424C137.708 76.8765 137.976 76.6694 138.007 76.2896C138.006 75.516 138.003 74.3917 138.001 72.9482C138.001 72.2211 138 71.4145 138 70.5318C138 70.3106 138 70.0855 138 69.8552C138.006 69.6194 138.006 69.4007 137.864 69.2198C137.737 69.0398 137.518 68.9249 137.29 68.9239C137.042 68.9234 136.788 68.9229 136.531 68.9224C134.467 68.9186 132.119 68.9137 129.525 68.9089C119.134 68.8701 104.795 68.8172 88.9566 68.7585C88.7476 68.757 88.5434 68.8594 88.4221 69.0287C88.2873 69.2004 88.2931 69.4026 88.296 69.6626C88.2941 70.1549 88.2917 70.6453 88.2897 71.1347C88.2854 72.113 88.281 73.0845 88.2771 74.0487C88.2752 74.5313 88.2728 75.0115 88.2703 75.4902C88.2781 75.7197 88.248 75.9942 88.2907 76.1722C88.3387 76.3667 88.4862 76.5316 88.6695 76.6092C88.7651 76.648 88.8543 76.6616 88.9697 76.6606L89.3248 76.6626L90.0324 76.666C90.5034 76.6684 90.9724 76.6708 91.4395 76.6732C95.1747 76.6931 98.778 76.7125 102.211 76.7305C109.074 76.7722 115.255 76.81 120.449 76.8415C125.634 76.8823 129.833 76.9158 132.745 76.9385C134.189 76.9555 135.314 76.9686 136.088 76.9778C136.463 76.9851 136.752 76.9904 136.957 76.9943C137.152 77.0002 137.253 77.0094 137.253 77.0094C137.253 77.0094 137.152 77.0176 136.956 77.0205C136.751 77.0225 136.463 77.0254 136.087 77.0293C135.313 77.0312 134.188 77.0341 132.744 77.0375C129.831 77.0336 125.633 77.0278 120.448 77.021C115.254 77.0045 109.072 76.9851 102.209 76.9638C98.7766 76.9502 95.1733 76.9361 91.4381 76.9216C90.971 76.9196 90.502 76.9177 90.031 76.9158L89.3228 76.9128L88.9678 76.9114C88.8465 76.9138 88.6962 76.8949 88.572 76.8406C88.3183 76.7339 88.1161 76.5069 88.0482 76.2367C88.0099 76.0994 88.0186 75.9607 88.0181 75.8487L88.0196 75.4902C88.0215 75.0115 88.0234 74.5309 88.0254 74.0487C88.0293 73.084 88.0331 72.1125 88.037 71.1347C88.039 70.6458 88.0409 70.1549 88.0428 69.6626C88.0467 69.5365 88.0356 69.4259 88.0555 69.2751C88.0768 69.1334 88.1316 68.9962 88.2175 68.8807C88.3838 68.6465 88.67 68.5034 88.9571 68.5068C104.795 68.5941 119.134 68.6736 129.525 68.7309C132.12 68.7498 134.467 68.7668 136.531 68.7818C136.788 68.7837 137.042 68.7857 137.29 68.7881C137.562 68.7905 137.821 68.9302 137.969 69.1436C138.135 69.3527 138.134 69.6388 138.124 69.8561C138.122 70.0865 138.121 70.3121 138.119 70.5327C138.111 71.4155 138.104 72.2221 138.098 72.9487C138.08 74.3941 138.066 75.5198 138.056 76.2939C138.014 76.6985 137.724 76.9061 137.545 76.9667C137.357 77.0336 137.253 77.0094 137.253 77.0094Z" fill="#E0E0E0"/>
<path d="M114.366 71.8149L91.5488 71.7099L91.539 73.8494L114.356 73.9543L114.366 71.8149Z" fill="#8B7FF7"/>
<path opacity="0.2" d="M114.366 71.8149L91.5488 71.7099L91.539 73.8494L114.356 73.9543L114.366 71.8149Z" fill="white"/>
<path d="M100.585 83.851L88.1113 83.7936L88.1008 86.0825L100.574 86.1399L100.585 83.851Z" fill="#8B7FF7"/>
<path opacity="0.1" d="M100.585 83.851L88.1113 83.7936L88.1008 86.0825L100.574 86.1399L100.585 83.851Z" fill="black"/>
<path d="M136.931 97.8953C136.93 97.8865 137.033 97.8957 137.219 97.8409C137.395 97.7832 137.679 97.6377 137.833 97.2914C137.916 97.1207 137.925 96.9135 137.917 96.6764C137.916 96.4406 137.915 96.1836 137.914 95.9057C137.913 95.3474 137.912 94.7047 137.911 93.983C137.911 93.2588 137.91 92.4547 137.91 91.5753C137.91 91.3551 137.91 91.1305 137.91 90.9011C137.921 90.6693 137.893 90.4544 137.768 90.2609C137.652 90.0707 137.462 89.9199 137.241 89.8525C137.024 89.7836 136.765 89.8209 136.508 89.8108C134.452 89.8069 132.112 89.802 129.526 89.7972C119.171 89.7589 104.881 89.7055 89.0984 89.6473C88.66 89.6366 88.255 89.9941 88.2128 90.4277C88.1982 90.889 88.205 91.3987 88.2002 91.8799C88.1958 92.8543 88.1914 93.8229 88.1875 94.7838C88.1856 95.2644 88.1832 95.7437 88.1812 96.2204C88.1895 96.4586 88.1555 96.7074 88.2118 96.8975C88.2666 97.0983 88.3947 97.2773 88.5659 97.3947C88.7439 97.5145 88.9364 97.5586 89.1692 97.5499L89.875 97.5533C90.3445 97.5557 90.8116 97.5582 91.2772 97.5606C94.9998 97.58 98.5905 97.5994 102.011 97.6173C108.85 97.659 115.01 97.6969 120.186 97.7284C125.353 97.7691 129.536 97.8021 132.439 97.8249C133.878 97.8419 134.999 97.855 135.77 97.8642C136.144 97.8715 136.432 97.8768 136.636 97.8807C136.831 97.886 136.931 97.8953 136.931 97.8953C136.931 97.8953 136.831 97.9035 136.636 97.9064C136.432 97.9084 136.144 97.9113 135.77 97.9151C134.999 97.9171 133.878 97.92 132.438 97.9239C129.536 97.92 125.352 97.9142 120.185 97.9074C115.009 97.8914 108.849 97.872 102.01 97.8506C98.589 97.8371 94.9984 97.823 91.2762 97.8084C90.8106 97.8065 90.3435 97.8046 89.874 97.8026L89.1683 97.7997C88.9311 97.8123 88.6396 97.7551 88.4252 97.6018C88.2055 97.4515 88.0416 97.222 87.9707 96.964C87.8985 96.6924 87.9416 96.4562 87.931 96.2195C87.9329 95.7427 87.9344 95.2635 87.9363 94.7828C87.9402 93.8215 87.9445 92.8534 87.9479 91.8784C87.9538 91.3847 87.9441 90.9161 87.962 90.3976C88.0158 89.8394 88.5368 89.38 89.0994 89.3941C104.882 89.4814 119.172 89.5605 129.526 89.6177C132.112 89.6366 134.451 89.6536 136.508 89.6691C136.762 89.6827 137.019 89.6415 137.281 89.722C137.535 89.8011 137.749 89.9747 137.879 90.192C138.019 90.4049 138.049 90.677 138.035 90.9011C138.033 91.1305 138.031 91.3551 138.029 91.5758C138.022 92.4551 138.014 93.2593 138.008 93.9835C138 94.7057 137.994 95.3479 137.988 95.9061C137.985 96.1841 137.982 96.4411 137.979 96.6764C137.984 96.9077 137.97 97.1371 137.879 97.3122C137.708 97.6726 137.409 97.8143 137.225 97.8657C137.033 97.9137 136.931 97.8953 136.931 97.8953Z" fill="#E0E0E0"/>
<path d="M100.491 105.638L88.0176 105.58L88.007 107.869L100.481 107.927L100.491 105.638Z" fill="#8B7FF7"/>
<path opacity="0.1" d="M100.491 105.638L88.0176 105.58L88.007 107.869L100.481 107.927L100.491 105.638Z" fill="black"/>
<path d="M136.839 119.679C136.839 119.671 136.942 119.68 137.127 119.626C137.303 119.568 137.587 119.422 137.741 119.076C137.824 118.905 137.833 118.698 137.825 118.461C137.824 118.225 137.823 117.968 137.822 117.69C137.821 117.132 137.82 116.489 137.819 115.767C137.819 115.043 137.819 114.239 137.818 113.359C137.818 113.139 137.819 112.914 137.819 112.684C137.829 112.452 137.801 112.238 137.677 112.045C137.56 111.854 137.371 111.704 137.15 111.636C136.933 111.567 136.673 111.605 136.416 111.594C134.36 111.59 132.02 111.585 129.434 111.58C119.079 111.542 104.79 111.489 89.0069 111.431C88.568 111.42 88.1635 111.777 88.1213 112.211C88.1067 112.672 88.1135 113.182 88.1091 113.663C88.1048 114.638 88.1004 115.606 88.0965 116.567C88.0946 117.048 88.0922 117.526 88.0902 118.004C88.0985 118.241 88.064 118.49 88.1203 118.681C88.1751 118.882 88.3032 119.061 88.4744 119.178C88.6524 119.298 88.8449 119.342 89.0777 119.333L89.7835 119.337C90.253 119.339 90.7201 119.341 91.1857 119.344C94.9078 119.364 98.4985 119.383 101.919 119.401C108.759 119.443 114.918 119.48 120.095 119.512C125.261 119.552 129.445 119.585 132.347 119.608C133.787 119.625 134.908 119.639 135.679 119.647C136.053 119.655 136.341 119.66 136.545 119.664C136.739 119.671 136.839 119.679 136.839 119.679C136.839 119.679 136.739 119.688 136.544 119.691C136.34 119.693 136.052 119.695 135.678 119.699C134.907 119.701 133.786 119.704 132.346 119.708C129.444 119.704 125.261 119.698 120.093 119.692C114.917 119.676 108.757 119.656 101.918 119.635C98.4971 119.621 94.9064 119.607 91.1842 119.593C90.7186 119.591 90.2515 119.588 89.782 119.586L89.0763 119.583C88.8391 119.596 88.5476 119.538 88.3332 119.386C88.1135 119.235 87.9496 119.006 87.8788 118.748C87.807 118.476 87.8497 118.239 87.839 118.003C87.8409 117.526 87.8429 117.047 87.8448 116.567C87.8487 115.606 87.8526 114.637 87.8564 113.663C87.8623 113.169 87.8526 112.701 87.8705 112.182C87.9243 111.624 88.4453 111.164 89.0079 111.179C104.791 111.266 119.08 111.345 129.435 111.402C132.02 111.421 134.36 111.438 136.417 111.453C136.67 111.466 136.927 111.426 137.189 111.506C137.443 111.585 137.657 111.759 137.788 111.977C137.927 112.19 137.957 112.462 137.943 112.686C137.941 112.915 137.939 113.14 137.937 113.36C137.93 114.24 137.923 115.044 137.917 115.768C137.909 116.49 137.902 117.133 137.897 117.691C137.893 117.968 137.89 118.226 137.887 118.461C137.891 118.693 137.877 118.922 137.787 119.097C137.616 119.457 137.316 119.599 137.133 119.65C136.942 119.697 136.839 119.679 136.839 119.679Z" fill="#E0E0E0"/>
<path d="M114.279 92.702L91.4609 92.597L91.4511 94.7365L114.269 94.8415L114.279 92.702Z" fill="#8B7FF7"/>
<path opacity="0.2" d="M114.279 92.702L91.4609 92.597L91.4511 94.7365L114.269 94.8415L114.279 92.702Z" fill="white"/>
<path d="M93.5301 115.72C93.5277 116.308 93.079 116.782 92.528 116.779C91.977 116.777 91.5327 116.298 91.5352 115.711C91.5376 115.124 91.9862 114.649 92.5372 114.652C93.0882 114.654 93.5325 115.132 93.5301 115.72Z" fill="#8B7FF7"/>
<path d="M96.6219 115.735C96.6195 116.322 96.1708 116.796 95.6198 116.794C95.0688 116.792 94.6245 116.313 94.627 115.726C94.6294 115.138 95.078 114.664 95.629 114.666C96.18 114.668 96.6243 115.147 96.6219 115.735Z" fill="#8B7FF7"/>
<path d="M99.7117 115.749C99.7093 116.336 99.2607 116.811 98.7097 116.808C98.1587 116.806 97.7144 116.327 97.7168 115.74C97.7192 115.152 98.1679 114.678 98.7189 114.68C99.2694 114.683 99.7142 115.161 99.7117 115.749Z" fill="#8B7FF7"/>
<path d="M102.803 115.763C102.801 116.35 102.352 116.825 101.801 116.822C101.25 116.82 100.806 116.342 100.809 115.754C100.811 115.166 101.26 114.692 101.811 114.694C102.361 114.697 102.806 115.175 102.803 115.763Z" fill="#8B7FF7"/>
<path d="M105.894 115.777C105.891 116.365 105.443 116.839 104.892 116.836C104.341 116.834 103.896 116.356 103.898 115.768C103.901 115.18 104.35 114.706 104.901 114.708C105.452 114.711 105.896 115.19 105.894 115.777Z" fill="#8B7FF7"/>
<path d="M108.985 115.791C108.983 116.379 108.534 116.854 107.983 116.851C107.432 116.848 106.988 116.37 106.99 115.783C106.993 115.195 107.441 114.721 107.992 114.723C108.543 114.725 108.988 115.204 108.985 115.791Z" fill="#8B7FF7"/>
<path d="M112.077 115.806C112.074 116.393 111.625 116.868 111.075 116.865C110.524 116.862 110.08 116.384 110.082 115.797C110.084 115.209 110.533 114.735 111.084 114.737C111.634 114.74 112.079 115.218 112.077 115.806Z" fill="#8B7FF7"/>
<path d="M115.168 115.82C115.166 116.407 114.717 116.882 114.167 116.879C113.616 116.877 113.171 116.399 113.174 115.811C113.176 115.224 113.625 114.749 114.175 114.752C114.726 114.754 115.171 115.232 115.168 115.82Z" fill="#8B7FF7"/>
<path d="M118.259 115.835C118.256 116.422 117.808 116.896 117.257 116.894C116.706 116.892 116.261 116.413 116.264 115.825C116.267 115.238 116.715 114.764 117.266 114.766C117.817 114.768 118.261 115.247 118.259 115.835Z" fill="#8B7FF7"/>
<g opacity="0.2">
<path d="M93.5301 115.72C93.5277 116.308 93.079 116.782 92.528 116.779C91.977 116.777 91.5327 116.298 91.5352 115.711C91.5376 115.124 91.9862 114.649 92.5372 114.652C93.0882 114.654 93.5325 115.132 93.5301 115.72Z" fill="white"/>
<path d="M96.6219 115.735C96.6195 116.322 96.1708 116.796 95.6198 116.794C95.0688 116.792 94.6245 116.313 94.627 115.726C94.6294 115.138 95.078 114.664 95.629 114.666C96.18 114.668 96.6243 115.147 96.6219 115.735Z" fill="white"/>
<path d="M99.7117 115.749C99.7093 116.336 99.2607 116.811 98.7097 116.808C98.1587 116.806 97.7144 116.327 97.7168 115.74C97.7192 115.152 98.1679 114.678 98.7189 114.68C99.2694 114.683 99.7142 115.161 99.7117 115.749Z" fill="white"/>
<path d="M102.803 115.763C102.801 116.35 102.352 116.825 101.801 116.822C101.25 116.82 100.806 116.342 100.809 115.754C100.811 115.166 101.26 114.692 101.811 114.694C102.361 114.697 102.806 115.175 102.803 115.763Z" fill="white"/>
<path d="M105.894 115.777C105.891 116.365 105.443 116.839 104.892 116.836C104.341 116.834 103.896 116.356 103.898 115.768C103.901 115.18 104.35 114.706 104.901 114.708C105.452 114.711 105.896 115.19 105.894 115.777Z" fill="white"/>
<path d="M108.985 115.791C108.983 116.379 108.534 116.854 107.983 116.851C107.432 116.848 106.988 116.37 106.99 115.783C106.993 115.195 107.441 114.721 107.992 114.723C108.543 114.725 108.988 115.204 108.985 115.791Z" fill="white"/>
<path d="M112.077 115.806C112.074 116.393 111.625 116.868 111.075 116.865C110.524 116.862 110.08 116.384 110.082 115.797C110.084 115.209 110.533 114.735 111.084 114.737C111.634 114.74 112.079 115.218 112.077 115.806Z" fill="white"/>
<path d="M115.168 115.82C115.166 116.407 114.717 116.882 114.167 116.879C113.616 116.877 113.171 116.399 113.174 115.811C113.176 115.224 113.625 114.749 114.175 114.752C114.726 114.754 115.171 115.232 115.168 115.82Z" fill="white"/>
<path d="M118.259 115.835C118.256 116.422 117.808 116.896 117.257 116.894C116.706 116.892 116.261 116.413 116.264 115.825C116.267 115.238 116.715 114.764 117.266 114.766C117.817 114.768 118.261 115.247 118.259 115.835Z" fill="white"/>
</g>
<path d="M113.867 45.8121C114.52 45.5381 114.985 44.8653 114.988 44.0723C114.993 43.0334 114.207 42.1875 113.232 42.1826C112.258 42.1783 111.465 43.0169 111.461 44.0558C111.457 44.8561 111.925 45.5376 112.585 45.8121C109.87 46.221 109.993 49.1715 109.993 49.1715L116.412 49.201C116.412 49.201 116.558 46.2186 113.867 45.8121Z" fill="#8B7FF7"/>
<path opacity="0.1" d="M113.867 45.8121C114.52 45.5381 114.985 44.8653 114.988 44.0723C114.993 43.0334 114.207 42.1875 113.232 42.1826C112.258 42.1783 111.465 43.0169 111.461 44.0558C111.457 44.8561 111.925 45.5376 112.585 45.8121C109.87 46.221 109.993 49.1715 109.993 49.1715L116.412 49.201C116.412 49.201 116.558 46.2186 113.867 45.8121Z" fill="black"/>
<path d="M124.3 51.131L101.41 51.0257L101.398 53.7627L124.288 53.868L124.3 51.131Z" fill="#8B7FF7"/>
<path opacity="0.2" d="M124.3 51.131L101.41 51.0257L101.398 53.7627L124.288 53.868L124.3 51.131Z" fill="white"/>
<path d="M40.1521 65.2964C40.1521 65.3012 40.0754 65.3095 39.927 65.3216C39.7665 65.3332 39.5477 65.3492 39.2669 65.3696C38.9754 65.3745 38.6208 65.438 38.2027 65.5117C37.9947 65.5539 37.7648 65.5709 37.53 65.6403C37.2943 65.7057 37.0435 65.7751 36.7782 65.8488C35.7315 66.1791 34.4709 66.7039 33.2016 67.6231C31.9357 68.5349 30.6692 69.8392 29.6822 71.5407C29.1632 72.3769 28.7868 73.3426 28.4488 74.3577C28.1737 75.3908 27.9303 76.4885 27.9118 77.6453C27.8604 78.222 27.9186 78.8079 27.9429 79.4035C27.9584 79.7013 28.0224 79.9962 28.0607 80.2964C28.1015 80.5967 28.1456 80.8984 28.231 81.1947C28.4764 82.4005 28.9677 83.5825 29.5891 84.7151C30.8312 86.9889 32.9188 88.948 35.4967 90.0834C36.7864 90.6524 38.2124 90.9594 39.6627 91.019C41.1144 91.1112 42.6015 90.8779 44.011 90.3933L44.4373 90.2367L44.4936 90.2163L44.5445 90.242C46.6316 91.3018 48.6784 92.3407 50.6617 93.3477L50.4798 93.5029C49.8265 91.4754 49.1935 89.5101 48.5858 87.6238L48.5625 87.5511L48.6164 87.4972C50.1583 85.9534 51.2326 84.0778 51.8282 82.1575C52.4253 80.2315 52.5272 78.27 52.2943 76.4725C52.0615 74.6711 51.4727 73.0331 50.6874 71.6546C49.9027 70.2723 48.9268 69.1495 47.9252 68.2725C46.912 67.4019 45.8614 66.8121 44.9199 66.3605C43.9557 65.957 43.0962 65.6985 42.3818 65.5607C42.0248 65.4996 41.7071 65.4458 41.4301 65.3987C41.1556 65.3793 40.9218 65.3633 40.7283 65.3497C40.5479 65.3357 40.4057 65.325 40.2981 65.3167C40.2016 65.3066 40.1521 65.3003 40.1521 65.2964C40.1521 65.293 40.2016 65.292 40.2986 65.2935C40.4062 65.2964 40.5488 65.3007 40.7302 65.3056C40.9247 65.3134 41.1605 65.3231 41.4369 65.3342C41.7163 65.3759 42.0369 65.4235 42.3973 65.4773C43.119 65.6034 43.9896 65.8513 44.9689 66.248C45.9244 66.6928 46.9934 67.2797 48.0266 68.1527C49.048 69.0316 50.0448 70.1632 50.8494 71.5606C51.6541 72.954 52.2614 74.6143 52.5058 76.4434C52.7503 78.268 52.6542 80.2625 52.0528 82.2245C51.4528 84.1806 50.3634 86.095 48.7939 87.6723L48.8244 87.5457C49.4346 89.4306 50.071 91.3954 50.7272 93.4219L50.8233 93.7182L50.5453 93.5776C48.5611 92.5716 46.5142 91.5341 44.4262 90.4753L44.5334 90.4807L44.0978 90.6407C42.6568 91.1364 41.1357 91.3736 39.652 91.2795C38.1702 91.2179 36.7122 90.9021 35.3954 90.3191C32.7621 89.1565 30.6382 87.1524 29.3786 84.8329C28.748 83.6776 28.2528 82.4723 28.0059 81.2447C27.9206 80.943 27.8769 80.636 27.8362 80.3304C27.7983 80.0253 27.7348 79.7246 27.7198 79.4219C27.697 78.8166 27.6402 78.2205 27.695 77.6351C27.7188 76.4599 27.9705 75.3452 28.2557 74.2981C28.604 73.2688 28.992 72.2915 29.5231 71.4461C30.5344 69.7267 31.8275 68.4146 33.1172 67.5033C34.4098 66.5846 35.6898 66.0685 36.7501 65.7504C37.0183 65.6805 37.2724 65.6141 37.5111 65.552C37.7483 65.486 37.9806 65.4724 38.1906 65.4346C38.6131 65.3682 38.9701 65.3129 39.2635 65.3167C39.5458 65.307 39.766 65.3003 39.9275 65.2944C40.0759 65.2915 40.1521 65.292 40.1521 65.2964Z" fill="#F03A89"/>
<path d="M42.9175 76.6214H42.0211L40.065 73.895V72.1057C40.065 72.1057 38.6797 72.0204 38.8422 74.3636C39.0052 76.7067 38.8291 76.1102 38.8291 76.1102C38.8291 76.1102 35.8874 76.1213 35.643 76.3769C35.4649 76.5627 35.3849 79.485 35.3539 81.0696C35.3384 81.8675 35.8278 82.6096 36.5698 82.7983C36.6751 82.8254 36.7818 82.8409 36.8866 82.8409C37.6204 82.8409 41.3692 82.2443 41.3692 82.2443H42.9175V76.6214Z" fill="#F03A89"/>
<path d="M45.4826 76.13L44.9316 82.2608H43.3965V76.2537L45.4826 76.13Z" fill="#F03A89"/>
<path d="M63.7671 200.942V196.792L56.3311 196.742L56.2695 203.011L56.7303 203.046C58.7815 203.178 67.1687 203.371 68.5428 202.946C70.0759 202.472 63.7671 200.942 63.7671 200.942Z" fill="#DB7184"/>
<path d="M68.719 202.557C68.719 202.627 65.9373 202.683 62.5072 202.683C59.0756 202.683 56.2949 202.627 56.2949 202.557C56.2949 202.487 59.0756 202.431 62.5072 202.431C65.9373 202.431 68.719 202.487 68.719 202.557Z" fill="#0C0E3A"/>
<path d="M63.8979 201.789C63.8367 201.757 63.8891 201.538 64.0487 201.321C64.2078 201.105 64.4023 200.989 64.4508 201.038C64.5007 201.088 64.3989 201.27 64.2519 201.471C64.105 201.671 63.9604 201.822 63.8979 201.789Z" fill="#0C0E3A"/>
<path d="M64.3712 202.063C64.3067 202.038 64.3402 201.792 64.4862 201.534C64.6317 201.274 64.8252 201.119 64.879 201.161C64.9348 201.205 64.8412 201.416 64.7059 201.658C64.5705 201.898 64.4376 202.088 64.3712 202.063Z" fill="#0C0E3A"/>
<path d="M58.5343 202.538C58.5052 202.559 58.3946 202.45 58.2336 202.267C58.0716 202.086 57.8597 201.83 57.5812 201.614C57.3053 201.398 57.0011 201.29 56.7766 201.262C56.5506 201.232 56.4021 201.267 56.3895 201.231C56.3764 201.204 56.5147 201.1 56.7829 201.084C57.0467 201.066 57.4197 201.166 57.7355 201.414C58.0493 201.658 58.2501 201.95 58.3777 202.162C58.5047 202.375 58.562 202.519 58.5343 202.538Z" fill="#0C0E3A"/>
<path d="M63.9201 201.009C63.9565 201.068 63.8289 201.212 63.6165 201.289C63.4045 201.368 63.2134 201.34 63.2037 201.272C63.1926 201.203 63.3434 201.122 63.5292 201.053C63.7154 200.984 63.8832 200.949 63.9201 201.009Z" fill="#0C0E3A"/>
<path d="M63.8042 200.608C63.811 200.678 63.6126 200.737 63.3619 200.74C63.1106 200.744 62.9108 200.69 62.9161 200.62C62.921 200.55 63.1189 200.491 63.3585 200.488C63.5976 200.485 63.7974 200.539 63.8042 200.608Z" fill="#0C0E3A"/>
<path d="M82.0772 200.942L82.0777 196.792L74.6417 196.742L74.5801 202.948L75.0409 202.982C77.0921 203.114 85.4792 203.371 86.8538 202.946C88.3865 202.472 82.0772 200.942 82.0772 200.942Z" fill="#DB7184"/>
<path d="M87.0295 202.566C87.0295 202.636 84.2484 202.693 80.8177 202.693C77.3862 202.693 74.6055 202.636 74.6055 202.566C74.6055 202.497 77.3862 202.44 80.8177 202.44C84.2479 202.44 87.0295 202.497 87.0295 202.566Z" fill="#0C0E3A"/>
<path d="M82.2084 201.789C82.1473 201.757 82.1997 201.538 82.3597 201.321C82.5188 201.105 82.7133 200.989 82.7618 201.038C82.8118 201.088 82.7099 201.27 82.5629 201.471C82.4155 201.671 82.2705 201.822 82.2084 201.789Z" fill="#0C0E3A"/>
<path d="M82.6817 202.063C82.6172 202.038 82.6507 201.792 82.7967 201.534C82.9422 201.274 83.1357 201.119 83.1896 201.161C83.2453 201.205 83.1517 201.416 83.0169 201.658C82.8811 201.898 82.7477 202.088 82.6817 202.063Z" fill="#0C0E3A"/>
<path d="M76.8449 202.538C76.8158 202.559 76.7052 202.45 76.5442 202.267C76.3826 202.086 76.1702 201.83 75.8918 201.614C75.6158 201.398 75.3122 201.29 75.0871 201.262C74.8611 201.232 74.7127 201.267 74.7001 201.231C74.687 201.204 74.8252 201.1 75.0929 201.084C75.3568 201.066 75.7303 201.166 76.0455 201.414C76.3598 201.658 76.5597 201.95 76.6877 202.162C76.8158 202.375 76.873 202.519 76.8449 202.538Z" fill="#0C0E3A"/>
<path d="M82.2306 201.009C82.267 201.068 82.1395 201.212 81.9275 201.289C81.7151 201.368 81.5244 201.34 81.5143 201.272C81.5031 201.203 81.6539 201.122 81.8397 201.053C82.026 200.984 82.1938 200.949 82.2306 201.009Z" fill="#0C0E3A"/>
<path d="M82.1147 200.608C82.1215 200.678 81.9232 200.737 81.6724 200.74C81.4211 200.744 81.2218 200.69 81.2266 200.62C81.2315 200.55 81.4299 200.491 81.6695 200.488C81.9086 200.485 82.108 200.539 82.1147 200.608Z" fill="#0C0E3A"/>
<path d="M109.471 77.7946C109.277 77.5948 108.8 77.6889 108.8 77.6889C108.8 77.6889 108.883 77.1219 108.795 76.8478C108.707 76.5738 108.096 76.6267 108.096 76.6267C108.096 76.6267 108.058 76.3628 108.112 75.937C108.125 75.8303 108.066 75.7517 107.969 75.693C107.68 75.5179 107.056 75.5261 107.056 75.5261C106.681 75.2584 108.196 73.1398 108.758 72.4617C109.313 71.7919 109.22 71.255 108.719 71.2559C108.377 71.2564 106.608 73.2931 106.069 73.9769C105.529 74.6604 104.082 76.5622 104.033 75.0445C103.983 73.5268 103.374 72.3788 102.992 72.1833C102.611 71.9878 102.2 72.4467 102.411 72.8682C102.582 73.2087 102.689 73.8649 102.75 74.3611C102.801 74.7705 102.784 75.1856 102.695 75.5877C102.442 76.7246 102.169 77.4629 102.042 77.7786L102.004 77.7578C102.004 77.7578 91.4177 87.909 90.6548 88.6336C89.9679 89.2855 76.2115 87.8624 73.4555 87.5699C72.7023 87.4855 71.5867 87.3342 70.6201 87.3769C69.4245 87.4293 69.212 87.599 68.0154 87.6151C64.3515 87.664 61.2982 88.0205 59.0259 88.4052C56.2787 88.8698 54.0262 90.8255 53.1759 93.4791C50.3943 102.16 44.1015 122.711 42.9801 134.257C42.0968 135.917 41.1098 137.857 40.7087 138.948C39.9292 141.07 40.1184 141.143 40.3813 141.192C41.0865 141.322 41.8936 137.511 42.1948 138.431C42.4965 139.351 40.666 142.977 41.4086 143.083C42.3767 143.221 43.1484 139.217 43.2386 138.882C43.3264 138.558 43.8148 138.667 43.7173 138.965C43.5767 139.392 42.2118 143.917 43.1615 144.062C43.6877 144.143 43.7445 143.184 43.7445 143.184C43.7445 143.184 44.7097 138.856 45.1554 138.94C45.6085 139.024 45.1273 141.584 44.9037 142.436C44.683 143.278 44.9939 143.725 45.4479 143.513C45.7574 143.369 46.5028 140.776 46.7037 139.929C46.9049 139.081 47.4147 136.747 48.0996 138.102C48.7844 139.457 49.821 140.241 50.2492 140.258C50.677 140.274 50.8565 139.685 50.4874 139.392C50.1891 139.155 49.8146 138.605 49.5498 138.181C49.3316 137.831 49.1715 137.448 49.0832 137.045C48.7422 135.493 48.7451 134.59 48.7451 134.59L48.6661 134.092C49.7521 128.711 52.883 112.926 57.3802 102.841L59.232 106.652L60.0357 109.473L55.1005 121.666L76.1572 121.389L73.0181 109.293L76.8319 96.6793H76.8314C80.959 96.7715 91.5603 96.9252 93.3418 96.1288C95.5628 95.1364 107.058 80.6466 107.058 80.6466H107.057C107.834 80.0282 108.623 79.3632 109.206 78.7826C109.207 78.7817 109.892 78.2273 109.471 77.7946Z" fill="#FFBE9D"/>
<path d="M54.184 112.689C54.7937 110.604 57.9328 100.293 57.9328 100.293C57.9328 100.293 59.4733 108.699 59.0683 109.711C58.6017 110.878 57.7441 112.212 57.7441 112.212C54.184 117.635 54.6511 120.344 54.6511 120.344L76.1574 119.689C76.2098 116.681 74.4292 109.688 74.0572 108.574C73.6847 107.46 74.9196 103.803 74.9196 103.803C74.9196 103.803 77.3501 101.335 77.256 100.065C77.0663 97.5058 76.832 96.6793 76.832 96.6793L89.9182 97.1609L89.5069 88.2815L70.6959 86.399C70.045 88.2514 64.1213 87.3439 64.1213 87.3439C57.7262 87.5539 57.3391 88.7301 54.6719 90.7949C52.0052 92.8597 47.6133 110.593 47.6133 110.593L54.184 112.689Z" fill="#F44E66"/>
<path d="M66.9033 110.591C66.9028 110.625 66.4701 110.654 65.7697 110.649C65.0698 110.644 64.1022 110.601 63.039 110.494C61.9753 110.387 61.0189 110.237 60.3316 110.102C59.6448 109.967 59.2262 109.853 59.2325 109.82C59.2393 109.784 59.6685 109.836 60.3602 109.926C61.0518 110.015 62.0064 110.136 63.0642 110.243C64.1216 110.349 65.081 110.42 65.7765 110.47C66.4726 110.521 66.9037 110.555 66.9033 110.591Z" fill="#0C0E3A"/>
<path d="M68.3743 108.762C68.3835 108.793 67.9397 108.962 67.2 109.163C66.4609 109.363 65.4224 109.585 64.2603 109.723C63.0976 109.861 62.0359 109.889 61.2701 109.867C60.5037 109.845 60.0332 109.784 60.0352 109.753C60.0366 109.716 60.509 109.712 61.2696 109.688C62.0301 109.665 63.0787 109.609 64.2302 109.473C65.3807 109.335 66.4138 109.144 67.1588 108.989C67.9038 108.834 68.3641 108.726 68.3743 108.762Z" fill="#0C0E3A"/>
<path d="M75.6092 100.604C75.6427 100.611 75.5874 101.03 75.4623 101.701C75.3371 102.372 75.1407 103.293 74.8928 104.304C74.6445 105.315 74.3928 106.224 74.1934 106.876C73.9941 107.529 73.8495 107.926 73.8161 107.917C73.7821 107.907 73.866 107.494 74.0208 106.83C74.2041 106.073 74.4151 105.204 74.6474 104.244C74.8851 103.286 75.1004 102.419 75.2881 101.663C75.4574 101.002 75.5748 100.596 75.6092 100.604Z" fill="#0C0E3A"/>
<path d="M54.4089 111.453C54.3904 111.521 52.9072 111.175 51.0961 110.681C49.2845 110.186 47.8314 109.731 47.8498 109.664C47.8682 109.596 49.351 109.942 51.1625 110.437C52.9737 110.931 54.4273 111.386 54.4089 111.453Z" fill="#0C0E3A"/>
<path d="M77.069 96.5653C77.069 96.5769 76.8696 96.5978 76.5122 96.5624C76.1566 96.526 75.6362 96.4431 75.0333 96.2098C74.4299 95.9837 73.7441 95.6059 73.1034 95.0345C72.4626 94.4656 71.8898 93.6827 71.5246 92.7617C71.1535 91.8411 71.0318 90.8817 71.09 90.0275C71.1463 89.1749 71.3723 88.4041 71.754 87.8643C72.1319 87.3172 72.6329 87.0524 72.9816 86.9607C73.1582 86.9136 73.3008 86.9025 73.3958 86.9049C73.4914 86.9073 73.5404 86.918 73.5404 86.9258C73.5414 86.9495 73.3391 86.9384 73.0112 87.0543C72.6892 87.1697 72.2361 87.4418 71.9024 87.9642C71.2423 89.0022 71.058 90.8972 71.7598 92.6685C72.1115 93.5542 72.6523 94.306 73.2605 94.8628C73.8683 95.4221 74.5221 95.8038 75.1003 96.0444C76.2653 96.5274 77.0777 96.5114 77.069 96.5653Z" fill="#0C0E3A"/>
<path d="M88.3755 96.9834C88.3061 96.9834 88.2533 94.9821 88.2581 92.5138C88.263 90.0445 88.3236 88.0443 88.393 88.0443C88.4628 88.0447 88.5152 90.0455 88.5103 92.5143C88.506 94.9826 88.4453 96.9839 88.3755 96.9834Z" fill="#0C0E3A"/>
<path d="M70.5819 86.9399C70.6348 85.8573 70.7483 84.6345 70.7483 84.6345C70.7483 84.6345 73.4247 84.3396 73.5872 81.5745C73.7496 78.8093 73.5872 72.4336 73.5872 72.4336L68.7121 69.9512L63.3496 74.1831L64.162 88.0069L69.0963 88.3208C69.8742 88.3702 70.5421 87.7504 70.5819 86.9399Z" fill="#FFBE9D"/>
<path d="M71.0642 79.3875C71.072 79.3894 71.0725 79.4393 71.022 79.5063C70.9726 79.5713 70.8644 79.645 70.714 79.6421C70.4031 79.6271 70.1044 79.2837 69.9942 78.8646C69.939 78.6517 69.9394 78.4358 69.9812 78.2501C70.0141 78.0672 70.1199 77.8834 70.2722 77.8334C70.3449 77.8062 70.4206 77.8092 70.4783 77.8383C70.5351 77.8669 70.57 77.91 70.5879 77.9498C70.6243 78.0323 70.5962 78.0822 70.5889 78.0784C70.5777 78.0779 70.5807 78.0323 70.5399 77.9804C70.5016 77.9275 70.4104 77.8795 70.3095 77.9319C70.2067 77.9784 70.1364 78.1099 70.1102 78.2782C70.0796 78.445 70.0835 78.6366 70.1325 78.8263C70.2295 79.2017 70.49 79.5092 70.7213 79.5368C70.8358 79.5514 70.9308 79.5073 70.9823 79.4655C71.0356 79.4219 71.054 79.3826 71.0642 79.3875Z" fill="#EB996E"/>
<path d="M75.2492 70.9411C74.8767 69.6684 73.5235 69.0359 72.2905 68.6867C70.4149 68.1551 68.3831 67.9199 66.5507 68.5945C64.7182 69.2692 62.5142 70.4561 62.5147 72.4806C61.4331 72.3914 60.8152 73.3391 60.3859 74.5134C60.1323 75.207 59.9654 75.9791 59.9261 76.744L59.9082 76.7382C59.769 79.3879 59.0308 83.0388 57.3128 84.9988C56.3641 86.0809 54.9982 86.8283 54.4453 88.1762C53.9646 89.3476 54.2134 90.7318 53.759 91.9143C53.3578 92.9581 52.4697 93.6993 51.8329 94.6072C50.4462 96.5852 50.3516 99.3795 51.3707 101.587C52.3897 103.794 54.4089 105.409 56.6502 106.15C58.8916 106.89 61.3332 106.808 63.6143 106.215C65.2983 105.776 66.9368 105.05 68.2788 103.903C69.6209 102.756 70.6507 101.162 70.9577 99.3819C71.2991 97.4005 70.7447 95.3886 70.3368 93.4209C69.0466 87.1955 69.4153 86.872 71.0435 81.0972C71.0804 80.9953 71.1032 80.8891 71.1313 80.7843C71.1527 80.7077 71.1735 80.6345 71.1953 80.5559L71.1919 80.5549C71.2375 80.3289 71.2671 80.099 71.2681 79.8642C70.7966 80.05 70.2272 79.9263 69.8654 79.5606C69.504 79.1949 69.3692 78.6051 69.5336 78.1089C69.7228 77.538 70.2466 77.1568 70.7845 76.9303C71.3224 76.7038 71.9011 76.5917 72.4293 76.341C73.5492 75.8079 74.3257 74.702 74.8539 73.5433C75.225 72.7309 75.501 71.8006 75.2492 70.9411Z" fill="#0C0E3A"/>
<path d="M71.2552 79.5053C71.2722 79.4981 71.3663 79.6785 71.5104 79.9846C71.6544 80.2906 71.8475 80.7228 72.0623 81.2194L72.1026 81.3135L71.9998 81.3223C71.8382 81.3363 71.6748 81.3504 71.506 81.3649C71.1674 81.3868 70.8851 81.4275 70.5573 81.4241C70.5054 81.4149 70.4477 81.3674 70.4321 81.314C70.4147 81.2616 70.4195 81.2175 70.4249 81.1792C70.4389 81.103 70.4559 81.0468 70.4704 80.9823L70.5563 80.6389C70.6635 80.2198 70.7401 79.9627 70.7605 79.9676C70.7809 79.9724 70.7411 80.2377 70.6606 80.6621L70.5932 81.0089C70.5684 81.1263 70.5257 81.3014 70.5888 81.2878C70.8303 81.2776 71.1742 81.2374 71.4934 81.2136C71.6622 81.2 71.8256 81.1874 71.9871 81.1743L71.9251 81.2772C71.7175 80.7781 71.5414 80.3381 71.4211 80.0219C71.3023 79.7061 71.2383 79.5126 71.2552 79.5053Z" fill="#F03A89"/>
<path d="M54.6516 120.345L76.1579 119.689L85.5117 156.231L83.7888 198.147H72.4056L73.8161 157.123L65.4969 131.685L66.7788 199.772L55.2865 199.942L54.0758 135.943C54.0254 134.164 53.44 130.151 53.6577 128.386L54.6516 120.345Z" fill="#0C0E3A"/>
<path d="M68.3612 132.202C68.3568 132.235 67.9533 132.215 67.3062 132.139C66.6592 132.063 65.7692 131.926 64.7943 131.731C63.8194 131.534 62.9458 131.316 62.3196 131.135C61.6935 130.955 61.3137 130.819 61.3224 130.785C61.3418 130.715 62.9031 131.094 64.8442 131.483C66.7839 131.875 68.3704 132.129 68.3612 132.202Z" fill="#2E3190"/>
<path d="M83.6851 195.847C83.6851 195.918 81.1076 195.974 77.9297 195.974C74.7503 195.974 72.1738 195.918 72.1738 195.847C72.1738 195.778 74.7503 195.721 77.9297 195.721C81.1076 195.722 83.6851 195.778 83.6851 195.847Z" fill="#2E3190"/>
<path d="M66.6757 198.003C66.6757 198.073 64.1758 198.129 61.092 198.129C58.0077 198.129 55.5078 198.073 55.5078 198.003C55.5078 197.933 58.0077 197.877 61.092 197.877C64.1758 197.877 66.6757 197.933 66.6757 198.003Z" fill="#2E3190"/>
<path d="M65.1961 197.828C65.1263 197.829 64.8241 182.951 64.521 164.602C64.2178 146.246 64.0286 131.369 64.0985 131.368C64.1683 131.367 64.4705 146.242 64.7737 164.598C65.0768 182.947 65.266 197.827 65.1961 197.828Z" fill="#2E3190"/>
<path d="M82.1565 195.847C82.1521 195.847 82.1507 195.78 82.1512 195.649C82.1536 195.506 82.1575 195.314 82.1618 195.068C82.1769 194.544 82.1987 193.794 82.2263 192.835C82.2942 190.883 82.3913 188.081 82.5115 184.623C82.7769 177.679 83.1431 168.107 83.5476 157.534C83.5514 157.437 83.5553 157.339 83.5587 157.249L83.5626 157.285C81.0138 147.078 78.7099 137.853 77.0394 131.165C76.2197 127.833 75.5557 125.133 75.093 123.252C74.8708 122.328 74.6977 121.605 74.5764 121.099C74.5221 120.862 74.4799 120.676 74.4484 120.538C74.4207 120.411 74.4086 120.346 74.413 120.345C74.4169 120.344 74.4372 120.408 74.4731 120.532C74.5105 120.669 74.5609 120.853 74.6254 121.088C74.7578 121.591 74.9465 122.31 75.1881 123.229C75.6692 125.105 76.3594 127.798 77.2116 131.122C78.9005 137.806 81.2301 147.025 83.8071 157.224L83.8114 157.241L83.8109 157.26C83.8075 157.349 83.8032 157.447 83.7998 157.545C83.3667 168.116 82.9743 177.686 82.6895 184.631C82.5358 188.086 82.4111 190.887 82.3243 192.839C82.2758 193.798 82.2385 194.547 82.2123 195.071C82.1972 195.316 82.1856 195.508 82.1769 195.651C82.1677 195.781 82.1609 195.848 82.1565 195.847Z" fill="#2E3190"/>
<path d="M78.4473 156.396C78.4589 156.465 77.3332 156.715 75.9324 156.956C74.8867 157.136 73.9836 157.259 73.5892 157.282L73.5887 157.183C73.7197 157.219 73.79 157.247 73.7871 157.265C73.7847 157.282 73.7086 157.287 73.5732 157.282L73.2793 157.269L73.5727 157.183C73.952 157.072 74.8445 156.887 75.8902 156.708C77.29 156.467 78.4352 156.327 78.4473 156.396Z" fill="#2E3190"/>
<path d="M78.228 157.791C78.2183 157.861 77.208 157.783 75.9639 157.688C74.7198 157.59 73.7095 157.51 73.7109 157.439C73.7124 157.37 74.7314 157.337 75.9838 157.435C77.2352 157.532 78.2373 157.723 78.228 157.791Z" fill="#2E3190"/>
<path opacity="0.2" d="M54.5566 121.117C55.0766 121.849 55.8182 122.105 56.6801 122.246C57.5415 122.387 58.4209 122.293 59.2881 122.197C64.8393 121.581 70.7218 121.013 76.1585 119.688C69.1212 120.083 61.6895 119.95 54.6522 120.344C54.6522 120.344 54.592 120.828 54.578 120.944" fill="black"/>
<g opacity="0.2">
<path d="M61.8105 131.036L65.7752 146.428L65.4978 131.685L61.8105 131.036Z" fill="black"/>
</g>
</svg>
